%TF.GenerationSoftware,KiCad,Pcbnew,(5.1.0)-1*%
%TF.CreationDate,2019-09-28T12:36:14+02:00*%
%TF.ProjectId,KicadJE_AteOhAte,4b696361-644a-4455-9f41-74654f684174,rev?*%
%TF.SameCoordinates,Original*%
%TF.FileFunction,Paste,Top*%
%TF.FilePolarity,Positive*%
%FSLAX46Y46*%
G04 Gerber Fmt 4.6, Leading zero omitted, Abs format (unit mm)*
G04 Created by KiCad (PCBNEW (5.1.0)-1) date 2019-09-28 12:36:14*
%MOMM*%
%LPD*%
G04 APERTURE LIST*
%ADD10C,1.000000*%
%ADD11C,0.050000*%
%ADD12C,0.150000*%
%ADD13C,2.500000*%
G04 APERTURE END LIST*
D10*
X149750000Y-50500000D02*
X149750000Y-54000000D01*
X99000000Y-50500000D02*
X99000000Y-54000000D01*
X99000000Y-54000000D02*
X149750000Y-54000000D01*
X99000000Y-50500000D02*
X149750000Y-50500000D01*
X99000000Y-146000000D02*
X149500000Y-146000000D01*
X99000000Y-149500000D02*
X149500000Y-149500000D01*
X149500000Y-146000000D02*
X149500000Y-149500000D01*
X99000000Y-146000000D02*
X99000000Y-149500000D01*
X99000000Y-59000000D02*
X100000000Y-59000000D01*
X99000000Y-139000000D02*
X100000000Y-139000000D01*
X100000000Y-59000000D02*
X100000000Y-139000000D01*
X99000000Y-59000000D02*
X99000000Y-139000000D01*
D11*
X50000000Y-150000000D02*
X50000000Y-50000000D01*
X150000000Y-150000000D02*
X50000000Y-150000000D01*
X150000000Y-50000000D02*
X150000000Y-150000000D01*
X50000000Y-50000000D02*
X150000000Y-50000000D01*
D12*
G36*
X131024504Y-70551204D02*
G01*
X131048773Y-70554804D01*
X131072571Y-70560765D01*
X131095671Y-70569030D01*
X131117849Y-70579520D01*
X131138893Y-70592133D01*
X131158598Y-70606747D01*
X131176777Y-70623223D01*
X131193253Y-70641402D01*
X131207867Y-70661107D01*
X131220480Y-70682151D01*
X131230970Y-70704329D01*
X131239235Y-70727429D01*
X131245196Y-70751227D01*
X131248796Y-70775496D01*
X131250000Y-70800000D01*
X131250000Y-74300000D01*
X131248796Y-74324504D01*
X131245196Y-74348773D01*
X131239235Y-74372571D01*
X131230970Y-74395671D01*
X131220480Y-74417849D01*
X131207867Y-74438893D01*
X131193253Y-74458598D01*
X131176777Y-74476777D01*
X131158598Y-74493253D01*
X131138893Y-74507867D01*
X131117849Y-74520480D01*
X131095671Y-74530970D01*
X131072571Y-74539235D01*
X131048773Y-74545196D01*
X131024504Y-74548796D01*
X131000000Y-74550000D01*
X129000000Y-74550000D01*
X128975496Y-74548796D01*
X128951227Y-74545196D01*
X128927429Y-74539235D01*
X128904329Y-74530970D01*
X128882151Y-74520480D01*
X128861107Y-74507867D01*
X128841402Y-74493253D01*
X128823223Y-74476777D01*
X128806747Y-74458598D01*
X128792133Y-74438893D01*
X128779520Y-74417849D01*
X128769030Y-74395671D01*
X128760765Y-74372571D01*
X128754804Y-74348773D01*
X128751204Y-74324504D01*
X128750000Y-74300000D01*
X128750000Y-70800000D01*
X128751204Y-70775496D01*
X128754804Y-70751227D01*
X128760765Y-70727429D01*
X128769030Y-70704329D01*
X128779520Y-70682151D01*
X128792133Y-70661107D01*
X128806747Y-70641402D01*
X128823223Y-70623223D01*
X128841402Y-70606747D01*
X128861107Y-70592133D01*
X128882151Y-70579520D01*
X128904329Y-70569030D01*
X128927429Y-70560765D01*
X128951227Y-70554804D01*
X128975496Y-70551204D01*
X129000000Y-70550000D01*
X131000000Y-70550000D01*
X131024504Y-70551204D01*
X131024504Y-70551204D01*
G37*
D13*
X130000000Y-72550000D03*
D12*
G36*
X131024504Y-64451204D02*
G01*
X131048773Y-64454804D01*
X131072571Y-64460765D01*
X131095671Y-64469030D01*
X131117849Y-64479520D01*
X131138893Y-64492133D01*
X131158598Y-64506747D01*
X131176777Y-64523223D01*
X131193253Y-64541402D01*
X131207867Y-64561107D01*
X131220480Y-64582151D01*
X131230970Y-64604329D01*
X131239235Y-64627429D01*
X131245196Y-64651227D01*
X131248796Y-64675496D01*
X131250000Y-64700000D01*
X131250000Y-68200000D01*
X131248796Y-68224504D01*
X131245196Y-68248773D01*
X131239235Y-68272571D01*
X131230970Y-68295671D01*
X131220480Y-68317849D01*
X131207867Y-68338893D01*
X131193253Y-68358598D01*
X131176777Y-68376777D01*
X131158598Y-68393253D01*
X131138893Y-68407867D01*
X131117849Y-68420480D01*
X131095671Y-68430970D01*
X131072571Y-68439235D01*
X131048773Y-68445196D01*
X131024504Y-68448796D01*
X131000000Y-68450000D01*
X129000000Y-68450000D01*
X128975496Y-68448796D01*
X128951227Y-68445196D01*
X128927429Y-68439235D01*
X128904329Y-68430970D01*
X128882151Y-68420480D01*
X128861107Y-68407867D01*
X128841402Y-68393253D01*
X128823223Y-68376777D01*
X128806747Y-68358598D01*
X128792133Y-68338893D01*
X128779520Y-68317849D01*
X128769030Y-68295671D01*
X128760765Y-68272571D01*
X128754804Y-68248773D01*
X128751204Y-68224504D01*
X128750000Y-68200000D01*
X128750000Y-64700000D01*
X128751204Y-64675496D01*
X128754804Y-64651227D01*
X128760765Y-64627429D01*
X128769030Y-64604329D01*
X128779520Y-64582151D01*
X128792133Y-64561107D01*
X128806747Y-64541402D01*
X128823223Y-64523223D01*
X128841402Y-64506747D01*
X128861107Y-64492133D01*
X128882151Y-64479520D01*
X128904329Y-64469030D01*
X128927429Y-64460765D01*
X128951227Y-64454804D01*
X128975496Y-64451204D01*
X129000000Y-64450000D01*
X131000000Y-64450000D01*
X131024504Y-64451204D01*
X131024504Y-64451204D01*
G37*
D13*
X130000000Y-66450000D03*
D12*
G36*
X146024504Y-64451204D02*
G01*
X146048773Y-64454804D01*
X146072571Y-64460765D01*
X146095671Y-64469030D01*
X146117849Y-64479520D01*
X146138893Y-64492133D01*
X146158598Y-64506747D01*
X146176777Y-64523223D01*
X146193253Y-64541402D01*
X146207867Y-64561107D01*
X146220480Y-64582151D01*
X146230970Y-64604329D01*
X146239235Y-64627429D01*
X146245196Y-64651227D01*
X146248796Y-64675496D01*
X146250000Y-64700000D01*
X146250000Y-68200000D01*
X146248796Y-68224504D01*
X146245196Y-68248773D01*
X146239235Y-68272571D01*
X146230970Y-68295671D01*
X146220480Y-68317849D01*
X146207867Y-68338893D01*
X146193253Y-68358598D01*
X146176777Y-68376777D01*
X146158598Y-68393253D01*
X146138893Y-68407867D01*
X146117849Y-68420480D01*
X146095671Y-68430970D01*
X146072571Y-68439235D01*
X146048773Y-68445196D01*
X146024504Y-68448796D01*
X146000000Y-68450000D01*
X144000000Y-68450000D01*
X143975496Y-68448796D01*
X143951227Y-68445196D01*
X143927429Y-68439235D01*
X143904329Y-68430970D01*
X143882151Y-68420480D01*
X143861107Y-68407867D01*
X143841402Y-68393253D01*
X143823223Y-68376777D01*
X143806747Y-68358598D01*
X143792133Y-68338893D01*
X143779520Y-68317849D01*
X143769030Y-68295671D01*
X143760765Y-68272571D01*
X143754804Y-68248773D01*
X143751204Y-68224504D01*
X143750000Y-68200000D01*
X143750000Y-64700000D01*
X143751204Y-64675496D01*
X143754804Y-64651227D01*
X143760765Y-64627429D01*
X143769030Y-64604329D01*
X143779520Y-64582151D01*
X143792133Y-64561107D01*
X143806747Y-64541402D01*
X143823223Y-64523223D01*
X143841402Y-64506747D01*
X143861107Y-64492133D01*
X143882151Y-64479520D01*
X143904329Y-64469030D01*
X143927429Y-64460765D01*
X143951227Y-64454804D01*
X143975496Y-64451204D01*
X144000000Y-64450000D01*
X146000000Y-64450000D01*
X146024504Y-64451204D01*
X146024504Y-64451204D01*
G37*
D13*
X145000000Y-66450000D03*
D12*
G36*
X146024504Y-70551204D02*
G01*
X146048773Y-70554804D01*
X146072571Y-70560765D01*
X146095671Y-70569030D01*
X146117849Y-70579520D01*
X146138893Y-70592133D01*
X146158598Y-70606747D01*
X146176777Y-70623223D01*
X146193253Y-70641402D01*
X146207867Y-70661107D01*
X146220480Y-70682151D01*
X146230970Y-70704329D01*
X146239235Y-70727429D01*
X146245196Y-70751227D01*
X146248796Y-70775496D01*
X146250000Y-70800000D01*
X146250000Y-74300000D01*
X146248796Y-74324504D01*
X146245196Y-74348773D01*
X146239235Y-74372571D01*
X146230970Y-74395671D01*
X146220480Y-74417849D01*
X146207867Y-74438893D01*
X146193253Y-74458598D01*
X146176777Y-74476777D01*
X146158598Y-74493253D01*
X146138893Y-74507867D01*
X146117849Y-74520480D01*
X146095671Y-74530970D01*
X146072571Y-74539235D01*
X146048773Y-74545196D01*
X146024504Y-74548796D01*
X146000000Y-74550000D01*
X144000000Y-74550000D01*
X143975496Y-74548796D01*
X143951227Y-74545196D01*
X143927429Y-74539235D01*
X143904329Y-74530970D01*
X143882151Y-74520480D01*
X143861107Y-74507867D01*
X143841402Y-74493253D01*
X143823223Y-74476777D01*
X143806747Y-74458598D01*
X143792133Y-74438893D01*
X143779520Y-74417849D01*
X143769030Y-74395671D01*
X143760765Y-74372571D01*
X143754804Y-74348773D01*
X143751204Y-74324504D01*
X143750000Y-74300000D01*
X143750000Y-70800000D01*
X143751204Y-70775496D01*
X143754804Y-70751227D01*
X143760765Y-70727429D01*
X143769030Y-70704329D01*
X143779520Y-70682151D01*
X143792133Y-70661107D01*
X143806747Y-70641402D01*
X143823223Y-70623223D01*
X143841402Y-70606747D01*
X143861107Y-70592133D01*
X143882151Y-70579520D01*
X143904329Y-70569030D01*
X143927429Y-70560765D01*
X143951227Y-70554804D01*
X143975496Y-70551204D01*
X144000000Y-70550000D01*
X146000000Y-70550000D01*
X146024504Y-70551204D01*
X146024504Y-70551204D01*
G37*
D13*
X145000000Y-72550000D03*
M02*
