%TF.GenerationSoftware,KiCad,Pcbnew,(5.1.0)-1*%
%TF.CreationDate,2019-09-28T12:36:15+02:00*%
%TF.ProjectId,KicadJE_AteOhAte,4b696361-644a-4455-9f41-74654f684174,rev?*%
%TF.SameCoordinates,Original*%
%TF.FileFunction,Soldermask,Top*%
%TF.FilePolarity,Negative*%
%FSLAX46Y46*%
G04 Gerber Fmt 4.6, Leading zero omitted, Abs format (unit mm)*
G04 Created by KiCad (PCBNEW (5.1.0)-1) date 2019-09-28 12:36:15*
%MOMM*%
%LPD*%
G04 APERTURE LIST*
%ADD10C,1.000000*%
%ADD11C,0.050000*%
%ADD12C,0.002000*%
%ADD13C,0.150000*%
G04 APERTURE END LIST*
D10*
X149750000Y-50500000D02*
X149750000Y-54000000D01*
X99000000Y-50500000D02*
X99000000Y-54000000D01*
X99000000Y-54000000D02*
X149750000Y-54000000D01*
X99000000Y-50500000D02*
X149750000Y-50500000D01*
X99000000Y-146000000D02*
X149500000Y-146000000D01*
X99000000Y-149500000D02*
X149500000Y-149500000D01*
X149500000Y-146000000D02*
X149500000Y-149500000D01*
X99000000Y-146000000D02*
X99000000Y-149500000D01*
X99000000Y-59000000D02*
X100000000Y-59000000D01*
X99000000Y-139000000D02*
X100000000Y-139000000D01*
X100000000Y-59000000D02*
X100000000Y-139000000D01*
X99000000Y-59000000D02*
X99000000Y-139000000D01*
D11*
X50000000Y-150000000D02*
X50000000Y-50000000D01*
X150000000Y-150000000D02*
X50000000Y-150000000D01*
X150000000Y-50000000D02*
X150000000Y-150000000D01*
X50000000Y-50000000D02*
X150000000Y-50000000D01*
D12*
G36*
X142525000Y-137452000D02*
G01*
X142729000Y-137436000D01*
X142927000Y-137388000D01*
X143116000Y-137310000D01*
X143290000Y-137203000D01*
X143445000Y-137070000D01*
X143578000Y-136915000D01*
X143685000Y-136741000D01*
X143763000Y-136552000D01*
X143811000Y-136354000D01*
X143827000Y-136150000D01*
X143811000Y-135946000D01*
X143763000Y-135748000D01*
X143685000Y-135559000D01*
X143578000Y-135385000D01*
X143445000Y-135230000D01*
X143290000Y-135097000D01*
X143116000Y-134990000D01*
X142927000Y-134912000D01*
X142729000Y-134864000D01*
X142525000Y-134848000D01*
X139625000Y-134848000D01*
X139421000Y-134864000D01*
X139223000Y-134912000D01*
X139034000Y-134990000D01*
X138860000Y-135097000D01*
X138705000Y-135230000D01*
X138572000Y-135385000D01*
X138465000Y-135559000D01*
X138387000Y-135748000D01*
X138339000Y-135946000D01*
X138323000Y-136150000D01*
X138339000Y-136354000D01*
X138387000Y-136552000D01*
X138465000Y-136741000D01*
X138572000Y-136915000D01*
X138705000Y-137070000D01*
X138860000Y-137203000D01*
X139034000Y-137310000D01*
X139223000Y-137388000D01*
X139421000Y-137436000D01*
X139625000Y-137452000D01*
X142525000Y-137452000D01*
G37*
X142525000Y-137452000D02*
X142729000Y-137436000D01*
X142927000Y-137388000D01*
X143116000Y-137310000D01*
X143290000Y-137203000D01*
X143445000Y-137070000D01*
X143578000Y-136915000D01*
X143685000Y-136741000D01*
X143763000Y-136552000D01*
X143811000Y-136354000D01*
X143827000Y-136150000D01*
X143811000Y-135946000D01*
X143763000Y-135748000D01*
X143685000Y-135559000D01*
X143578000Y-135385000D01*
X143445000Y-135230000D01*
X143290000Y-135097000D01*
X143116000Y-134990000D01*
X142927000Y-134912000D01*
X142729000Y-134864000D01*
X142525000Y-134848000D01*
X139625000Y-134848000D01*
X139421000Y-134864000D01*
X139223000Y-134912000D01*
X139034000Y-134990000D01*
X138860000Y-135097000D01*
X138705000Y-135230000D01*
X138572000Y-135385000D01*
X138465000Y-135559000D01*
X138387000Y-135748000D01*
X138339000Y-135946000D01*
X138323000Y-136150000D01*
X138339000Y-136354000D01*
X138387000Y-136552000D01*
X138465000Y-136741000D01*
X138572000Y-136915000D01*
X138705000Y-137070000D01*
X138860000Y-137203000D01*
X139034000Y-137310000D01*
X139223000Y-137388000D01*
X139421000Y-137436000D01*
X139625000Y-137452000D01*
X142525000Y-137452000D01*
G36*
X142525000Y-111152000D02*
G01*
X142729000Y-111136000D01*
X142927000Y-111088000D01*
X143116000Y-111010000D01*
X143290000Y-110903000D01*
X143445000Y-110770000D01*
X143578000Y-110615000D01*
X143685000Y-110441000D01*
X143763000Y-110252000D01*
X143811000Y-110054000D01*
X143827000Y-109850000D01*
X143811000Y-109646000D01*
X143763000Y-109448000D01*
X143685000Y-109259000D01*
X143578000Y-109085000D01*
X143445000Y-108930000D01*
X143290000Y-108797000D01*
X143116000Y-108690000D01*
X142927000Y-108612000D01*
X142729000Y-108564000D01*
X142525000Y-108548000D01*
X139625000Y-108548000D01*
X139421000Y-108564000D01*
X139223000Y-108612000D01*
X139034000Y-108690000D01*
X138860000Y-108797000D01*
X138705000Y-108930000D01*
X138572000Y-109085000D01*
X138465000Y-109259000D01*
X138387000Y-109448000D01*
X138339000Y-109646000D01*
X138323000Y-109850000D01*
X138339000Y-110054000D01*
X138387000Y-110252000D01*
X138465000Y-110441000D01*
X138572000Y-110615000D01*
X138705000Y-110770000D01*
X138860000Y-110903000D01*
X139034000Y-111010000D01*
X139223000Y-111088000D01*
X139421000Y-111136000D01*
X139625000Y-111152000D01*
X142525000Y-111152000D01*
G37*
X142525000Y-111152000D02*
X142729000Y-111136000D01*
X142927000Y-111088000D01*
X143116000Y-111010000D01*
X143290000Y-110903000D01*
X143445000Y-110770000D01*
X143578000Y-110615000D01*
X143685000Y-110441000D01*
X143763000Y-110252000D01*
X143811000Y-110054000D01*
X143827000Y-109850000D01*
X143811000Y-109646000D01*
X143763000Y-109448000D01*
X143685000Y-109259000D01*
X143578000Y-109085000D01*
X143445000Y-108930000D01*
X143290000Y-108797000D01*
X143116000Y-108690000D01*
X142927000Y-108612000D01*
X142729000Y-108564000D01*
X142525000Y-108548000D01*
X139625000Y-108548000D01*
X139421000Y-108564000D01*
X139223000Y-108612000D01*
X139034000Y-108690000D01*
X138860000Y-108797000D01*
X138705000Y-108930000D01*
X138572000Y-109085000D01*
X138465000Y-109259000D01*
X138387000Y-109448000D01*
X138339000Y-109646000D01*
X138323000Y-109850000D01*
X138339000Y-110054000D01*
X138387000Y-110252000D01*
X138465000Y-110441000D01*
X138572000Y-110615000D01*
X138705000Y-110770000D01*
X138860000Y-110903000D01*
X139034000Y-111010000D01*
X139223000Y-111088000D01*
X139421000Y-111136000D01*
X139625000Y-111152000D01*
X142525000Y-111152000D01*
D13*
G36*
X63125634Y-145865654D02*
G01*
X63342599Y-145931470D01*
X63342601Y-145931471D01*
X63542553Y-146038347D01*
X63542555Y-146038348D01*
X63542554Y-146038348D01*
X63717818Y-146182182D01*
X63782652Y-146261183D01*
X63861653Y-146357445D01*
X63968529Y-146557398D01*
X63968530Y-146557400D01*
X64034346Y-146774365D01*
X64051000Y-146943457D01*
X64051000Y-148856543D01*
X64034346Y-149025635D01*
X64025415Y-149055078D01*
X63968529Y-149242602D01*
X63861653Y-149442555D01*
X63717818Y-149617818D01*
X63542555Y-149761653D01*
X63342602Y-149868529D01*
X63342600Y-149868530D01*
X63125635Y-149934346D01*
X62900000Y-149956569D01*
X62674366Y-149934346D01*
X62457401Y-149868530D01*
X62457399Y-149868529D01*
X62257446Y-149761653D01*
X62082183Y-149617818D01*
X61938348Y-149442555D01*
X61831472Y-149242602D01*
X61774587Y-149055078D01*
X61765655Y-149025635D01*
X61749000Y-148856543D01*
X61749000Y-146943458D01*
X61765654Y-146774366D01*
X61831470Y-146557401D01*
X61938348Y-146357446D01*
X62082182Y-146182182D01*
X62161183Y-146117348D01*
X62257445Y-146038347D01*
X62457398Y-145931471D01*
X62457400Y-145931470D01*
X62674365Y-145865654D01*
X62900000Y-145843431D01*
X63125634Y-145865654D01*
X63125634Y-145865654D01*
G37*
G36*
X57651000Y-149551000D02*
G01*
X53549000Y-149551000D01*
X53549000Y-147249000D01*
X57651000Y-147249000D01*
X57651000Y-149551000D01*
X57651000Y-149551000D01*
G37*
G36*
X84066823Y-147741313D02*
G01*
X84227242Y-147789976D01*
X84359906Y-147860886D01*
X84375078Y-147868996D01*
X84504659Y-147975341D01*
X84611004Y-148104922D01*
X84611005Y-148104924D01*
X84690024Y-148252758D01*
X84738687Y-148413177D01*
X84755117Y-148580000D01*
X84738687Y-148746823D01*
X84690024Y-148907242D01*
X84619114Y-149039906D01*
X84611004Y-149055078D01*
X84504659Y-149184659D01*
X84375078Y-149291004D01*
X84375076Y-149291005D01*
X84227242Y-149370024D01*
X84066823Y-149418687D01*
X83941804Y-149431000D01*
X83058196Y-149431000D01*
X82933177Y-149418687D01*
X82772758Y-149370024D01*
X82624924Y-149291005D01*
X82624922Y-149291004D01*
X82495341Y-149184659D01*
X82388996Y-149055078D01*
X82380886Y-149039906D01*
X82309976Y-148907242D01*
X82261313Y-148746823D01*
X82244883Y-148580000D01*
X82261313Y-148413177D01*
X82309976Y-148252758D01*
X82388995Y-148104924D01*
X82388996Y-148104922D01*
X82495341Y-147975341D01*
X82624922Y-147868996D01*
X82640094Y-147860886D01*
X82772758Y-147789976D01*
X82933177Y-147741313D01*
X83058196Y-147729000D01*
X83941804Y-147729000D01*
X84066823Y-147741313D01*
X84066823Y-147741313D01*
G37*
G36*
X74066823Y-147741313D02*
G01*
X74227242Y-147789976D01*
X74359906Y-147860886D01*
X74375078Y-147868996D01*
X74504659Y-147975341D01*
X74611004Y-148104922D01*
X74611005Y-148104924D01*
X74690024Y-148252758D01*
X74738687Y-148413177D01*
X74755117Y-148580000D01*
X74738687Y-148746823D01*
X74690024Y-148907242D01*
X74619114Y-149039906D01*
X74611004Y-149055078D01*
X74504659Y-149184659D01*
X74375078Y-149291004D01*
X74375076Y-149291005D01*
X74227242Y-149370024D01*
X74066823Y-149418687D01*
X73941804Y-149431000D01*
X73058196Y-149431000D01*
X72933177Y-149418687D01*
X72772758Y-149370024D01*
X72624924Y-149291005D01*
X72624922Y-149291004D01*
X72495341Y-149184659D01*
X72388996Y-149055078D01*
X72380886Y-149039906D01*
X72309976Y-148907242D01*
X72261313Y-148746823D01*
X72244883Y-148580000D01*
X72261313Y-148413177D01*
X72309976Y-148252758D01*
X72388995Y-148104924D01*
X72388996Y-148104922D01*
X72495341Y-147975341D01*
X72624922Y-147868996D01*
X72640094Y-147860886D01*
X72772758Y-147789976D01*
X72933177Y-147741313D01*
X73058196Y-147729000D01*
X73941804Y-147729000D01*
X74066823Y-147741313D01*
X74066823Y-147741313D01*
G37*
G36*
X84266823Y-144641313D02*
G01*
X84427242Y-144689976D01*
X84551780Y-144756543D01*
X84575078Y-144768996D01*
X84704659Y-144875341D01*
X84811004Y-145004922D01*
X84811005Y-145004924D01*
X84890024Y-145152758D01*
X84938687Y-145313177D01*
X84955117Y-145480000D01*
X84938687Y-145646823D01*
X84890024Y-145807242D01*
X84863658Y-145856569D01*
X84811004Y-145955078D01*
X84704659Y-146084659D01*
X84575078Y-146191004D01*
X84575076Y-146191005D01*
X84427242Y-146270024D01*
X84266823Y-146318687D01*
X84141804Y-146331000D01*
X82858196Y-146331000D01*
X82733177Y-146318687D01*
X82572758Y-146270024D01*
X82424924Y-146191005D01*
X82424922Y-146191004D01*
X82295341Y-146084659D01*
X82188996Y-145955078D01*
X82136342Y-145856569D01*
X82109976Y-145807242D01*
X82061313Y-145646823D01*
X82044883Y-145480000D01*
X82061313Y-145313177D01*
X82109976Y-145152758D01*
X82188995Y-145004924D01*
X82188996Y-145004922D01*
X82295341Y-144875341D01*
X82424922Y-144768996D01*
X82448220Y-144756543D01*
X82572758Y-144689976D01*
X82733177Y-144641313D01*
X82858196Y-144629000D01*
X84141804Y-144629000D01*
X84266823Y-144641313D01*
X84266823Y-144641313D01*
G37*
G36*
X74266823Y-144641313D02*
G01*
X74427242Y-144689976D01*
X74551780Y-144756543D01*
X74575078Y-144768996D01*
X74704659Y-144875341D01*
X74811004Y-145004922D01*
X74811005Y-145004924D01*
X74890024Y-145152758D01*
X74938687Y-145313177D01*
X74955117Y-145480000D01*
X74938687Y-145646823D01*
X74890024Y-145807242D01*
X74863658Y-145856569D01*
X74811004Y-145955078D01*
X74704659Y-146084659D01*
X74575078Y-146191004D01*
X74575076Y-146191005D01*
X74427242Y-146270024D01*
X74266823Y-146318687D01*
X74141804Y-146331000D01*
X72858196Y-146331000D01*
X72733177Y-146318687D01*
X72572758Y-146270024D01*
X72424924Y-146191005D01*
X72424922Y-146191004D01*
X72295341Y-146084659D01*
X72188996Y-145955078D01*
X72136342Y-145856569D01*
X72109976Y-145807242D01*
X72061313Y-145646823D01*
X72044883Y-145480000D01*
X72061313Y-145313177D01*
X72109976Y-145152758D01*
X72188995Y-145004924D01*
X72188996Y-145004922D01*
X72295341Y-144875341D01*
X72424922Y-144768996D01*
X72448220Y-144756543D01*
X72572758Y-144689976D01*
X72733177Y-144641313D01*
X72858196Y-144629000D01*
X74141804Y-144629000D01*
X74266823Y-144641313D01*
X74266823Y-144641313D01*
G37*
G36*
X51925634Y-141765654D02*
G01*
X52142599Y-141831470D01*
X52142601Y-141831471D01*
X52342553Y-141938347D01*
X52342555Y-141938348D01*
X52342554Y-141938348D01*
X52517818Y-142082182D01*
X52552814Y-142124825D01*
X52661653Y-142257445D01*
X52765109Y-142451000D01*
X52768530Y-142457400D01*
X52834235Y-142674000D01*
X52834346Y-142674366D01*
X52851000Y-142843455D01*
X52851000Y-144756545D01*
X52839897Y-144869271D01*
X52834346Y-144925635D01*
X52810294Y-145004924D01*
X52768529Y-145142602D01*
X52661653Y-145342555D01*
X52517818Y-145517818D01*
X52342555Y-145661653D01*
X52142602Y-145768529D01*
X52142600Y-145768530D01*
X51925635Y-145834346D01*
X51700000Y-145856569D01*
X51474366Y-145834346D01*
X51257401Y-145768530D01*
X51257399Y-145768529D01*
X51057446Y-145661653D01*
X50882183Y-145517818D01*
X50738348Y-145342555D01*
X50631472Y-145142602D01*
X50589708Y-145004924D01*
X50565655Y-144925635D01*
X50557327Y-144841089D01*
X50549000Y-144756544D01*
X50549000Y-142843456D01*
X50565654Y-142674367D01*
X50565654Y-142674366D01*
X50631470Y-142457401D01*
X50648172Y-142426154D01*
X50738347Y-142257447D01*
X50805062Y-142176154D01*
X50882182Y-142082182D01*
X50989513Y-141994098D01*
X51057445Y-141938347D01*
X51257398Y-141831471D01*
X51257400Y-141831470D01*
X51474365Y-141765654D01*
X51700000Y-141743431D01*
X51925634Y-141765654D01*
X51925634Y-141765654D01*
G37*
G36*
X140744098Y-139047033D02*
G01*
X141208350Y-139239332D01*
X141208352Y-139239333D01*
X141626168Y-139518509D01*
X141981491Y-139873832D01*
X142260667Y-140291648D01*
X142260668Y-140291650D01*
X142452967Y-140755902D01*
X142551000Y-141248747D01*
X142551000Y-141751253D01*
X142452967Y-142244098D01*
X142274744Y-142674367D01*
X142260667Y-142708352D01*
X141981491Y-143126168D01*
X141626168Y-143481491D01*
X141208352Y-143760667D01*
X141208351Y-143760668D01*
X141208350Y-143760668D01*
X140744098Y-143952967D01*
X140251253Y-144051000D01*
X139748747Y-144051000D01*
X139255902Y-143952967D01*
X138791650Y-143760668D01*
X138791649Y-143760668D01*
X138791648Y-143760667D01*
X138373832Y-143481491D01*
X138018509Y-143126168D01*
X137739333Y-142708352D01*
X137725256Y-142674367D01*
X137547033Y-142244098D01*
X137449000Y-141751253D01*
X137449000Y-141248747D01*
X137547033Y-140755902D01*
X137739332Y-140291650D01*
X137739333Y-140291648D01*
X138018509Y-139873832D01*
X138373832Y-139518509D01*
X138791648Y-139239333D01*
X138791650Y-139239332D01*
X139255902Y-139047033D01*
X139748747Y-138949000D01*
X140251253Y-138949000D01*
X140744098Y-139047033D01*
X140744098Y-139047033D01*
G37*
G36*
X104994098Y-138797033D02*
G01*
X105458350Y-138989332D01*
X105458352Y-138989333D01*
X105876168Y-139268509D01*
X106231491Y-139623832D01*
X106424370Y-139912496D01*
X106510668Y-140041650D01*
X106702967Y-140505902D01*
X106801000Y-140998747D01*
X106801000Y-141501253D01*
X106702967Y-141994098D01*
X106511061Y-142457401D01*
X106510667Y-142458352D01*
X106231491Y-142876168D01*
X105876168Y-143231491D01*
X105458352Y-143510667D01*
X105458351Y-143510668D01*
X105458350Y-143510668D01*
X104994098Y-143702967D01*
X104501253Y-143801000D01*
X103998747Y-143801000D01*
X103505902Y-143702967D01*
X103041650Y-143510668D01*
X103041649Y-143510668D01*
X103041648Y-143510667D01*
X102623832Y-143231491D01*
X102268509Y-142876168D01*
X101989333Y-142458352D01*
X101988939Y-142457401D01*
X101797033Y-141994098D01*
X101699000Y-141501253D01*
X101699000Y-140998747D01*
X101797033Y-140505902D01*
X101989332Y-140041650D01*
X102075630Y-139912496D01*
X102268509Y-139623832D01*
X102623832Y-139268509D01*
X103041648Y-138989333D01*
X103041650Y-138989332D01*
X103505902Y-138797033D01*
X103998747Y-138699000D01*
X104501253Y-138699000D01*
X104994098Y-138797033D01*
X104994098Y-138797033D01*
G37*
G36*
X59569271Y-140160103D02*
G01*
X59625635Y-140165654D01*
X59842600Y-140231470D01*
X59842602Y-140231471D01*
X60042555Y-140338347D01*
X60217818Y-140482182D01*
X60361653Y-140657445D01*
X60468529Y-140857398D01*
X60468530Y-140857400D01*
X60534346Y-141074365D01*
X60556569Y-141300000D01*
X60534346Y-141525635D01*
X60528648Y-141544420D01*
X60468529Y-141742602D01*
X60361653Y-141942555D01*
X60217818Y-142117818D01*
X60042555Y-142261653D01*
X59854450Y-142362196D01*
X59842600Y-142368530D01*
X59625635Y-142434346D01*
X59569271Y-142439897D01*
X59456545Y-142451000D01*
X57543455Y-142451000D01*
X57430729Y-142439897D01*
X57374365Y-142434346D01*
X57157400Y-142368530D01*
X57145550Y-142362196D01*
X56957445Y-142261653D01*
X56782182Y-142117818D01*
X56638347Y-141942555D01*
X56531471Y-141742602D01*
X56471353Y-141544420D01*
X56465654Y-141525635D01*
X56443431Y-141300000D01*
X56465654Y-141074365D01*
X56531470Y-140857400D01*
X56531471Y-140857398D01*
X56638347Y-140657445D01*
X56782182Y-140482182D01*
X56957445Y-140338347D01*
X57157398Y-140231471D01*
X57157400Y-140231470D01*
X57374365Y-140165654D01*
X57430729Y-140160103D01*
X57543455Y-140149000D01*
X59456545Y-140149000D01*
X59569271Y-140160103D01*
X59569271Y-140160103D01*
G37*
G36*
X131351000Y-142351000D02*
G01*
X129649000Y-142351000D01*
X129649000Y-140649000D01*
X131351000Y-140649000D01*
X131351000Y-142351000D01*
X131351000Y-142351000D01*
G37*
G36*
X60743049Y-137457520D02*
G01*
X60825635Y-137465654D01*
X61042600Y-137531470D01*
X61042602Y-137531471D01*
X61242555Y-137638347D01*
X61417818Y-137782182D01*
X61561653Y-137957445D01*
X61629198Y-138083815D01*
X61668530Y-138157400D01*
X61734346Y-138374365D01*
X61756569Y-138600000D01*
X61734346Y-138825635D01*
X61684689Y-138989332D01*
X61668529Y-139042602D01*
X61561653Y-139242555D01*
X61417818Y-139417818D01*
X61242555Y-139561653D01*
X61053889Y-139662496D01*
X61042600Y-139668530D01*
X60825635Y-139734346D01*
X60769271Y-139739897D01*
X60656545Y-139751000D01*
X58743455Y-139751000D01*
X58630729Y-139739897D01*
X58574365Y-139734346D01*
X58357400Y-139668530D01*
X58346111Y-139662496D01*
X58157445Y-139561653D01*
X57982182Y-139417818D01*
X57838347Y-139242555D01*
X57731471Y-139042602D01*
X57715312Y-138989332D01*
X57665654Y-138825635D01*
X57643431Y-138600000D01*
X57665654Y-138374365D01*
X57731470Y-138157400D01*
X57770802Y-138083815D01*
X57838347Y-137957445D01*
X57982182Y-137782182D01*
X58157445Y-137638347D01*
X58357398Y-137531471D01*
X58357400Y-137531470D01*
X58574365Y-137465654D01*
X58656951Y-137457520D01*
X58743455Y-137449000D01*
X60656545Y-137449000D01*
X60743049Y-137457520D01*
X60743049Y-137457520D01*
G37*
G36*
X130748228Y-137181703D02*
G01*
X130903100Y-137245853D01*
X131042481Y-137338985D01*
X131161015Y-137457519D01*
X131254147Y-137596900D01*
X131318297Y-137751772D01*
X131351000Y-137916184D01*
X131351000Y-138083816D01*
X131318297Y-138248228D01*
X131254147Y-138403100D01*
X131161015Y-138542481D01*
X131042481Y-138661015D01*
X130903100Y-138754147D01*
X130748228Y-138818297D01*
X130583816Y-138851000D01*
X130416184Y-138851000D01*
X130251772Y-138818297D01*
X130096900Y-138754147D01*
X129957519Y-138661015D01*
X129838985Y-138542481D01*
X129745853Y-138403100D01*
X129681703Y-138248228D01*
X129649000Y-138083816D01*
X129649000Y-137916184D01*
X129681703Y-137751772D01*
X129745853Y-137596900D01*
X129838985Y-137457519D01*
X129957519Y-137338985D01*
X130096900Y-137245853D01*
X130251772Y-137181703D01*
X130416184Y-137149000D01*
X130583816Y-137149000D01*
X130748228Y-137181703D01*
X130748228Y-137181703D01*
G37*
G36*
X84228571Y-136382863D02*
G01*
X84307023Y-136390590D01*
X84407682Y-136421125D01*
X84458013Y-136436392D01*
X84597165Y-136510771D01*
X84719133Y-136610867D01*
X84819229Y-136732835D01*
X84893608Y-136871987D01*
X84893608Y-136871988D01*
X84939410Y-137022977D01*
X84954875Y-137180000D01*
X84939410Y-137337023D01*
X84920003Y-137401000D01*
X84893608Y-137488013D01*
X84819229Y-137627165D01*
X84719133Y-137749133D01*
X84597165Y-137849229D01*
X84458013Y-137923608D01*
X84407682Y-137938875D01*
X84307023Y-137969410D01*
X84228571Y-137977137D01*
X84189346Y-137981000D01*
X82810654Y-137981000D01*
X82771429Y-137977137D01*
X82692977Y-137969410D01*
X82592318Y-137938875D01*
X82541987Y-137923608D01*
X82402835Y-137849229D01*
X82280867Y-137749133D01*
X82180771Y-137627165D01*
X82106392Y-137488013D01*
X82079997Y-137401000D01*
X82060590Y-137337023D01*
X82045125Y-137180000D01*
X82060590Y-137022977D01*
X82106392Y-136871988D01*
X82106392Y-136871987D01*
X82180771Y-136732835D01*
X82280867Y-136610867D01*
X82402835Y-136510771D01*
X82541987Y-136436392D01*
X82592318Y-136421125D01*
X82692977Y-136390590D01*
X82771429Y-136382863D01*
X82810654Y-136379000D01*
X84189346Y-136379000D01*
X84228571Y-136382863D01*
X84228571Y-136382863D01*
G37*
G36*
X74228571Y-136382863D02*
G01*
X74307023Y-136390590D01*
X74407682Y-136421125D01*
X74458013Y-136436392D01*
X74597165Y-136510771D01*
X74719133Y-136610867D01*
X74819229Y-136732835D01*
X74893608Y-136871987D01*
X74893608Y-136871988D01*
X74939410Y-137022977D01*
X74954875Y-137180000D01*
X74939410Y-137337023D01*
X74920003Y-137401000D01*
X74893608Y-137488013D01*
X74819229Y-137627165D01*
X74719133Y-137749133D01*
X74597165Y-137849229D01*
X74458013Y-137923608D01*
X74407682Y-137938875D01*
X74307023Y-137969410D01*
X74228571Y-137977137D01*
X74189346Y-137981000D01*
X72810654Y-137981000D01*
X72771429Y-137977137D01*
X72692977Y-137969410D01*
X72592318Y-137938875D01*
X72541987Y-137923608D01*
X72402835Y-137849229D01*
X72280867Y-137749133D01*
X72180771Y-137627165D01*
X72106392Y-137488013D01*
X72079997Y-137401000D01*
X72060590Y-137337023D01*
X72045125Y-137180000D01*
X72060590Y-137022977D01*
X72106392Y-136871988D01*
X72106392Y-136871987D01*
X72180771Y-136732835D01*
X72280867Y-136610867D01*
X72402835Y-136510771D01*
X72541987Y-136436392D01*
X72592318Y-136421125D01*
X72692977Y-136390590D01*
X72771429Y-136382863D01*
X72810654Y-136379000D01*
X74189346Y-136379000D01*
X74228571Y-136382863D01*
X74228571Y-136382863D01*
G37*
G36*
X142520239Y-134917101D02*
G01*
X142756053Y-134988634D01*
X142973381Y-135104799D01*
X143163871Y-135261129D01*
X143320201Y-135451619D01*
X143436366Y-135668947D01*
X143507899Y-135904761D01*
X143532053Y-136150000D01*
X143507899Y-136395239D01*
X143436366Y-136631053D01*
X143320201Y-136848381D01*
X143163871Y-137038871D01*
X142973381Y-137195201D01*
X142756053Y-137311366D01*
X142520239Y-137382899D01*
X142336457Y-137401000D01*
X139813543Y-137401000D01*
X139629761Y-137382899D01*
X139393947Y-137311366D01*
X139176619Y-137195201D01*
X138986129Y-137038871D01*
X138829799Y-136848381D01*
X138713634Y-136631053D01*
X138642101Y-136395239D01*
X138617947Y-136150000D01*
X138642101Y-135904761D01*
X138713634Y-135668947D01*
X138829799Y-135451619D01*
X138986129Y-135261129D01*
X139176619Y-135104799D01*
X139393947Y-134988634D01*
X139629761Y-134917101D01*
X139813543Y-134899000D01*
X142336457Y-134899000D01*
X142520239Y-134917101D01*
X142520239Y-134917101D01*
G37*
G36*
X111248228Y-134681703D02*
G01*
X111403100Y-134745853D01*
X111542481Y-134838985D01*
X111661015Y-134957519D01*
X111754147Y-135096900D01*
X111818297Y-135251772D01*
X111851000Y-135416184D01*
X111851000Y-135583816D01*
X111818297Y-135748228D01*
X111754147Y-135903100D01*
X111661015Y-136042481D01*
X111542481Y-136161015D01*
X111403100Y-136254147D01*
X111248228Y-136318297D01*
X111083816Y-136351000D01*
X110916184Y-136351000D01*
X110751772Y-136318297D01*
X110596900Y-136254147D01*
X110457519Y-136161015D01*
X110338985Y-136042481D01*
X110245853Y-135903100D01*
X110181703Y-135748228D01*
X110149000Y-135583816D01*
X110149000Y-135416184D01*
X110181703Y-135251772D01*
X110245853Y-135096900D01*
X110338985Y-134957519D01*
X110457519Y-134838985D01*
X110596900Y-134745853D01*
X110751772Y-134681703D01*
X110916184Y-134649000D01*
X111083816Y-134649000D01*
X111248228Y-134681703D01*
X111248228Y-134681703D01*
G37*
G36*
X116248228Y-134681703D02*
G01*
X116403100Y-134745853D01*
X116542481Y-134838985D01*
X116661015Y-134957519D01*
X116754147Y-135096900D01*
X116818297Y-135251772D01*
X116851000Y-135416184D01*
X116851000Y-135583816D01*
X116818297Y-135748228D01*
X116754147Y-135903100D01*
X116661015Y-136042481D01*
X116542481Y-136161015D01*
X116403100Y-136254147D01*
X116248228Y-136318297D01*
X116083816Y-136351000D01*
X115916184Y-136351000D01*
X115751772Y-136318297D01*
X115596900Y-136254147D01*
X115457519Y-136161015D01*
X115338985Y-136042481D01*
X115245853Y-135903100D01*
X115181703Y-135748228D01*
X115149000Y-135583816D01*
X115149000Y-135416184D01*
X115181703Y-135251772D01*
X115245853Y-135096900D01*
X115338985Y-134957519D01*
X115457519Y-134838985D01*
X115596900Y-134745853D01*
X115751772Y-134681703D01*
X115916184Y-134649000D01*
X116083816Y-134649000D01*
X116248228Y-134681703D01*
X116248228Y-134681703D01*
G37*
G36*
X103248228Y-134681703D02*
G01*
X103403100Y-134745853D01*
X103542481Y-134838985D01*
X103661015Y-134957519D01*
X103754147Y-135096900D01*
X103818297Y-135251772D01*
X103851000Y-135416184D01*
X103851000Y-135583816D01*
X103818297Y-135748228D01*
X103754147Y-135903100D01*
X103661015Y-136042481D01*
X103542481Y-136161015D01*
X103403100Y-136254147D01*
X103248228Y-136318297D01*
X103083816Y-136351000D01*
X102916184Y-136351000D01*
X102751772Y-136318297D01*
X102596900Y-136254147D01*
X102457519Y-136161015D01*
X102338985Y-136042481D01*
X102245853Y-135903100D01*
X102181703Y-135748228D01*
X102149000Y-135583816D01*
X102149000Y-135416184D01*
X102181703Y-135251772D01*
X102245853Y-135096900D01*
X102338985Y-134957519D01*
X102457519Y-134838985D01*
X102596900Y-134745853D01*
X102751772Y-134681703D01*
X102916184Y-134649000D01*
X103083816Y-134649000D01*
X103248228Y-134681703D01*
X103248228Y-134681703D01*
G37*
G36*
X108248228Y-134681703D02*
G01*
X108403100Y-134745853D01*
X108542481Y-134838985D01*
X108661015Y-134957519D01*
X108754147Y-135096900D01*
X108818297Y-135251772D01*
X108851000Y-135416184D01*
X108851000Y-135583816D01*
X108818297Y-135748228D01*
X108754147Y-135903100D01*
X108661015Y-136042481D01*
X108542481Y-136161015D01*
X108403100Y-136254147D01*
X108248228Y-136318297D01*
X108083816Y-136351000D01*
X107916184Y-136351000D01*
X107751772Y-136318297D01*
X107596900Y-136254147D01*
X107457519Y-136161015D01*
X107338985Y-136042481D01*
X107245853Y-135903100D01*
X107181703Y-135748228D01*
X107149000Y-135583816D01*
X107149000Y-135416184D01*
X107181703Y-135251772D01*
X107245853Y-135096900D01*
X107338985Y-134957519D01*
X107457519Y-134838985D01*
X107596900Y-134745853D01*
X107751772Y-134681703D01*
X107916184Y-134649000D01*
X108083816Y-134649000D01*
X108248228Y-134681703D01*
X108248228Y-134681703D01*
G37*
G36*
X89025880Y-130509776D02*
G01*
X89406593Y-130585504D01*
X89816249Y-130755189D01*
X90184929Y-131001534D01*
X90498466Y-131315071D01*
X90744811Y-131683751D01*
X90914496Y-132093407D01*
X91001000Y-132528296D01*
X91001000Y-132971704D01*
X90914496Y-133406593D01*
X90744811Y-133816249D01*
X90498466Y-134184929D01*
X90184929Y-134498466D01*
X89816249Y-134744811D01*
X89406593Y-134914496D01*
X89025880Y-134990224D01*
X88971705Y-135001000D01*
X88528295Y-135001000D01*
X88474120Y-134990224D01*
X88093407Y-134914496D01*
X87683751Y-134744811D01*
X87315071Y-134498466D01*
X87001534Y-134184929D01*
X86755189Y-133816249D01*
X86585504Y-133406593D01*
X86499000Y-132971704D01*
X86499000Y-132528296D01*
X86585504Y-132093407D01*
X86755189Y-131683751D01*
X87001534Y-131315071D01*
X87315071Y-131001534D01*
X87683751Y-130755189D01*
X88093407Y-130585504D01*
X88474120Y-130509776D01*
X88528295Y-130499000D01*
X88971705Y-130499000D01*
X89025880Y-130509776D01*
X89025880Y-130509776D01*
G37*
G36*
X137631564Y-132739389D02*
G01*
X137822833Y-132818615D01*
X137822835Y-132818616D01*
X137895197Y-132866967D01*
X137994973Y-132933635D01*
X138141365Y-133080027D01*
X138256385Y-133252167D01*
X138335611Y-133443436D01*
X138376000Y-133646484D01*
X138376000Y-133853516D01*
X138335611Y-134056564D01*
X138272033Y-134210055D01*
X138256384Y-134247835D01*
X138141365Y-134419973D01*
X137994973Y-134566365D01*
X137822835Y-134681384D01*
X137822834Y-134681385D01*
X137822833Y-134681385D01*
X137631564Y-134760611D01*
X137428516Y-134801000D01*
X137221484Y-134801000D01*
X137018436Y-134760611D01*
X136827167Y-134681385D01*
X136827166Y-134681385D01*
X136827165Y-134681384D01*
X136655027Y-134566365D01*
X136508635Y-134419973D01*
X136393616Y-134247835D01*
X136377967Y-134210055D01*
X136314389Y-134056564D01*
X136274000Y-133853516D01*
X136274000Y-133646484D01*
X136314389Y-133443436D01*
X136393615Y-133252167D01*
X136508635Y-133080027D01*
X136655027Y-132933635D01*
X136754803Y-132866967D01*
X136827165Y-132818616D01*
X136827167Y-132818615D01*
X137018436Y-132739389D01*
X137221484Y-132699000D01*
X137428516Y-132699000D01*
X137631564Y-132739389D01*
X137631564Y-132739389D01*
G37*
G36*
X131351000Y-133351000D02*
G01*
X129649000Y-133351000D01*
X129649000Y-131649000D01*
X131351000Y-131649000D01*
X131351000Y-133351000D01*
X131351000Y-133351000D01*
G37*
G36*
X103248228Y-128681703D02*
G01*
X103403100Y-128745853D01*
X103542481Y-128838985D01*
X103661015Y-128957519D01*
X103754147Y-129096900D01*
X103818297Y-129251772D01*
X103851000Y-129416184D01*
X103851000Y-129583816D01*
X103818297Y-129748228D01*
X103754147Y-129903100D01*
X103661015Y-130042481D01*
X103542481Y-130161015D01*
X103403100Y-130254147D01*
X103248228Y-130318297D01*
X103083816Y-130351000D01*
X102916184Y-130351000D01*
X102751772Y-130318297D01*
X102596900Y-130254147D01*
X102457519Y-130161015D01*
X102338985Y-130042481D01*
X102245853Y-129903100D01*
X102181703Y-129748228D01*
X102149000Y-129583816D01*
X102149000Y-129416184D01*
X102181703Y-129251772D01*
X102245853Y-129096900D01*
X102338985Y-128957519D01*
X102457519Y-128838985D01*
X102596900Y-128745853D01*
X102751772Y-128681703D01*
X102916184Y-128649000D01*
X103083816Y-128649000D01*
X103248228Y-128681703D01*
X103248228Y-128681703D01*
G37*
G36*
X108248228Y-128681703D02*
G01*
X108403100Y-128745853D01*
X108542481Y-128838985D01*
X108661015Y-128957519D01*
X108754147Y-129096900D01*
X108818297Y-129251772D01*
X108851000Y-129416184D01*
X108851000Y-129583816D01*
X108818297Y-129748228D01*
X108754147Y-129903100D01*
X108661015Y-130042481D01*
X108542481Y-130161015D01*
X108403100Y-130254147D01*
X108248228Y-130318297D01*
X108083816Y-130351000D01*
X107916184Y-130351000D01*
X107751772Y-130318297D01*
X107596900Y-130254147D01*
X107457519Y-130161015D01*
X107338985Y-130042481D01*
X107245853Y-129903100D01*
X107181703Y-129748228D01*
X107149000Y-129583816D01*
X107149000Y-129416184D01*
X107181703Y-129251772D01*
X107245853Y-129096900D01*
X107338985Y-128957519D01*
X107457519Y-128838985D01*
X107596900Y-128745853D01*
X107751772Y-128681703D01*
X107916184Y-128649000D01*
X108083816Y-128649000D01*
X108248228Y-128681703D01*
X108248228Y-128681703D01*
G37*
G36*
X130748228Y-128181703D02*
G01*
X130903100Y-128245853D01*
X131042481Y-128338985D01*
X131161015Y-128457519D01*
X131254147Y-128596900D01*
X131318297Y-128751772D01*
X131351000Y-128916184D01*
X131351000Y-129083816D01*
X131318297Y-129248228D01*
X131254147Y-129403100D01*
X131161015Y-129542481D01*
X131042481Y-129661015D01*
X130903100Y-129754147D01*
X130748228Y-129818297D01*
X130583816Y-129851000D01*
X130416184Y-129851000D01*
X130251772Y-129818297D01*
X130096900Y-129754147D01*
X129957519Y-129661015D01*
X129838985Y-129542481D01*
X129745853Y-129403100D01*
X129681703Y-129248228D01*
X129649000Y-129083816D01*
X129649000Y-128916184D01*
X129681703Y-128751772D01*
X129745853Y-128596900D01*
X129838985Y-128457519D01*
X129957519Y-128338985D01*
X130096900Y-128245853D01*
X130251772Y-128181703D01*
X130416184Y-128149000D01*
X130583816Y-128149000D01*
X130748228Y-128181703D01*
X130748228Y-128181703D01*
G37*
G36*
X144799549Y-125121116D02*
G01*
X144910734Y-125143232D01*
X145120203Y-125229997D01*
X145308720Y-125355960D01*
X145469040Y-125516280D01*
X145541281Y-125624397D01*
X145595004Y-125704799D01*
X145614624Y-125752167D01*
X145679082Y-125907781D01*
X145681768Y-125914267D01*
X145726000Y-126136635D01*
X145726000Y-126363365D01*
X145681768Y-126585733D01*
X145614624Y-126747835D01*
X145595003Y-126795203D01*
X145469040Y-126983720D01*
X145308720Y-127144040D01*
X145120203Y-127270003D01*
X144910734Y-127356768D01*
X144799549Y-127378884D01*
X144688365Y-127401000D01*
X144461635Y-127401000D01*
X144350451Y-127378884D01*
X144239266Y-127356768D01*
X144029797Y-127270003D01*
X143841280Y-127144040D01*
X143680960Y-126983720D01*
X143554997Y-126795203D01*
X143535377Y-126747835D01*
X143468232Y-126585733D01*
X143424000Y-126363365D01*
X143424000Y-126136635D01*
X143468232Y-125914267D01*
X143470919Y-125907781D01*
X143535376Y-125752167D01*
X143554996Y-125704799D01*
X143608719Y-125624397D01*
X143680960Y-125516280D01*
X143841280Y-125355960D01*
X144029797Y-125229997D01*
X144239266Y-125143232D01*
X144350451Y-125121116D01*
X144461635Y-125099000D01*
X144688365Y-125099000D01*
X144799549Y-125121116D01*
X144799549Y-125121116D01*
G37*
G36*
X137631564Y-125239389D02*
G01*
X137822833Y-125318615D01*
X137822835Y-125318616D01*
X137994973Y-125433635D01*
X138141365Y-125580027D01*
X138224734Y-125704797D01*
X138256385Y-125752167D01*
X138335611Y-125943436D01*
X138376000Y-126146484D01*
X138376000Y-126353516D01*
X138335611Y-126556564D01*
X138323528Y-126585734D01*
X138256384Y-126747835D01*
X138141365Y-126919973D01*
X137994973Y-127066365D01*
X137822835Y-127181384D01*
X137822834Y-127181385D01*
X137822833Y-127181385D01*
X137631564Y-127260611D01*
X137428516Y-127301000D01*
X137221484Y-127301000D01*
X137018436Y-127260611D01*
X136827167Y-127181385D01*
X136827166Y-127181385D01*
X136827165Y-127181384D01*
X136655027Y-127066365D01*
X136508635Y-126919973D01*
X136393616Y-126747835D01*
X136326472Y-126585734D01*
X136314389Y-126556564D01*
X136274000Y-126353516D01*
X136274000Y-126146484D01*
X136314389Y-125943436D01*
X136393615Y-125752167D01*
X136425267Y-125704797D01*
X136508635Y-125580027D01*
X136655027Y-125433635D01*
X136827165Y-125318616D01*
X136827167Y-125318615D01*
X137018436Y-125239389D01*
X137221484Y-125199000D01*
X137428516Y-125199000D01*
X137631564Y-125239389D01*
X137631564Y-125239389D01*
G37*
G36*
X53556153Y-123725922D02*
G01*
X53648194Y-123764047D01*
X53778359Y-123817963D01*
X53978342Y-123951587D01*
X54148413Y-124121658D01*
X54282037Y-124321641D01*
X54374078Y-124543848D01*
X54405139Y-124700000D01*
X54421000Y-124779742D01*
X54421000Y-125020258D01*
X54377413Y-125239389D01*
X54374078Y-125256152D01*
X54282037Y-125478359D01*
X54148413Y-125678342D01*
X53978342Y-125848413D01*
X53778359Y-125982037D01*
X53648194Y-126035953D01*
X53556153Y-126074078D01*
X53438205Y-126097539D01*
X53320259Y-126121000D01*
X53079741Y-126121000D01*
X52961795Y-126097539D01*
X52843847Y-126074078D01*
X52751806Y-126035953D01*
X52621641Y-125982037D01*
X52421658Y-125848413D01*
X52251587Y-125678342D01*
X52117963Y-125478359D01*
X52025922Y-125256152D01*
X52022588Y-125239389D01*
X51979000Y-125020258D01*
X51979000Y-124779742D01*
X51994862Y-124700000D01*
X52025922Y-124543848D01*
X52117963Y-124321641D01*
X52251587Y-124121658D01*
X52421658Y-123951587D01*
X52621641Y-123817963D01*
X52751806Y-123764047D01*
X52843847Y-123725922D01*
X53079741Y-123679000D01*
X53320259Y-123679000D01*
X53556153Y-123725922D01*
X53556153Y-123725922D01*
G37*
G36*
X95859473Y-123408413D02*
G01*
X95955040Y-123417825D01*
X96200280Y-123492218D01*
X96426294Y-123613025D01*
X96477899Y-123655376D01*
X96624397Y-123775603D01*
X96744624Y-123922101D01*
X96786975Y-123973706D01*
X96907782Y-124199720D01*
X96982175Y-124444960D01*
X97007294Y-124700000D01*
X96982175Y-124955039D01*
X96907781Y-125200282D01*
X96891898Y-125229997D01*
X96786975Y-125426294D01*
X96780950Y-125433635D01*
X96624397Y-125624397D01*
X96477899Y-125744624D01*
X96426294Y-125786975D01*
X96200280Y-125907782D01*
X95955040Y-125982175D01*
X95859473Y-125991587D01*
X95763906Y-126001000D01*
X94236094Y-126001000D01*
X94140527Y-125991587D01*
X94044960Y-125982175D01*
X93799720Y-125907782D01*
X93573706Y-125786975D01*
X93522101Y-125744624D01*
X93375603Y-125624397D01*
X93219050Y-125433635D01*
X93213025Y-125426294D01*
X93108102Y-125229997D01*
X93092219Y-125200282D01*
X93017825Y-124955039D01*
X92992706Y-124700000D01*
X93017825Y-124444960D01*
X93092218Y-124199720D01*
X93213025Y-123973706D01*
X93255376Y-123922101D01*
X93375603Y-123775603D01*
X93522101Y-123655376D01*
X93573706Y-123613025D01*
X93799720Y-123492218D01*
X94044960Y-123417825D01*
X94140527Y-123408413D01*
X94236094Y-123399000D01*
X95763906Y-123399000D01*
X95859473Y-123408413D01*
X95859473Y-123408413D01*
G37*
G36*
X90271473Y-123408413D02*
G01*
X90367040Y-123417825D01*
X90612280Y-123492218D01*
X90838294Y-123613025D01*
X90889899Y-123655376D01*
X91036397Y-123775603D01*
X91156624Y-123922101D01*
X91198975Y-123973706D01*
X91319782Y-124199720D01*
X91394175Y-124444960D01*
X91419294Y-124700000D01*
X91394175Y-124955039D01*
X91319781Y-125200282D01*
X91303898Y-125229997D01*
X91198975Y-125426294D01*
X91192950Y-125433635D01*
X91036397Y-125624397D01*
X90889899Y-125744624D01*
X90838294Y-125786975D01*
X90612280Y-125907782D01*
X90367040Y-125982175D01*
X90271473Y-125991587D01*
X90175906Y-126001000D01*
X88648094Y-126001000D01*
X88552527Y-125991587D01*
X88456960Y-125982175D01*
X88211720Y-125907782D01*
X87985706Y-125786975D01*
X87934101Y-125744624D01*
X87787603Y-125624397D01*
X87631050Y-125433635D01*
X87625025Y-125426294D01*
X87520102Y-125229997D01*
X87504219Y-125200282D01*
X87429825Y-124955039D01*
X87404706Y-124700000D01*
X87429825Y-124444960D01*
X87504218Y-124199720D01*
X87625025Y-123973706D01*
X87667376Y-123922101D01*
X87787603Y-123775603D01*
X87934101Y-123655376D01*
X87985706Y-123613025D01*
X88211720Y-123492218D01*
X88456960Y-123417825D01*
X88552527Y-123408413D01*
X88648094Y-123399000D01*
X90175906Y-123399000D01*
X90271473Y-123408413D01*
X90271473Y-123408413D01*
G37*
G36*
X131351000Y-124351000D02*
G01*
X129649000Y-124351000D01*
X129649000Y-122649000D01*
X131351000Y-122649000D01*
X131351000Y-124351000D01*
X131351000Y-124351000D01*
G37*
G36*
X90271473Y-118708413D02*
G01*
X90367040Y-118717825D01*
X90612280Y-118792218D01*
X90838294Y-118913025D01*
X90863407Y-118933635D01*
X91036397Y-119075603D01*
X91156624Y-119222101D01*
X91198975Y-119273706D01*
X91319782Y-119499720D01*
X91394175Y-119744960D01*
X91419294Y-120000000D01*
X91394175Y-120255040D01*
X91319782Y-120500280D01*
X91198975Y-120726294D01*
X91156624Y-120777899D01*
X91036397Y-120924397D01*
X90889899Y-121044624D01*
X90838294Y-121086975D01*
X90612280Y-121207782D01*
X90367040Y-121282175D01*
X90271472Y-121291588D01*
X90175906Y-121301000D01*
X88648094Y-121301000D01*
X88552528Y-121291588D01*
X88456960Y-121282175D01*
X88211720Y-121207782D01*
X87985706Y-121086975D01*
X87934101Y-121044624D01*
X87787603Y-120924397D01*
X87667376Y-120777899D01*
X87625025Y-120726294D01*
X87504218Y-120500280D01*
X87429825Y-120255040D01*
X87404706Y-120000000D01*
X87429825Y-119744960D01*
X87504218Y-119499720D01*
X87625025Y-119273706D01*
X87667376Y-119222101D01*
X87787603Y-119075603D01*
X87960593Y-118933635D01*
X87985706Y-118913025D01*
X88211720Y-118792218D01*
X88456960Y-118717825D01*
X88552527Y-118708413D01*
X88648094Y-118699000D01*
X90175906Y-118699000D01*
X90271473Y-118708413D01*
X90271473Y-118708413D01*
G37*
G36*
X95859473Y-118708413D02*
G01*
X95955040Y-118717825D01*
X96200280Y-118792218D01*
X96426294Y-118913025D01*
X96451407Y-118933635D01*
X96624397Y-119075603D01*
X96744624Y-119222101D01*
X96786975Y-119273706D01*
X96907782Y-119499720D01*
X96982175Y-119744960D01*
X97007294Y-120000000D01*
X96982175Y-120255040D01*
X96907782Y-120500280D01*
X96786975Y-120726294D01*
X96744624Y-120777899D01*
X96624397Y-120924397D01*
X96477899Y-121044624D01*
X96426294Y-121086975D01*
X96200280Y-121207782D01*
X95955040Y-121282175D01*
X95859472Y-121291588D01*
X95763906Y-121301000D01*
X94236094Y-121301000D01*
X94140528Y-121291588D01*
X94044960Y-121282175D01*
X93799720Y-121207782D01*
X93573706Y-121086975D01*
X93522101Y-121044624D01*
X93375603Y-120924397D01*
X93255376Y-120777899D01*
X93213025Y-120726294D01*
X93092218Y-120500280D01*
X93017825Y-120255040D01*
X92992706Y-120000000D01*
X93017825Y-119744960D01*
X93092218Y-119499720D01*
X93213025Y-119273706D01*
X93255376Y-119222101D01*
X93375603Y-119075603D01*
X93548593Y-118933635D01*
X93573706Y-118913025D01*
X93799720Y-118792218D01*
X94044960Y-118717825D01*
X94140527Y-118708413D01*
X94236094Y-118699000D01*
X95763906Y-118699000D01*
X95859473Y-118708413D01*
X95859473Y-118708413D01*
G37*
G36*
X53420806Y-118699000D02*
G01*
X53556153Y-118725922D01*
X53588667Y-118739390D01*
X53778359Y-118817963D01*
X53978342Y-118951587D01*
X54148413Y-119121658D01*
X54282037Y-119321641D01*
X54374078Y-119543848D01*
X54415437Y-119751772D01*
X54421000Y-119779742D01*
X54421000Y-120020258D01*
X54374300Y-120255039D01*
X54374078Y-120256152D01*
X54282037Y-120478359D01*
X54148413Y-120678342D01*
X53978342Y-120848413D01*
X53778359Y-120982037D01*
X53648194Y-121035953D01*
X53556153Y-121074078D01*
X53320259Y-121121000D01*
X53079741Y-121121000D01*
X52843847Y-121074078D01*
X52751806Y-121035953D01*
X52621641Y-120982037D01*
X52421658Y-120848413D01*
X52251587Y-120678342D01*
X52117963Y-120478359D01*
X52025922Y-120256152D01*
X52025701Y-120255039D01*
X51979000Y-120020258D01*
X51979000Y-119779742D01*
X51984564Y-119751772D01*
X52025922Y-119543848D01*
X52117963Y-119321641D01*
X52251587Y-119121658D01*
X52421658Y-118951587D01*
X52621641Y-118817963D01*
X52811333Y-118739390D01*
X52843847Y-118725922D01*
X52979194Y-118699000D01*
X53079741Y-118679000D01*
X53320259Y-118679000D01*
X53420806Y-118699000D01*
X53420806Y-118699000D01*
G37*
G36*
X130748228Y-119181703D02*
G01*
X130903100Y-119245853D01*
X131042481Y-119338985D01*
X131161015Y-119457519D01*
X131254147Y-119596900D01*
X131318297Y-119751772D01*
X131351000Y-119916184D01*
X131351000Y-120083816D01*
X131318297Y-120248228D01*
X131254147Y-120403100D01*
X131161015Y-120542481D01*
X131042481Y-120661015D01*
X130903100Y-120754147D01*
X130748228Y-120818297D01*
X130583816Y-120851000D01*
X130416184Y-120851000D01*
X130251772Y-120818297D01*
X130096900Y-120754147D01*
X129957519Y-120661015D01*
X129838985Y-120542481D01*
X129745853Y-120403100D01*
X129681703Y-120248228D01*
X129649000Y-120083816D01*
X129649000Y-119916184D01*
X129681703Y-119751772D01*
X129745853Y-119596900D01*
X129838985Y-119457519D01*
X129957519Y-119338985D01*
X130096900Y-119245853D01*
X130251772Y-119181703D01*
X130416184Y-119149000D01*
X130583816Y-119149000D01*
X130748228Y-119181703D01*
X130748228Y-119181703D01*
G37*
G36*
X137631564Y-118739389D02*
G01*
X137821259Y-118817963D01*
X137822835Y-118818616D01*
X137994973Y-118933635D01*
X138141365Y-119080027D01*
X138252166Y-119245852D01*
X138256385Y-119252167D01*
X138335611Y-119443436D01*
X138376000Y-119646484D01*
X138376000Y-119853516D01*
X138335611Y-120056564D01*
X138256385Y-120247833D01*
X138256384Y-120247835D01*
X138141365Y-120419973D01*
X137994973Y-120566365D01*
X137822835Y-120681384D01*
X137822834Y-120681385D01*
X137822833Y-120681385D01*
X137631564Y-120760611D01*
X137428516Y-120801000D01*
X137221484Y-120801000D01*
X137018436Y-120760611D01*
X136827167Y-120681385D01*
X136827166Y-120681385D01*
X136827165Y-120681384D01*
X136655027Y-120566365D01*
X136508635Y-120419973D01*
X136393616Y-120247835D01*
X136393615Y-120247833D01*
X136314389Y-120056564D01*
X136274000Y-119853516D01*
X136274000Y-119646484D01*
X136314389Y-119443436D01*
X136393615Y-119252167D01*
X136397835Y-119245852D01*
X136508635Y-119080027D01*
X136655027Y-118933635D01*
X136827165Y-118818616D01*
X136828741Y-118817963D01*
X137018436Y-118739389D01*
X137221484Y-118699000D01*
X137428516Y-118699000D01*
X137631564Y-118739389D01*
X137631564Y-118739389D01*
G37*
G36*
X90271473Y-114008413D02*
G01*
X90367040Y-114017825D01*
X90612280Y-114092218D01*
X90838294Y-114213025D01*
X90889899Y-114255376D01*
X91036397Y-114375603D01*
X91156624Y-114522101D01*
X91198975Y-114573706D01*
X91319782Y-114799720D01*
X91394175Y-115044960D01*
X91419294Y-115300000D01*
X91394175Y-115555040D01*
X91319782Y-115800280D01*
X91198975Y-116026294D01*
X91159759Y-116074078D01*
X91036397Y-116224397D01*
X90889899Y-116344624D01*
X90838294Y-116386975D01*
X90612280Y-116507782D01*
X90367040Y-116582175D01*
X90271472Y-116591588D01*
X90175906Y-116601000D01*
X88648094Y-116601000D01*
X88552528Y-116591588D01*
X88456960Y-116582175D01*
X88211720Y-116507782D01*
X87985706Y-116386975D01*
X87934101Y-116344624D01*
X87787603Y-116224397D01*
X87664241Y-116074078D01*
X87625025Y-116026294D01*
X87504218Y-115800280D01*
X87429825Y-115555040D01*
X87404706Y-115300000D01*
X87429825Y-115044960D01*
X87504218Y-114799720D01*
X87625025Y-114573706D01*
X87667376Y-114522101D01*
X87787603Y-114375603D01*
X87934101Y-114255376D01*
X87985706Y-114213025D01*
X88211720Y-114092218D01*
X88456960Y-114017825D01*
X88552527Y-114008413D01*
X88648094Y-113999000D01*
X90175906Y-113999000D01*
X90271473Y-114008413D01*
X90271473Y-114008413D01*
G37*
G36*
X95859473Y-114008413D02*
G01*
X95955040Y-114017825D01*
X96200280Y-114092218D01*
X96426294Y-114213025D01*
X96477899Y-114255376D01*
X96624397Y-114375603D01*
X96744624Y-114522101D01*
X96786975Y-114573706D01*
X96907782Y-114799720D01*
X96982175Y-115044960D01*
X97007294Y-115300000D01*
X96982175Y-115555040D01*
X96907782Y-115800280D01*
X96786975Y-116026294D01*
X96747759Y-116074078D01*
X96624397Y-116224397D01*
X96477899Y-116344624D01*
X96426294Y-116386975D01*
X96200280Y-116507782D01*
X95955040Y-116582175D01*
X95859472Y-116591588D01*
X95763906Y-116601000D01*
X94236094Y-116601000D01*
X94140528Y-116591588D01*
X94044960Y-116582175D01*
X93799720Y-116507782D01*
X93573706Y-116386975D01*
X93522101Y-116344624D01*
X93375603Y-116224397D01*
X93252241Y-116074078D01*
X93213025Y-116026294D01*
X93092218Y-115800280D01*
X93017825Y-115555040D01*
X92992706Y-115300000D01*
X93017825Y-115044960D01*
X93092218Y-114799720D01*
X93213025Y-114573706D01*
X93255376Y-114522101D01*
X93375603Y-114375603D01*
X93522101Y-114255376D01*
X93573706Y-114213025D01*
X93799720Y-114092218D01*
X94044960Y-114017825D01*
X94140527Y-114008413D01*
X94236094Y-113999000D01*
X95763906Y-113999000D01*
X95859473Y-114008413D01*
X95859473Y-114008413D01*
G37*
G36*
X53556153Y-113725922D02*
G01*
X53648194Y-113764047D01*
X53778359Y-113817963D01*
X53978342Y-113951587D01*
X54148413Y-114121658D01*
X54282037Y-114321641D01*
X54374078Y-114543848D01*
X54421000Y-114779741D01*
X54421000Y-115020259D01*
X54374078Y-115256152D01*
X54282037Y-115478359D01*
X54148413Y-115678342D01*
X53978342Y-115848413D01*
X53778359Y-115982037D01*
X53671518Y-116026292D01*
X53556153Y-116074078D01*
X53438205Y-116097539D01*
X53320259Y-116121000D01*
X53079741Y-116121000D01*
X52961795Y-116097539D01*
X52843847Y-116074078D01*
X52728482Y-116026292D01*
X52621641Y-115982037D01*
X52421658Y-115848413D01*
X52251587Y-115678342D01*
X52117963Y-115478359D01*
X52025922Y-115256152D01*
X51979000Y-115020259D01*
X51979000Y-114779741D01*
X52025922Y-114543848D01*
X52117963Y-114321641D01*
X52251587Y-114121658D01*
X52421658Y-113951587D01*
X52621641Y-113817963D01*
X52751806Y-113764047D01*
X52843847Y-113725922D01*
X53079741Y-113679000D01*
X53320259Y-113679000D01*
X53556153Y-113725922D01*
X53556153Y-113725922D01*
G37*
G36*
X131351000Y-115351000D02*
G01*
X129649000Y-115351000D01*
X129649000Y-113649000D01*
X131351000Y-113649000D01*
X131351000Y-115351000D01*
X131351000Y-115351000D01*
G37*
G36*
X144799549Y-111121116D02*
G01*
X144910734Y-111143232D01*
X145120203Y-111229997D01*
X145308720Y-111355960D01*
X145469040Y-111516280D01*
X145579572Y-111681703D01*
X145595004Y-111704799D01*
X145614624Y-111752167D01*
X145681768Y-111914266D01*
X145690372Y-111957520D01*
X145726000Y-112136635D01*
X145726000Y-112363365D01*
X145715493Y-112416185D01*
X145682150Y-112583816D01*
X145681768Y-112585733D01*
X145614624Y-112747835D01*
X145595003Y-112795203D01*
X145469040Y-112983720D01*
X145308720Y-113144040D01*
X145120203Y-113270003D01*
X144910734Y-113356768D01*
X144799549Y-113378884D01*
X144688365Y-113401000D01*
X144461635Y-113401000D01*
X144350451Y-113378884D01*
X144239266Y-113356768D01*
X144029797Y-113270003D01*
X143841280Y-113144040D01*
X143680960Y-112983720D01*
X143554997Y-112795203D01*
X143535377Y-112747835D01*
X143468232Y-112585733D01*
X143467851Y-112583816D01*
X143434507Y-112416185D01*
X143424000Y-112363365D01*
X143424000Y-112136635D01*
X143459628Y-111957520D01*
X143468232Y-111914266D01*
X143535376Y-111752167D01*
X143554996Y-111704799D01*
X143570428Y-111681703D01*
X143680960Y-111516280D01*
X143841280Y-111355960D01*
X144029797Y-111229997D01*
X144239266Y-111143232D01*
X144350451Y-111121116D01*
X144461635Y-111099000D01*
X144688365Y-111099000D01*
X144799549Y-111121116D01*
X144799549Y-111121116D01*
G37*
G36*
X111248228Y-111681703D02*
G01*
X111403100Y-111745853D01*
X111542481Y-111838985D01*
X111661015Y-111957519D01*
X111754147Y-112096900D01*
X111818297Y-112251772D01*
X111851000Y-112416184D01*
X111851000Y-112583816D01*
X111818297Y-112748228D01*
X111754147Y-112903100D01*
X111661015Y-113042481D01*
X111542481Y-113161015D01*
X111403100Y-113254147D01*
X111248228Y-113318297D01*
X111083816Y-113351000D01*
X110916184Y-113351000D01*
X110751772Y-113318297D01*
X110596900Y-113254147D01*
X110457519Y-113161015D01*
X110338985Y-113042481D01*
X110245853Y-112903100D01*
X110181703Y-112748228D01*
X110149000Y-112583816D01*
X110149000Y-112416184D01*
X110181703Y-112251772D01*
X110245853Y-112096900D01*
X110338985Y-111957519D01*
X110457519Y-111838985D01*
X110596900Y-111745853D01*
X110751772Y-111681703D01*
X110916184Y-111649000D01*
X111083816Y-111649000D01*
X111248228Y-111681703D01*
X111248228Y-111681703D01*
G37*
G36*
X116248228Y-111681703D02*
G01*
X116403100Y-111745853D01*
X116542481Y-111838985D01*
X116661015Y-111957519D01*
X116754147Y-112096900D01*
X116818297Y-112251772D01*
X116851000Y-112416184D01*
X116851000Y-112583816D01*
X116818297Y-112748228D01*
X116754147Y-112903100D01*
X116661015Y-113042481D01*
X116542481Y-113161015D01*
X116403100Y-113254147D01*
X116248228Y-113318297D01*
X116083816Y-113351000D01*
X115916184Y-113351000D01*
X115751772Y-113318297D01*
X115596900Y-113254147D01*
X115457519Y-113161015D01*
X115338985Y-113042481D01*
X115245853Y-112903100D01*
X115181703Y-112748228D01*
X115149000Y-112583816D01*
X115149000Y-112416184D01*
X115181703Y-112251772D01*
X115245853Y-112096900D01*
X115338985Y-111957519D01*
X115457519Y-111838985D01*
X115596900Y-111745853D01*
X115751772Y-111681703D01*
X115916184Y-111649000D01*
X116083816Y-111649000D01*
X116248228Y-111681703D01*
X116248228Y-111681703D01*
G37*
G36*
X137631564Y-111239389D02*
G01*
X137822833Y-111318615D01*
X137822835Y-111318616D01*
X137994973Y-111433635D01*
X138141365Y-111580027D01*
X138252166Y-111745852D01*
X138256385Y-111752167D01*
X138335611Y-111943436D01*
X138376000Y-112146484D01*
X138376000Y-112353516D01*
X138335611Y-112556564D01*
X138323528Y-112585734D01*
X138256384Y-112747835D01*
X138141365Y-112919973D01*
X137994973Y-113066365D01*
X137822835Y-113181384D01*
X137822834Y-113181385D01*
X137822833Y-113181385D01*
X137631564Y-113260611D01*
X137428516Y-113301000D01*
X137221484Y-113301000D01*
X137018436Y-113260611D01*
X136827167Y-113181385D01*
X136827166Y-113181385D01*
X136827165Y-113181384D01*
X136655027Y-113066365D01*
X136508635Y-112919973D01*
X136393616Y-112747835D01*
X136326472Y-112585734D01*
X136314389Y-112556564D01*
X136274000Y-112353516D01*
X136274000Y-112146484D01*
X136314389Y-111943436D01*
X136393615Y-111752167D01*
X136397835Y-111745852D01*
X136508635Y-111580027D01*
X136655027Y-111433635D01*
X136827165Y-111318616D01*
X136827167Y-111318615D01*
X137018436Y-111239389D01*
X137221484Y-111199000D01*
X137428516Y-111199000D01*
X137631564Y-111239389D01*
X137631564Y-111239389D01*
G37*
G36*
X130748228Y-110181703D02*
G01*
X130903100Y-110245853D01*
X131042481Y-110338985D01*
X131161015Y-110457519D01*
X131254147Y-110596900D01*
X131318297Y-110751772D01*
X131351000Y-110916184D01*
X131351000Y-111083816D01*
X131318297Y-111248228D01*
X131254147Y-111403100D01*
X131161015Y-111542481D01*
X131042481Y-111661015D01*
X130903100Y-111754147D01*
X130748228Y-111818297D01*
X130583816Y-111851000D01*
X130416184Y-111851000D01*
X130251772Y-111818297D01*
X130096900Y-111754147D01*
X129957519Y-111661015D01*
X129838985Y-111542481D01*
X129745853Y-111403100D01*
X129681703Y-111248228D01*
X129649000Y-111083816D01*
X129649000Y-110916184D01*
X129681703Y-110751772D01*
X129745853Y-110596900D01*
X129838985Y-110457519D01*
X129957519Y-110338985D01*
X130096900Y-110245853D01*
X130251772Y-110181703D01*
X130416184Y-110149000D01*
X130583816Y-110149000D01*
X130748228Y-110181703D01*
X130748228Y-110181703D01*
G37*
G36*
X142520239Y-108617101D02*
G01*
X142756053Y-108688634D01*
X142973381Y-108804799D01*
X143163871Y-108961129D01*
X143320201Y-109151619D01*
X143436366Y-109368947D01*
X143507899Y-109604761D01*
X143532053Y-109850000D01*
X143507899Y-110095239D01*
X143436366Y-110331053D01*
X143320201Y-110548381D01*
X143163871Y-110738871D01*
X142973381Y-110895201D01*
X142756053Y-111011366D01*
X142520239Y-111082899D01*
X142336457Y-111101000D01*
X139813543Y-111101000D01*
X139629761Y-111082899D01*
X139393947Y-111011366D01*
X139176619Y-110895201D01*
X138986129Y-110738871D01*
X138829799Y-110548381D01*
X138713634Y-110331053D01*
X138642101Y-110095239D01*
X138617947Y-109850000D01*
X138642101Y-109604761D01*
X138713634Y-109368947D01*
X138829799Y-109151619D01*
X138986129Y-108961129D01*
X139176619Y-108804799D01*
X139393947Y-108688634D01*
X139629761Y-108617101D01*
X139813543Y-108599000D01*
X142336457Y-108599000D01*
X142520239Y-108617101D01*
X142520239Y-108617101D01*
G37*
G36*
X103248228Y-105681703D02*
G01*
X103403100Y-105745853D01*
X103542481Y-105838985D01*
X103661015Y-105957519D01*
X103754147Y-106096900D01*
X103818297Y-106251772D01*
X103851000Y-106416184D01*
X103851000Y-106583816D01*
X103818297Y-106748228D01*
X103754147Y-106903100D01*
X103661015Y-107042481D01*
X103542481Y-107161015D01*
X103403100Y-107254147D01*
X103248228Y-107318297D01*
X103083816Y-107351000D01*
X102916184Y-107351000D01*
X102751772Y-107318297D01*
X102596900Y-107254147D01*
X102457519Y-107161015D01*
X102338985Y-107042481D01*
X102245853Y-106903100D01*
X102181703Y-106748228D01*
X102149000Y-106583816D01*
X102149000Y-106416184D01*
X102181703Y-106251772D01*
X102245853Y-106096900D01*
X102338985Y-105957519D01*
X102457519Y-105838985D01*
X102596900Y-105745853D01*
X102751772Y-105681703D01*
X102916184Y-105649000D01*
X103083816Y-105649000D01*
X103248228Y-105681703D01*
X103248228Y-105681703D01*
G37*
G36*
X111248228Y-105681703D02*
G01*
X111403100Y-105745853D01*
X111542481Y-105838985D01*
X111661015Y-105957519D01*
X111754147Y-106096900D01*
X111818297Y-106251772D01*
X111851000Y-106416184D01*
X111851000Y-106583816D01*
X111818297Y-106748228D01*
X111754147Y-106903100D01*
X111661015Y-107042481D01*
X111542481Y-107161015D01*
X111403100Y-107254147D01*
X111248228Y-107318297D01*
X111083816Y-107351000D01*
X110916184Y-107351000D01*
X110751772Y-107318297D01*
X110596900Y-107254147D01*
X110457519Y-107161015D01*
X110338985Y-107042481D01*
X110245853Y-106903100D01*
X110181703Y-106748228D01*
X110149000Y-106583816D01*
X110149000Y-106416184D01*
X110181703Y-106251772D01*
X110245853Y-106096900D01*
X110338985Y-105957519D01*
X110457519Y-105838985D01*
X110596900Y-105745853D01*
X110751772Y-105681703D01*
X110916184Y-105649000D01*
X111083816Y-105649000D01*
X111248228Y-105681703D01*
X111248228Y-105681703D01*
G37*
G36*
X108248228Y-105681703D02*
G01*
X108403100Y-105745853D01*
X108542481Y-105838985D01*
X108661015Y-105957519D01*
X108754147Y-106096900D01*
X108818297Y-106251772D01*
X108851000Y-106416184D01*
X108851000Y-106583816D01*
X108818297Y-106748228D01*
X108754147Y-106903100D01*
X108661015Y-107042481D01*
X108542481Y-107161015D01*
X108403100Y-107254147D01*
X108248228Y-107318297D01*
X108083816Y-107351000D01*
X107916184Y-107351000D01*
X107751772Y-107318297D01*
X107596900Y-107254147D01*
X107457519Y-107161015D01*
X107338985Y-107042481D01*
X107245853Y-106903100D01*
X107181703Y-106748228D01*
X107149000Y-106583816D01*
X107149000Y-106416184D01*
X107181703Y-106251772D01*
X107245853Y-106096900D01*
X107338985Y-105957519D01*
X107457519Y-105838985D01*
X107596900Y-105745853D01*
X107751772Y-105681703D01*
X107916184Y-105649000D01*
X108083816Y-105649000D01*
X108248228Y-105681703D01*
X108248228Y-105681703D01*
G37*
G36*
X116248228Y-105681703D02*
G01*
X116403100Y-105745853D01*
X116542481Y-105838985D01*
X116661015Y-105957519D01*
X116754147Y-106096900D01*
X116818297Y-106251772D01*
X116851000Y-106416184D01*
X116851000Y-106583816D01*
X116818297Y-106748228D01*
X116754147Y-106903100D01*
X116661015Y-107042481D01*
X116542481Y-107161015D01*
X116403100Y-107254147D01*
X116248228Y-107318297D01*
X116083816Y-107351000D01*
X115916184Y-107351000D01*
X115751772Y-107318297D01*
X115596900Y-107254147D01*
X115457519Y-107161015D01*
X115338985Y-107042481D01*
X115245853Y-106903100D01*
X115181703Y-106748228D01*
X115149000Y-106583816D01*
X115149000Y-106416184D01*
X115181703Y-106251772D01*
X115245853Y-106096900D01*
X115338985Y-105957519D01*
X115457519Y-105838985D01*
X115596900Y-105745853D01*
X115751772Y-105681703D01*
X115916184Y-105649000D01*
X116083816Y-105649000D01*
X116248228Y-105681703D01*
X116248228Y-105681703D01*
G37*
G36*
X53556153Y-103325922D02*
G01*
X53648194Y-103364047D01*
X53778359Y-103417963D01*
X53978342Y-103551587D01*
X54148413Y-103721658D01*
X54282037Y-103921641D01*
X54374078Y-104143848D01*
X54421000Y-104379741D01*
X54421000Y-104620259D01*
X54374078Y-104856152D01*
X54282037Y-105078359D01*
X54148413Y-105278342D01*
X53978342Y-105448413D01*
X53778359Y-105582037D01*
X53648194Y-105635953D01*
X53556153Y-105674078D01*
X53320259Y-105721000D01*
X53079741Y-105721000D01*
X52961795Y-105697539D01*
X52843847Y-105674078D01*
X52751806Y-105635953D01*
X52621641Y-105582037D01*
X52421658Y-105448413D01*
X52251587Y-105278342D01*
X52117963Y-105078359D01*
X52025922Y-104856152D01*
X51979000Y-104620259D01*
X51979000Y-104379741D01*
X52025922Y-104143848D01*
X52117963Y-103921641D01*
X52251587Y-103721658D01*
X52421658Y-103551587D01*
X52621641Y-103417963D01*
X52751806Y-103364047D01*
X52843847Y-103325922D01*
X53079741Y-103279000D01*
X53320259Y-103279000D01*
X53556153Y-103325922D01*
X53556153Y-103325922D01*
G37*
G36*
X94801000Y-103801000D02*
G01*
X93199000Y-103801000D01*
X93199000Y-102199000D01*
X94801000Y-102199000D01*
X94801000Y-103801000D01*
X94801000Y-103801000D01*
G37*
G36*
X103141410Y-99431703D02*
G01*
X103296282Y-99495853D01*
X103435663Y-99588985D01*
X103554197Y-99707519D01*
X103647329Y-99846900D01*
X103711479Y-100001772D01*
X103744182Y-100166184D01*
X103744182Y-100333816D01*
X103711479Y-100498228D01*
X103647329Y-100653100D01*
X103554197Y-100792481D01*
X103435663Y-100911015D01*
X103296282Y-101004147D01*
X103141410Y-101068297D01*
X102976998Y-101101000D01*
X102809366Y-101101000D01*
X102644954Y-101068297D01*
X102490082Y-101004147D01*
X102350701Y-100911015D01*
X102232167Y-100792481D01*
X102139035Y-100653100D01*
X102074885Y-100498228D01*
X102042182Y-100333816D01*
X102042182Y-100166184D01*
X102074885Y-100001772D01*
X102139035Y-99846900D01*
X102232167Y-99707519D01*
X102350701Y-99588985D01*
X102490082Y-99495853D01*
X102644954Y-99431703D01*
X102809366Y-99399000D01*
X102976998Y-99399000D01*
X103141410Y-99431703D01*
X103141410Y-99431703D01*
G37*
G36*
X108141410Y-99431703D02*
G01*
X108296282Y-99495853D01*
X108435663Y-99588985D01*
X108554197Y-99707519D01*
X108647329Y-99846900D01*
X108711479Y-100001772D01*
X108744182Y-100166184D01*
X108744182Y-100333816D01*
X108711479Y-100498228D01*
X108647329Y-100653100D01*
X108554197Y-100792481D01*
X108435663Y-100911015D01*
X108296282Y-101004147D01*
X108141410Y-101068297D01*
X107976998Y-101101000D01*
X107809366Y-101101000D01*
X107644954Y-101068297D01*
X107490082Y-101004147D01*
X107350701Y-100911015D01*
X107232167Y-100792481D01*
X107139035Y-100653100D01*
X107074885Y-100498228D01*
X107042182Y-100333816D01*
X107042182Y-100166184D01*
X107074885Y-100001772D01*
X107139035Y-99846900D01*
X107232167Y-99707519D01*
X107350701Y-99588985D01*
X107490082Y-99495853D01*
X107644954Y-99431703D01*
X107809366Y-99399000D01*
X107976998Y-99399000D01*
X108141410Y-99431703D01*
X108141410Y-99431703D01*
G37*
G36*
X53556153Y-98325922D02*
G01*
X53648194Y-98364047D01*
X53778359Y-98417963D01*
X53978342Y-98551587D01*
X54148413Y-98721658D01*
X54282037Y-98921641D01*
X54335953Y-99051806D01*
X54374078Y-99143847D01*
X54421000Y-99379742D01*
X54421000Y-99620258D01*
X54375919Y-99846900D01*
X54374078Y-99856152D01*
X54282037Y-100078359D01*
X54148413Y-100278342D01*
X53978342Y-100448413D01*
X53778359Y-100582037D01*
X53648194Y-100635953D01*
X53556153Y-100674078D01*
X53320259Y-100721000D01*
X53079741Y-100721000D01*
X52843847Y-100674078D01*
X52751806Y-100635953D01*
X52621641Y-100582037D01*
X52421658Y-100448413D01*
X52251587Y-100278342D01*
X52117963Y-100078359D01*
X52025922Y-99856152D01*
X52024082Y-99846900D01*
X51979000Y-99620258D01*
X51979000Y-99379742D01*
X52025922Y-99143847D01*
X52064047Y-99051806D01*
X52117963Y-98921641D01*
X52251587Y-98721658D01*
X52421658Y-98551587D01*
X52621641Y-98417963D01*
X52751806Y-98364047D01*
X52843847Y-98325922D01*
X53079741Y-98279000D01*
X53320259Y-98279000D01*
X53556153Y-98325922D01*
X53556153Y-98325922D01*
G37*
G36*
X136248228Y-98181703D02*
G01*
X136403100Y-98245853D01*
X136542481Y-98338985D01*
X136661015Y-98457519D01*
X136754147Y-98596900D01*
X136818297Y-98751772D01*
X136851000Y-98916184D01*
X136851000Y-99083816D01*
X136818297Y-99248228D01*
X136754147Y-99403100D01*
X136661015Y-99542481D01*
X136542481Y-99661015D01*
X136403100Y-99754147D01*
X136248228Y-99818297D01*
X136083816Y-99851000D01*
X135916184Y-99851000D01*
X135751772Y-99818297D01*
X135596900Y-99754147D01*
X135457519Y-99661015D01*
X135338985Y-99542481D01*
X135245853Y-99403100D01*
X135181703Y-99248228D01*
X135149000Y-99083816D01*
X135149000Y-98916184D01*
X135181703Y-98751772D01*
X135245853Y-98596900D01*
X135338985Y-98457519D01*
X135457519Y-98338985D01*
X135596900Y-98245853D01*
X135751772Y-98181703D01*
X135916184Y-98149000D01*
X136083816Y-98149000D01*
X136248228Y-98181703D01*
X136248228Y-98181703D01*
G37*
G36*
X131248228Y-98181703D02*
G01*
X131403100Y-98245853D01*
X131542481Y-98338985D01*
X131661015Y-98457519D01*
X131754147Y-98596900D01*
X131818297Y-98751772D01*
X131851000Y-98916184D01*
X131851000Y-99083816D01*
X131818297Y-99248228D01*
X131754147Y-99403100D01*
X131661015Y-99542481D01*
X131542481Y-99661015D01*
X131403100Y-99754147D01*
X131248228Y-99818297D01*
X131083816Y-99851000D01*
X130916184Y-99851000D01*
X130751772Y-99818297D01*
X130596900Y-99754147D01*
X130457519Y-99661015D01*
X130338985Y-99542481D01*
X130245853Y-99403100D01*
X130181703Y-99248228D01*
X130149000Y-99083816D01*
X130149000Y-98916184D01*
X130181703Y-98751772D01*
X130245853Y-98596900D01*
X130338985Y-98457519D01*
X130457519Y-98338985D01*
X130596900Y-98245853D01*
X130751772Y-98181703D01*
X130916184Y-98149000D01*
X131083816Y-98149000D01*
X131248228Y-98181703D01*
X131248228Y-98181703D01*
G37*
G36*
X53438205Y-93302461D02*
G01*
X53556153Y-93325922D01*
X53616696Y-93351000D01*
X53778359Y-93417963D01*
X53978342Y-93551587D01*
X54148413Y-93721658D01*
X54282037Y-93921641D01*
X54374078Y-94143848D01*
X54421000Y-94379741D01*
X54421000Y-94620259D01*
X54374078Y-94856152D01*
X54282037Y-95078359D01*
X54148413Y-95278342D01*
X53978342Y-95448413D01*
X53778359Y-95582037D01*
X53648194Y-95635953D01*
X53556153Y-95674078D01*
X53320259Y-95721000D01*
X53079741Y-95721000D01*
X52843847Y-95674078D01*
X52751806Y-95635953D01*
X52621641Y-95582037D01*
X52421658Y-95448413D01*
X52251587Y-95278342D01*
X52117963Y-95078359D01*
X52025922Y-94856152D01*
X51979000Y-94620259D01*
X51979000Y-94379741D01*
X52025922Y-94143848D01*
X52117963Y-93921641D01*
X52251587Y-93721658D01*
X52421658Y-93551587D01*
X52621641Y-93417963D01*
X52783304Y-93351000D01*
X52843847Y-93325922D01*
X52961795Y-93302461D01*
X53079741Y-93279000D01*
X53320259Y-93279000D01*
X53438205Y-93302461D01*
X53438205Y-93302461D01*
G37*
G36*
X131248228Y-91681703D02*
G01*
X131403100Y-91745853D01*
X131542481Y-91838985D01*
X131661015Y-91957519D01*
X131754147Y-92096900D01*
X131818297Y-92251772D01*
X131851000Y-92416184D01*
X131851000Y-92583816D01*
X131818297Y-92748228D01*
X131754147Y-92903100D01*
X131661015Y-93042481D01*
X131542481Y-93161015D01*
X131403100Y-93254147D01*
X131248228Y-93318297D01*
X131083816Y-93351000D01*
X130916184Y-93351000D01*
X130751772Y-93318297D01*
X130596900Y-93254147D01*
X130457519Y-93161015D01*
X130338985Y-93042481D01*
X130245853Y-92903100D01*
X130181703Y-92748228D01*
X130149000Y-92583816D01*
X130149000Y-92416184D01*
X130181703Y-92251772D01*
X130245853Y-92096900D01*
X130338985Y-91957519D01*
X130457519Y-91838985D01*
X130596900Y-91745853D01*
X130751772Y-91681703D01*
X130916184Y-91649000D01*
X131083816Y-91649000D01*
X131248228Y-91681703D01*
X131248228Y-91681703D01*
G37*
G36*
X136248228Y-91681703D02*
G01*
X136403100Y-91745853D01*
X136542481Y-91838985D01*
X136661015Y-91957519D01*
X136754147Y-92096900D01*
X136818297Y-92251772D01*
X136851000Y-92416184D01*
X136851000Y-92583816D01*
X136818297Y-92748228D01*
X136754147Y-92903100D01*
X136661015Y-93042481D01*
X136542481Y-93161015D01*
X136403100Y-93254147D01*
X136248228Y-93318297D01*
X136083816Y-93351000D01*
X135916184Y-93351000D01*
X135751772Y-93318297D01*
X135596900Y-93254147D01*
X135457519Y-93161015D01*
X135338985Y-93042481D01*
X135245853Y-92903100D01*
X135181703Y-92748228D01*
X135149000Y-92583816D01*
X135149000Y-92416184D01*
X135181703Y-92251772D01*
X135245853Y-92096900D01*
X135338985Y-91957519D01*
X135457519Y-91838985D01*
X135596900Y-91745853D01*
X135751772Y-91681703D01*
X135916184Y-91649000D01*
X136083816Y-91649000D01*
X136248228Y-91681703D01*
X136248228Y-91681703D01*
G37*
G36*
X144248228Y-91681703D02*
G01*
X144403100Y-91745853D01*
X144542481Y-91838985D01*
X144661015Y-91957519D01*
X144754147Y-92096900D01*
X144818297Y-92251772D01*
X144851000Y-92416184D01*
X144851000Y-92583816D01*
X144818297Y-92748228D01*
X144754147Y-92903100D01*
X144661015Y-93042481D01*
X144542481Y-93161015D01*
X144403100Y-93254147D01*
X144248228Y-93318297D01*
X144083816Y-93351000D01*
X143916184Y-93351000D01*
X143751772Y-93318297D01*
X143596900Y-93254147D01*
X143457519Y-93161015D01*
X143338985Y-93042481D01*
X143245853Y-92903100D01*
X143181703Y-92748228D01*
X143149000Y-92583816D01*
X143149000Y-92416184D01*
X143181703Y-92251772D01*
X143245853Y-92096900D01*
X143338985Y-91957519D01*
X143457519Y-91838985D01*
X143596900Y-91745853D01*
X143751772Y-91681703D01*
X143916184Y-91649000D01*
X144083816Y-91649000D01*
X144248228Y-91681703D01*
X144248228Y-91681703D01*
G37*
G36*
X139248228Y-91681703D02*
G01*
X139403100Y-91745853D01*
X139542481Y-91838985D01*
X139661015Y-91957519D01*
X139754147Y-92096900D01*
X139818297Y-92251772D01*
X139851000Y-92416184D01*
X139851000Y-92583816D01*
X139818297Y-92748228D01*
X139754147Y-92903100D01*
X139661015Y-93042481D01*
X139542481Y-93161015D01*
X139403100Y-93254147D01*
X139248228Y-93318297D01*
X139083816Y-93351000D01*
X138916184Y-93351000D01*
X138751772Y-93318297D01*
X138596900Y-93254147D01*
X138457519Y-93161015D01*
X138338985Y-93042481D01*
X138245853Y-92903100D01*
X138181703Y-92748228D01*
X138149000Y-92583816D01*
X138149000Y-92416184D01*
X138181703Y-92251772D01*
X138245853Y-92096900D01*
X138338985Y-91957519D01*
X138457519Y-91838985D01*
X138596900Y-91745853D01*
X138751772Y-91681703D01*
X138916184Y-91649000D01*
X139083816Y-91649000D01*
X139248228Y-91681703D01*
X139248228Y-91681703D01*
G37*
G36*
X128248228Y-91681703D02*
G01*
X128403100Y-91745853D01*
X128542481Y-91838985D01*
X128661015Y-91957519D01*
X128754147Y-92096900D01*
X128818297Y-92251772D01*
X128851000Y-92416184D01*
X128851000Y-92583816D01*
X128818297Y-92748228D01*
X128754147Y-92903100D01*
X128661015Y-93042481D01*
X128542481Y-93161015D01*
X128403100Y-93254147D01*
X128248228Y-93318297D01*
X128083816Y-93351000D01*
X127916184Y-93351000D01*
X127751772Y-93318297D01*
X127596900Y-93254147D01*
X127457519Y-93161015D01*
X127338985Y-93042481D01*
X127245853Y-92903100D01*
X127181703Y-92748228D01*
X127149000Y-92583816D01*
X127149000Y-92416184D01*
X127181703Y-92251772D01*
X127245853Y-92096900D01*
X127338985Y-91957519D01*
X127457519Y-91838985D01*
X127596900Y-91745853D01*
X127751772Y-91681703D01*
X127916184Y-91649000D01*
X128083816Y-91649000D01*
X128248228Y-91681703D01*
X128248228Y-91681703D01*
G37*
G36*
X123248228Y-91681703D02*
G01*
X123403100Y-91745853D01*
X123542481Y-91838985D01*
X123661015Y-91957519D01*
X123754147Y-92096900D01*
X123818297Y-92251772D01*
X123851000Y-92416184D01*
X123851000Y-92583816D01*
X123818297Y-92748228D01*
X123754147Y-92903100D01*
X123661015Y-93042481D01*
X123542481Y-93161015D01*
X123403100Y-93254147D01*
X123248228Y-93318297D01*
X123083816Y-93351000D01*
X122916184Y-93351000D01*
X122751772Y-93318297D01*
X122596900Y-93254147D01*
X122457519Y-93161015D01*
X122338985Y-93042481D01*
X122245853Y-92903100D01*
X122181703Y-92748228D01*
X122149000Y-92583816D01*
X122149000Y-92416184D01*
X122181703Y-92251772D01*
X122245853Y-92096900D01*
X122338985Y-91957519D01*
X122457519Y-91838985D01*
X122596900Y-91745853D01*
X122751772Y-91681703D01*
X122916184Y-91649000D01*
X123083816Y-91649000D01*
X123248228Y-91681703D01*
X123248228Y-91681703D01*
G37*
G36*
X128248228Y-85681703D02*
G01*
X128403100Y-85745853D01*
X128542481Y-85838985D01*
X128661015Y-85957519D01*
X128754147Y-86096900D01*
X128818297Y-86251772D01*
X128851000Y-86416184D01*
X128851000Y-86583816D01*
X128818297Y-86748228D01*
X128754147Y-86903100D01*
X128661015Y-87042481D01*
X128542481Y-87161015D01*
X128403100Y-87254147D01*
X128248228Y-87318297D01*
X128083816Y-87351000D01*
X127916184Y-87351000D01*
X127751772Y-87318297D01*
X127596900Y-87254147D01*
X127457519Y-87161015D01*
X127338985Y-87042481D01*
X127245853Y-86903100D01*
X127181703Y-86748228D01*
X127149000Y-86583816D01*
X127149000Y-86416184D01*
X127181703Y-86251772D01*
X127245853Y-86096900D01*
X127338985Y-85957519D01*
X127457519Y-85838985D01*
X127596900Y-85745853D01*
X127751772Y-85681703D01*
X127916184Y-85649000D01*
X128083816Y-85649000D01*
X128248228Y-85681703D01*
X128248228Y-85681703D01*
G37*
G36*
X123248228Y-85681703D02*
G01*
X123403100Y-85745853D01*
X123542481Y-85838985D01*
X123661015Y-85957519D01*
X123754147Y-86096900D01*
X123818297Y-86251772D01*
X123851000Y-86416184D01*
X123851000Y-86583816D01*
X123818297Y-86748228D01*
X123754147Y-86903100D01*
X123661015Y-87042481D01*
X123542481Y-87161015D01*
X123403100Y-87254147D01*
X123248228Y-87318297D01*
X123083816Y-87351000D01*
X122916184Y-87351000D01*
X122751772Y-87318297D01*
X122596900Y-87254147D01*
X122457519Y-87161015D01*
X122338985Y-87042481D01*
X122245853Y-86903100D01*
X122181703Y-86748228D01*
X122149000Y-86583816D01*
X122149000Y-86416184D01*
X122181703Y-86251772D01*
X122245853Y-86096900D01*
X122338985Y-85957519D01*
X122457519Y-85838985D01*
X122596900Y-85745853D01*
X122751772Y-85681703D01*
X122916184Y-85649000D01*
X123083816Y-85649000D01*
X123248228Y-85681703D01*
X123248228Y-85681703D01*
G37*
G36*
X116274034Y-82779000D02*
G01*
X116364903Y-82797075D01*
X116592571Y-82891378D01*
X116797466Y-83028285D01*
X116971715Y-83202534D01*
X116971716Y-83202536D01*
X117108623Y-83407431D01*
X117202925Y-83635097D01*
X117251000Y-83876786D01*
X117251000Y-84123214D01*
X117202925Y-84364903D01*
X117114509Y-84578360D01*
X117108622Y-84592571D01*
X116971715Y-84797466D01*
X116797466Y-84971715D01*
X116592571Y-85108622D01*
X116592570Y-85108623D01*
X116592569Y-85108623D01*
X116364903Y-85202925D01*
X116123214Y-85251000D01*
X115876786Y-85251000D01*
X115635097Y-85202925D01*
X115407431Y-85108623D01*
X115407430Y-85108623D01*
X115407429Y-85108622D01*
X115202534Y-84971715D01*
X115028285Y-84797466D01*
X114891378Y-84592571D01*
X114885492Y-84578360D01*
X114797075Y-84364903D01*
X114749000Y-84123214D01*
X114749000Y-83876786D01*
X114797075Y-83635097D01*
X114891377Y-83407431D01*
X115028284Y-83202536D01*
X115028285Y-83202534D01*
X115202534Y-83028285D01*
X115407429Y-82891378D01*
X115635097Y-82797075D01*
X115725966Y-82779000D01*
X115876786Y-82749000D01*
X116123214Y-82749000D01*
X116274034Y-82779000D01*
X116274034Y-82779000D01*
G37*
G36*
X53411128Y-82797075D02*
G01*
X53556153Y-82825922D01*
X53648194Y-82864047D01*
X53778359Y-82917963D01*
X53978342Y-83051587D01*
X54148413Y-83221658D01*
X54282037Y-83421641D01*
X54335953Y-83551806D01*
X54374078Y-83643847D01*
X54421000Y-83879742D01*
X54421000Y-84120258D01*
X54374078Y-84356153D01*
X54335953Y-84448194D01*
X54282037Y-84578359D01*
X54148413Y-84778342D01*
X53978342Y-84948413D01*
X53778359Y-85082037D01*
X53648194Y-85135953D01*
X53556153Y-85174078D01*
X53320259Y-85221000D01*
X53079741Y-85221000D01*
X52843847Y-85174078D01*
X52751806Y-85135953D01*
X52621641Y-85082037D01*
X52421658Y-84948413D01*
X52251587Y-84778342D01*
X52117963Y-84578359D01*
X52064047Y-84448194D01*
X52025922Y-84356153D01*
X51979000Y-84120258D01*
X51979000Y-83879742D01*
X52025922Y-83643847D01*
X52064047Y-83551806D01*
X52117963Y-83421641D01*
X52251587Y-83221658D01*
X52421658Y-83051587D01*
X52621641Y-82917963D01*
X52751806Y-82864047D01*
X52843847Y-82825922D01*
X52988872Y-82797075D01*
X53079741Y-82779000D01*
X53320259Y-82779000D01*
X53411128Y-82797075D01*
X53411128Y-82797075D01*
G37*
G36*
X106551000Y-81051000D02*
G01*
X103449000Y-81051000D01*
X103449000Y-77949000D01*
X106551000Y-77949000D01*
X106551000Y-81051000D01*
X106551000Y-81051000D01*
G37*
G36*
X117251000Y-80251000D02*
G01*
X114749000Y-80251000D01*
X114749000Y-77749000D01*
X117251000Y-77749000D01*
X117251000Y-80251000D01*
X117251000Y-80251000D01*
G37*
G36*
X53438205Y-77802461D02*
G01*
X53556153Y-77825922D01*
X53648194Y-77864047D01*
X53778359Y-77917963D01*
X53978342Y-78051587D01*
X54148413Y-78221658D01*
X54282037Y-78421641D01*
X54374078Y-78643848D01*
X54421000Y-78879741D01*
X54421000Y-79120259D01*
X54374078Y-79356152D01*
X54282037Y-79578359D01*
X54148413Y-79778342D01*
X53978342Y-79948413D01*
X53778359Y-80082037D01*
X53648194Y-80135953D01*
X53556153Y-80174078D01*
X53438205Y-80197539D01*
X53320259Y-80221000D01*
X53079741Y-80221000D01*
X52961795Y-80197539D01*
X52843847Y-80174078D01*
X52751806Y-80135953D01*
X52621641Y-80082037D01*
X52421658Y-79948413D01*
X52251587Y-79778342D01*
X52117963Y-79578359D01*
X52025922Y-79356152D01*
X51979000Y-79120259D01*
X51979000Y-78879741D01*
X52025922Y-78643848D01*
X52117963Y-78421641D01*
X52251587Y-78221658D01*
X52421658Y-78051587D01*
X52621641Y-77917963D01*
X52751806Y-77864047D01*
X52843847Y-77825922D01*
X52961795Y-77802461D01*
X53079741Y-77779000D01*
X53320259Y-77779000D01*
X53438205Y-77802461D01*
X53438205Y-77802461D01*
G37*
G36*
X105302585Y-72898802D02*
G01*
X105452410Y-72928604D01*
X105734674Y-73045521D01*
X105988705Y-73215259D01*
X106204741Y-73431295D01*
X106374479Y-73685326D01*
X106491396Y-73967590D01*
X106551000Y-74267240D01*
X106551000Y-74572760D01*
X106491396Y-74872410D01*
X106374479Y-75154674D01*
X106204741Y-75408705D01*
X105988705Y-75624741D01*
X105734674Y-75794479D01*
X105452410Y-75911396D01*
X105302585Y-75941198D01*
X105152761Y-75971000D01*
X104847239Y-75971000D01*
X104697415Y-75941198D01*
X104547590Y-75911396D01*
X104265326Y-75794479D01*
X104011295Y-75624741D01*
X103795259Y-75408705D01*
X103625521Y-75154674D01*
X103508604Y-74872410D01*
X103449000Y-74572760D01*
X103449000Y-74267240D01*
X103508604Y-73967590D01*
X103625521Y-73685326D01*
X103795259Y-73431295D01*
X104011295Y-73215259D01*
X104265326Y-73045521D01*
X104547590Y-72928604D01*
X104697415Y-72898802D01*
X104847239Y-72869000D01*
X105152761Y-72869000D01*
X105302585Y-72898802D01*
X105302585Y-72898802D01*
G37*
G36*
X53556153Y-72825922D02*
G01*
X53648194Y-72864047D01*
X53778359Y-72917963D01*
X53978342Y-73051587D01*
X54148413Y-73221658D01*
X54282037Y-73421641D01*
X54286036Y-73431296D01*
X54374078Y-73643847D01*
X54421000Y-73879742D01*
X54421000Y-74120258D01*
X54374078Y-74356153D01*
X54341559Y-74434660D01*
X54282037Y-74578359D01*
X54148413Y-74778342D01*
X53978342Y-74948413D01*
X53778359Y-75082037D01*
X53648194Y-75135953D01*
X53556153Y-75174078D01*
X53320259Y-75221000D01*
X53079741Y-75221000D01*
X52843847Y-75174078D01*
X52751806Y-75135953D01*
X52621641Y-75082037D01*
X52421658Y-74948413D01*
X52251587Y-74778342D01*
X52117963Y-74578359D01*
X52058441Y-74434660D01*
X52025922Y-74356153D01*
X51979000Y-74120258D01*
X51979000Y-73879742D01*
X52025922Y-73643847D01*
X52113964Y-73431296D01*
X52117963Y-73421641D01*
X52251587Y-73221658D01*
X52421658Y-73051587D01*
X52621641Y-72917963D01*
X52751806Y-72864047D01*
X52843847Y-72825922D01*
X53079741Y-72779000D01*
X53320259Y-72779000D01*
X53556153Y-72825922D01*
X53556153Y-72825922D01*
G37*
G36*
X81901000Y-74901000D02*
G01*
X80099000Y-74901000D01*
X80099000Y-73099000D01*
X81901000Y-73099000D01*
X81901000Y-74901000D01*
X81901000Y-74901000D01*
G37*
G36*
X83650442Y-73105518D02*
G01*
X83716627Y-73112037D01*
X83886466Y-73163557D01*
X84042991Y-73247222D01*
X84078729Y-73276552D01*
X84180186Y-73359814D01*
X84263448Y-73461271D01*
X84292778Y-73497009D01*
X84376443Y-73653534D01*
X84427963Y-73823373D01*
X84445359Y-74000000D01*
X84427963Y-74176627D01*
X84376443Y-74346466D01*
X84292778Y-74502991D01*
X84271051Y-74529465D01*
X84180186Y-74640186D01*
X84078729Y-74723448D01*
X84042991Y-74752778D01*
X83886466Y-74836443D01*
X83716627Y-74887963D01*
X83650443Y-74894481D01*
X83584260Y-74901000D01*
X83495740Y-74901000D01*
X83429557Y-74894481D01*
X83363373Y-74887963D01*
X83193534Y-74836443D01*
X83037009Y-74752778D01*
X83001271Y-74723448D01*
X82899814Y-74640186D01*
X82808949Y-74529465D01*
X82787222Y-74502991D01*
X82703557Y-74346466D01*
X82652037Y-74176627D01*
X82634641Y-74000000D01*
X82652037Y-73823373D01*
X82703557Y-73653534D01*
X82787222Y-73497009D01*
X82816552Y-73461271D01*
X82899814Y-73359814D01*
X83001271Y-73276552D01*
X83037009Y-73247222D01*
X83193534Y-73163557D01*
X83363373Y-73112037D01*
X83429558Y-73105518D01*
X83495740Y-73099000D01*
X83584260Y-73099000D01*
X83650442Y-73105518D01*
X83650442Y-73105518D01*
G37*
G36*
X131171934Y-70502671D02*
G01*
X131201877Y-70511754D01*
X131229465Y-70526500D01*
X131253651Y-70546349D01*
X131273500Y-70570535D01*
X131288246Y-70598123D01*
X131297329Y-70628066D01*
X131301000Y-70665340D01*
X131301000Y-74434660D01*
X131297329Y-74471934D01*
X131288246Y-74501877D01*
X131273500Y-74529465D01*
X131253651Y-74553651D01*
X131229465Y-74573500D01*
X131201877Y-74588246D01*
X131171934Y-74597329D01*
X131134660Y-74601000D01*
X128865340Y-74601000D01*
X128828066Y-74597329D01*
X128798123Y-74588246D01*
X128770535Y-74573500D01*
X128746349Y-74553651D01*
X128726500Y-74529465D01*
X128711754Y-74501877D01*
X128702671Y-74471934D01*
X128699000Y-74434660D01*
X128699000Y-70665340D01*
X128702671Y-70628066D01*
X128711754Y-70598123D01*
X128726500Y-70570535D01*
X128746349Y-70546349D01*
X128770535Y-70526500D01*
X128798123Y-70511754D01*
X128828066Y-70502671D01*
X128865340Y-70499000D01*
X131134660Y-70499000D01*
X131171934Y-70502671D01*
X131171934Y-70502671D01*
G37*
G36*
X146171934Y-70502671D02*
G01*
X146201877Y-70511754D01*
X146229465Y-70526500D01*
X146253651Y-70546349D01*
X146273500Y-70570535D01*
X146288246Y-70598123D01*
X146297329Y-70628066D01*
X146301000Y-70665340D01*
X146301000Y-74434660D01*
X146297329Y-74471934D01*
X146288246Y-74501877D01*
X146273500Y-74529465D01*
X146253651Y-74553651D01*
X146229465Y-74573500D01*
X146201877Y-74588246D01*
X146171934Y-74597329D01*
X146134660Y-74601000D01*
X143865340Y-74601000D01*
X143828066Y-74597329D01*
X143798123Y-74588246D01*
X143770535Y-74573500D01*
X143746349Y-74553651D01*
X143726500Y-74529465D01*
X143711754Y-74501877D01*
X143702671Y-74471934D01*
X143699000Y-74434660D01*
X143699000Y-70665340D01*
X143702671Y-70628066D01*
X143711754Y-70598123D01*
X143726500Y-70570535D01*
X143746349Y-70546349D01*
X143770535Y-70526500D01*
X143798123Y-70511754D01*
X143828066Y-70502671D01*
X143865340Y-70499000D01*
X146134660Y-70499000D01*
X146171934Y-70502671D01*
X146171934Y-70502671D01*
G37*
G36*
X116364903Y-69297075D02*
G01*
X116529382Y-69365204D01*
X116592571Y-69391378D01*
X116797466Y-69528285D01*
X116971715Y-69702534D01*
X117031768Y-69792410D01*
X117108623Y-69907431D01*
X117202925Y-70135097D01*
X117251000Y-70376786D01*
X117251000Y-70623214D01*
X117234048Y-70708437D01*
X117202925Y-70864903D01*
X117108622Y-71092571D01*
X116971715Y-71297466D01*
X116797466Y-71471715D01*
X116592571Y-71608622D01*
X116592570Y-71608623D01*
X116592569Y-71608623D01*
X116364903Y-71702925D01*
X116123214Y-71751000D01*
X115876786Y-71751000D01*
X115635097Y-71702925D01*
X115407431Y-71608623D01*
X115407430Y-71608623D01*
X115407429Y-71608622D01*
X115202534Y-71471715D01*
X115028285Y-71297466D01*
X114891378Y-71092571D01*
X114797075Y-70864903D01*
X114765952Y-70708437D01*
X114749000Y-70623214D01*
X114749000Y-70376786D01*
X114797075Y-70135097D01*
X114891377Y-69907431D01*
X114968232Y-69792410D01*
X115028285Y-69702534D01*
X115202534Y-69528285D01*
X115407429Y-69391378D01*
X115470619Y-69365204D01*
X115635097Y-69297075D01*
X115876786Y-69249000D01*
X116123214Y-69249000D01*
X116364903Y-69297075D01*
X116364903Y-69297075D01*
G37*
G36*
X105302585Y-67818802D02*
G01*
X105452410Y-67848604D01*
X105734674Y-67965521D01*
X105988705Y-68135259D01*
X106204741Y-68351295D01*
X106374479Y-68605326D01*
X106491396Y-68887590D01*
X106491396Y-68887591D01*
X106551000Y-69187239D01*
X106551000Y-69492761D01*
X106521198Y-69642585D01*
X106491396Y-69792410D01*
X106374479Y-70074674D01*
X106204741Y-70328705D01*
X105988705Y-70544741D01*
X105734674Y-70714479D01*
X105452410Y-70831396D01*
X105302585Y-70861198D01*
X105152761Y-70891000D01*
X104847239Y-70891000D01*
X104697415Y-70861198D01*
X104547590Y-70831396D01*
X104265326Y-70714479D01*
X104011295Y-70544741D01*
X103795259Y-70328705D01*
X103625521Y-70074674D01*
X103508604Y-69792410D01*
X103478802Y-69642585D01*
X103449000Y-69492761D01*
X103449000Y-69187239D01*
X103508604Y-68887591D01*
X103508604Y-68887590D01*
X103625521Y-68605326D01*
X103795259Y-68351295D01*
X104011295Y-68135259D01*
X104265326Y-67965521D01*
X104547590Y-67848604D01*
X104697415Y-67818802D01*
X104847239Y-67789000D01*
X105152761Y-67789000D01*
X105302585Y-67818802D01*
X105302585Y-67818802D01*
G37*
G36*
X80045589Y-68238876D02*
G01*
X80144893Y-68258629D01*
X80285206Y-68316748D01*
X80411484Y-68401125D01*
X80518875Y-68508516D01*
X80603252Y-68634794D01*
X80661371Y-68775107D01*
X80691000Y-68924063D01*
X80691000Y-69075937D01*
X80661371Y-69224893D01*
X80603252Y-69365206D01*
X80518875Y-69491484D01*
X80411484Y-69598875D01*
X80285206Y-69683252D01*
X80144893Y-69741371D01*
X80045589Y-69761124D01*
X79995938Y-69771000D01*
X79844062Y-69771000D01*
X79794411Y-69761124D01*
X79695107Y-69741371D01*
X79554794Y-69683252D01*
X79428516Y-69598875D01*
X79321125Y-69491484D01*
X79236748Y-69365206D01*
X79178629Y-69224893D01*
X79149000Y-69075937D01*
X79149000Y-68924063D01*
X79178629Y-68775107D01*
X79236748Y-68634794D01*
X79321125Y-68508516D01*
X79428516Y-68401125D01*
X79554794Y-68316748D01*
X79695107Y-68258629D01*
X79794411Y-68238876D01*
X79844062Y-68229000D01*
X79995938Y-68229000D01*
X80045589Y-68238876D01*
X80045589Y-68238876D01*
G37*
G36*
X82585589Y-68238876D02*
G01*
X82684893Y-68258629D01*
X82825206Y-68316748D01*
X82951484Y-68401125D01*
X83058875Y-68508516D01*
X83143252Y-68634794D01*
X83201371Y-68775107D01*
X83231000Y-68924063D01*
X83231000Y-69075937D01*
X83201371Y-69224893D01*
X83143252Y-69365206D01*
X83058875Y-69491484D01*
X82951484Y-69598875D01*
X82825206Y-69683252D01*
X82684893Y-69741371D01*
X82585589Y-69761124D01*
X82535938Y-69771000D01*
X82384062Y-69771000D01*
X82334411Y-69761124D01*
X82235107Y-69741371D01*
X82094794Y-69683252D01*
X81968516Y-69598875D01*
X81861125Y-69491484D01*
X81776748Y-69365206D01*
X81718629Y-69224893D01*
X81689000Y-69075937D01*
X81689000Y-68924063D01*
X81718629Y-68775107D01*
X81776748Y-68634794D01*
X81861125Y-68508516D01*
X81968516Y-68401125D01*
X82094794Y-68316748D01*
X82235107Y-68258629D01*
X82334411Y-68238876D01*
X82384062Y-68229000D01*
X82535938Y-68229000D01*
X82585589Y-68238876D01*
X82585589Y-68238876D01*
G37*
G36*
X85125589Y-68238876D02*
G01*
X85224893Y-68258629D01*
X85365206Y-68316748D01*
X85491484Y-68401125D01*
X85598875Y-68508516D01*
X85683252Y-68634794D01*
X85741371Y-68775107D01*
X85771000Y-68924063D01*
X85771000Y-69075937D01*
X85741371Y-69224893D01*
X85683252Y-69365206D01*
X85598875Y-69491484D01*
X85491484Y-69598875D01*
X85365206Y-69683252D01*
X85224893Y-69741371D01*
X85125589Y-69761124D01*
X85075938Y-69771000D01*
X84924062Y-69771000D01*
X84874411Y-69761124D01*
X84775107Y-69741371D01*
X84634794Y-69683252D01*
X84508516Y-69598875D01*
X84401125Y-69491484D01*
X84316748Y-69365206D01*
X84258629Y-69224893D01*
X84229000Y-69075937D01*
X84229000Y-68924063D01*
X84258629Y-68775107D01*
X84316748Y-68634794D01*
X84401125Y-68508516D01*
X84508516Y-68401125D01*
X84634794Y-68316748D01*
X84775107Y-68258629D01*
X84874411Y-68238876D01*
X84924062Y-68229000D01*
X85075938Y-68229000D01*
X85125589Y-68238876D01*
X85125589Y-68238876D01*
G37*
G36*
X131171934Y-64402671D02*
G01*
X131201877Y-64411754D01*
X131229465Y-64426500D01*
X131253651Y-64446349D01*
X131273500Y-64470535D01*
X131288246Y-64498123D01*
X131297329Y-64528066D01*
X131301000Y-64565340D01*
X131301000Y-68334660D01*
X131297329Y-68371934D01*
X131288246Y-68401877D01*
X131273500Y-68429465D01*
X131253651Y-68453651D01*
X131229465Y-68473500D01*
X131201877Y-68488246D01*
X131171934Y-68497329D01*
X131134660Y-68501000D01*
X128865340Y-68501000D01*
X128828066Y-68497329D01*
X128798123Y-68488246D01*
X128770535Y-68473500D01*
X128746349Y-68453651D01*
X128726500Y-68429465D01*
X128711754Y-68401877D01*
X128702671Y-68371934D01*
X128699000Y-68334660D01*
X128699000Y-64565340D01*
X128702671Y-64528066D01*
X128711754Y-64498123D01*
X128726500Y-64470535D01*
X128746349Y-64446349D01*
X128770535Y-64426500D01*
X128798123Y-64411754D01*
X128828066Y-64402671D01*
X128865340Y-64399000D01*
X131134660Y-64399000D01*
X131171934Y-64402671D01*
X131171934Y-64402671D01*
G37*
G36*
X146171934Y-64402671D02*
G01*
X146201877Y-64411754D01*
X146229465Y-64426500D01*
X146253651Y-64446349D01*
X146273500Y-64470535D01*
X146288246Y-64498123D01*
X146297329Y-64528066D01*
X146301000Y-64565340D01*
X146301000Y-68334660D01*
X146297329Y-68371934D01*
X146288246Y-68401877D01*
X146273500Y-68429465D01*
X146253651Y-68453651D01*
X146229465Y-68473500D01*
X146201877Y-68488246D01*
X146171934Y-68497329D01*
X146134660Y-68501000D01*
X143865340Y-68501000D01*
X143828066Y-68497329D01*
X143798123Y-68488246D01*
X143770535Y-68473500D01*
X143746349Y-68453651D01*
X143726500Y-68429465D01*
X143711754Y-68401877D01*
X143702671Y-68371934D01*
X143699000Y-68334660D01*
X143699000Y-64565340D01*
X143702671Y-64528066D01*
X143711754Y-64498123D01*
X143726500Y-64470535D01*
X143746349Y-64446349D01*
X143770535Y-64426500D01*
X143798123Y-64411754D01*
X143828066Y-64402671D01*
X143865340Y-64399000D01*
X146134660Y-64399000D01*
X146171934Y-64402671D01*
X146171934Y-64402671D01*
G37*
G36*
X91639294Y-65098633D02*
G01*
X91811695Y-65150931D01*
X91970583Y-65235858D01*
X92109849Y-65350151D01*
X92224142Y-65489417D01*
X92309069Y-65648305D01*
X92361367Y-65820706D01*
X92379025Y-66000000D01*
X92361367Y-66179294D01*
X92309069Y-66351695D01*
X92224142Y-66510583D01*
X92109849Y-66649849D01*
X91970583Y-66764142D01*
X91811695Y-66849069D01*
X91639294Y-66901367D01*
X91504931Y-66914600D01*
X91415069Y-66914600D01*
X91280706Y-66901367D01*
X91108305Y-66849069D01*
X90949417Y-66764142D01*
X90810151Y-66649849D01*
X90695858Y-66510583D01*
X90610931Y-66351695D01*
X90558633Y-66179294D01*
X90540975Y-66000000D01*
X90558633Y-65820706D01*
X90610931Y-65648305D01*
X90695858Y-65489417D01*
X90810151Y-65350151D01*
X90949417Y-65235858D01*
X91108305Y-65150931D01*
X91280706Y-65098633D01*
X91415069Y-65085400D01*
X91504931Y-65085400D01*
X91639294Y-65098633D01*
X91639294Y-65098633D01*
G37*
G36*
X94914600Y-66914600D02*
G01*
X93085400Y-66914600D01*
X93085400Y-65085400D01*
X94914600Y-65085400D01*
X94914600Y-66914600D01*
X94914600Y-66914600D01*
G37*
G36*
X117251000Y-66751000D02*
G01*
X114749000Y-66751000D01*
X114749000Y-64249000D01*
X117251000Y-64249000D01*
X117251000Y-66751000D01*
X117251000Y-66751000D01*
G37*
G36*
X53556153Y-62125922D02*
G01*
X53648194Y-62164047D01*
X53778359Y-62217963D01*
X53978342Y-62351587D01*
X54148413Y-62521658D01*
X54282037Y-62721641D01*
X54318699Y-62810151D01*
X54374078Y-62943847D01*
X54376188Y-62954454D01*
X54406791Y-63108305D01*
X54421000Y-63179742D01*
X54421000Y-63420258D01*
X54377432Y-63639293D01*
X54374078Y-63656152D01*
X54282037Y-63878359D01*
X54148413Y-64078342D01*
X53978342Y-64248413D01*
X53778359Y-64382037D01*
X53648194Y-64435953D01*
X53556153Y-64474078D01*
X53438205Y-64497539D01*
X53320259Y-64521000D01*
X53079741Y-64521000D01*
X52961795Y-64497539D01*
X52843847Y-64474078D01*
X52751806Y-64435953D01*
X52621641Y-64382037D01*
X52421658Y-64248413D01*
X52251587Y-64078342D01*
X52117963Y-63878359D01*
X52025922Y-63656152D01*
X52022569Y-63639293D01*
X51979000Y-63420258D01*
X51979000Y-63179742D01*
X51993210Y-63108305D01*
X52023812Y-62954454D01*
X52025922Y-62943847D01*
X52081301Y-62810151D01*
X52117963Y-62721641D01*
X52251587Y-62521658D01*
X52421658Y-62351587D01*
X52621641Y-62217963D01*
X52751806Y-62164047D01*
X52843847Y-62125922D01*
X53079741Y-62079000D01*
X53320259Y-62079000D01*
X53556153Y-62125922D01*
X53556153Y-62125922D01*
G37*
G36*
X94179294Y-62558633D02*
G01*
X94351695Y-62610931D01*
X94510583Y-62695858D01*
X94649849Y-62810151D01*
X94764142Y-62949417D01*
X94849069Y-63108305D01*
X94901367Y-63280706D01*
X94919025Y-63460000D01*
X94901367Y-63639294D01*
X94849069Y-63811695D01*
X94764142Y-63970583D01*
X94649849Y-64109849D01*
X94510583Y-64224142D01*
X94351695Y-64309069D01*
X94179294Y-64361367D01*
X94044931Y-64374600D01*
X93955069Y-64374600D01*
X93820706Y-64361367D01*
X93648305Y-64309069D01*
X93489417Y-64224142D01*
X93350151Y-64109849D01*
X93235858Y-63970583D01*
X93150931Y-63811695D01*
X93098633Y-63639294D01*
X93080975Y-63460000D01*
X93098633Y-63280706D01*
X93150931Y-63108305D01*
X93235858Y-62949417D01*
X93350151Y-62810151D01*
X93489417Y-62695858D01*
X93648305Y-62610931D01*
X93820706Y-62558633D01*
X93955069Y-62545400D01*
X94044931Y-62545400D01*
X94179294Y-62558633D01*
X94179294Y-62558633D01*
G37*
G36*
X91639294Y-62558633D02*
G01*
X91811695Y-62610931D01*
X91970583Y-62695858D01*
X92109849Y-62810151D01*
X92224142Y-62949417D01*
X92309069Y-63108305D01*
X92361367Y-63280706D01*
X92379025Y-63460000D01*
X92361367Y-63639294D01*
X92309069Y-63811695D01*
X92224142Y-63970583D01*
X92109849Y-64109849D01*
X91970583Y-64224142D01*
X91811695Y-64309069D01*
X91639294Y-64361367D01*
X91504931Y-64374600D01*
X91415069Y-64374600D01*
X91280706Y-64361367D01*
X91108305Y-64309069D01*
X90949417Y-64224142D01*
X90810151Y-64109849D01*
X90695858Y-63970583D01*
X90610931Y-63811695D01*
X90558633Y-63639294D01*
X90540975Y-63460000D01*
X90558633Y-63280706D01*
X90610931Y-63108305D01*
X90695858Y-62949417D01*
X90810151Y-62810151D01*
X90949417Y-62695858D01*
X91108305Y-62610931D01*
X91280706Y-62558633D01*
X91415069Y-62545400D01*
X91504931Y-62545400D01*
X91639294Y-62558633D01*
X91639294Y-62558633D01*
G37*
G36*
X147027395Y-61125546D02*
G01*
X147200466Y-61197234D01*
X147200467Y-61197235D01*
X147356227Y-61301310D01*
X147488690Y-61433773D01*
X147488691Y-61433775D01*
X147592766Y-61589534D01*
X147664454Y-61762605D01*
X147701000Y-61946333D01*
X147701000Y-62133667D01*
X147664454Y-62317395D01*
X147592766Y-62490466D01*
X147541081Y-62567818D01*
X147488690Y-62646227D01*
X147356227Y-62778690D01*
X147309142Y-62810151D01*
X147200466Y-62882766D01*
X147027395Y-62954454D01*
X146843667Y-62991000D01*
X146656333Y-62991000D01*
X146472605Y-62954454D01*
X146299534Y-62882766D01*
X146190858Y-62810151D01*
X146143773Y-62778690D01*
X146011310Y-62646227D01*
X145958919Y-62567818D01*
X145907234Y-62490466D01*
X145835546Y-62317395D01*
X145799000Y-62133667D01*
X145799000Y-61946333D01*
X145835546Y-61762605D01*
X145907234Y-61589534D01*
X146011309Y-61433775D01*
X146011310Y-61433773D01*
X146143773Y-61301310D01*
X146299533Y-61197235D01*
X146299534Y-61197234D01*
X146472605Y-61125546D01*
X146656333Y-61089000D01*
X146843667Y-61089000D01*
X147027395Y-61125546D01*
X147027395Y-61125546D01*
G37*
G36*
X85801000Y-62801000D02*
G01*
X84199000Y-62801000D01*
X84199000Y-61199000D01*
X85801000Y-61199000D01*
X85801000Y-62801000D01*
X85801000Y-62801000D01*
G37*
G36*
X91639294Y-60018633D02*
G01*
X91811695Y-60070931D01*
X91970583Y-60155858D01*
X92109849Y-60270151D01*
X92224142Y-60409417D01*
X92309069Y-60568305D01*
X92361367Y-60740706D01*
X92379025Y-60920000D01*
X92361367Y-61099294D01*
X92309069Y-61271695D01*
X92224142Y-61430583D01*
X92109849Y-61569849D01*
X91970583Y-61684142D01*
X91811695Y-61769069D01*
X91639294Y-61821367D01*
X91504931Y-61834600D01*
X91415069Y-61834600D01*
X91280706Y-61821367D01*
X91108305Y-61769069D01*
X90949417Y-61684142D01*
X90810151Y-61569849D01*
X90695858Y-61430583D01*
X90610931Y-61271695D01*
X90558633Y-61099294D01*
X90540975Y-60920000D01*
X90558633Y-60740706D01*
X90610931Y-60568305D01*
X90695858Y-60409417D01*
X90810151Y-60270151D01*
X90949417Y-60155858D01*
X91108305Y-60070931D01*
X91280706Y-60018633D01*
X91415069Y-60005400D01*
X91504931Y-60005400D01*
X91639294Y-60018633D01*
X91639294Y-60018633D01*
G37*
G36*
X94179294Y-60018633D02*
G01*
X94351695Y-60070931D01*
X94510583Y-60155858D01*
X94649849Y-60270151D01*
X94764142Y-60409417D01*
X94849069Y-60568305D01*
X94901367Y-60740706D01*
X94919025Y-60920000D01*
X94901367Y-61099294D01*
X94849069Y-61271695D01*
X94764142Y-61430583D01*
X94649849Y-61569849D01*
X94510583Y-61684142D01*
X94351695Y-61769069D01*
X94179294Y-61821367D01*
X94044931Y-61834600D01*
X93955069Y-61834600D01*
X93820706Y-61821367D01*
X93648305Y-61769069D01*
X93489417Y-61684142D01*
X93350151Y-61569849D01*
X93235858Y-61430583D01*
X93150931Y-61271695D01*
X93098633Y-61099294D01*
X93080975Y-60920000D01*
X93098633Y-60740706D01*
X93150931Y-60568305D01*
X93235858Y-60409417D01*
X93350151Y-60270151D01*
X93489417Y-60155858D01*
X93648305Y-60070931D01*
X93820706Y-60018633D01*
X93955069Y-60005400D01*
X94044931Y-60005400D01*
X94179294Y-60018633D01*
X94179294Y-60018633D01*
G37*
G36*
X140744098Y-56047033D02*
G01*
X141208350Y-56239332D01*
X141208352Y-56239333D01*
X141626168Y-56518509D01*
X141981491Y-56873832D01*
X142211854Y-57218595D01*
X142260668Y-57291650D01*
X142452967Y-57755902D01*
X142551000Y-58248747D01*
X142551000Y-58751253D01*
X142452967Y-59244098D01*
X142331093Y-59538329D01*
X142260667Y-59708352D01*
X141981491Y-60126168D01*
X141626168Y-60481491D01*
X141208352Y-60760667D01*
X141208351Y-60760668D01*
X141208350Y-60760668D01*
X140744098Y-60952967D01*
X140251253Y-61051000D01*
X139748747Y-61051000D01*
X139255902Y-60952967D01*
X138791650Y-60760668D01*
X138791649Y-60760668D01*
X138791648Y-60760667D01*
X138373832Y-60481491D01*
X138018509Y-60126168D01*
X137739333Y-59708352D01*
X137668907Y-59538329D01*
X137547033Y-59244098D01*
X137449000Y-58751253D01*
X137449000Y-58248747D01*
X137547033Y-57755902D01*
X137739332Y-57291650D01*
X137788146Y-57218595D01*
X138018509Y-56873832D01*
X138373832Y-56518509D01*
X138791648Y-56239333D01*
X138791650Y-56239332D01*
X139255902Y-56047033D01*
X139748747Y-55949000D01*
X140251253Y-55949000D01*
X140744098Y-56047033D01*
X140744098Y-56047033D01*
G37*
G36*
X104994098Y-56047033D02*
G01*
X105458350Y-56239332D01*
X105458352Y-56239333D01*
X105876168Y-56518509D01*
X106231491Y-56873832D01*
X106461854Y-57218595D01*
X106510668Y-57291650D01*
X106702967Y-57755902D01*
X106801000Y-58248747D01*
X106801000Y-58751253D01*
X106702967Y-59244098D01*
X106581093Y-59538329D01*
X106510667Y-59708352D01*
X106231491Y-60126168D01*
X105876168Y-60481491D01*
X105458352Y-60760667D01*
X105458351Y-60760668D01*
X105458350Y-60760668D01*
X104994098Y-60952967D01*
X104501253Y-61051000D01*
X103998747Y-61051000D01*
X103505902Y-60952967D01*
X103041650Y-60760668D01*
X103041649Y-60760668D01*
X103041648Y-60760667D01*
X102623832Y-60481491D01*
X102268509Y-60126168D01*
X101989333Y-59708352D01*
X101918907Y-59538329D01*
X101797033Y-59244098D01*
X101699000Y-58751253D01*
X101699000Y-58248747D01*
X101797033Y-57755902D01*
X101989332Y-57291650D01*
X102038146Y-57218595D01*
X102268509Y-56873832D01*
X102623832Y-56518509D01*
X103041648Y-56239333D01*
X103041650Y-56239332D01*
X103505902Y-56047033D01*
X103998747Y-55949000D01*
X104501253Y-55949000D01*
X104994098Y-56047033D01*
X104994098Y-56047033D01*
G37*
G36*
X147701000Y-60451000D02*
G01*
X145799000Y-60451000D01*
X145799000Y-58549000D01*
X147701000Y-58549000D01*
X147701000Y-60451000D01*
X147701000Y-60451000D01*
G37*
G36*
X53556153Y-57125922D02*
G01*
X53648194Y-57164047D01*
X53778359Y-57217963D01*
X53978342Y-57351587D01*
X54148413Y-57521658D01*
X54282037Y-57721641D01*
X54374078Y-57943848D01*
X54421000Y-58179741D01*
X54421000Y-58420259D01*
X54374078Y-58656152D01*
X54282037Y-58878359D01*
X54148413Y-59078342D01*
X53978342Y-59248413D01*
X53778359Y-59382037D01*
X53671851Y-59426154D01*
X53556153Y-59474078D01*
X53438205Y-59497539D01*
X53320259Y-59521000D01*
X53079741Y-59521000D01*
X52961795Y-59497539D01*
X52843847Y-59474078D01*
X52728149Y-59426154D01*
X52621641Y-59382037D01*
X52421658Y-59248413D01*
X52251587Y-59078342D01*
X52117963Y-58878359D01*
X52025922Y-58656152D01*
X51979000Y-58420259D01*
X51979000Y-58179741D01*
X52025922Y-57943848D01*
X52117963Y-57721641D01*
X52251587Y-57521658D01*
X52421658Y-57351587D01*
X52621641Y-57217963D01*
X52751806Y-57164047D01*
X52843847Y-57125922D01*
X53079741Y-57079000D01*
X53320259Y-57079000D01*
X53556153Y-57125922D01*
X53556153Y-57125922D01*
G37*
G36*
X91639294Y-57478633D02*
G01*
X91811695Y-57530931D01*
X91970583Y-57615858D01*
X92109849Y-57730151D01*
X92224142Y-57869417D01*
X92309069Y-58028305D01*
X92361367Y-58200706D01*
X92379025Y-58380000D01*
X92361367Y-58559294D01*
X92309069Y-58731695D01*
X92224142Y-58890583D01*
X92109849Y-59029849D01*
X91970583Y-59144142D01*
X91811695Y-59229069D01*
X91639294Y-59281367D01*
X91504931Y-59294600D01*
X91415069Y-59294600D01*
X91280706Y-59281367D01*
X91108305Y-59229069D01*
X90949417Y-59144142D01*
X90810151Y-59029849D01*
X90695858Y-58890583D01*
X90610931Y-58731695D01*
X90558633Y-58559294D01*
X90540975Y-58380000D01*
X90558633Y-58200706D01*
X90610931Y-58028305D01*
X90695858Y-57869417D01*
X90810151Y-57730151D01*
X90949417Y-57615858D01*
X91108305Y-57530931D01*
X91280706Y-57478633D01*
X91415069Y-57465400D01*
X91504931Y-57465400D01*
X91639294Y-57478633D01*
X91639294Y-57478633D01*
G37*
G36*
X94179294Y-57478633D02*
G01*
X94351695Y-57530931D01*
X94510583Y-57615858D01*
X94649849Y-57730151D01*
X94764142Y-57869417D01*
X94849069Y-58028305D01*
X94901367Y-58200706D01*
X94919025Y-58380000D01*
X94901367Y-58559294D01*
X94849069Y-58731695D01*
X94764142Y-58890583D01*
X94649849Y-59029849D01*
X94510583Y-59144142D01*
X94351695Y-59229069D01*
X94179294Y-59281367D01*
X94044931Y-59294600D01*
X93955069Y-59294600D01*
X93820706Y-59281367D01*
X93648305Y-59229069D01*
X93489417Y-59144142D01*
X93350151Y-59029849D01*
X93235858Y-58890583D01*
X93150931Y-58731695D01*
X93098633Y-58559294D01*
X93080975Y-58380000D01*
X93098633Y-58200706D01*
X93150931Y-58028305D01*
X93235858Y-57869417D01*
X93350151Y-57730151D01*
X93489417Y-57615858D01*
X93648305Y-57530931D01*
X93820706Y-57478633D01*
X93955069Y-57465400D01*
X94044931Y-57465400D01*
X94179294Y-57478633D01*
X94179294Y-57478633D01*
G37*
G36*
X91639294Y-54938633D02*
G01*
X91811695Y-54990931D01*
X91970583Y-55075858D01*
X92109849Y-55190151D01*
X92224142Y-55329417D01*
X92309069Y-55488305D01*
X92361367Y-55660706D01*
X92379025Y-55840000D01*
X92361367Y-56019294D01*
X92309069Y-56191695D01*
X92224142Y-56350583D01*
X92109849Y-56489849D01*
X91970583Y-56604142D01*
X91811695Y-56689069D01*
X91639294Y-56741367D01*
X91504931Y-56754600D01*
X91415069Y-56754600D01*
X91280706Y-56741367D01*
X91108305Y-56689069D01*
X90949417Y-56604142D01*
X90810151Y-56489849D01*
X90695858Y-56350583D01*
X90610931Y-56191695D01*
X90558633Y-56019294D01*
X90540975Y-55840000D01*
X90558633Y-55660706D01*
X90610931Y-55488305D01*
X90695858Y-55329417D01*
X90810151Y-55190151D01*
X90949417Y-55075858D01*
X91108305Y-54990931D01*
X91280706Y-54938633D01*
X91415069Y-54925400D01*
X91504931Y-54925400D01*
X91639294Y-54938633D01*
X91639294Y-54938633D01*
G37*
G36*
X94179294Y-54938633D02*
G01*
X94351695Y-54990931D01*
X94510583Y-55075858D01*
X94649849Y-55190151D01*
X94764142Y-55329417D01*
X94849069Y-55488305D01*
X94901367Y-55660706D01*
X94919025Y-55840000D01*
X94901367Y-56019294D01*
X94849069Y-56191695D01*
X94764142Y-56350583D01*
X94649849Y-56489849D01*
X94510583Y-56604142D01*
X94351695Y-56689069D01*
X94179294Y-56741367D01*
X94044931Y-56754600D01*
X93955069Y-56754600D01*
X93820706Y-56741367D01*
X93648305Y-56689069D01*
X93489417Y-56604142D01*
X93350151Y-56489849D01*
X93235858Y-56350583D01*
X93150931Y-56191695D01*
X93098633Y-56019294D01*
X93080975Y-55840000D01*
X93098633Y-55660706D01*
X93150931Y-55488305D01*
X93235858Y-55329417D01*
X93350151Y-55190151D01*
X93489417Y-55075858D01*
X93648305Y-54990931D01*
X93820706Y-54938633D01*
X93955069Y-54925400D01*
X94044931Y-54925400D01*
X94179294Y-54938633D01*
X94179294Y-54938633D01*
G37*
G36*
X53556153Y-52125922D02*
G01*
X53648194Y-52164047D01*
X53778359Y-52217963D01*
X53978342Y-52351587D01*
X54148413Y-52521658D01*
X54282037Y-52721641D01*
X54304183Y-52775107D01*
X54365883Y-52924062D01*
X54374078Y-52943848D01*
X54421000Y-53179741D01*
X54421000Y-53420259D01*
X54374078Y-53656152D01*
X54282037Y-53878359D01*
X54148413Y-54078342D01*
X53978342Y-54248413D01*
X53778359Y-54382037D01*
X53648194Y-54435953D01*
X53556153Y-54474078D01*
X53320259Y-54521000D01*
X53079741Y-54521000D01*
X52843847Y-54474078D01*
X52751806Y-54435953D01*
X52621641Y-54382037D01*
X52421658Y-54248413D01*
X52251587Y-54078342D01*
X52117963Y-53878359D01*
X52025922Y-53656152D01*
X51979000Y-53420259D01*
X51979000Y-53179741D01*
X52025922Y-52943848D01*
X52034118Y-52924062D01*
X52095817Y-52775107D01*
X52117963Y-52721641D01*
X52251587Y-52521658D01*
X52421658Y-52351587D01*
X52621641Y-52217963D01*
X52751806Y-52164047D01*
X52843847Y-52125922D01*
X52961795Y-52102461D01*
X53079741Y-52079000D01*
X53320259Y-52079000D01*
X53556153Y-52125922D01*
X53556153Y-52125922D01*
G37*
G36*
X80045589Y-52238876D02*
G01*
X80144893Y-52258629D01*
X80285206Y-52316748D01*
X80411484Y-52401125D01*
X80518875Y-52508516D01*
X80603252Y-52634794D01*
X80661371Y-52775107D01*
X80691000Y-52924063D01*
X80691000Y-53075937D01*
X80661371Y-53224893D01*
X80603252Y-53365206D01*
X80518875Y-53491484D01*
X80411484Y-53598875D01*
X80285206Y-53683252D01*
X80144893Y-53741371D01*
X80045589Y-53761124D01*
X79995938Y-53771000D01*
X79844062Y-53771000D01*
X79794411Y-53761124D01*
X79695107Y-53741371D01*
X79554794Y-53683252D01*
X79428516Y-53598875D01*
X79321125Y-53491484D01*
X79236748Y-53365206D01*
X79178629Y-53224893D01*
X79149000Y-53075937D01*
X79149000Y-52924063D01*
X79178629Y-52775107D01*
X79236748Y-52634794D01*
X79321125Y-52508516D01*
X79428516Y-52401125D01*
X79554794Y-52316748D01*
X79695107Y-52258629D01*
X79794411Y-52238876D01*
X79844062Y-52229000D01*
X79995938Y-52229000D01*
X80045589Y-52238876D01*
X80045589Y-52238876D01*
G37*
G36*
X82585589Y-52238876D02*
G01*
X82684893Y-52258629D01*
X82825206Y-52316748D01*
X82951484Y-52401125D01*
X83058875Y-52508516D01*
X83143252Y-52634794D01*
X83201371Y-52775107D01*
X83231000Y-52924063D01*
X83231000Y-53075937D01*
X83201371Y-53224893D01*
X83143252Y-53365206D01*
X83058875Y-53491484D01*
X82951484Y-53598875D01*
X82825206Y-53683252D01*
X82684893Y-53741371D01*
X82585589Y-53761124D01*
X82535938Y-53771000D01*
X82384062Y-53771000D01*
X82334411Y-53761124D01*
X82235107Y-53741371D01*
X82094794Y-53683252D01*
X81968516Y-53598875D01*
X81861125Y-53491484D01*
X81776748Y-53365206D01*
X81718629Y-53224893D01*
X81689000Y-53075937D01*
X81689000Y-52924063D01*
X81718629Y-52775107D01*
X81776748Y-52634794D01*
X81861125Y-52508516D01*
X81968516Y-52401125D01*
X82094794Y-52316748D01*
X82235107Y-52258629D01*
X82334411Y-52238876D01*
X82384062Y-52229000D01*
X82535938Y-52229000D01*
X82585589Y-52238876D01*
X82585589Y-52238876D01*
G37*
G36*
X85125589Y-52238876D02*
G01*
X85224893Y-52258629D01*
X85365206Y-52316748D01*
X85491484Y-52401125D01*
X85598875Y-52508516D01*
X85683252Y-52634794D01*
X85741371Y-52775107D01*
X85771000Y-52924063D01*
X85771000Y-53075937D01*
X85741371Y-53224893D01*
X85683252Y-53365206D01*
X85598875Y-53491484D01*
X85491484Y-53598875D01*
X85365206Y-53683252D01*
X85224893Y-53741371D01*
X85125589Y-53761124D01*
X85075938Y-53771000D01*
X84924062Y-53771000D01*
X84874411Y-53761124D01*
X84775107Y-53741371D01*
X84634794Y-53683252D01*
X84508516Y-53598875D01*
X84401125Y-53491484D01*
X84316748Y-53365206D01*
X84258629Y-53224893D01*
X84229000Y-53075937D01*
X84229000Y-52924063D01*
X84258629Y-52775107D01*
X84316748Y-52634794D01*
X84401125Y-52508516D01*
X84508516Y-52401125D01*
X84634794Y-52316748D01*
X84775107Y-52258629D01*
X84874411Y-52238876D01*
X84924062Y-52229000D01*
X85075938Y-52229000D01*
X85125589Y-52238876D01*
X85125589Y-52238876D01*
G37*
G36*
X62051000Y-53051000D02*
G01*
X59949000Y-53051000D01*
X59949000Y-50949000D01*
X62051000Y-50949000D01*
X62051000Y-53051000D01*
X62051000Y-53051000D01*
G37*
M02*
