M48
; DRILL file {KiCad (5.1.0)-1} date 28/09/2019 12:36:22
; FORMAT={-:-/ absolute / metric / decimal}
; #@! TF.CreationDate,2019-09-28T12:36:22+02:00
; #@! TF.GenerationSoftware,Kicad,Pcbnew,(5.1.0)-1
; #@! TF.FileFunction,Plated,1,2,PTH
FMAT,2
METRIC
T1C0.400
T2C0.500
T3C0.600
T4C0.800
T5C0.900
T6C1.000
T7C1.016
T8C1.150
T9C1.200
T10C1.300
T11C1.500
T12C1.520
T13C1.700
T14C2.200
T15C2.500
%
G90
G05
T1
X51.1Y-93.8
X51.25Y-108.75
X51.4Y-105.5
X51.5Y-51.75
X51.5Y-75.5
X51.5Y-82.5
X51.5Y-140.5
X53.25Y-122.0
X55.0Y-140.5
X55.25Y-132.25
X55.254Y-114.084
X57.0Y-57.0
X58.325Y-60.872
X59.943Y-82.557
X60.0Y-132.25
X60.25Y-95.0
X60.25Y-116.0
X60.25Y-126.5
X60.338Y-58.412
X60.5Y-68.25
X60.5Y-73.0
X60.5Y-91.5
X60.7Y-64.25
X60.9Y-108.0
X61.3Y-111.5
X61.5Y-93.0
X61.507Y-82.493
X61.85Y-62.839
X61.95Y-73.0
X62.5Y-105.0
X63.0Y-73.0
X63.075Y-111.5
X63.175Y-68.175
X63.3Y-108.159
X64.0Y-112.25
X64.025Y-105.0
X64.548Y-62.5
X64.75Y-52.25
X64.9Y-57.4
X65.4Y-125.0
X65.5Y-103.25
X65.5Y-104.75
X65.7Y-72.5
X68.25Y-66.25
X68.5Y-126.5
X68.647Y-78.103
X69.05Y-136.2
X69.653Y-76.847
X70.155Y-66.25
X71.25Y-103.25
X71.25Y-104.75
X71.5Y-118.75
X71.796Y-66.454
X72.0Y-81.75
X72.0Y-128.33
X72.0Y-129.83
X72.47Y-123.47
X72.987Y-54.987
X73.0Y-62.0
X73.0Y-68.0
X73.1Y-112.0
X73.296Y-122.644
X73.3Y-87.5
X73.65Y-104.0
X73.65Y-83.5
X73.65Y-84.5
X73.65Y-92.0
X73.65Y-92.918
X73.775Y-126.5
X73.97Y-71.03
X74.25Y-76.75
X75.575Y-125.0
X75.659Y-124.154
X75.694Y-126.381
X75.8Y-83.5
X75.8Y-84.5
X75.8Y-92.0
X75.8Y-93.0
X75.85Y-76.75
X76.0Y-81.0
X76.0Y-87.5
X76.0Y-104.0
X76.2Y-111.9
X76.25Y-70.75
X77.0Y-82.0
X77.25Y-103.25
X77.25Y-104.75
X77.9Y-71.7
X78.0Y-68.25
X80.0Y-107.75
X81.7Y-107.3
X82.75Y-94.42
X83.25Y-87.75
X83.25Y-95.77
X84.1Y-63.8
X84.7Y-129.2
X85.0Y-62.0
X85.8Y-90.4
X86.2Y-129.2
X86.6Y-52.3
X86.65Y-63.7
X87.97Y-69.03
X88.3Y-61.8
X88.5Y-99.0
X88.5Y-104.0
X88.9Y-54.9
X89.25Y-51.5
X89.25Y-80.75
X90.03Y-68.97
X92.25Y-113.25
X93.75Y-83.5
X94.0Y-103.0
X95.22Y-76.28
X95.75Y-105.75
X96.2Y-100.9
X96.775Y-76.25
X97.0Y-91.5
X97.0Y-99.5
X102.2Y-132.0
X104.75Y-87.75
X108.5Y-87.75
X109.0Y-98.0
X109.25Y-62.25
X109.5Y-103.75
X109.5Y-109.25
X109.5Y-115.5
X109.75Y-56.25
X109.75Y-132.5
X109.75Y-134.75
X109.75Y-136.25
X109.75Y-138.75
X110.0Y-100.0
X110.25Y-127.5
X110.25Y-130.25
X112.0Y-57.0
X112.0Y-96.25
X112.5Y-120.55
X114.9Y-122.6
X116.75Y-123.75
X117.75Y-122.75
X118.0Y-90.0
X118.0Y-91.0
X118.25Y-98.5
X118.25Y-106.5
X118.25Y-115.5
X118.5Y-74.75
X118.7Y-84.0
X118.75Y-81.75
X118.75Y-85.5
X120.35Y-90.0
X120.35Y-98.5
X120.4Y-91.3
X120.5Y-84.0
X120.5Y-85.5
X120.75Y-74.75
X120.75Y-106.5
X120.75Y-115.5
X120.8Y-100.9
X122.25Y-81.75
X123.25Y-74.0
X124.5Y-72.75
X124.5Y-81.75
X124.6Y-134.4
X124.75Y-129.75
X124.75Y-131.75
X125.25Y-104.0
X126.25Y-107.5
X128.0Y-94.25
X129.0Y-107.75
X129.2Y-104.4
X129.25Y-100.25
X130.0Y-75.25
X130.5Y-80.0
X130.75Y-94.25
X131.0Y-89.5
X131.037Y-88.35
X131.75Y-117.0
X131.75Y-126.5
X132.0Y-66.5
X132.998Y-107.625
X133.0Y-58.0
X133.75Y-97.5
X134.0Y-60.0
X134.5Y-106.5
X135.25Y-132.75
X135.75Y-58.25
X136.5Y-128.875
X136.5Y-130.025
X139.25Y-81.75
X139.25Y-113.0
X140.25Y-84.5
X140.5Y-83.0
X141.64Y-81.86
X142.308Y-96.808
X145.0Y-75.25
X147.0Y-66.5
X147.5Y-80.25
X147.5Y-85.0
X147.5Y-94.75
X87.1Y-132.75
X87.583Y-131.583
X87.583Y-133.917
X88.75Y-131.1
X88.75Y-134.4
X89.917Y-131.583
X89.917Y-133.917
X90.4Y-132.75
T2
X138.125Y-141.5
X138.674Y-140.174
X138.674Y-142.826
X140.0Y-139.625
X140.0Y-143.375
X141.326Y-140.174
X141.326Y-142.826
X141.875Y-141.5
X138.125Y-58.5
X138.674Y-57.174
X138.674Y-59.826
X140.0Y-56.625
X140.0Y-60.375
X141.326Y-57.174
X141.326Y-59.826
X141.875Y-58.5
X102.375Y-58.5
X102.924Y-57.174
X102.924Y-59.826
X104.25Y-56.625
X104.25Y-60.375
X105.576Y-57.174
X105.576Y-59.826
X106.125Y-58.5
X102.375Y-141.25
X102.924Y-139.924
X102.924Y-142.576
X104.25Y-139.375
X104.25Y-143.125
X105.576Y-139.924
X105.576Y-142.576
X106.125Y-141.25
T4
X139.0Y-92.5
X144.0Y-92.5
X102.893Y-100.25
X107.893Y-100.25
X79.92Y-69.0
X82.46Y-69.0
X85.0Y-69.0
X111.0Y-106.5
X116.0Y-106.5
X131.0Y-99.0
X136.0Y-99.0
X103.0Y-135.5
X108.0Y-135.5
X111.0Y-112.5
X116.0Y-112.5
X123.0Y-86.5
X128.0Y-86.5
X103.0Y-129.5
X108.0Y-129.5
X130.5Y-120.0
X130.5Y-123.5
X131.0Y-92.5
X136.0Y-92.5
X79.92Y-53.0
X82.46Y-53.0
X85.0Y-53.0
X130.5Y-129.0
X130.5Y-132.5
X123.0Y-92.5
X128.0Y-92.5
X103.0Y-106.5
X108.0Y-106.5
X130.5Y-111.0
X130.5Y-114.5
X130.5Y-138.0
X130.5Y-141.5
X111.0Y-135.5
X116.0Y-135.5
T5
X146.75Y-59.5
X146.75Y-62.04
T6
X61.0Y-52.0
X81.0Y-74.0
X83.54Y-74.0
T7
X91.46Y-55.84
X91.46Y-58.38
X91.46Y-60.92
X91.46Y-63.46
X91.46Y-66.0
X94.0Y-55.84
X94.0Y-58.38
X94.0Y-60.92
X94.0Y-63.46
X94.0Y-66.0
T9
X116.0Y-79.0
X116.0Y-84.0
X116.0Y-65.5
X116.0Y-70.5
T10
X53.2Y-114.9
X53.2Y-119.9
X53.2Y-124.9
X51.7Y-143.8
X55.6Y-148.4
X58.5Y-141.3
X59.7Y-138.6
X62.9Y-147.9
X137.325Y-112.25
X137.325Y-119.75
X137.325Y-126.25
X137.325Y-133.75
X53.2Y-94.5
X53.2Y-99.5
X53.2Y-104.5
X53.2Y-74.0
X53.2Y-79.0
X53.2Y-84.0
X53.2Y-53.3
X53.2Y-58.3
X53.2Y-63.3
T11
X144.575Y-112.25
X144.575Y-126.25
T12
X105.0Y-69.34
X105.0Y-74.42
X105.0Y-79.5
T13
X141.075Y-109.85
X141.075Y-136.15
T14
X88.75Y-132.75
T15
X140.0Y-58.5
X104.25Y-58.5
X104.25Y-141.25
X140.0Y-141.5
T2
G00X82.7Y-137.18
M15
G01X84.3Y-137.18
M16
G05
G00X72.7Y-137.18
M15
G01X74.3Y-137.18
M16
G05
T3
G00X82.8Y-145.48
M15
G01X84.2Y-145.48
M16
G05
G00X83.1Y-148.58
M15
G01X83.9Y-148.58
M16
G05
G00X72.8Y-145.48
M15
G01X74.2Y-145.48
M16
G05
G00X73.1Y-148.58
M15
G01X73.9Y-148.58
M16
G05
T8
G00X88.712Y-115.3
M15
G01X90.112Y-115.3
M16
G05
G00X88.712Y-120.0
M15
G01X90.112Y-120.0
M16
G05
G00X88.712Y-124.7
M15
G01X90.112Y-124.7
M16
G05
G00X94.3Y-115.3
M15
G01X95.7Y-115.3
M16
G05
G00X94.3Y-120.0
M15
G01X95.7Y-120.0
M16
G05
G00X94.3Y-124.7
M15
G01X95.7Y-124.7
M16
G05
T0
M30
