%TF.GenerationSoftware,KiCad,Pcbnew,(5.1.0)-1*%
%TF.CreationDate,2019-10-04T20:50:26+02:00*%
%TF.ProjectId,KicadJE_AteOhAte,4b696361-644a-4455-9f41-74654f684174,rev?*%
%TF.SameCoordinates,Original*%
%TF.FileFunction,Legend,Top*%
%TF.FilePolarity,Positive*%
%FSLAX46Y46*%
G04 Gerber Fmt 4.6, Leading zero omitted, Abs format (unit mm)*
G04 Created by KiCad (PCBNEW (5.1.0)-1) date 2019-10-04 20:50:26*
%MOMM*%
%LPD*%
G04 APERTURE LIST*
%ADD10C,0.625000*%
%ADD11C,0.140000*%
%ADD12C,1.000000*%
%ADD13C,0.050000*%
%ADD14C,0.010000*%
%ADD15C,0.120000*%
%ADD16C,0.150000*%
%ADD17C,0.200000*%
%ADD18C,0.125000*%
G04 APERTURE END LIST*
D10*
X115755952Y-110845238D02*
X113255952Y-110845238D01*
X113255952Y-110250000D01*
X113375000Y-109892857D01*
X113613095Y-109654761D01*
X113851190Y-109535714D01*
X114327380Y-109416666D01*
X114684523Y-109416666D01*
X115160714Y-109535714D01*
X115398809Y-109654761D01*
X115636904Y-109892857D01*
X115755952Y-110250000D01*
X115755952Y-110845238D01*
X115755952Y-106916666D02*
X114565476Y-107750000D01*
X115755952Y-108345238D02*
X113255952Y-108345238D01*
X113255952Y-107392857D01*
X113375000Y-107154761D01*
X113494047Y-107035714D01*
X113732142Y-106916666D01*
X114089285Y-106916666D01*
X114327380Y-107035714D01*
X114446428Y-107154761D01*
X114565476Y-107392857D01*
X114565476Y-108345238D01*
X113255952Y-105845238D02*
X115279761Y-105845238D01*
X115517857Y-105726190D01*
X115636904Y-105607142D01*
X115755952Y-105369047D01*
X115755952Y-104892857D01*
X115636904Y-104654761D01*
X115517857Y-104535714D01*
X115279761Y-104416666D01*
X113255952Y-104416666D01*
X115755952Y-103226190D02*
X113255952Y-103226190D01*
X115041666Y-102392857D01*
X113255952Y-101559523D01*
X115755952Y-101559523D01*
X115994047Y-100964285D02*
X115994047Y-99059523D01*
X115041666Y-98583333D02*
X115041666Y-97392857D01*
X115755952Y-98821428D02*
X113255952Y-97988095D01*
X115755952Y-97154761D01*
X114089285Y-96678571D02*
X114089285Y-95726190D01*
X113255952Y-96321428D02*
X115398809Y-96321428D01*
X115636904Y-96202380D01*
X115755952Y-95964285D01*
X115755952Y-95726190D01*
X115636904Y-93940476D02*
X115755952Y-94178571D01*
X115755952Y-94654761D01*
X115636904Y-94892857D01*
X115398809Y-95011904D01*
X114446428Y-95011904D01*
X114208333Y-94892857D01*
X114089285Y-94654761D01*
X114089285Y-94178571D01*
X114208333Y-93940476D01*
X114446428Y-93821428D01*
X114684523Y-93821428D01*
X114922619Y-95011904D01*
X113255952Y-92273809D02*
X113255952Y-92035714D01*
X113375000Y-91797619D01*
X113494047Y-91678571D01*
X113732142Y-91559523D01*
X114208333Y-91440476D01*
X114803571Y-91440476D01*
X115279761Y-91559523D01*
X115517857Y-91678571D01*
X115636904Y-91797619D01*
X115755952Y-92035714D01*
X115755952Y-92273809D01*
X115636904Y-92511904D01*
X115517857Y-92630952D01*
X115279761Y-92750000D01*
X114803571Y-92869047D01*
X114208333Y-92869047D01*
X113732142Y-92750000D01*
X113494047Y-92630952D01*
X113375000Y-92511904D01*
X113255952Y-92273809D01*
X115041666Y-90488095D02*
X115041666Y-89297619D01*
X115755952Y-90726190D02*
X113255952Y-89892857D01*
X115755952Y-89059523D01*
X114089285Y-88583333D02*
X114089285Y-87630952D01*
X113255952Y-88226190D02*
X115398809Y-88226190D01*
X115636904Y-88107142D01*
X115755952Y-87869047D01*
X115755952Y-87630952D01*
X115636904Y-85845238D02*
X115755952Y-86083333D01*
X115755952Y-86559523D01*
X115636904Y-86797619D01*
X115398809Y-86916666D01*
X114446428Y-86916666D01*
X114208333Y-86797619D01*
X114089285Y-86559523D01*
X114089285Y-86083333D01*
X114208333Y-85845238D01*
X114446428Y-85726190D01*
X114684523Y-85726190D01*
X114922619Y-86916666D01*
X115994047Y-85250000D02*
X115994047Y-83345238D01*
X113255952Y-83107142D02*
X113255952Y-81678571D01*
X115755952Y-82392857D02*
X113255952Y-82392857D01*
X115755952Y-80488095D02*
X115636904Y-80726190D01*
X115517857Y-80845238D01*
X115279761Y-80964285D01*
X114565476Y-80964285D01*
X114327380Y-80845238D01*
X114208333Y-80726190D01*
X114089285Y-80488095D01*
X114089285Y-80130952D01*
X114208333Y-79892857D01*
X114327380Y-79773809D01*
X114565476Y-79654761D01*
X115279761Y-79654761D01*
X115517857Y-79773809D01*
X115636904Y-79892857D01*
X115755952Y-80130952D01*
X115755952Y-80488095D01*
X115755952Y-78583333D02*
X114089285Y-78583333D01*
X114327380Y-78583333D02*
X114208333Y-78464285D01*
X114089285Y-78226190D01*
X114089285Y-77869047D01*
X114208333Y-77630952D01*
X114446428Y-77511904D01*
X115755952Y-77511904D01*
X114446428Y-77511904D02*
X114208333Y-77392857D01*
X114089285Y-77154761D01*
X114089285Y-76797619D01*
X114208333Y-76559523D01*
X114446428Y-76440476D01*
X115755952Y-76440476D01*
X115994047Y-75845238D02*
X115994047Y-73940476D01*
X113494047Y-73464285D02*
X113375000Y-73345238D01*
X113255952Y-73107142D01*
X113255952Y-72511904D01*
X113375000Y-72273809D01*
X113494047Y-72154761D01*
X113732142Y-72035714D01*
X113970238Y-72035714D01*
X114327380Y-72154761D01*
X115755952Y-73583333D01*
X115755952Y-72035714D01*
X120130952Y-110785714D02*
X118940476Y-111619047D01*
X120130952Y-112214285D02*
X117630952Y-112214285D01*
X117630952Y-111261904D01*
X117750000Y-111023809D01*
X117869047Y-110904761D01*
X118107142Y-110785714D01*
X118464285Y-110785714D01*
X118702380Y-110904761D01*
X118821428Y-111023809D01*
X118940476Y-111261904D01*
X118940476Y-112214285D01*
X120011904Y-108761904D02*
X120130952Y-109000000D01*
X120130952Y-109476190D01*
X120011904Y-109714285D01*
X119773809Y-109833333D01*
X118821428Y-109833333D01*
X118583333Y-109714285D01*
X118464285Y-109476190D01*
X118464285Y-109000000D01*
X118583333Y-108761904D01*
X118821428Y-108642857D01*
X119059523Y-108642857D01*
X119297619Y-109833333D01*
X118464285Y-107809523D02*
X120130952Y-107214285D01*
X118464285Y-106619047D01*
X118821428Y-102928571D02*
X118940476Y-102571428D01*
X119059523Y-102452380D01*
X119297619Y-102333333D01*
X119654761Y-102333333D01*
X119892857Y-102452380D01*
X120011904Y-102571428D01*
X120130952Y-102809523D01*
X120130952Y-103761904D01*
X117630952Y-103761904D01*
X117630952Y-102928571D01*
X117750000Y-102690476D01*
X117869047Y-102571428D01*
X118107142Y-102452380D01*
X118345238Y-102452380D01*
X118583333Y-102571428D01*
X118702380Y-102690476D01*
X118821428Y-102928571D01*
X118821428Y-103761904D01*
X119178571Y-99357142D02*
X119178571Y-97452380D01*
X117630952Y-93880952D02*
X117630952Y-93642857D01*
X117750000Y-93404761D01*
X117869047Y-93285714D01*
X118107142Y-93166666D01*
X118583333Y-93047619D01*
X119178571Y-93047619D01*
X119654761Y-93166666D01*
X119892857Y-93285714D01*
X120011904Y-93404761D01*
X120130952Y-93642857D01*
X120130952Y-93880952D01*
X120011904Y-94119047D01*
X119892857Y-94238095D01*
X119654761Y-94357142D01*
X119178571Y-94476190D01*
X118583333Y-94476190D01*
X118107142Y-94357142D01*
X117869047Y-94238095D01*
X117750000Y-94119047D01*
X117630952Y-93880952D01*
X118464285Y-90904761D02*
X120130952Y-90904761D01*
X117511904Y-91500000D02*
X119297619Y-92095238D01*
X119297619Y-90547619D01*
X117511904Y-87809523D02*
X120726190Y-89952380D01*
X120130952Y-85666666D02*
X120130952Y-87095238D01*
X120130952Y-86380952D02*
X117630952Y-86380952D01*
X117988095Y-86619047D01*
X118226190Y-86857142D01*
X118345238Y-87095238D01*
X117630952Y-84119047D02*
X117630952Y-83880952D01*
X117750000Y-83642857D01*
X117869047Y-83523809D01*
X118107142Y-83404761D01*
X118583333Y-83285714D01*
X119178571Y-83285714D01*
X119654761Y-83404761D01*
X119892857Y-83523809D01*
X120011904Y-83642857D01*
X120130952Y-83880952D01*
X120130952Y-84119047D01*
X120011904Y-84357142D01*
X119892857Y-84476190D01*
X119654761Y-84595238D01*
X119178571Y-84714285D01*
X118583333Y-84714285D01*
X118107142Y-84595238D01*
X117869047Y-84476190D01*
X117750000Y-84357142D01*
X117630952Y-84119047D01*
X119178571Y-82214285D02*
X119178571Y-80309523D01*
X117869047Y-79238095D02*
X117750000Y-79119047D01*
X117630952Y-78880952D01*
X117630952Y-78285714D01*
X117750000Y-78047619D01*
X117869047Y-77928571D01*
X118107142Y-77809523D01*
X118345238Y-77809523D01*
X118702380Y-77928571D01*
X120130952Y-79357142D01*
X120130952Y-77809523D01*
X117630952Y-76261904D02*
X117630952Y-76023809D01*
X117750000Y-75785714D01*
X117869047Y-75666666D01*
X118107142Y-75547619D01*
X118583333Y-75428571D01*
X119178571Y-75428571D01*
X119654761Y-75547619D01*
X119892857Y-75666666D01*
X120011904Y-75785714D01*
X120130952Y-76023809D01*
X120130952Y-76261904D01*
X120011904Y-76500000D01*
X119892857Y-76619047D01*
X119654761Y-76738095D01*
X119178571Y-76857142D01*
X118583333Y-76857142D01*
X118107142Y-76738095D01*
X117869047Y-76619047D01*
X117750000Y-76500000D01*
X117630952Y-76261904D01*
X120130952Y-73047619D02*
X120130952Y-74476190D01*
X120130952Y-73761904D02*
X117630952Y-73761904D01*
X117988095Y-74000000D01*
X118226190Y-74238095D01*
X118345238Y-74476190D01*
X120130952Y-71857142D02*
X120130952Y-71380952D01*
X120011904Y-71142857D01*
X119892857Y-71023809D01*
X119535714Y-70785714D01*
X119059523Y-70666666D01*
X118107142Y-70666666D01*
X117869047Y-70785714D01*
X117750000Y-70904761D01*
X117630952Y-71142857D01*
X117630952Y-71619047D01*
X117750000Y-71857142D01*
X117869047Y-71976190D01*
X118107142Y-72095238D01*
X118702380Y-72095238D01*
X118940476Y-71976190D01*
X119059523Y-71857142D01*
X119178571Y-71619047D01*
X119178571Y-71142857D01*
X119059523Y-70904761D01*
X118940476Y-70785714D01*
X118702380Y-70666666D01*
X122005952Y-110726190D02*
X123791666Y-110726190D01*
X124148809Y-110845238D01*
X124386904Y-111083333D01*
X124505952Y-111440476D01*
X124505952Y-111678571D01*
X124505952Y-109178571D02*
X124386904Y-109416666D01*
X124267857Y-109535714D01*
X124029761Y-109654761D01*
X123315476Y-109654761D01*
X123077380Y-109535714D01*
X122958333Y-109416666D01*
X122839285Y-109178571D01*
X122839285Y-108821428D01*
X122958333Y-108583333D01*
X123077380Y-108464285D01*
X123315476Y-108345238D01*
X124029761Y-108345238D01*
X124267857Y-108464285D01*
X124386904Y-108583333D01*
X124505952Y-108821428D01*
X124505952Y-109178571D01*
X124505952Y-107273809D02*
X122005952Y-107273809D01*
X124505952Y-106202380D02*
X123196428Y-106202380D01*
X122958333Y-106321428D01*
X122839285Y-106559523D01*
X122839285Y-106916666D01*
X122958333Y-107154761D01*
X123077380Y-107273809D01*
X124505952Y-103940476D02*
X123196428Y-103940476D01*
X122958333Y-104059523D01*
X122839285Y-104297619D01*
X122839285Y-104773809D01*
X122958333Y-105011904D01*
X124386904Y-103940476D02*
X124505952Y-104178571D01*
X124505952Y-104773809D01*
X124386904Y-105011904D01*
X124148809Y-105130952D01*
X123910714Y-105130952D01*
X123672619Y-105011904D01*
X123553571Y-104773809D01*
X123553571Y-104178571D01*
X123434523Y-103940476D01*
X122839285Y-102750000D02*
X124505952Y-102750000D01*
X123077380Y-102750000D02*
X122958333Y-102630952D01*
X122839285Y-102392857D01*
X122839285Y-102035714D01*
X122958333Y-101797619D01*
X123196428Y-101678571D01*
X124505952Y-101678571D01*
X124386904Y-100607142D02*
X124505952Y-100369047D01*
X124505952Y-99892857D01*
X124386904Y-99654761D01*
X124148809Y-99535714D01*
X124029761Y-99535714D01*
X123791666Y-99654761D01*
X123672619Y-99892857D01*
X123672619Y-100250000D01*
X123553571Y-100488095D01*
X123315476Y-100607142D01*
X123196428Y-100607142D01*
X122958333Y-100488095D01*
X122839285Y-100250000D01*
X122839285Y-99892857D01*
X122958333Y-99654761D01*
X124386904Y-97511904D02*
X124505952Y-97750000D01*
X124505952Y-98226190D01*
X124386904Y-98464285D01*
X124148809Y-98583333D01*
X123196428Y-98583333D01*
X122958333Y-98464285D01*
X122839285Y-98226190D01*
X122839285Y-97750000D01*
X122958333Y-97511904D01*
X123196428Y-97392857D01*
X123434523Y-97392857D01*
X123672619Y-98583333D01*
X122839285Y-96321428D02*
X124505952Y-96321428D01*
X123077380Y-96321428D02*
X122958333Y-96202380D01*
X122839285Y-95964285D01*
X122839285Y-95607142D01*
X122958333Y-95369047D01*
X123196428Y-95250000D01*
X124505952Y-95250000D01*
X123196428Y-92154761D02*
X123196428Y-91321428D01*
X124505952Y-90964285D02*
X124505952Y-92154761D01*
X122005952Y-92154761D01*
X122005952Y-90964285D01*
X122839285Y-89892857D02*
X124505952Y-89892857D01*
X123077380Y-89892857D02*
X122958333Y-89773809D01*
X122839285Y-89535714D01*
X122839285Y-89178571D01*
X122958333Y-88940476D01*
X123196428Y-88821428D01*
X124505952Y-88821428D01*
X122839285Y-86559523D02*
X124863095Y-86559523D01*
X125101190Y-86678571D01*
X125220238Y-86797619D01*
X125339285Y-87035714D01*
X125339285Y-87392857D01*
X125220238Y-87630952D01*
X124386904Y-86559523D02*
X124505952Y-86797619D01*
X124505952Y-87273809D01*
X124386904Y-87511904D01*
X124267857Y-87630952D01*
X124029761Y-87750000D01*
X123315476Y-87750000D01*
X123077380Y-87630952D01*
X122958333Y-87511904D01*
X122839285Y-87273809D01*
X122839285Y-86797619D01*
X122958333Y-86559523D01*
X124505952Y-85369047D02*
X122839285Y-85369047D01*
X122005952Y-85369047D02*
X122125000Y-85488095D01*
X122244047Y-85369047D01*
X122125000Y-85250000D01*
X122005952Y-85369047D01*
X122244047Y-85369047D01*
X122839285Y-84178571D02*
X124505952Y-84178571D01*
X123077380Y-84178571D02*
X122958333Y-84059523D01*
X122839285Y-83821428D01*
X122839285Y-83464285D01*
X122958333Y-83226190D01*
X123196428Y-83107142D01*
X124505952Y-83107142D01*
X124386904Y-80964285D02*
X124505952Y-81202380D01*
X124505952Y-81678571D01*
X124386904Y-81916666D01*
X124148809Y-82035714D01*
X123196428Y-82035714D01*
X122958333Y-81916666D01*
X122839285Y-81678571D01*
X122839285Y-81202380D01*
X122958333Y-80964285D01*
X123196428Y-80845238D01*
X123434523Y-80845238D01*
X123672619Y-82035714D01*
X124386904Y-78821428D02*
X124505952Y-79059523D01*
X124505952Y-79535714D01*
X124386904Y-79773809D01*
X124148809Y-79892857D01*
X123196428Y-79892857D01*
X122958333Y-79773809D01*
X122839285Y-79535714D01*
X122839285Y-79059523D01*
X122958333Y-78821428D01*
X123196428Y-78702380D01*
X123434523Y-78702380D01*
X123672619Y-79892857D01*
X124505952Y-77630952D02*
X122839285Y-77630952D01*
X123315476Y-77630952D02*
X123077380Y-77511904D01*
X122958333Y-77392857D01*
X122839285Y-77154761D01*
X122839285Y-76916666D01*
X124505952Y-76083333D02*
X122839285Y-76083333D01*
X122005952Y-76083333D02*
X122125000Y-76202380D01*
X122244047Y-76083333D01*
X122125000Y-75964285D01*
X122005952Y-76083333D01*
X122244047Y-76083333D01*
X122839285Y-74892857D02*
X124505952Y-74892857D01*
X123077380Y-74892857D02*
X122958333Y-74773809D01*
X122839285Y-74535714D01*
X122839285Y-74178571D01*
X122958333Y-73940476D01*
X123196428Y-73821428D01*
X124505952Y-73821428D01*
X122839285Y-71559523D02*
X124863095Y-71559523D01*
X125101190Y-71678571D01*
X125220238Y-71797619D01*
X125339285Y-72035714D01*
X125339285Y-72392857D01*
X125220238Y-72630952D01*
X124386904Y-71559523D02*
X124505952Y-71797619D01*
X124505952Y-72273809D01*
X124386904Y-72511904D01*
X124267857Y-72630952D01*
X124029761Y-72750000D01*
X123315476Y-72750000D01*
X123077380Y-72630952D01*
X122958333Y-72511904D01*
X122839285Y-72273809D01*
X122839285Y-71797619D01*
X122958333Y-71559523D01*
D11*
X75438095Y-59361904D02*
X75171428Y-58980952D01*
X74980952Y-59361904D02*
X74980952Y-58561904D01*
X75285714Y-58561904D01*
X75361904Y-58600000D01*
X75400000Y-58638095D01*
X75438095Y-58714285D01*
X75438095Y-58828571D01*
X75400000Y-58904761D01*
X75361904Y-58942857D01*
X75285714Y-58980952D01*
X74980952Y-58980952D01*
X76085714Y-59323809D02*
X76009523Y-59361904D01*
X75857142Y-59361904D01*
X75780952Y-59323809D01*
X75742857Y-59247619D01*
X75742857Y-58942857D01*
X75780952Y-58866666D01*
X75857142Y-58828571D01*
X76009523Y-58828571D01*
X76085714Y-58866666D01*
X76123809Y-58942857D01*
X76123809Y-59019047D01*
X75742857Y-59095238D01*
X76809523Y-58828571D02*
X76809523Y-59476190D01*
X76771428Y-59552380D01*
X76733333Y-59590476D01*
X76657142Y-59628571D01*
X76542857Y-59628571D01*
X76466666Y-59590476D01*
X76809523Y-59323809D02*
X76733333Y-59361904D01*
X76580952Y-59361904D01*
X76504761Y-59323809D01*
X76466666Y-59285714D01*
X76428571Y-59209523D01*
X76428571Y-58980952D01*
X76466666Y-58904761D01*
X76504761Y-58866666D01*
X76580952Y-58828571D01*
X76733333Y-58828571D01*
X76809523Y-58866666D01*
X77800000Y-58828571D02*
X77800000Y-59361904D01*
X77800000Y-58904761D02*
X77838095Y-58866666D01*
X77914285Y-58828571D01*
X78028571Y-58828571D01*
X78104761Y-58866666D01*
X78142857Y-58942857D01*
X78142857Y-59361904D01*
X78638095Y-59361904D02*
X78561904Y-59323809D01*
X78523809Y-59285714D01*
X78485714Y-59209523D01*
X78485714Y-58980952D01*
X78523809Y-58904761D01*
X78561904Y-58866666D01*
X78638095Y-58828571D01*
X78752380Y-58828571D01*
X78828571Y-58866666D01*
X78866666Y-58904761D01*
X78904761Y-58980952D01*
X78904761Y-59209523D01*
X78866666Y-59285714D01*
X78828571Y-59323809D01*
X78752380Y-59361904D01*
X78638095Y-59361904D01*
X79247619Y-59361904D02*
X79247619Y-58828571D01*
X79247619Y-58561904D02*
X79209523Y-58600000D01*
X79247619Y-58638095D01*
X79285714Y-58600000D01*
X79247619Y-58561904D01*
X79247619Y-58638095D01*
X79590476Y-59323809D02*
X79666666Y-59361904D01*
X79819047Y-59361904D01*
X79895238Y-59323809D01*
X79933333Y-59247619D01*
X79933333Y-59209523D01*
X79895238Y-59133333D01*
X79819047Y-59095238D01*
X79704761Y-59095238D01*
X79628571Y-59057142D01*
X79590476Y-58980952D01*
X79590476Y-58942857D01*
X79628571Y-58866666D01*
X79704761Y-58828571D01*
X79819047Y-58828571D01*
X79895238Y-58866666D01*
X80580952Y-59323809D02*
X80504761Y-59361904D01*
X80352380Y-59361904D01*
X80276190Y-59323809D01*
X80238095Y-59247619D01*
X80238095Y-58942857D01*
X80276190Y-58866666D01*
X80352380Y-58828571D01*
X80504761Y-58828571D01*
X80580952Y-58866666D01*
X80619047Y-58942857D01*
X80619047Y-59019047D01*
X80238095Y-59095238D01*
X81457142Y-58828571D02*
X81761904Y-58828571D01*
X81571428Y-58561904D02*
X81571428Y-59247619D01*
X81609523Y-59323809D01*
X81685714Y-59361904D01*
X81761904Y-59361904D01*
X82142857Y-59361904D02*
X82066666Y-59323809D01*
X82028571Y-59285714D01*
X81990476Y-59209523D01*
X81990476Y-58980952D01*
X82028571Y-58904761D01*
X82066666Y-58866666D01*
X82142857Y-58828571D01*
X82257142Y-58828571D01*
X82333333Y-58866666D01*
X82371428Y-58904761D01*
X82409523Y-58980952D01*
X82409523Y-59209523D01*
X82371428Y-59285714D01*
X82333333Y-59323809D01*
X82257142Y-59361904D01*
X82142857Y-59361904D01*
X83780952Y-59361904D02*
X83323809Y-59361904D01*
X83552380Y-59361904D02*
X83552380Y-58561904D01*
X83476190Y-58676190D01*
X83400000Y-58752380D01*
X83323809Y-58790476D01*
X84047619Y-58561904D02*
X84542857Y-58561904D01*
X84276190Y-58866666D01*
X84390476Y-58866666D01*
X84466666Y-58904761D01*
X84504761Y-58942857D01*
X84542857Y-59019047D01*
X84542857Y-59209523D01*
X84504761Y-59285714D01*
X84466666Y-59323809D01*
X84390476Y-59361904D01*
X84161904Y-59361904D01*
X84085714Y-59323809D01*
X84047619Y-59285714D01*
X85038095Y-58561904D02*
X85114285Y-58561904D01*
X85190476Y-58600000D01*
X85228571Y-58638095D01*
X85266666Y-58714285D01*
X85304761Y-58866666D01*
X85304761Y-59057142D01*
X85266666Y-59209523D01*
X85228571Y-59285714D01*
X85190476Y-59323809D01*
X85114285Y-59361904D01*
X85038095Y-59361904D01*
X84961904Y-59323809D01*
X84923809Y-59285714D01*
X84885714Y-59209523D01*
X84847619Y-59057142D01*
X84847619Y-58866666D01*
X84885714Y-58714285D01*
X84923809Y-58638095D01*
X84961904Y-58600000D01*
X85038095Y-58561904D01*
X85647619Y-59361904D02*
X85647619Y-58828571D01*
X85647619Y-58904761D02*
X85685714Y-58866666D01*
X85761904Y-58828571D01*
X85876190Y-58828571D01*
X85952380Y-58866666D01*
X85990476Y-58942857D01*
X85990476Y-59361904D01*
X85990476Y-58942857D02*
X86028571Y-58866666D01*
X86104761Y-58828571D01*
X86219047Y-58828571D01*
X86295238Y-58866666D01*
X86333333Y-58942857D01*
X86333333Y-59361904D01*
X86600000Y-58561904D02*
X86866666Y-59361904D01*
X87133333Y-58561904D01*
D10*
X72505952Y-118095238D02*
X70005952Y-118095238D01*
X70005952Y-117500000D01*
X70125000Y-117142857D01*
X70363095Y-116904761D01*
X70601190Y-116785714D01*
X71077380Y-116666666D01*
X71434523Y-116666666D01*
X71910714Y-116785714D01*
X72148809Y-116904761D01*
X72386904Y-117142857D01*
X72505952Y-117500000D01*
X72505952Y-118095238D01*
X72505952Y-114166666D02*
X71315476Y-115000000D01*
X72505952Y-115595238D02*
X70005952Y-115595238D01*
X70005952Y-114642857D01*
X70125000Y-114404761D01*
X70244047Y-114285714D01*
X70482142Y-114166666D01*
X70839285Y-114166666D01*
X71077380Y-114285714D01*
X71196428Y-114404761D01*
X71315476Y-114642857D01*
X71315476Y-115595238D01*
X70005952Y-113095238D02*
X72029761Y-113095238D01*
X72267857Y-112976190D01*
X72386904Y-112857142D01*
X72505952Y-112619047D01*
X72505952Y-112142857D01*
X72386904Y-111904761D01*
X72267857Y-111785714D01*
X72029761Y-111666666D01*
X70005952Y-111666666D01*
X72505952Y-110476190D02*
X70005952Y-110476190D01*
X71791666Y-109642857D01*
X70005952Y-108809523D01*
X72505952Y-108809523D01*
X72744047Y-108214285D02*
X72744047Y-106309523D01*
X71791666Y-105833333D02*
X71791666Y-104642857D01*
X72505952Y-106071428D02*
X70005952Y-105238095D01*
X72505952Y-104404761D01*
X70839285Y-103928571D02*
X70839285Y-102976190D01*
X70005952Y-103571428D02*
X72148809Y-103571428D01*
X72386904Y-103452380D01*
X72505952Y-103214285D01*
X72505952Y-102976190D01*
X72386904Y-101190476D02*
X72505952Y-101428571D01*
X72505952Y-101904761D01*
X72386904Y-102142857D01*
X72148809Y-102261904D01*
X71196428Y-102261904D01*
X70958333Y-102142857D01*
X70839285Y-101904761D01*
X70839285Y-101428571D01*
X70958333Y-101190476D01*
X71196428Y-101071428D01*
X71434523Y-101071428D01*
X71672619Y-102261904D01*
X70005952Y-99523809D02*
X70005952Y-99285714D01*
X70125000Y-99047619D01*
X70244047Y-98928571D01*
X70482142Y-98809523D01*
X70958333Y-98690476D01*
X71553571Y-98690476D01*
X72029761Y-98809523D01*
X72267857Y-98928571D01*
X72386904Y-99047619D01*
X72505952Y-99285714D01*
X72505952Y-99523809D01*
X72386904Y-99761904D01*
X72267857Y-99880952D01*
X72029761Y-100000000D01*
X71553571Y-100119047D01*
X70958333Y-100119047D01*
X70482142Y-100000000D01*
X70244047Y-99880952D01*
X70125000Y-99761904D01*
X70005952Y-99523809D01*
X71791666Y-97738095D02*
X71791666Y-96547619D01*
X72505952Y-97976190D02*
X70005952Y-97142857D01*
X72505952Y-96309523D01*
X70839285Y-95833333D02*
X70839285Y-94880952D01*
X70005952Y-95476190D02*
X72148809Y-95476190D01*
X72386904Y-95357142D01*
X72505952Y-95119047D01*
X72505952Y-94880952D01*
X72386904Y-93095238D02*
X72505952Y-93333333D01*
X72505952Y-93809523D01*
X72386904Y-94047619D01*
X72148809Y-94166666D01*
X71196428Y-94166666D01*
X70958333Y-94047619D01*
X70839285Y-93809523D01*
X70839285Y-93333333D01*
X70958333Y-93095238D01*
X71196428Y-92976190D01*
X71434523Y-92976190D01*
X71672619Y-94166666D01*
X72744047Y-92500000D02*
X72744047Y-90595238D01*
X70005952Y-90357142D02*
X70005952Y-88928571D01*
X72505952Y-89642857D02*
X70005952Y-89642857D01*
X72505952Y-87738095D02*
X72386904Y-87976190D01*
X72267857Y-88095238D01*
X72029761Y-88214285D01*
X71315476Y-88214285D01*
X71077380Y-88095238D01*
X70958333Y-87976190D01*
X70839285Y-87738095D01*
X70839285Y-87380952D01*
X70958333Y-87142857D01*
X71077380Y-87023809D01*
X71315476Y-86904761D01*
X72029761Y-86904761D01*
X72267857Y-87023809D01*
X72386904Y-87142857D01*
X72505952Y-87380952D01*
X72505952Y-87738095D01*
X72505952Y-85833333D02*
X70839285Y-85833333D01*
X71077380Y-85833333D02*
X70958333Y-85714285D01*
X70839285Y-85476190D01*
X70839285Y-85119047D01*
X70958333Y-84880952D01*
X71196428Y-84761904D01*
X72505952Y-84761904D01*
X71196428Y-84761904D02*
X70958333Y-84642857D01*
X70839285Y-84404761D01*
X70839285Y-84047619D01*
X70958333Y-83809523D01*
X71196428Y-83690476D01*
X72505952Y-83690476D01*
X72744047Y-83095238D02*
X72744047Y-81190476D01*
X72505952Y-79285714D02*
X72505952Y-80714285D01*
X72505952Y-80000000D02*
X70005952Y-80000000D01*
X70363095Y-80238095D01*
X70601190Y-80476190D01*
X70720238Y-80714285D01*
X76880952Y-118035714D02*
X75690476Y-118869047D01*
X76880952Y-119464285D02*
X74380952Y-119464285D01*
X74380952Y-118511904D01*
X74500000Y-118273809D01*
X74619047Y-118154761D01*
X74857142Y-118035714D01*
X75214285Y-118035714D01*
X75452380Y-118154761D01*
X75571428Y-118273809D01*
X75690476Y-118511904D01*
X75690476Y-119464285D01*
X76761904Y-116011904D02*
X76880952Y-116250000D01*
X76880952Y-116726190D01*
X76761904Y-116964285D01*
X76523809Y-117083333D01*
X75571428Y-117083333D01*
X75333333Y-116964285D01*
X75214285Y-116726190D01*
X75214285Y-116250000D01*
X75333333Y-116011904D01*
X75571428Y-115892857D01*
X75809523Y-115892857D01*
X76047619Y-117083333D01*
X75214285Y-115059523D02*
X76880952Y-114464285D01*
X75214285Y-113869047D01*
X75571428Y-110178571D02*
X75690476Y-109821428D01*
X75809523Y-109702380D01*
X76047619Y-109583333D01*
X76404761Y-109583333D01*
X76642857Y-109702380D01*
X76761904Y-109821428D01*
X76880952Y-110059523D01*
X76880952Y-111011904D01*
X74380952Y-111011904D01*
X74380952Y-110178571D01*
X74500000Y-109940476D01*
X74619047Y-109821428D01*
X74857142Y-109702380D01*
X75095238Y-109702380D01*
X75333333Y-109821428D01*
X75452380Y-109940476D01*
X75571428Y-110178571D01*
X75571428Y-111011904D01*
X75928571Y-106607142D02*
X75928571Y-104702380D01*
X74380952Y-101130952D02*
X74380952Y-100892857D01*
X74500000Y-100654761D01*
X74619047Y-100535714D01*
X74857142Y-100416666D01*
X75333333Y-100297619D01*
X75928571Y-100297619D01*
X76404761Y-100416666D01*
X76642857Y-100535714D01*
X76761904Y-100654761D01*
X76880952Y-100892857D01*
X76880952Y-101130952D01*
X76761904Y-101369047D01*
X76642857Y-101488095D01*
X76404761Y-101607142D01*
X75928571Y-101726190D01*
X75333333Y-101726190D01*
X74857142Y-101607142D01*
X74619047Y-101488095D01*
X74500000Y-101369047D01*
X74380952Y-101130952D01*
X75214285Y-98154761D02*
X76880952Y-98154761D01*
X74261904Y-98750000D02*
X76047619Y-99345238D01*
X76047619Y-97797619D01*
X74261904Y-95059523D02*
X77476190Y-97202380D01*
X76880952Y-92916666D02*
X76880952Y-94345238D01*
X76880952Y-93630952D02*
X74380952Y-93630952D01*
X74738095Y-93869047D01*
X74976190Y-94107142D01*
X75095238Y-94345238D01*
X74380952Y-91369047D02*
X74380952Y-91130952D01*
X74500000Y-90892857D01*
X74619047Y-90773809D01*
X74857142Y-90654761D01*
X75333333Y-90535714D01*
X75928571Y-90535714D01*
X76404761Y-90654761D01*
X76642857Y-90773809D01*
X76761904Y-90892857D01*
X76880952Y-91130952D01*
X76880952Y-91369047D01*
X76761904Y-91607142D01*
X76642857Y-91726190D01*
X76404761Y-91845238D01*
X75928571Y-91964285D01*
X75333333Y-91964285D01*
X74857142Y-91845238D01*
X74619047Y-91726190D01*
X74500000Y-91607142D01*
X74380952Y-91369047D01*
X75928571Y-89464285D02*
X75928571Y-87559523D01*
X74619047Y-86488095D02*
X74500000Y-86369047D01*
X74380952Y-86130952D01*
X74380952Y-85535714D01*
X74500000Y-85297619D01*
X74619047Y-85178571D01*
X74857142Y-85059523D01*
X75095238Y-85059523D01*
X75452380Y-85178571D01*
X76880952Y-86607142D01*
X76880952Y-85059523D01*
X74380952Y-83511904D02*
X74380952Y-83273809D01*
X74500000Y-83035714D01*
X74619047Y-82916666D01*
X74857142Y-82797619D01*
X75333333Y-82678571D01*
X75928571Y-82678571D01*
X76404761Y-82797619D01*
X76642857Y-82916666D01*
X76761904Y-83035714D01*
X76880952Y-83273809D01*
X76880952Y-83511904D01*
X76761904Y-83750000D01*
X76642857Y-83869047D01*
X76404761Y-83988095D01*
X75928571Y-84107142D01*
X75333333Y-84107142D01*
X74857142Y-83988095D01*
X74619047Y-83869047D01*
X74500000Y-83750000D01*
X74380952Y-83511904D01*
X76880952Y-80297619D02*
X76880952Y-81726190D01*
X76880952Y-81011904D02*
X74380952Y-81011904D01*
X74738095Y-81250000D01*
X74976190Y-81488095D01*
X75095238Y-81726190D01*
X76880952Y-79107142D02*
X76880952Y-78630952D01*
X76761904Y-78392857D01*
X76642857Y-78273809D01*
X76285714Y-78035714D01*
X75809523Y-77916666D01*
X74857142Y-77916666D01*
X74619047Y-78035714D01*
X74500000Y-78154761D01*
X74380952Y-78392857D01*
X74380952Y-78869047D01*
X74500000Y-79107142D01*
X74619047Y-79226190D01*
X74857142Y-79345238D01*
X75452380Y-79345238D01*
X75690476Y-79226190D01*
X75809523Y-79107142D01*
X75928571Y-78869047D01*
X75928571Y-78392857D01*
X75809523Y-78154761D01*
X75690476Y-78035714D01*
X75452380Y-77916666D01*
X78755952Y-117976190D02*
X80541666Y-117976190D01*
X80898809Y-118095238D01*
X81136904Y-118333333D01*
X81255952Y-118690476D01*
X81255952Y-118928571D01*
X81255952Y-116428571D02*
X81136904Y-116666666D01*
X81017857Y-116785714D01*
X80779761Y-116904761D01*
X80065476Y-116904761D01*
X79827380Y-116785714D01*
X79708333Y-116666666D01*
X79589285Y-116428571D01*
X79589285Y-116071428D01*
X79708333Y-115833333D01*
X79827380Y-115714285D01*
X80065476Y-115595238D01*
X80779761Y-115595238D01*
X81017857Y-115714285D01*
X81136904Y-115833333D01*
X81255952Y-116071428D01*
X81255952Y-116428571D01*
X81255952Y-114523809D02*
X78755952Y-114523809D01*
X81255952Y-113452380D02*
X79946428Y-113452380D01*
X79708333Y-113571428D01*
X79589285Y-113809523D01*
X79589285Y-114166666D01*
X79708333Y-114404761D01*
X79827380Y-114523809D01*
X81255952Y-111190476D02*
X79946428Y-111190476D01*
X79708333Y-111309523D01*
X79589285Y-111547619D01*
X79589285Y-112023809D01*
X79708333Y-112261904D01*
X81136904Y-111190476D02*
X81255952Y-111428571D01*
X81255952Y-112023809D01*
X81136904Y-112261904D01*
X80898809Y-112380952D01*
X80660714Y-112380952D01*
X80422619Y-112261904D01*
X80303571Y-112023809D01*
X80303571Y-111428571D01*
X80184523Y-111190476D01*
X79589285Y-110000000D02*
X81255952Y-110000000D01*
X79827380Y-110000000D02*
X79708333Y-109880952D01*
X79589285Y-109642857D01*
X79589285Y-109285714D01*
X79708333Y-109047619D01*
X79946428Y-108928571D01*
X81255952Y-108928571D01*
X81136904Y-107857142D02*
X81255952Y-107619047D01*
X81255952Y-107142857D01*
X81136904Y-106904761D01*
X80898809Y-106785714D01*
X80779761Y-106785714D01*
X80541666Y-106904761D01*
X80422619Y-107142857D01*
X80422619Y-107500000D01*
X80303571Y-107738095D01*
X80065476Y-107857142D01*
X79946428Y-107857142D01*
X79708333Y-107738095D01*
X79589285Y-107500000D01*
X79589285Y-107142857D01*
X79708333Y-106904761D01*
X81136904Y-104761904D02*
X81255952Y-105000000D01*
X81255952Y-105476190D01*
X81136904Y-105714285D01*
X80898809Y-105833333D01*
X79946428Y-105833333D01*
X79708333Y-105714285D01*
X79589285Y-105476190D01*
X79589285Y-105000000D01*
X79708333Y-104761904D01*
X79946428Y-104642857D01*
X80184523Y-104642857D01*
X80422619Y-105833333D01*
X79589285Y-103571428D02*
X81255952Y-103571428D01*
X79827380Y-103571428D02*
X79708333Y-103452380D01*
X79589285Y-103214285D01*
X79589285Y-102857142D01*
X79708333Y-102619047D01*
X79946428Y-102500000D01*
X81255952Y-102500000D01*
X79946428Y-99404761D02*
X79946428Y-98571428D01*
X81255952Y-98214285D02*
X81255952Y-99404761D01*
X78755952Y-99404761D01*
X78755952Y-98214285D01*
X79589285Y-97142857D02*
X81255952Y-97142857D01*
X79827380Y-97142857D02*
X79708333Y-97023809D01*
X79589285Y-96785714D01*
X79589285Y-96428571D01*
X79708333Y-96190476D01*
X79946428Y-96071428D01*
X81255952Y-96071428D01*
X79589285Y-93809523D02*
X81613095Y-93809523D01*
X81851190Y-93928571D01*
X81970238Y-94047619D01*
X82089285Y-94285714D01*
X82089285Y-94642857D01*
X81970238Y-94880952D01*
X81136904Y-93809523D02*
X81255952Y-94047619D01*
X81255952Y-94523809D01*
X81136904Y-94761904D01*
X81017857Y-94880952D01*
X80779761Y-95000000D01*
X80065476Y-95000000D01*
X79827380Y-94880952D01*
X79708333Y-94761904D01*
X79589285Y-94523809D01*
X79589285Y-94047619D01*
X79708333Y-93809523D01*
X81255952Y-92619047D02*
X79589285Y-92619047D01*
X78755952Y-92619047D02*
X78875000Y-92738095D01*
X78994047Y-92619047D01*
X78875000Y-92500000D01*
X78755952Y-92619047D01*
X78994047Y-92619047D01*
X79589285Y-91428571D02*
X81255952Y-91428571D01*
X79827380Y-91428571D02*
X79708333Y-91309523D01*
X79589285Y-91071428D01*
X79589285Y-90714285D01*
X79708333Y-90476190D01*
X79946428Y-90357142D01*
X81255952Y-90357142D01*
X81136904Y-88214285D02*
X81255952Y-88452380D01*
X81255952Y-88928571D01*
X81136904Y-89166666D01*
X80898809Y-89285714D01*
X79946428Y-89285714D01*
X79708333Y-89166666D01*
X79589285Y-88928571D01*
X79589285Y-88452380D01*
X79708333Y-88214285D01*
X79946428Y-88095238D01*
X80184523Y-88095238D01*
X80422619Y-89285714D01*
X81136904Y-86071428D02*
X81255952Y-86309523D01*
X81255952Y-86785714D01*
X81136904Y-87023809D01*
X80898809Y-87142857D01*
X79946428Y-87142857D01*
X79708333Y-87023809D01*
X79589285Y-86785714D01*
X79589285Y-86309523D01*
X79708333Y-86071428D01*
X79946428Y-85952380D01*
X80184523Y-85952380D01*
X80422619Y-87142857D01*
X81255952Y-84880952D02*
X79589285Y-84880952D01*
X80065476Y-84880952D02*
X79827380Y-84761904D01*
X79708333Y-84642857D01*
X79589285Y-84404761D01*
X79589285Y-84166666D01*
X81255952Y-83333333D02*
X79589285Y-83333333D01*
X78755952Y-83333333D02*
X78875000Y-83452380D01*
X78994047Y-83333333D01*
X78875000Y-83214285D01*
X78755952Y-83333333D01*
X78994047Y-83333333D01*
X79589285Y-82142857D02*
X81255952Y-82142857D01*
X79827380Y-82142857D02*
X79708333Y-82023809D01*
X79589285Y-81785714D01*
X79589285Y-81428571D01*
X79708333Y-81190476D01*
X79946428Y-81071428D01*
X81255952Y-81071428D01*
X79589285Y-78809523D02*
X81613095Y-78809523D01*
X81851190Y-78928571D01*
X81970238Y-79047619D01*
X82089285Y-79285714D01*
X82089285Y-79642857D01*
X81970238Y-79880952D01*
X81136904Y-78809523D02*
X81255952Y-79047619D01*
X81255952Y-79523809D01*
X81136904Y-79761904D01*
X81017857Y-79880952D01*
X80779761Y-80000000D01*
X80065476Y-80000000D01*
X79827380Y-79880952D01*
X79708333Y-79761904D01*
X79589285Y-79523809D01*
X79589285Y-79047619D01*
X79708333Y-78809523D01*
D12*
X99000000Y-59000000D02*
X100000000Y-59000000D01*
X99000000Y-139000000D02*
X100000000Y-139000000D01*
X100000000Y-59000000D02*
X100000000Y-139000000D01*
X99000000Y-59000000D02*
X99000000Y-139000000D01*
D13*
X50000000Y-150000000D02*
X50000000Y-50000000D01*
X150000000Y-150000000D02*
X50000000Y-150000000D01*
X150000000Y-50000000D02*
X150000000Y-150000000D01*
X50000000Y-50000000D02*
X150000000Y-50000000D01*
D14*
G36*
X92116400Y-130778400D02*
G01*
X92116400Y-130930800D01*
X91947066Y-130930800D01*
X91947066Y-130778400D01*
X92116400Y-130778400D01*
X92116400Y-130778400D01*
G37*
X92116400Y-130778400D02*
X92116400Y-130930800D01*
X91947066Y-130930800D01*
X91947066Y-130778400D01*
X92116400Y-130778400D01*
G36*
X92116400Y-134842401D02*
G01*
X92116400Y-134994801D01*
X91947066Y-134994801D01*
X91947066Y-134842401D01*
X92116400Y-134842401D01*
X92116400Y-134842401D01*
G37*
X92116400Y-134842401D02*
X92116400Y-134994801D01*
X91947066Y-134994801D01*
X91947066Y-134842401D01*
X92116400Y-134842401D01*
G36*
X92173091Y-129915847D02*
G01*
X92195498Y-129869073D01*
X92216569Y-129843101D01*
X92265938Y-129787800D01*
X92776800Y-129776894D01*
X92776800Y-129914800D01*
X92557876Y-129914800D01*
X92463090Y-129915581D01*
X92396503Y-129918329D01*
X92352473Y-129923656D01*
X92325360Y-129932174D01*
X92312343Y-129941410D01*
X92288633Y-129986284D01*
X92291165Y-130039253D01*
X92316939Y-130091331D01*
X92362952Y-130133531D01*
X92379539Y-130142584D01*
X92428409Y-130157431D01*
X92501506Y-130165993D01*
X92603400Y-130168799D01*
X92605792Y-130168800D01*
X92776800Y-130168800D01*
X92776800Y-130304267D01*
X92184133Y-130304267D01*
X92184133Y-130236534D01*
X92186190Y-130193078D01*
X92197042Y-130173758D01*
X92223709Y-130168893D01*
X92233240Y-130168800D01*
X92282347Y-130168800D01*
X92224773Y-130111227D01*
X92187651Y-130068309D01*
X92170913Y-130027580D01*
X92167200Y-129976028D01*
X92173091Y-129915847D01*
X92173091Y-129915847D01*
G37*
X92173091Y-129915847D02*
X92195498Y-129869073D01*
X92216569Y-129843101D01*
X92265938Y-129787800D01*
X92776800Y-129776894D01*
X92776800Y-129914800D01*
X92557876Y-129914800D01*
X92463090Y-129915581D01*
X92396503Y-129918329D01*
X92352473Y-129923656D01*
X92325360Y-129932174D01*
X92312343Y-129941410D01*
X92288633Y-129986284D01*
X92291165Y-130039253D01*
X92316939Y-130091331D01*
X92362952Y-130133531D01*
X92379539Y-130142584D01*
X92428409Y-130157431D01*
X92501506Y-130165993D01*
X92603400Y-130168799D01*
X92605792Y-130168800D01*
X92776800Y-130168800D01*
X92776800Y-130304267D01*
X92184133Y-130304267D01*
X92184133Y-130236534D01*
X92186190Y-130193078D01*
X92197042Y-130173758D01*
X92223709Y-130168893D01*
X92233240Y-130168800D01*
X92282347Y-130168800D01*
X92224773Y-130111227D01*
X92187651Y-130068309D01*
X92170913Y-130027580D01*
X92167200Y-129976028D01*
X92173091Y-129915847D01*
G36*
X92658267Y-130778400D02*
G01*
X92658267Y-130710667D01*
X92660061Y-130667300D01*
X92671139Y-130648027D01*
X92700045Y-130643085D01*
X92717533Y-130642934D01*
X92776800Y-130642934D01*
X92776800Y-131049334D01*
X92717533Y-131049334D01*
X92677811Y-131046713D01*
X92661520Y-131031923D01*
X92658274Y-130994578D01*
X92658267Y-130990067D01*
X92658267Y-130930800D01*
X92302667Y-130930800D01*
X92302667Y-130990067D01*
X92300045Y-131029790D01*
X92285256Y-131046080D01*
X92247911Y-131049326D01*
X92243400Y-131049334D01*
X92184133Y-131049334D01*
X92184133Y-130778400D01*
X92658267Y-130778400D01*
X92658267Y-130778400D01*
G37*
X92658267Y-130778400D02*
X92658267Y-130710667D01*
X92660061Y-130667300D01*
X92671139Y-130648027D01*
X92700045Y-130643085D01*
X92717533Y-130642934D01*
X92776800Y-130642934D01*
X92776800Y-131049334D01*
X92717533Y-131049334D01*
X92677811Y-131046713D01*
X92661520Y-131031923D01*
X92658274Y-130994578D01*
X92658267Y-130990067D01*
X92658267Y-130930800D01*
X92302667Y-130930800D01*
X92302667Y-130990067D01*
X92300045Y-131029790D01*
X92285256Y-131046080D01*
X92247911Y-131049326D01*
X92243400Y-131049334D01*
X92184133Y-131049334D01*
X92184133Y-130778400D01*
X92658267Y-130778400D01*
G36*
X92171217Y-131388401D02*
G01*
X92184513Y-131355312D01*
X92211241Y-131346645D01*
X92249508Y-131355849D01*
X92283509Y-131370051D01*
X92297309Y-131388522D01*
X92296721Y-131423209D01*
X92293475Y-131446199D01*
X92294189Y-131527845D01*
X92319055Y-131599696D01*
X92364506Y-131653191D01*
X92385158Y-131666276D01*
X92438770Y-131683092D01*
X92513648Y-131691937D01*
X92547359Y-131692800D01*
X92658267Y-131692800D01*
X92658267Y-131625067D01*
X92660061Y-131581700D01*
X92671139Y-131562427D01*
X92700045Y-131557485D01*
X92717533Y-131557334D01*
X92776800Y-131557334D01*
X92776800Y-131963734D01*
X92717533Y-131963734D01*
X92679587Y-131961683D01*
X92662723Y-131949022D01*
X92658399Y-131915987D01*
X92658267Y-131896000D01*
X92658267Y-131828267D01*
X92285733Y-131828267D01*
X92285733Y-131896000D01*
X92283727Y-131939432D01*
X92272856Y-131958739D01*
X92245841Y-131963627D01*
X92234933Y-131963734D01*
X92184133Y-131963734D01*
X92184133Y-131692800D01*
X92293854Y-131692800D01*
X92246410Y-131648809D01*
X92197692Y-131590049D01*
X92172955Y-131521673D01*
X92167459Y-131450398D01*
X92171217Y-131388401D01*
X92171217Y-131388401D01*
G37*
X92171217Y-131388401D02*
X92184513Y-131355312D01*
X92211241Y-131346645D01*
X92249508Y-131355849D01*
X92283509Y-131370051D01*
X92297309Y-131388522D01*
X92296721Y-131423209D01*
X92293475Y-131446199D01*
X92294189Y-131527845D01*
X92319055Y-131599696D01*
X92364506Y-131653191D01*
X92385158Y-131666276D01*
X92438770Y-131683092D01*
X92513648Y-131691937D01*
X92547359Y-131692800D01*
X92658267Y-131692800D01*
X92658267Y-131625067D01*
X92660061Y-131581700D01*
X92671139Y-131562427D01*
X92700045Y-131557485D01*
X92717533Y-131557334D01*
X92776800Y-131557334D01*
X92776800Y-131963734D01*
X92717533Y-131963734D01*
X92679587Y-131961683D01*
X92662723Y-131949022D01*
X92658399Y-131915987D01*
X92658267Y-131896000D01*
X92658267Y-131828267D01*
X92285733Y-131828267D01*
X92285733Y-131896000D01*
X92283727Y-131939432D01*
X92272856Y-131958739D01*
X92245841Y-131963627D01*
X92234933Y-131963734D01*
X92184133Y-131963734D01*
X92184133Y-131692800D01*
X92293854Y-131692800D01*
X92246410Y-131648809D01*
X92197692Y-131590049D01*
X92172955Y-131521673D01*
X92167459Y-131450398D01*
X92171217Y-131388401D01*
G36*
X92173091Y-133979847D02*
G01*
X92195498Y-133933073D01*
X92216569Y-133907101D01*
X92265938Y-133851800D01*
X92776800Y-133840894D01*
X92776800Y-133978800D01*
X92557876Y-133978800D01*
X92463090Y-133979581D01*
X92396503Y-133982329D01*
X92352473Y-133987656D01*
X92325360Y-133996174D01*
X92312343Y-134005410D01*
X92288633Y-134050284D01*
X92291165Y-134103253D01*
X92316939Y-134155331D01*
X92362952Y-134197531D01*
X92379539Y-134206584D01*
X92428409Y-134221431D01*
X92501506Y-134229993D01*
X92603400Y-134232799D01*
X92605792Y-134232800D01*
X92776800Y-134232800D01*
X92776800Y-134368267D01*
X92184133Y-134368267D01*
X92184133Y-134300534D01*
X92186190Y-134257078D01*
X92197042Y-134237758D01*
X92223709Y-134232893D01*
X92233240Y-134232800D01*
X92282347Y-134232800D01*
X92224773Y-134175227D01*
X92187651Y-134132309D01*
X92170913Y-134091580D01*
X92167200Y-134040028D01*
X92173091Y-133979847D01*
X92173091Y-133979847D01*
G37*
X92173091Y-133979847D02*
X92195498Y-133933073D01*
X92216569Y-133907101D01*
X92265938Y-133851800D01*
X92776800Y-133840894D01*
X92776800Y-133978800D01*
X92557876Y-133978800D01*
X92463090Y-133979581D01*
X92396503Y-133982329D01*
X92352473Y-133987656D01*
X92325360Y-133996174D01*
X92312343Y-134005410D01*
X92288633Y-134050284D01*
X92291165Y-134103253D01*
X92316939Y-134155331D01*
X92362952Y-134197531D01*
X92379539Y-134206584D01*
X92428409Y-134221431D01*
X92501506Y-134229993D01*
X92603400Y-134232799D01*
X92605792Y-134232800D01*
X92776800Y-134232800D01*
X92776800Y-134368267D01*
X92184133Y-134368267D01*
X92184133Y-134300534D01*
X92186190Y-134257078D01*
X92197042Y-134237758D01*
X92223709Y-134232893D01*
X92233240Y-134232800D01*
X92282347Y-134232800D01*
X92224773Y-134175227D01*
X92187651Y-134132309D01*
X92170913Y-134091580D01*
X92167200Y-134040028D01*
X92173091Y-133979847D01*
G36*
X92658267Y-134842401D02*
G01*
X92658267Y-134774667D01*
X92660061Y-134731300D01*
X92671139Y-134712027D01*
X92700045Y-134707085D01*
X92717533Y-134706934D01*
X92776800Y-134706934D01*
X92776800Y-135113334D01*
X92717533Y-135113334D01*
X92677811Y-135110713D01*
X92661520Y-135095923D01*
X92658274Y-135058578D01*
X92658267Y-135054067D01*
X92658267Y-134994801D01*
X92302667Y-134994801D01*
X92302667Y-135054067D01*
X92300045Y-135093790D01*
X92285256Y-135110080D01*
X92247911Y-135113326D01*
X92243400Y-135113334D01*
X92184133Y-135113334D01*
X92184133Y-134842401D01*
X92658267Y-134842401D01*
X92658267Y-134842401D01*
G37*
X92658267Y-134842401D02*
X92658267Y-134774667D01*
X92660061Y-134731300D01*
X92671139Y-134712027D01*
X92700045Y-134707085D01*
X92717533Y-134706934D01*
X92776800Y-134706934D01*
X92776800Y-135113334D01*
X92717533Y-135113334D01*
X92677811Y-135110713D01*
X92661520Y-135095923D01*
X92658274Y-135058578D01*
X92658267Y-135054067D01*
X92658267Y-134994801D01*
X92302667Y-134994801D01*
X92302667Y-135054067D01*
X92300045Y-135093790D01*
X92285256Y-135110080D01*
X92247911Y-135113326D01*
X92243400Y-135113334D01*
X92184133Y-135113334D01*
X92184133Y-134842401D01*
X92658267Y-134842401D01*
G36*
X92173091Y-136418247D02*
G01*
X92195498Y-136371473D01*
X92216569Y-136345501D01*
X92265938Y-136290201D01*
X92521369Y-136284747D01*
X92776800Y-136279294D01*
X92776800Y-136417201D01*
X92557876Y-136417201D01*
X92463090Y-136417981D01*
X92396503Y-136420729D01*
X92352473Y-136426056D01*
X92325360Y-136434574D01*
X92312343Y-136443810D01*
X92288633Y-136488684D01*
X92291165Y-136541653D01*
X92316939Y-136593731D01*
X92362952Y-136635931D01*
X92379539Y-136644984D01*
X92428409Y-136659831D01*
X92501506Y-136668393D01*
X92603400Y-136671199D01*
X92605792Y-136671201D01*
X92776800Y-136671201D01*
X92776800Y-136806667D01*
X92184133Y-136806667D01*
X92184133Y-136738934D01*
X92186190Y-136695478D01*
X92197042Y-136676158D01*
X92223709Y-136671293D01*
X92233240Y-136671201D01*
X92282347Y-136671201D01*
X92224773Y-136613627D01*
X92187651Y-136570709D01*
X92170913Y-136529980D01*
X92167200Y-136478428D01*
X92173091Y-136418247D01*
X92173091Y-136418247D01*
G37*
X92173091Y-136418247D02*
X92195498Y-136371473D01*
X92216569Y-136345501D01*
X92265938Y-136290201D01*
X92521369Y-136284747D01*
X92776800Y-136279294D01*
X92776800Y-136417201D01*
X92557876Y-136417201D01*
X92463090Y-136417981D01*
X92396503Y-136420729D01*
X92352473Y-136426056D01*
X92325360Y-136434574D01*
X92312343Y-136443810D01*
X92288633Y-136488684D01*
X92291165Y-136541653D01*
X92316939Y-136593731D01*
X92362952Y-136635931D01*
X92379539Y-136644984D01*
X92428409Y-136659831D01*
X92501506Y-136668393D01*
X92603400Y-136671199D01*
X92605792Y-136671201D01*
X92776800Y-136671201D01*
X92776800Y-136806667D01*
X92184133Y-136806667D01*
X92184133Y-136738934D01*
X92186190Y-136695478D01*
X92197042Y-136676158D01*
X92223709Y-136671293D01*
X92233240Y-136671201D01*
X92282347Y-136671201D01*
X92224773Y-136613627D01*
X92187651Y-136570709D01*
X92170913Y-136529980D01*
X92167200Y-136478428D01*
X92173091Y-136418247D01*
G36*
X92065600Y-137094534D02*
G01*
X92065600Y-137484001D01*
X92302667Y-137484001D01*
X92302667Y-137179201D01*
X92421200Y-137179201D01*
X92421200Y-137484001D01*
X92658267Y-137484001D01*
X92658267Y-137094534D01*
X92776800Y-137094534D01*
X92776800Y-137619467D01*
X91947066Y-137619467D01*
X91947066Y-137094534D01*
X92065600Y-137094534D01*
X92065600Y-137094534D01*
G37*
X92065600Y-137094534D02*
X92065600Y-137484001D01*
X92302667Y-137484001D01*
X92302667Y-137179201D01*
X92421200Y-137179201D01*
X92421200Y-137484001D01*
X92658267Y-137484001D01*
X92658267Y-137094534D01*
X92776800Y-137094534D01*
X92776800Y-137619467D01*
X91947066Y-137619467D01*
X91947066Y-137094534D01*
X92065600Y-137094534D01*
G36*
X92173091Y-138839714D02*
G01*
X92195498Y-138792940D01*
X92216569Y-138766968D01*
X92265938Y-138711667D01*
X92776800Y-138700761D01*
X92776800Y-138838667D01*
X92557876Y-138838667D01*
X92463090Y-138839447D01*
X92396503Y-138842195D01*
X92352473Y-138847523D01*
X92325360Y-138856040D01*
X92312343Y-138865277D01*
X92288633Y-138910151D01*
X92291165Y-138963120D01*
X92316939Y-139015198D01*
X92362952Y-139057398D01*
X92379539Y-139066451D01*
X92428409Y-139081298D01*
X92501506Y-139089859D01*
X92603400Y-139092666D01*
X92605792Y-139092667D01*
X92776800Y-139092667D01*
X92776800Y-139228134D01*
X92184133Y-139228134D01*
X92184133Y-139160400D01*
X92186190Y-139116944D01*
X92197042Y-139097625D01*
X92223709Y-139092760D01*
X92233240Y-139092667D01*
X92282347Y-139092667D01*
X92224773Y-139035094D01*
X92187651Y-138992176D01*
X92170913Y-138951447D01*
X92167200Y-138899894D01*
X92173091Y-138839714D01*
X92173091Y-138839714D01*
G37*
X92173091Y-138839714D02*
X92195498Y-138792940D01*
X92216569Y-138766968D01*
X92265938Y-138711667D01*
X92776800Y-138700761D01*
X92776800Y-138838667D01*
X92557876Y-138838667D01*
X92463090Y-138839447D01*
X92396503Y-138842195D01*
X92352473Y-138847523D01*
X92325360Y-138856040D01*
X92312343Y-138865277D01*
X92288633Y-138910151D01*
X92291165Y-138963120D01*
X92316939Y-139015198D01*
X92362952Y-139057398D01*
X92379539Y-139066451D01*
X92428409Y-139081298D01*
X92501506Y-139089859D01*
X92603400Y-139092666D01*
X92605792Y-139092667D01*
X92776800Y-139092667D01*
X92776800Y-139228134D01*
X92184133Y-139228134D01*
X92184133Y-139160400D01*
X92186190Y-139116944D01*
X92197042Y-139097625D01*
X92223709Y-139092760D01*
X92233240Y-139092667D01*
X92282347Y-139092667D01*
X92224773Y-139035094D01*
X92187651Y-138992176D01*
X92170913Y-138951447D01*
X92167200Y-138899894D01*
X92173091Y-138839714D01*
G36*
X92173091Y-141278114D02*
G01*
X92195498Y-141231340D01*
X92216569Y-141205368D01*
X92265938Y-141150067D01*
X92776800Y-141139161D01*
X92776800Y-141277067D01*
X92557876Y-141277067D01*
X92463090Y-141277847D01*
X92396503Y-141280595D01*
X92352473Y-141285923D01*
X92325360Y-141294440D01*
X92312343Y-141303677D01*
X92288633Y-141348551D01*
X92291165Y-141401520D01*
X92316939Y-141453598D01*
X92362952Y-141495798D01*
X92379539Y-141504851D01*
X92428409Y-141519698D01*
X92501506Y-141528259D01*
X92603400Y-141531066D01*
X92605792Y-141531067D01*
X92776800Y-141531067D01*
X92776800Y-141666534D01*
X92184133Y-141666534D01*
X92184133Y-141598800D01*
X92186190Y-141555344D01*
X92197042Y-141536025D01*
X92223709Y-141531160D01*
X92233240Y-141531067D01*
X92282347Y-141531067D01*
X92224773Y-141473494D01*
X92187651Y-141430576D01*
X92170913Y-141389847D01*
X92167200Y-141338294D01*
X92173091Y-141278114D01*
X92173091Y-141278114D01*
G37*
X92173091Y-141278114D02*
X92195498Y-141231340D01*
X92216569Y-141205368D01*
X92265938Y-141150067D01*
X92776800Y-141139161D01*
X92776800Y-141277067D01*
X92557876Y-141277067D01*
X92463090Y-141277847D01*
X92396503Y-141280595D01*
X92352473Y-141285923D01*
X92325360Y-141294440D01*
X92312343Y-141303677D01*
X92288633Y-141348551D01*
X92291165Y-141401520D01*
X92316939Y-141453598D01*
X92362952Y-141495798D01*
X92379539Y-141504851D01*
X92428409Y-141519698D01*
X92501506Y-141528259D01*
X92603400Y-141531066D01*
X92605792Y-141531067D01*
X92776800Y-141531067D01*
X92776800Y-141666534D01*
X92184133Y-141666534D01*
X92184133Y-141598800D01*
X92186190Y-141555344D01*
X92197042Y-141536025D01*
X92223709Y-141531160D01*
X92233240Y-141531067D01*
X92282347Y-141531067D01*
X92224773Y-141473494D01*
X92187651Y-141430576D01*
X92170913Y-141389847D01*
X92167200Y-141338294D01*
X92173091Y-141278114D01*
G36*
X92286267Y-143156667D02*
G01*
X92233025Y-143109095D01*
X92197467Y-143069852D01*
X92178874Y-143024697D01*
X92171569Y-142976046D01*
X92168858Y-142921409D01*
X92177095Y-142884255D01*
X92201046Y-142848769D01*
X92214647Y-142833119D01*
X92265938Y-142775667D01*
X92776800Y-142764761D01*
X92776800Y-142902667D01*
X92557876Y-142902667D01*
X92463090Y-142903447D01*
X92396503Y-142906195D01*
X92352473Y-142911523D01*
X92325360Y-142920040D01*
X92312343Y-142929277D01*
X92288633Y-142974151D01*
X92291165Y-143027120D01*
X92316939Y-143079198D01*
X92362952Y-143121398D01*
X92379539Y-143130451D01*
X92428409Y-143145298D01*
X92501506Y-143153859D01*
X92603400Y-143156666D01*
X92605792Y-143156667D01*
X92776800Y-143156667D01*
X92776800Y-143292134D01*
X91947066Y-143292134D01*
X91947066Y-143156667D01*
X92286267Y-143156667D01*
X92286267Y-143156667D01*
G37*
X92286267Y-143156667D02*
X92233025Y-143109095D01*
X92197467Y-143069852D01*
X92178874Y-143024697D01*
X92171569Y-142976046D01*
X92168858Y-142921409D01*
X92177095Y-142884255D01*
X92201046Y-142848769D01*
X92214647Y-142833119D01*
X92265938Y-142775667D01*
X92776800Y-142764761D01*
X92776800Y-142902667D01*
X92557876Y-142902667D01*
X92463090Y-142903447D01*
X92396503Y-142906195D01*
X92352473Y-142911523D01*
X92325360Y-142920040D01*
X92312343Y-142929277D01*
X92288633Y-142974151D01*
X92291165Y-143027120D01*
X92316939Y-143079198D01*
X92362952Y-143121398D01*
X92379539Y-143130451D01*
X92428409Y-143145298D01*
X92501506Y-143153859D01*
X92603400Y-143156666D01*
X92605792Y-143156667D01*
X92776800Y-143156667D01*
X92776800Y-143292134D01*
X91947066Y-143292134D01*
X91947066Y-143156667D01*
X92286267Y-143156667D01*
G36*
X92177717Y-132392783D02*
G01*
X92210655Y-132310559D01*
X92254149Y-132256642D01*
X92323393Y-132210185D01*
X92414642Y-132174358D01*
X92476233Y-132159846D01*
X92539733Y-132148466D01*
X92539733Y-132657274D01*
X92581250Y-132638358D01*
X92622372Y-132603980D01*
X92655290Y-132548510D01*
X92673295Y-132484693D01*
X92674828Y-132460708D01*
X92667499Y-132415058D01*
X92649606Y-132359052D01*
X92641980Y-132340928D01*
X92609505Y-132269388D01*
X92652802Y-132235331D01*
X92696098Y-132201274D01*
X92729137Y-132243277D01*
X92770380Y-132320411D01*
X92790868Y-132414045D01*
X92789676Y-132513226D01*
X92765879Y-132606999D01*
X92760824Y-132618781D01*
X92709215Y-132694552D01*
X92636991Y-132749259D01*
X92551195Y-132781380D01*
X92458873Y-132789391D01*
X92394580Y-132777052D01*
X92394580Y-132641372D01*
X92409856Y-132626846D01*
X92418048Y-132584551D01*
X92421035Y-132511924D01*
X92421200Y-132480200D01*
X92420004Y-132401150D01*
X92415976Y-132351168D01*
X92408457Y-132325526D01*
X92398752Y-132319334D01*
X92372860Y-132330801D01*
X92339303Y-132358829D01*
X92335252Y-132363031D01*
X92304824Y-132409265D01*
X92294381Y-132468421D01*
X92294200Y-132480200D01*
X92301935Y-132542892D01*
X92328777Y-132590154D01*
X92335252Y-132597370D01*
X92370339Y-132630692D01*
X92394580Y-132641372D01*
X92394580Y-132777052D01*
X92367067Y-132771771D01*
X92282823Y-132726996D01*
X92277852Y-132723169D01*
X92218884Y-132657050D01*
X92182256Y-132574379D01*
X92168392Y-132483507D01*
X92177717Y-132392783D01*
X92177717Y-132392783D01*
G37*
X92177717Y-132392783D02*
X92210655Y-132310559D01*
X92254149Y-132256642D01*
X92323393Y-132210185D01*
X92414642Y-132174358D01*
X92476233Y-132159846D01*
X92539733Y-132148466D01*
X92539733Y-132657274D01*
X92581250Y-132638358D01*
X92622372Y-132603980D01*
X92655290Y-132548510D01*
X92673295Y-132484693D01*
X92674828Y-132460708D01*
X92667499Y-132415058D01*
X92649606Y-132359052D01*
X92641980Y-132340928D01*
X92609505Y-132269388D01*
X92652802Y-132235331D01*
X92696098Y-132201274D01*
X92729137Y-132243277D01*
X92770380Y-132320411D01*
X92790868Y-132414045D01*
X92789676Y-132513226D01*
X92765879Y-132606999D01*
X92760824Y-132618781D01*
X92709215Y-132694552D01*
X92636991Y-132749259D01*
X92551195Y-132781380D01*
X92458873Y-132789391D01*
X92394580Y-132777052D01*
X92394580Y-132641372D01*
X92409856Y-132626846D01*
X92418048Y-132584551D01*
X92421035Y-132511924D01*
X92421200Y-132480200D01*
X92420004Y-132401150D01*
X92415976Y-132351168D01*
X92408457Y-132325526D01*
X92398752Y-132319334D01*
X92372860Y-132330801D01*
X92339303Y-132358829D01*
X92335252Y-132363031D01*
X92304824Y-132409265D01*
X92294381Y-132468421D01*
X92294200Y-132480200D01*
X92301935Y-132542892D01*
X92328777Y-132590154D01*
X92335252Y-132597370D01*
X92370339Y-132630692D01*
X92394580Y-132641372D01*
X92394580Y-132777052D01*
X92367067Y-132771771D01*
X92282823Y-132726996D01*
X92277852Y-132723169D01*
X92218884Y-132657050D01*
X92182256Y-132574379D01*
X92168392Y-132483507D01*
X92177717Y-132392783D01*
G36*
X92177717Y-133205583D02*
G01*
X92210655Y-133123359D01*
X92254149Y-133069442D01*
X92323393Y-133022985D01*
X92414642Y-132987158D01*
X92476233Y-132972646D01*
X92539733Y-132961266D01*
X92539733Y-133470074D01*
X92581250Y-133451158D01*
X92622372Y-133416780D01*
X92655290Y-133361310D01*
X92673295Y-133297493D01*
X92674828Y-133273508D01*
X92667499Y-133227858D01*
X92649606Y-133171852D01*
X92641980Y-133153728D01*
X92609505Y-133082188D01*
X92652802Y-133048131D01*
X92696098Y-133014074D01*
X92729137Y-133056077D01*
X92770380Y-133133211D01*
X92790868Y-133226845D01*
X92789676Y-133326026D01*
X92765879Y-133419799D01*
X92760824Y-133431581D01*
X92709215Y-133507352D01*
X92636991Y-133562059D01*
X92551195Y-133594180D01*
X92458873Y-133602191D01*
X92394580Y-133589852D01*
X92394580Y-133454172D01*
X92409856Y-133439646D01*
X92418048Y-133397351D01*
X92421035Y-133324724D01*
X92421200Y-133293000D01*
X92420004Y-133213950D01*
X92415976Y-133163968D01*
X92408457Y-133138326D01*
X92398752Y-133132134D01*
X92372860Y-133143601D01*
X92339303Y-133171629D01*
X92335252Y-133175831D01*
X92304824Y-133222065D01*
X92294381Y-133281221D01*
X92294200Y-133293000D01*
X92301935Y-133355692D01*
X92328777Y-133402954D01*
X92335252Y-133410170D01*
X92370339Y-133443492D01*
X92394580Y-133454172D01*
X92394580Y-133589852D01*
X92367067Y-133584571D01*
X92282823Y-133539796D01*
X92277852Y-133535969D01*
X92218884Y-133469850D01*
X92182256Y-133387179D01*
X92168392Y-133296307D01*
X92177717Y-133205583D01*
X92177717Y-133205583D01*
G37*
X92177717Y-133205583D02*
X92210655Y-133123359D01*
X92254149Y-133069442D01*
X92323393Y-133022985D01*
X92414642Y-132987158D01*
X92476233Y-132972646D01*
X92539733Y-132961266D01*
X92539733Y-133470074D01*
X92581250Y-133451158D01*
X92622372Y-133416780D01*
X92655290Y-133361310D01*
X92673295Y-133297493D01*
X92674828Y-133273508D01*
X92667499Y-133227858D01*
X92649606Y-133171852D01*
X92641980Y-133153728D01*
X92609505Y-133082188D01*
X92652802Y-133048131D01*
X92696098Y-133014074D01*
X92729137Y-133056077D01*
X92770380Y-133133211D01*
X92790868Y-133226845D01*
X92789676Y-133326026D01*
X92765879Y-133419799D01*
X92760824Y-133431581D01*
X92709215Y-133507352D01*
X92636991Y-133562059D01*
X92551195Y-133594180D01*
X92458873Y-133602191D01*
X92394580Y-133589852D01*
X92394580Y-133454172D01*
X92409856Y-133439646D01*
X92418048Y-133397351D01*
X92421035Y-133324724D01*
X92421200Y-133293000D01*
X92420004Y-133213950D01*
X92415976Y-133163968D01*
X92408457Y-133138326D01*
X92398752Y-133132134D01*
X92372860Y-133143601D01*
X92339303Y-133171629D01*
X92335252Y-133175831D01*
X92304824Y-133222065D01*
X92294381Y-133281221D01*
X92294200Y-133293000D01*
X92301935Y-133355692D01*
X92328777Y-133402954D01*
X92335252Y-133410170D01*
X92370339Y-133443492D01*
X92394580Y-133454172D01*
X92394580Y-133589852D01*
X92367067Y-133584571D01*
X92282823Y-133539796D01*
X92277852Y-133535969D01*
X92218884Y-133469850D01*
X92182256Y-133387179D01*
X92168392Y-133296307D01*
X92177717Y-133205583D01*
G36*
X92177717Y-139691050D02*
G01*
X92210655Y-139608825D01*
X92254149Y-139554909D01*
X92323393Y-139508452D01*
X92414642Y-139472625D01*
X92476233Y-139458113D01*
X92539733Y-139446733D01*
X92539733Y-139955541D01*
X92581250Y-139936625D01*
X92622372Y-139902246D01*
X92655290Y-139846777D01*
X92673295Y-139782960D01*
X92674828Y-139758975D01*
X92667499Y-139713325D01*
X92649606Y-139657319D01*
X92641980Y-139639194D01*
X92609505Y-139567655D01*
X92652802Y-139533598D01*
X92696098Y-139499541D01*
X92729137Y-139541543D01*
X92770380Y-139618678D01*
X92790868Y-139712312D01*
X92789676Y-139811492D01*
X92765879Y-139905265D01*
X92760824Y-139917047D01*
X92709215Y-139992819D01*
X92636991Y-140047526D01*
X92551195Y-140079646D01*
X92458873Y-140087658D01*
X92394580Y-140075319D01*
X92394580Y-139939638D01*
X92409856Y-139925113D01*
X92418048Y-139882818D01*
X92421035Y-139810190D01*
X92421200Y-139778467D01*
X92420004Y-139699417D01*
X92415976Y-139649435D01*
X92408457Y-139623792D01*
X92398752Y-139617600D01*
X92372860Y-139629067D01*
X92339303Y-139657096D01*
X92335252Y-139661298D01*
X92304824Y-139707531D01*
X92294381Y-139766687D01*
X92294200Y-139778467D01*
X92301935Y-139841159D01*
X92328777Y-139888421D01*
X92335252Y-139895636D01*
X92370339Y-139928958D01*
X92394580Y-139939638D01*
X92394580Y-140075319D01*
X92367067Y-140070038D01*
X92282823Y-140025263D01*
X92277852Y-140021436D01*
X92218884Y-139955317D01*
X92182256Y-139872646D01*
X92168392Y-139781773D01*
X92177717Y-139691050D01*
X92177717Y-139691050D01*
G37*
X92177717Y-139691050D02*
X92210655Y-139608825D01*
X92254149Y-139554909D01*
X92323393Y-139508452D01*
X92414642Y-139472625D01*
X92476233Y-139458113D01*
X92539733Y-139446733D01*
X92539733Y-139955541D01*
X92581250Y-139936625D01*
X92622372Y-139902246D01*
X92655290Y-139846777D01*
X92673295Y-139782960D01*
X92674828Y-139758975D01*
X92667499Y-139713325D01*
X92649606Y-139657319D01*
X92641980Y-139639194D01*
X92609505Y-139567655D01*
X92652802Y-139533598D01*
X92696098Y-139499541D01*
X92729137Y-139541543D01*
X92770380Y-139618678D01*
X92790868Y-139712312D01*
X92789676Y-139811492D01*
X92765879Y-139905265D01*
X92760824Y-139917047D01*
X92709215Y-139992819D01*
X92636991Y-140047526D01*
X92551195Y-140079646D01*
X92458873Y-140087658D01*
X92394580Y-140075319D01*
X92394580Y-139939638D01*
X92409856Y-139925113D01*
X92418048Y-139882818D01*
X92421035Y-139810190D01*
X92421200Y-139778467D01*
X92420004Y-139699417D01*
X92415976Y-139649435D01*
X92408457Y-139623792D01*
X92398752Y-139617600D01*
X92372860Y-139629067D01*
X92339303Y-139657096D01*
X92335252Y-139661298D01*
X92304824Y-139707531D01*
X92294381Y-139766687D01*
X92294200Y-139778467D01*
X92301935Y-139841159D01*
X92328777Y-139888421D01*
X92335252Y-139895636D01*
X92370339Y-139928958D01*
X92394580Y-139939638D01*
X92394580Y-140075319D01*
X92367067Y-140070038D01*
X92282823Y-140025263D01*
X92277852Y-140021436D01*
X92218884Y-139955317D01*
X92182256Y-139872646D01*
X92168392Y-139781773D01*
X92177717Y-139691050D01*
G36*
X92175849Y-140499157D02*
G01*
X92194038Y-140425547D01*
X92220810Y-140372104D01*
X92225948Y-140366014D01*
X92254002Y-140354555D01*
X92288643Y-140360975D01*
X92317544Y-140379605D01*
X92328379Y-140404774D01*
X92326484Y-140412250D01*
X92304938Y-140479952D01*
X92293348Y-140553005D01*
X92291616Y-140623021D01*
X92299647Y-140681614D01*
X92317343Y-140720394D01*
X92330139Y-140729872D01*
X92352607Y-140733236D01*
X92370377Y-140720639D01*
X92385711Y-140687484D01*
X92400870Y-140629174D01*
X92415193Y-140557025D01*
X92439266Y-140455285D01*
X92469569Y-140383608D01*
X92508878Y-140338369D01*
X92559972Y-140315940D01*
X92602971Y-140311867D01*
X92670649Y-140327007D01*
X92725217Y-140369295D01*
X92765087Y-140434033D01*
X92788672Y-140516524D01*
X92794386Y-140612071D01*
X92780643Y-140715974D01*
X92761803Y-140782100D01*
X92743043Y-140833107D01*
X92727360Y-140870002D01*
X92720566Y-140881746D01*
X92699501Y-140882998D01*
X92662006Y-140872163D01*
X92657512Y-140870355D01*
X92630706Y-140858443D01*
X92616760Y-140845306D01*
X92615315Y-140823396D01*
X92626010Y-140785161D01*
X92648485Y-140723050D01*
X92650249Y-140718267D01*
X92671140Y-140619117D01*
X92670694Y-140560637D01*
X92657598Y-140490951D01*
X92636750Y-140453202D01*
X92611677Y-140447391D01*
X92585909Y-140473521D01*
X92562974Y-140531596D01*
X92556044Y-140560543D01*
X92535881Y-140654044D01*
X92519246Y-140720598D01*
X92503850Y-140766623D01*
X92487405Y-140798535D01*
X92467624Y-140822752D01*
X92459901Y-140830217D01*
X92401345Y-140864791D01*
X92338281Y-140869518D01*
X92276931Y-140846672D01*
X92223522Y-140798527D01*
X92185210Y-140729865D01*
X92170190Y-140662428D01*
X92167485Y-140581821D01*
X92175849Y-140499157D01*
X92175849Y-140499157D01*
G37*
X92175849Y-140499157D02*
X92194038Y-140425547D01*
X92220810Y-140372104D01*
X92225948Y-140366014D01*
X92254002Y-140354555D01*
X92288643Y-140360975D01*
X92317544Y-140379605D01*
X92328379Y-140404774D01*
X92326484Y-140412250D01*
X92304938Y-140479952D01*
X92293348Y-140553005D01*
X92291616Y-140623021D01*
X92299647Y-140681614D01*
X92317343Y-140720394D01*
X92330139Y-140729872D01*
X92352607Y-140733236D01*
X92370377Y-140720639D01*
X92385711Y-140687484D01*
X92400870Y-140629174D01*
X92415193Y-140557025D01*
X92439266Y-140455285D01*
X92469569Y-140383608D01*
X92508878Y-140338369D01*
X92559972Y-140315940D01*
X92602971Y-140311867D01*
X92670649Y-140327007D01*
X92725217Y-140369295D01*
X92765087Y-140434033D01*
X92788672Y-140516524D01*
X92794386Y-140612071D01*
X92780643Y-140715974D01*
X92761803Y-140782100D01*
X92743043Y-140833107D01*
X92727360Y-140870002D01*
X92720566Y-140881746D01*
X92699501Y-140882998D01*
X92662006Y-140872163D01*
X92657512Y-140870355D01*
X92630706Y-140858443D01*
X92616760Y-140845306D01*
X92615315Y-140823396D01*
X92626010Y-140785161D01*
X92648485Y-140723050D01*
X92650249Y-140718267D01*
X92671140Y-140619117D01*
X92670694Y-140560637D01*
X92657598Y-140490951D01*
X92636750Y-140453202D01*
X92611677Y-140447391D01*
X92585909Y-140473521D01*
X92562974Y-140531596D01*
X92556044Y-140560543D01*
X92535881Y-140654044D01*
X92519246Y-140720598D01*
X92503850Y-140766623D01*
X92487405Y-140798535D01*
X92467624Y-140822752D01*
X92459901Y-140830217D01*
X92401345Y-140864791D01*
X92338281Y-140869518D01*
X92276931Y-140846672D01*
X92223522Y-140798527D01*
X92185210Y-140729865D01*
X92170190Y-140662428D01*
X92167485Y-140581821D01*
X92175849Y-140499157D01*
G36*
X92191944Y-142086320D02*
G01*
X92235525Y-142014708D01*
X92260565Y-141991110D01*
X92281943Y-141976353D01*
X92306307Y-141966164D01*
X92340050Y-141959710D01*
X92389567Y-141956154D01*
X92461253Y-141954665D01*
X92542017Y-141954400D01*
X92776800Y-141954400D01*
X92776800Y-142022134D01*
X92774003Y-142066379D01*
X92762588Y-142085950D01*
X92742426Y-142089867D01*
X92721082Y-142091430D01*
X92718907Y-142101502D01*
X92736403Y-142128162D01*
X92745576Y-142140620D01*
X92775366Y-142202341D01*
X92790153Y-142289033D01*
X92790428Y-142292701D01*
X92793296Y-142350543D01*
X92788586Y-142387728D01*
X92772062Y-142417299D01*
X92739487Y-142452300D01*
X92738172Y-142453615D01*
X92692725Y-142492610D01*
X92650742Y-142510054D01*
X92612353Y-142513200D01*
X92589584Y-142508359D01*
X92589584Y-142375109D01*
X92634473Y-142367823D01*
X92662505Y-142333700D01*
X92671201Y-142276568D01*
X92669263Y-142252200D01*
X92654967Y-142196022D01*
X92631320Y-142146579D01*
X92628199Y-142142133D01*
X92591179Y-142109093D01*
X92550759Y-142092976D01*
X92523864Y-142091923D01*
X92510801Y-142102724D01*
X92506805Y-142133643D01*
X92506822Y-142169176D01*
X92514674Y-142259442D01*
X92534918Y-142326156D01*
X92566139Y-142365790D01*
X92589584Y-142375109D01*
X92589584Y-142508359D01*
X92540434Y-142497908D01*
X92483001Y-142452829D01*
X92440865Y-142379159D01*
X92414840Y-142278097D01*
X92407719Y-142211755D01*
X92402780Y-142148161D01*
X92396607Y-142111617D01*
X92386718Y-142095326D01*
X92370634Y-142092495D01*
X92364449Y-142093222D01*
X92331244Y-142110897D01*
X92303745Y-142143830D01*
X92290852Y-142183818D01*
X92290892Y-142238785D01*
X92304378Y-142314125D01*
X92328531Y-142404134D01*
X92327973Y-142434178D01*
X92300465Y-142456338D01*
X92294061Y-142459383D01*
X92258700Y-142471957D01*
X92234706Y-142466912D01*
X92215476Y-142439209D01*
X92194405Y-142383809D01*
X92194185Y-142383164D01*
X92170160Y-142277124D01*
X92169785Y-142175984D01*
X92191944Y-142086320D01*
X92191944Y-142086320D01*
G37*
X92191944Y-142086320D02*
X92235525Y-142014708D01*
X92260565Y-141991110D01*
X92281943Y-141976353D01*
X92306307Y-141966164D01*
X92340050Y-141959710D01*
X92389567Y-141956154D01*
X92461253Y-141954665D01*
X92542017Y-141954400D01*
X92776800Y-141954400D01*
X92776800Y-142022134D01*
X92774003Y-142066379D01*
X92762588Y-142085950D01*
X92742426Y-142089867D01*
X92721082Y-142091430D01*
X92718907Y-142101502D01*
X92736403Y-142128162D01*
X92745576Y-142140620D01*
X92775366Y-142202341D01*
X92790153Y-142289033D01*
X92790428Y-142292701D01*
X92793296Y-142350543D01*
X92788586Y-142387728D01*
X92772062Y-142417299D01*
X92739487Y-142452300D01*
X92738172Y-142453615D01*
X92692725Y-142492610D01*
X92650742Y-142510054D01*
X92612353Y-142513200D01*
X92589584Y-142508359D01*
X92589584Y-142375109D01*
X92634473Y-142367823D01*
X92662505Y-142333700D01*
X92671201Y-142276568D01*
X92669263Y-142252200D01*
X92654967Y-142196022D01*
X92631320Y-142146579D01*
X92628199Y-142142133D01*
X92591179Y-142109093D01*
X92550759Y-142092976D01*
X92523864Y-142091923D01*
X92510801Y-142102724D01*
X92506805Y-142133643D01*
X92506822Y-142169176D01*
X92514674Y-142259442D01*
X92534918Y-142326156D01*
X92566139Y-142365790D01*
X92589584Y-142375109D01*
X92589584Y-142508359D01*
X92540434Y-142497908D01*
X92483001Y-142452829D01*
X92440865Y-142379159D01*
X92414840Y-142278097D01*
X92407719Y-142211755D01*
X92402780Y-142148161D01*
X92396607Y-142111617D01*
X92386718Y-142095326D01*
X92370634Y-142092495D01*
X92364449Y-142093222D01*
X92331244Y-142110897D01*
X92303745Y-142143830D01*
X92290852Y-142183818D01*
X92290892Y-142238785D01*
X92304378Y-142314125D01*
X92328531Y-142404134D01*
X92327973Y-142434178D01*
X92300465Y-142456338D01*
X92294061Y-142459383D01*
X92258700Y-142471957D01*
X92234706Y-142466912D01*
X92215476Y-142439209D01*
X92194405Y-142383809D01*
X92194185Y-142383164D01*
X92170160Y-142277124D01*
X92169785Y-142175984D01*
X92191944Y-142086320D01*
G36*
X92182167Y-143737645D02*
G01*
X92224702Y-143651368D01*
X92291261Y-143585518D01*
X92378297Y-143543620D01*
X92480467Y-143529201D01*
X92584596Y-143544005D01*
X92671187Y-143586211D01*
X92736975Y-143652508D01*
X92778695Y-143739585D01*
X92793082Y-143844132D01*
X92793070Y-143846157D01*
X92787786Y-143907231D01*
X92775339Y-143963146D01*
X92769829Y-143977934D01*
X92718619Y-144054097D01*
X92645689Y-144110245D01*
X92558300Y-144143885D01*
X92477485Y-144151267D01*
X92477485Y-144015081D01*
X92545111Y-144005484D01*
X92603755Y-143975442D01*
X92647030Y-143927763D01*
X92668551Y-143865253D01*
X92667844Y-143817977D01*
X92649415Y-143764643D01*
X92616826Y-143717137D01*
X92616074Y-143716377D01*
X92582927Y-143689775D01*
X92544211Y-143676794D01*
X92486497Y-143673150D01*
X92480467Y-143673134D01*
X92421410Y-143676006D01*
X92382012Y-143687756D01*
X92348323Y-143713086D01*
X92341151Y-143720085D01*
X92309267Y-143760539D01*
X92295948Y-143806604D01*
X92294200Y-143844318D01*
X92298533Y-143899130D01*
X92315605Y-143936103D01*
X92340833Y-143961712D01*
X92407264Y-144001426D01*
X92477485Y-144015081D01*
X92477485Y-144151267D01*
X92463711Y-144152526D01*
X92369184Y-144133677D01*
X92345000Y-144123729D01*
X92258978Y-144069393D01*
X92201826Y-143998141D01*
X92172252Y-143907919D01*
X92167200Y-143840821D01*
X92182167Y-143737645D01*
X92182167Y-143737645D01*
G37*
X92182167Y-143737645D02*
X92224702Y-143651368D01*
X92291261Y-143585518D01*
X92378297Y-143543620D01*
X92480467Y-143529201D01*
X92584596Y-143544005D01*
X92671187Y-143586211D01*
X92736975Y-143652508D01*
X92778695Y-143739585D01*
X92793082Y-143844132D01*
X92793070Y-143846157D01*
X92787786Y-143907231D01*
X92775339Y-143963146D01*
X92769829Y-143977934D01*
X92718619Y-144054097D01*
X92645689Y-144110245D01*
X92558300Y-144143885D01*
X92477485Y-144151267D01*
X92477485Y-144015081D01*
X92545111Y-144005484D01*
X92603755Y-143975442D01*
X92647030Y-143927763D01*
X92668551Y-143865253D01*
X92667844Y-143817977D01*
X92649415Y-143764643D01*
X92616826Y-143717137D01*
X92616074Y-143716377D01*
X92582927Y-143689775D01*
X92544211Y-143676794D01*
X92486497Y-143673150D01*
X92480467Y-143673134D01*
X92421410Y-143676006D01*
X92382012Y-143687756D01*
X92348323Y-143713086D01*
X92341151Y-143720085D01*
X92309267Y-143760539D01*
X92295948Y-143806604D01*
X92294200Y-143844318D01*
X92298533Y-143899130D01*
X92315605Y-143936103D01*
X92340833Y-143961712D01*
X92407264Y-144001426D01*
X92477485Y-144015081D01*
X92477485Y-144151267D01*
X92463711Y-144152526D01*
X92369184Y-144133677D01*
X92345000Y-144123729D01*
X92258978Y-144069393D01*
X92201826Y-143998141D01*
X92172252Y-143907919D01*
X92167200Y-143840821D01*
X92182167Y-143737645D01*
G36*
X92265212Y-144392801D02*
G01*
X92377928Y-144393057D01*
X92462471Y-144394195D01*
X92524533Y-144396764D01*
X92569807Y-144401315D01*
X92603985Y-144408400D01*
X92632758Y-144418569D01*
X92658912Y-144430901D01*
X92728863Y-144480337D01*
X92764074Y-144528267D01*
X92785523Y-144598213D01*
X92791837Y-144680980D01*
X92782266Y-144758731D01*
X92774709Y-144782258D01*
X92734287Y-144847850D01*
X92673486Y-144905479D01*
X92637941Y-144927809D01*
X92593522Y-144947417D01*
X92566872Y-144945363D01*
X92547671Y-144918906D01*
X92540157Y-144901823D01*
X92528387Y-144852662D01*
X92540386Y-144823224D01*
X92564627Y-144816134D01*
X92593581Y-144802359D01*
X92627093Y-144768416D01*
X92656650Y-144725383D01*
X92673739Y-144684333D01*
X92675200Y-144672286D01*
X92672029Y-144627498D01*
X92659993Y-144592949D01*
X92635305Y-144567348D01*
X92594179Y-144549405D01*
X92532830Y-144537829D01*
X92447472Y-144531329D01*
X92334318Y-144528615D01*
X92252707Y-144528267D01*
X91947066Y-144528267D01*
X91947066Y-144392801D01*
X92265212Y-144392801D01*
X92265212Y-144392801D01*
G37*
X92265212Y-144392801D02*
X92377928Y-144393057D01*
X92462471Y-144394195D01*
X92524533Y-144396764D01*
X92569807Y-144401315D01*
X92603985Y-144408400D01*
X92632758Y-144418569D01*
X92658912Y-144430901D01*
X92728863Y-144480337D01*
X92764074Y-144528267D01*
X92785523Y-144598213D01*
X92791837Y-144680980D01*
X92782266Y-144758731D01*
X92774709Y-144782258D01*
X92734287Y-144847850D01*
X92673486Y-144905479D01*
X92637941Y-144927809D01*
X92593522Y-144947417D01*
X92566872Y-144945363D01*
X92547671Y-144918906D01*
X92540157Y-144901823D01*
X92528387Y-144852662D01*
X92540386Y-144823224D01*
X92564627Y-144816134D01*
X92593581Y-144802359D01*
X92627093Y-144768416D01*
X92656650Y-144725383D01*
X92673739Y-144684333D01*
X92675200Y-144672286D01*
X92672029Y-144627498D01*
X92659993Y-144592949D01*
X92635305Y-144567348D01*
X92594179Y-144549405D01*
X92532830Y-144537829D01*
X92447472Y-144531329D01*
X92334318Y-144528615D01*
X92252707Y-144528267D01*
X91947066Y-144528267D01*
X91947066Y-144392801D01*
X92265212Y-144392801D01*
G36*
X92177272Y-129190035D02*
G01*
X92193035Y-129151960D01*
X92206278Y-129117739D01*
X92203017Y-129102191D01*
X92201501Y-129102000D01*
X92190626Y-129086979D01*
X92184576Y-129049454D01*
X92184133Y-129034267D01*
X92184133Y-128966534D01*
X92520296Y-128966534D01*
X92635592Y-128966713D01*
X92722208Y-128967588D01*
X92785330Y-128969665D01*
X92830145Y-128973450D01*
X92861840Y-128979450D01*
X92885599Y-128988171D01*
X92906610Y-129000120D01*
X92913996Y-129004971D01*
X92975593Y-129065513D01*
X93015107Y-129146349D01*
X93030952Y-129240814D01*
X93021542Y-129342245D01*
X93006597Y-129394261D01*
X92979893Y-129455096D01*
X92951969Y-129495264D01*
X92929002Y-129508400D01*
X92907527Y-129498752D01*
X92879373Y-129478727D01*
X92842728Y-129449053D01*
X92879331Y-129366306D01*
X92904167Y-129284655D01*
X92905029Y-129212350D01*
X92883772Y-129154442D01*
X92842249Y-129115976D01*
X92782317Y-129102001D01*
X92782207Y-129102000D01*
X92725130Y-129102000D01*
X92750965Y-129151960D01*
X92776043Y-129232718D01*
X92771009Y-129312009D01*
X92739466Y-129385145D01*
X92685016Y-129447440D01*
X92611261Y-129494207D01*
X92521804Y-129520762D01*
X92465925Y-129524924D01*
X92465925Y-129388940D01*
X92534004Y-129380217D01*
X92594455Y-129349931D01*
X92635477Y-129303337D01*
X92650013Y-129252473D01*
X92648357Y-129191738D01*
X92631732Y-129138722D01*
X92623146Y-129125890D01*
X92595779Y-129113153D01*
X92545576Y-129104920D01*
X92483139Y-129101285D01*
X92419071Y-129102340D01*
X92363974Y-129108178D01*
X92328452Y-129118891D01*
X92323035Y-129123262D01*
X92297153Y-129177487D01*
X92292135Y-129243104D01*
X92303133Y-129289394D01*
X92341768Y-129343163D01*
X92398939Y-129376466D01*
X92465925Y-129388940D01*
X92465925Y-129524924D01*
X92464179Y-129525055D01*
X92370696Y-129511236D01*
X92290545Y-129473820D01*
X92227426Y-129417899D01*
X92185040Y-129348566D01*
X92167088Y-129270914D01*
X92177272Y-129190035D01*
X92177272Y-129190035D01*
G37*
X92177272Y-129190035D02*
X92193035Y-129151960D01*
X92206278Y-129117739D01*
X92203017Y-129102191D01*
X92201501Y-129102000D01*
X92190626Y-129086979D01*
X92184576Y-129049454D01*
X92184133Y-129034267D01*
X92184133Y-128966534D01*
X92520296Y-128966534D01*
X92635592Y-128966713D01*
X92722208Y-128967588D01*
X92785330Y-128969665D01*
X92830145Y-128973450D01*
X92861840Y-128979450D01*
X92885599Y-128988171D01*
X92906610Y-129000120D01*
X92913996Y-129004971D01*
X92975593Y-129065513D01*
X93015107Y-129146349D01*
X93030952Y-129240814D01*
X93021542Y-129342245D01*
X93006597Y-129394261D01*
X92979893Y-129455096D01*
X92951969Y-129495264D01*
X92929002Y-129508400D01*
X92907527Y-129498752D01*
X92879373Y-129478727D01*
X92842728Y-129449053D01*
X92879331Y-129366306D01*
X92904167Y-129284655D01*
X92905029Y-129212350D01*
X92883772Y-129154442D01*
X92842249Y-129115976D01*
X92782317Y-129102001D01*
X92782207Y-129102000D01*
X92725130Y-129102000D01*
X92750965Y-129151960D01*
X92776043Y-129232718D01*
X92771009Y-129312009D01*
X92739466Y-129385145D01*
X92685016Y-129447440D01*
X92611261Y-129494207D01*
X92521804Y-129520762D01*
X92465925Y-129524924D01*
X92465925Y-129388940D01*
X92534004Y-129380217D01*
X92594455Y-129349931D01*
X92635477Y-129303337D01*
X92650013Y-129252473D01*
X92648357Y-129191738D01*
X92631732Y-129138722D01*
X92623146Y-129125890D01*
X92595779Y-129113153D01*
X92545576Y-129104920D01*
X92483139Y-129101285D01*
X92419071Y-129102340D01*
X92363974Y-129108178D01*
X92328452Y-129118891D01*
X92323035Y-129123262D01*
X92297153Y-129177487D01*
X92292135Y-129243104D01*
X92303133Y-129289394D01*
X92341768Y-129343163D01*
X92398939Y-129376466D01*
X92465925Y-129388940D01*
X92465925Y-129524924D01*
X92464179Y-129525055D01*
X92370696Y-129511236D01*
X92290545Y-129473820D01*
X92227426Y-129417899D01*
X92185040Y-129348566D01*
X92167088Y-129270914D01*
X92177272Y-129190035D01*
G36*
X92177272Y-135692435D02*
G01*
X92193035Y-135654360D01*
X92206278Y-135620139D01*
X92203017Y-135604591D01*
X92201501Y-135604401D01*
X92190626Y-135589379D01*
X92184576Y-135551854D01*
X92184133Y-135536667D01*
X92184133Y-135468934D01*
X92520296Y-135468934D01*
X92635592Y-135469113D01*
X92722208Y-135469988D01*
X92785330Y-135472065D01*
X92830145Y-135475850D01*
X92861840Y-135481850D01*
X92885599Y-135490571D01*
X92906610Y-135502520D01*
X92913996Y-135507371D01*
X92975593Y-135567913D01*
X93015107Y-135648749D01*
X93030952Y-135743214D01*
X93021542Y-135844645D01*
X93006597Y-135896661D01*
X92979893Y-135957496D01*
X92951969Y-135997664D01*
X92929002Y-136010801D01*
X92907527Y-136001152D01*
X92879373Y-135981127D01*
X92842728Y-135951453D01*
X92879331Y-135868706D01*
X92904167Y-135787055D01*
X92905029Y-135714750D01*
X92883772Y-135656842D01*
X92842249Y-135618376D01*
X92782317Y-135604401D01*
X92725130Y-135604401D01*
X92750965Y-135654360D01*
X92776043Y-135735118D01*
X92771009Y-135814409D01*
X92739466Y-135887545D01*
X92685016Y-135949840D01*
X92611261Y-135996607D01*
X92521804Y-136023162D01*
X92465925Y-136027324D01*
X92465925Y-135891340D01*
X92534004Y-135882617D01*
X92594455Y-135852331D01*
X92635477Y-135805737D01*
X92650013Y-135754873D01*
X92648357Y-135694138D01*
X92631732Y-135641122D01*
X92623146Y-135628290D01*
X92595779Y-135615553D01*
X92545576Y-135607320D01*
X92483139Y-135603685D01*
X92419071Y-135604740D01*
X92363974Y-135610578D01*
X92328452Y-135621291D01*
X92323035Y-135625662D01*
X92297153Y-135679887D01*
X92292135Y-135745504D01*
X92303133Y-135791794D01*
X92341768Y-135845563D01*
X92398939Y-135878866D01*
X92465925Y-135891340D01*
X92465925Y-136027324D01*
X92464179Y-136027455D01*
X92370696Y-136013636D01*
X92290545Y-135976220D01*
X92227426Y-135920299D01*
X92185040Y-135850966D01*
X92167088Y-135773314D01*
X92177272Y-135692435D01*
X92177272Y-135692435D01*
G37*
X92177272Y-135692435D02*
X92193035Y-135654360D01*
X92206278Y-135620139D01*
X92203017Y-135604591D01*
X92201501Y-135604401D01*
X92190626Y-135589379D01*
X92184576Y-135551854D01*
X92184133Y-135536667D01*
X92184133Y-135468934D01*
X92520296Y-135468934D01*
X92635592Y-135469113D01*
X92722208Y-135469988D01*
X92785330Y-135472065D01*
X92830145Y-135475850D01*
X92861840Y-135481850D01*
X92885599Y-135490571D01*
X92906610Y-135502520D01*
X92913996Y-135507371D01*
X92975593Y-135567913D01*
X93015107Y-135648749D01*
X93030952Y-135743214D01*
X93021542Y-135844645D01*
X93006597Y-135896661D01*
X92979893Y-135957496D01*
X92951969Y-135997664D01*
X92929002Y-136010801D01*
X92907527Y-136001152D01*
X92879373Y-135981127D01*
X92842728Y-135951453D01*
X92879331Y-135868706D01*
X92904167Y-135787055D01*
X92905029Y-135714750D01*
X92883772Y-135656842D01*
X92842249Y-135618376D01*
X92782317Y-135604401D01*
X92725130Y-135604401D01*
X92750965Y-135654360D01*
X92776043Y-135735118D01*
X92771009Y-135814409D01*
X92739466Y-135887545D01*
X92685016Y-135949840D01*
X92611261Y-135996607D01*
X92521804Y-136023162D01*
X92465925Y-136027324D01*
X92465925Y-135891340D01*
X92534004Y-135882617D01*
X92594455Y-135852331D01*
X92635477Y-135805737D01*
X92650013Y-135754873D01*
X92648357Y-135694138D01*
X92631732Y-135641122D01*
X92623146Y-135628290D01*
X92595779Y-135615553D01*
X92545576Y-135607320D01*
X92483139Y-135603685D01*
X92419071Y-135604740D01*
X92363974Y-135610578D01*
X92328452Y-135621291D01*
X92323035Y-135625662D01*
X92297153Y-135679887D01*
X92292135Y-135745504D01*
X92303133Y-135791794D01*
X92341768Y-135845563D01*
X92398939Y-135878866D01*
X92465925Y-135891340D01*
X92465925Y-136027324D01*
X92464179Y-136027455D01*
X92370696Y-136013636D01*
X92290545Y-135976220D01*
X92227426Y-135920299D01*
X92185040Y-135850966D01*
X92167088Y-135773314D01*
X92177272Y-135692435D01*
G36*
X94238391Y-127919619D02*
G01*
X94292916Y-127888471D01*
X94352415Y-127886138D01*
X94406399Y-127912481D01*
X94416381Y-127921992D01*
X94453200Y-127961183D01*
X94453200Y-145541809D01*
X94408583Y-145576905D01*
X94366096Y-145601641D01*
X94326364Y-145612000D01*
X94326200Y-145612000D01*
X94286539Y-145601741D01*
X94244010Y-145577057D01*
X94243817Y-145576905D01*
X94199200Y-145541809D01*
X94199200Y-127956437D01*
X94238391Y-127919619D01*
X94238391Y-127919619D01*
G37*
X94238391Y-127919619D02*
X94292916Y-127888471D01*
X94352415Y-127886138D01*
X94406399Y-127912481D01*
X94416381Y-127921992D01*
X94453200Y-127961183D01*
X94453200Y-145541809D01*
X94408583Y-145576905D01*
X94366096Y-145601641D01*
X94326364Y-145612000D01*
X94326200Y-145612000D01*
X94286539Y-145601741D01*
X94244010Y-145577057D01*
X94243817Y-145576905D01*
X94199200Y-145541809D01*
X94199200Y-127956437D01*
X94238391Y-127919619D01*
G36*
X94202523Y-148841276D02*
G01*
X94214255Y-148777199D01*
X94237042Y-148737194D01*
X94273528Y-148716611D01*
X94326200Y-148710800D01*
X94378710Y-148716524D01*
X94415041Y-148736801D01*
X94437817Y-148776292D01*
X94449660Y-148839657D01*
X94453194Y-148931558D01*
X94453200Y-148936449D01*
X94452434Y-149012122D01*
X94449053Y-149062010D01*
X94441435Y-149094180D01*
X94427955Y-149116698D01*
X94414008Y-149131182D01*
X94359484Y-149162330D01*
X94299984Y-149164663D01*
X94246001Y-149138320D01*
X94236018Y-149128809D01*
X94218240Y-149105901D01*
X94207250Y-149077841D01*
X94201483Y-149036349D01*
X94199373Y-148973145D01*
X94199200Y-148934076D01*
X94202523Y-148841276D01*
X94202523Y-148841276D01*
G37*
X94202523Y-148841276D02*
X94214255Y-148777199D01*
X94237042Y-148737194D01*
X94273528Y-148716611D01*
X94326200Y-148710800D01*
X94378710Y-148716524D01*
X94415041Y-148736801D01*
X94437817Y-148776292D01*
X94449660Y-148839657D01*
X94453194Y-148931558D01*
X94453200Y-148936449D01*
X94452434Y-149012122D01*
X94449053Y-149062010D01*
X94441435Y-149094180D01*
X94427955Y-149116698D01*
X94414008Y-149131182D01*
X94359484Y-149162330D01*
X94299984Y-149164663D01*
X94246001Y-149138320D01*
X94236018Y-149128809D01*
X94218240Y-149105901D01*
X94207250Y-149077841D01*
X94201483Y-149036349D01*
X94199373Y-148973145D01*
X94199200Y-148934076D01*
X94202523Y-148841276D01*
G36*
X93867406Y-148227258D02*
G01*
X93892876Y-148183510D01*
X93904022Y-148170746D01*
X93917071Y-148160974D01*
X93936435Y-148153724D01*
X93966522Y-148148526D01*
X94011744Y-148144911D01*
X94076510Y-148142408D01*
X94165231Y-148140548D01*
X94282318Y-148138861D01*
X94316095Y-148138416D01*
X94706971Y-148133299D01*
X94749419Y-148175747D01*
X94784698Y-148228754D01*
X94786968Y-148281964D01*
X94756157Y-148331947D01*
X94752675Y-148335315D01*
X94738848Y-148347100D01*
X94722732Y-148356059D01*
X94699828Y-148362580D01*
X94665632Y-148367048D01*
X94615644Y-148369852D01*
X94545361Y-148371376D01*
X94450281Y-148372008D01*
X94325903Y-148372134D01*
X94323827Y-148372134D01*
X94199240Y-148372046D01*
X94104052Y-148371510D01*
X94033796Y-148370115D01*
X93984004Y-148367451D01*
X93950209Y-148363106D01*
X93927944Y-148356670D01*
X93912740Y-148347734D01*
X93900131Y-148335885D01*
X93897352Y-148332942D01*
X93865480Y-148280707D01*
X93867406Y-148227258D01*
X93867406Y-148227258D01*
G37*
X93867406Y-148227258D02*
X93892876Y-148183510D01*
X93904022Y-148170746D01*
X93917071Y-148160974D01*
X93936435Y-148153724D01*
X93966522Y-148148526D01*
X94011744Y-148144911D01*
X94076510Y-148142408D01*
X94165231Y-148140548D01*
X94282318Y-148138861D01*
X94316095Y-148138416D01*
X94706971Y-148133299D01*
X94749419Y-148175747D01*
X94784698Y-148228754D01*
X94786968Y-148281964D01*
X94756157Y-148331947D01*
X94752675Y-148335315D01*
X94738848Y-148347100D01*
X94722732Y-148356059D01*
X94699828Y-148362580D01*
X94665632Y-148367048D01*
X94615644Y-148369852D01*
X94545361Y-148371376D01*
X94450281Y-148372008D01*
X94325903Y-148372134D01*
X94323827Y-148372134D01*
X94199240Y-148372046D01*
X94104052Y-148371510D01*
X94033796Y-148370115D01*
X93984004Y-148367451D01*
X93950209Y-148363106D01*
X93927944Y-148356670D01*
X93912740Y-148347734D01*
X93900131Y-148335885D01*
X93897352Y-148332942D01*
X93865480Y-148280707D01*
X93867406Y-148227258D01*
G36*
X93428864Y-145926186D02*
G01*
X93437200Y-145916800D01*
X93445759Y-145909176D01*
X93456787Y-145902791D01*
X93473154Y-145897535D01*
X93497727Y-145893298D01*
X93533377Y-145889971D01*
X93582971Y-145887444D01*
X93649378Y-145885607D01*
X93735467Y-145884350D01*
X93844106Y-145883565D01*
X93978165Y-145883140D01*
X94140512Y-145882966D01*
X94322432Y-145882934D01*
X94516966Y-145883038D01*
X94680431Y-145883405D01*
X94815624Y-145884117D01*
X94925345Y-145885259D01*
X95012388Y-145886913D01*
X95079554Y-145889161D01*
X95129638Y-145892088D01*
X95165438Y-145895775D01*
X95189752Y-145900305D01*
X95205378Y-145905763D01*
X95211432Y-145909294D01*
X95241709Y-145948984D01*
X95249582Y-146001689D01*
X95235009Y-146054990D01*
X95212007Y-146085474D01*
X95202818Y-146093256D01*
X95191473Y-146099772D01*
X95175090Y-146105133D01*
X95150781Y-146109453D01*
X95115665Y-146112843D01*
X95066855Y-146115417D01*
X95001468Y-146117286D01*
X94916619Y-146118563D01*
X94809423Y-146119361D01*
X94676996Y-146119791D01*
X94516453Y-146119967D01*
X94326200Y-146120000D01*
X94134858Y-146119966D01*
X93974499Y-146119790D01*
X93842237Y-146119357D01*
X93735189Y-146118557D01*
X93650469Y-146117276D01*
X93585194Y-146115403D01*
X93536478Y-146112825D01*
X93501437Y-146109429D01*
X93477187Y-146105103D01*
X93460843Y-146099735D01*
X93449521Y-146093212D01*
X93440393Y-146085474D01*
X93409925Y-146036349D01*
X93406001Y-145978943D01*
X93428864Y-145926186D01*
X93428864Y-145926186D01*
G37*
X93428864Y-145926186D02*
X93437200Y-145916800D01*
X93445759Y-145909176D01*
X93456787Y-145902791D01*
X93473154Y-145897535D01*
X93497727Y-145893298D01*
X93533377Y-145889971D01*
X93582971Y-145887444D01*
X93649378Y-145885607D01*
X93735467Y-145884350D01*
X93844106Y-145883565D01*
X93978165Y-145883140D01*
X94140512Y-145882966D01*
X94322432Y-145882934D01*
X94516966Y-145883038D01*
X94680431Y-145883405D01*
X94815624Y-145884117D01*
X94925345Y-145885259D01*
X95012388Y-145886913D01*
X95079554Y-145889161D01*
X95129638Y-145892088D01*
X95165438Y-145895775D01*
X95189752Y-145900305D01*
X95205378Y-145905763D01*
X95211432Y-145909294D01*
X95241709Y-145948984D01*
X95249582Y-146001689D01*
X95235009Y-146054990D01*
X95212007Y-146085474D01*
X95202818Y-146093256D01*
X95191473Y-146099772D01*
X95175090Y-146105133D01*
X95150781Y-146109453D01*
X95115665Y-146112843D01*
X95066855Y-146115417D01*
X95001468Y-146117286D01*
X94916619Y-146118563D01*
X94809423Y-146119361D01*
X94676996Y-146119791D01*
X94516453Y-146119967D01*
X94326200Y-146120000D01*
X94134858Y-146119966D01*
X93974499Y-146119790D01*
X93842237Y-146119357D01*
X93735189Y-146118557D01*
X93650469Y-146117276D01*
X93585194Y-146115403D01*
X93536478Y-146112825D01*
X93501437Y-146109429D01*
X93477187Y-146105103D01*
X93460843Y-146099735D01*
X93449521Y-146093212D01*
X93440393Y-146085474D01*
X93409925Y-146036349D01*
X93406001Y-145978943D01*
X93428864Y-145926186D01*
G36*
X93414488Y-147281129D02*
G01*
X93416292Y-147278235D01*
X93426358Y-147265468D01*
X93439947Y-147254736D01*
X93459878Y-147245863D01*
X93488969Y-147238674D01*
X93530040Y-147232993D01*
X93585908Y-147228644D01*
X93659393Y-147225451D01*
X93753313Y-147223238D01*
X93870486Y-147221830D01*
X94013733Y-147221050D01*
X94185870Y-147220722D01*
X94338827Y-147220667D01*
X94528626Y-147220702D01*
X94687467Y-147220884D01*
X94818258Y-147221327D01*
X94923906Y-147222147D01*
X95007319Y-147223458D01*
X95071407Y-147225376D01*
X95119076Y-147228016D01*
X95153236Y-147231492D01*
X95176794Y-147235920D01*
X95192657Y-147241414D01*
X95203735Y-147248090D01*
X95212007Y-147255193D01*
X95242002Y-147301721D01*
X95249525Y-147356172D01*
X95234616Y-147406129D01*
X95211432Y-147431374D01*
X95199485Y-147437392D01*
X95180432Y-147442437D01*
X95151477Y-147446592D01*
X95109822Y-147449938D01*
X95052669Y-147452560D01*
X94977220Y-147454541D01*
X94880679Y-147455962D01*
X94760248Y-147456907D01*
X94613129Y-147457460D01*
X94436525Y-147457702D01*
X94322432Y-147457734D01*
X94130729Y-147457697D01*
X93970024Y-147457512D01*
X93837449Y-147457070D01*
X93730134Y-147456261D01*
X93645210Y-147454975D01*
X93579810Y-147453103D01*
X93531063Y-147450534D01*
X93496103Y-147447160D01*
X93472059Y-147442870D01*
X93456063Y-147437554D01*
X93445246Y-147431103D01*
X93437200Y-147423867D01*
X93411991Y-147380431D01*
X93403600Y-147327141D01*
X93414488Y-147281129D01*
X93414488Y-147281129D01*
G37*
X93414488Y-147281129D02*
X93416292Y-147278235D01*
X93426358Y-147265468D01*
X93439947Y-147254736D01*
X93459878Y-147245863D01*
X93488969Y-147238674D01*
X93530040Y-147232993D01*
X93585908Y-147228644D01*
X93659393Y-147225451D01*
X93753313Y-147223238D01*
X93870486Y-147221830D01*
X94013733Y-147221050D01*
X94185870Y-147220722D01*
X94338827Y-147220667D01*
X94528626Y-147220702D01*
X94687467Y-147220884D01*
X94818258Y-147221327D01*
X94923906Y-147222147D01*
X95007319Y-147223458D01*
X95071407Y-147225376D01*
X95119076Y-147228016D01*
X95153236Y-147231492D01*
X95176794Y-147235920D01*
X95192657Y-147241414D01*
X95203735Y-147248090D01*
X95212007Y-147255193D01*
X95242002Y-147301721D01*
X95249525Y-147356172D01*
X95234616Y-147406129D01*
X95211432Y-147431374D01*
X95199485Y-147437392D01*
X95180432Y-147442437D01*
X95151477Y-147446592D01*
X95109822Y-147449938D01*
X95052669Y-147452560D01*
X94977220Y-147454541D01*
X94880679Y-147455962D01*
X94760248Y-147456907D01*
X94613129Y-147457460D01*
X94436525Y-147457702D01*
X94322432Y-147457734D01*
X94130729Y-147457697D01*
X93970024Y-147457512D01*
X93837449Y-147457070D01*
X93730134Y-147456261D01*
X93645210Y-147454975D01*
X93579810Y-147453103D01*
X93531063Y-147450534D01*
X93496103Y-147447160D01*
X93472059Y-147442870D01*
X93456063Y-147437554D01*
X93445246Y-147431103D01*
X93437200Y-147423867D01*
X93411991Y-147380431D01*
X93403600Y-147327141D01*
X93414488Y-147281129D01*
G36*
X92954117Y-146366595D02*
G01*
X92979054Y-146337495D01*
X92987430Y-146331731D01*
X92998868Y-146326722D01*
X93015652Y-146322416D01*
X93040066Y-146318758D01*
X93074393Y-146315697D01*
X93120916Y-146313180D01*
X93181920Y-146311153D01*
X93259686Y-146309565D01*
X93356500Y-146308361D01*
X93474645Y-146307491D01*
X93616403Y-146306899D01*
X93784060Y-146306534D01*
X93979897Y-146306343D01*
X94206199Y-146306273D01*
X94328845Y-146306267D01*
X95640073Y-146306267D01*
X95681636Y-146347831D01*
X95716435Y-146398435D01*
X95717478Y-146448089D01*
X95684765Y-146498582D01*
X95681636Y-146501770D01*
X95640073Y-146543334D01*
X94328845Y-146543334D01*
X94086789Y-146543304D01*
X93876316Y-146543179D01*
X93695142Y-146542906D01*
X93540984Y-146542432D01*
X93411559Y-146541704D01*
X93304583Y-146540670D01*
X93217773Y-146539277D01*
X93148844Y-146537472D01*
X93095514Y-146535201D01*
X93055499Y-146532413D01*
X93026515Y-146529055D01*
X93006279Y-146525073D01*
X92992508Y-146520414D01*
X92982917Y-146515027D01*
X92979054Y-146512106D01*
X92946615Y-146466021D01*
X92940489Y-146424800D01*
X92954117Y-146366595D01*
X92954117Y-146366595D01*
G37*
X92954117Y-146366595D02*
X92979054Y-146337495D01*
X92987430Y-146331731D01*
X92998868Y-146326722D01*
X93015652Y-146322416D01*
X93040066Y-146318758D01*
X93074393Y-146315697D01*
X93120916Y-146313180D01*
X93181920Y-146311153D01*
X93259686Y-146309565D01*
X93356500Y-146308361D01*
X93474645Y-146307491D01*
X93616403Y-146306899D01*
X93784060Y-146306534D01*
X93979897Y-146306343D01*
X94206199Y-146306273D01*
X94328845Y-146306267D01*
X95640073Y-146306267D01*
X95681636Y-146347831D01*
X95716435Y-146398435D01*
X95717478Y-146448089D01*
X95684765Y-146498582D01*
X95681636Y-146501770D01*
X95640073Y-146543334D01*
X94328845Y-146543334D01*
X94086789Y-146543304D01*
X93876316Y-146543179D01*
X93695142Y-146542906D01*
X93540984Y-146542432D01*
X93411559Y-146541704D01*
X93304583Y-146540670D01*
X93217773Y-146539277D01*
X93148844Y-146537472D01*
X93095514Y-146535201D01*
X93055499Y-146532413D01*
X93026515Y-146529055D01*
X93006279Y-146525073D01*
X92992508Y-146520414D01*
X92982917Y-146515027D01*
X92979054Y-146512106D01*
X92946615Y-146466021D01*
X92940489Y-146424800D01*
X92954117Y-146366595D01*
G36*
X92948447Y-147758287D02*
G01*
X92974735Y-147713862D01*
X93017422Y-147688717D01*
X93040231Y-147687054D01*
X93094206Y-147685467D01*
X93176647Y-147683977D01*
X93284854Y-147682608D01*
X93416126Y-147681379D01*
X93567764Y-147680313D01*
X93737066Y-147679431D01*
X93921332Y-147678754D01*
X94117863Y-147678305D01*
X94323957Y-147678105D01*
X94348136Y-147678098D01*
X95640073Y-147677867D01*
X95681636Y-147719431D01*
X95716118Y-147768086D01*
X95718201Y-147816419D01*
X95688135Y-147870278D01*
X95688104Y-147870317D01*
X95653008Y-147914934D01*
X94340791Y-147914934D01*
X94061748Y-147914722D01*
X93816126Y-147914084D01*
X93603483Y-147913013D01*
X93423378Y-147911504D01*
X93275367Y-147909550D01*
X93159008Y-147907145D01*
X93073858Y-147904284D01*
X93019476Y-147900961D01*
X92995419Y-147897170D01*
X92995009Y-147896971D01*
X92957439Y-147860475D01*
X92942300Y-147810703D01*
X92948447Y-147758287D01*
X92948447Y-147758287D01*
G37*
X92948447Y-147758287D02*
X92974735Y-147713862D01*
X93017422Y-147688717D01*
X93040231Y-147687054D01*
X93094206Y-147685467D01*
X93176647Y-147683977D01*
X93284854Y-147682608D01*
X93416126Y-147681379D01*
X93567764Y-147680313D01*
X93737066Y-147679431D01*
X93921332Y-147678754D01*
X94117863Y-147678305D01*
X94323957Y-147678105D01*
X94348136Y-147678098D01*
X95640073Y-147677867D01*
X95681636Y-147719431D01*
X95716118Y-147768086D01*
X95718201Y-147816419D01*
X95688135Y-147870278D01*
X95688104Y-147870317D01*
X95653008Y-147914934D01*
X94340791Y-147914934D01*
X94061748Y-147914722D01*
X93816126Y-147914084D01*
X93603483Y-147913013D01*
X93423378Y-147911504D01*
X93275367Y-147909550D01*
X93159008Y-147907145D01*
X93073858Y-147904284D01*
X93019476Y-147900961D01*
X92995419Y-147897170D01*
X92995009Y-147896971D01*
X92957439Y-147860475D01*
X92942300Y-147810703D01*
X92948447Y-147758287D01*
G36*
X92508379Y-146805558D02*
G01*
X92516617Y-146798563D01*
X92524118Y-146792951D01*
X92532821Y-146787971D01*
X92544684Y-146783586D01*
X92561669Y-146779758D01*
X92585733Y-146776450D01*
X92618836Y-146773623D01*
X92662937Y-146771239D01*
X92719996Y-146769261D01*
X92791971Y-146767650D01*
X92880823Y-146766370D01*
X92988510Y-146765382D01*
X93116991Y-146764648D01*
X93268226Y-146764131D01*
X93444174Y-146763792D01*
X93646795Y-146763594D01*
X93878047Y-146763499D01*
X94139890Y-146763470D01*
X94333998Y-146763467D01*
X96106763Y-146763467D01*
X96143581Y-146802659D01*
X96174572Y-146856077D01*
X96175636Y-146912439D01*
X96146788Y-146962668D01*
X96143340Y-146966008D01*
X96136991Y-146971518D01*
X96129168Y-146976409D01*
X96117922Y-146980716D01*
X96101309Y-146984478D01*
X96077380Y-146987731D01*
X96044189Y-146990512D01*
X95999789Y-146992858D01*
X95942233Y-146994806D01*
X95869574Y-146996393D01*
X95779865Y-146997656D01*
X95671160Y-146998632D01*
X95541511Y-146999357D01*
X95388971Y-146999870D01*
X95211595Y-147000207D01*
X95007433Y-147000405D01*
X94774541Y-147000501D01*
X94510970Y-147000531D01*
X94325959Y-147000534D01*
X92545637Y-147000534D01*
X92508818Y-146961342D01*
X92476974Y-146907924D01*
X92476931Y-146853841D01*
X92508379Y-146805558D01*
X92508379Y-146805558D01*
G37*
X92508379Y-146805558D02*
X92516617Y-146798563D01*
X92524118Y-146792951D01*
X92532821Y-146787971D01*
X92544684Y-146783586D01*
X92561669Y-146779758D01*
X92585733Y-146776450D01*
X92618836Y-146773623D01*
X92662937Y-146771239D01*
X92719996Y-146769261D01*
X92791971Y-146767650D01*
X92880823Y-146766370D01*
X92988510Y-146765382D01*
X93116991Y-146764648D01*
X93268226Y-146764131D01*
X93444174Y-146763792D01*
X93646795Y-146763594D01*
X93878047Y-146763499D01*
X94139890Y-146763470D01*
X94333998Y-146763467D01*
X96106763Y-146763467D01*
X96143581Y-146802659D01*
X96174572Y-146856077D01*
X96175636Y-146912439D01*
X96146788Y-146962668D01*
X96143340Y-146966008D01*
X96136991Y-146971518D01*
X96129168Y-146976409D01*
X96117922Y-146980716D01*
X96101309Y-146984478D01*
X96077380Y-146987731D01*
X96044189Y-146990512D01*
X95999789Y-146992858D01*
X95942233Y-146994806D01*
X95869574Y-146996393D01*
X95779865Y-146997656D01*
X95671160Y-146998632D01*
X95541511Y-146999357D01*
X95388971Y-146999870D01*
X95211595Y-147000207D01*
X95007433Y-147000405D01*
X94774541Y-147000501D01*
X94510970Y-147000531D01*
X94325959Y-147000534D01*
X92545637Y-147000534D01*
X92508818Y-146961342D01*
X92476974Y-146907924D01*
X92476931Y-146853841D01*
X92508379Y-146805558D01*
D15*
X87345000Y-66470000D02*
X87345000Y-71540000D01*
X77575000Y-66470000D02*
X77575000Y-71540000D01*
X77575000Y-71540000D02*
X87345000Y-71540000D01*
X77575000Y-66470000D02*
X87345000Y-66470000D01*
X87345000Y-50470000D02*
X87345000Y-55540000D01*
X77575000Y-50470000D02*
X77575000Y-55540000D01*
X77575000Y-55540000D02*
X87345000Y-55540000D01*
X77575000Y-50470000D02*
X87345000Y-50470000D01*
X79670000Y-75330000D02*
X79670000Y-74000000D01*
X81000000Y-75330000D02*
X79670000Y-75330000D01*
X82270000Y-75330000D02*
X82270000Y-72670000D01*
X82270000Y-72670000D02*
X84870000Y-72670000D01*
X82270000Y-75330000D02*
X84870000Y-75330000D01*
X84870000Y-75330000D02*
X84870000Y-72670000D01*
D16*
X85300000Y-142100000D02*
X81700000Y-142100000D01*
X83500000Y-140300000D02*
X83500000Y-143900000D01*
X79000000Y-146600000D02*
X88000000Y-146600000D01*
X88000000Y-146600000D02*
X88000000Y-136100000D01*
X88000000Y-136100000D02*
X79000000Y-136100000D01*
X79000000Y-136100000D02*
X79000000Y-146600000D01*
X86506659Y-142100000D02*
G75*
G03X86506659Y-142100000I-3006659J0D01*
G01*
X85300000Y-142100000D02*
G75*
G03X85300000Y-142100000I-1800000J0D01*
G01*
D15*
X88055000Y-71350000D02*
X88055000Y-50490000D01*
X88055000Y-50490000D02*
X97405000Y-50490000D01*
X97405000Y-50490000D02*
X97405000Y-71350000D01*
X97405000Y-71350000D02*
X88055000Y-71350000D01*
X97655000Y-71600000D02*
X97655000Y-69060000D01*
X97655000Y-71600000D02*
X95115000Y-71600000D01*
D17*
X86618000Y-126858000D02*
X97794000Y-126858000D01*
X86618000Y-113158000D02*
X86618000Y-126858000D01*
X97794000Y-126842000D02*
X97794000Y-113142000D01*
X97794000Y-113142000D02*
X86618000Y-113142000D01*
D16*
X46200000Y-146900000D02*
X49800000Y-146900000D01*
X46200000Y-140700000D02*
X46200000Y-146900000D01*
X49800000Y-140700000D02*
X46200000Y-140700000D01*
X49800000Y-149400000D02*
X49800000Y-137600000D01*
X53350000Y-149400000D02*
X49800000Y-149400000D01*
X61600000Y-149400000D02*
X57850000Y-149400000D01*
X64300000Y-149400000D02*
X64200000Y-149400000D01*
X64300000Y-137600000D02*
X64300000Y-149400000D01*
X61900000Y-137600000D02*
X64300000Y-137600000D01*
X49800000Y-137600000D02*
X57550000Y-137600000D01*
D15*
X55600000Y-149900000D02*
X55100000Y-150450000D01*
X55100000Y-150450000D02*
X56100000Y-150450000D01*
X56100000Y-150450000D02*
X55600000Y-149900000D01*
X59320000Y-66420000D02*
X51580000Y-66420000D01*
X59320000Y-50180000D02*
X51580000Y-50180000D01*
X59320000Y-66420000D02*
X59320000Y-50180000D01*
X51580000Y-66420000D02*
X51580000Y-50180000D01*
X51580000Y-61920000D02*
X46580000Y-61920000D01*
X51580000Y-54680000D02*
X46580000Y-54680000D01*
X51580000Y-61920000D02*
X51580000Y-54680000D01*
X46580000Y-61920000D02*
X46580000Y-54680000D01*
X46580000Y-60420000D02*
X36580000Y-60420000D01*
X46580000Y-56180000D02*
X36580000Y-56180000D01*
X46580000Y-60420000D02*
X46580000Y-56180000D01*
X36580000Y-60420000D02*
X36580000Y-56180000D01*
X36580000Y-122020000D02*
X36580000Y-117780000D01*
X46580000Y-122020000D02*
X46580000Y-117780000D01*
X46580000Y-117780000D02*
X36580000Y-117780000D01*
X46580000Y-122020000D02*
X36580000Y-122020000D01*
X46580000Y-123520000D02*
X46580000Y-116280000D01*
X51580000Y-123520000D02*
X51580000Y-116280000D01*
X51580000Y-116280000D02*
X46580000Y-116280000D01*
X51580000Y-123520000D02*
X46580000Y-123520000D01*
X51580000Y-128020000D02*
X51580000Y-111780000D01*
X59320000Y-128020000D02*
X59320000Y-111780000D01*
X59320000Y-111780000D02*
X51580000Y-111780000D01*
X59320000Y-128020000D02*
X51580000Y-128020000D01*
X36580000Y-101620000D02*
X36580000Y-97380000D01*
X46580000Y-101620000D02*
X46580000Y-97380000D01*
X46580000Y-97380000D02*
X36580000Y-97380000D01*
X46580000Y-101620000D02*
X36580000Y-101620000D01*
X46580000Y-103120000D02*
X46580000Y-95880000D01*
X51580000Y-103120000D02*
X51580000Y-95880000D01*
X51580000Y-95880000D02*
X46580000Y-95880000D01*
X51580000Y-103120000D02*
X46580000Y-103120000D01*
X51580000Y-107620000D02*
X51580000Y-91380000D01*
X59320000Y-107620000D02*
X59320000Y-91380000D01*
X59320000Y-91380000D02*
X51580000Y-91380000D01*
X59320000Y-107620000D02*
X51580000Y-107620000D01*
X59320000Y-87120000D02*
X51580000Y-87120000D01*
X59320000Y-70880000D02*
X51580000Y-70880000D01*
X59320000Y-87120000D02*
X59320000Y-70880000D01*
X51580000Y-87120000D02*
X51580000Y-70880000D01*
X51580000Y-82620000D02*
X46580000Y-82620000D01*
X51580000Y-75380000D02*
X46580000Y-75380000D01*
X51580000Y-82620000D02*
X51580000Y-75380000D01*
X46580000Y-82620000D02*
X46580000Y-75380000D01*
X46580000Y-81120000D02*
X36580000Y-81120000D01*
X46580000Y-76880000D02*
X36580000Y-76880000D01*
X46580000Y-81120000D02*
X46580000Y-76880000D01*
X36580000Y-81120000D02*
X36580000Y-76880000D01*
D16*
X75300000Y-142100000D02*
G75*
G03X75300000Y-142100000I-1800000J0D01*
G01*
X76506659Y-142100000D02*
G75*
G03X76506659Y-142100000I-3006659J0D01*
G01*
X69000000Y-136100000D02*
X69000000Y-146600000D01*
X78000000Y-136100000D02*
X69000000Y-136100000D01*
X78000000Y-146600000D02*
X78000000Y-136100000D01*
X69000000Y-146600000D02*
X78000000Y-146600000D01*
X73500000Y-140300000D02*
X73500000Y-143900000D01*
X75300000Y-142100000D02*
X71700000Y-142100000D01*
D15*
X84050000Y-61050000D02*
X85950000Y-61050000D01*
X85950000Y-61050000D02*
X85950000Y-62950000D01*
X85950000Y-62950000D02*
X84050000Y-62950000D01*
X84050000Y-62950000D02*
X84050000Y-61050000D01*
X59800000Y-50800000D02*
X62200000Y-50800000D01*
X62200000Y-50800000D02*
X62200000Y-53200000D01*
X62200000Y-53200000D02*
X59800000Y-53200000D01*
X59800000Y-53200000D02*
X59800000Y-50800000D01*
X93050000Y-102050000D02*
X94950000Y-102050000D01*
X94950000Y-102050000D02*
X94950000Y-103950000D01*
X94950000Y-103950000D02*
X93050000Y-103950000D01*
X93050000Y-103950000D02*
X93050000Y-102050000D01*
D16*
X153400000Y-140500000D02*
X149800000Y-140500000D01*
X153400000Y-146700000D02*
X153400000Y-140500000D01*
X149800000Y-146700000D02*
X153400000Y-146700000D01*
X149800000Y-138000000D02*
X149800000Y-149800000D01*
X146250000Y-138000000D02*
X149800000Y-138000000D01*
X138000000Y-138000000D02*
X141750000Y-138000000D01*
X135300000Y-138000000D02*
X135400000Y-138000000D01*
X135300000Y-149800000D02*
X135300000Y-138000000D01*
X137700000Y-149800000D02*
X135300000Y-149800000D01*
X149800000Y-149800000D02*
X142050000Y-149800000D01*
D15*
X144000000Y-137500000D02*
X144500000Y-136950000D01*
X144500000Y-136950000D02*
X143500000Y-136950000D01*
X143500000Y-136950000D02*
X144000000Y-137500000D01*
D16*
X123200000Y-144000000D02*
X126800000Y-144000000D01*
X125000000Y-145800000D02*
X125000000Y-142200000D01*
X129500000Y-139500000D02*
X120500000Y-139500000D01*
X120500000Y-139500000D02*
X120500000Y-150000000D01*
X120500000Y-150000000D02*
X129500000Y-150000000D01*
X129500000Y-150000000D02*
X129500000Y-139500000D01*
X128006659Y-144000000D02*
G75*
G03X128006659Y-144000000I-3006659J0D01*
G01*
X126800000Y-144000000D02*
G75*
G03X126800000Y-144000000I-1800000J0D01*
G01*
X116800000Y-144000000D02*
G75*
G03X116800000Y-144000000I-1800000J0D01*
G01*
X118006659Y-144000000D02*
G75*
G03X118006659Y-144000000I-3006659J0D01*
G01*
X119500000Y-150000000D02*
X119500000Y-139500000D01*
X110500000Y-150000000D02*
X119500000Y-150000000D01*
X110500000Y-139500000D02*
X110500000Y-150000000D01*
X119500000Y-139500000D02*
X110500000Y-139500000D01*
X115000000Y-145800000D02*
X115000000Y-142200000D01*
X113200000Y-144000000D02*
X116800000Y-144000000D01*
D15*
X101555000Y-71350000D02*
X101555000Y-50490000D01*
X101555000Y-50490000D02*
X110905000Y-50490000D01*
X110905000Y-50490000D02*
X110905000Y-71350000D01*
X110905000Y-71350000D02*
X101555000Y-71350000D01*
X111155000Y-71600000D02*
X111155000Y-69060000D01*
X111155000Y-71600000D02*
X108615000Y-71600000D01*
X164620000Y-56880000D02*
X164620000Y-61120000D01*
X154620000Y-56880000D02*
X154620000Y-61120000D01*
X154620000Y-61120000D02*
X164620000Y-61120000D01*
X154620000Y-56880000D02*
X164620000Y-56880000D01*
X154620000Y-55380000D02*
X154620000Y-62620000D01*
X149620000Y-55380000D02*
X149620000Y-62620000D01*
X149620000Y-62620000D02*
X154620000Y-62620000D01*
X149620000Y-55380000D02*
X154620000Y-55380000D01*
X149620000Y-50880000D02*
X149620000Y-67120000D01*
X141880000Y-50880000D02*
X141880000Y-67120000D01*
X141880000Y-67120000D02*
X149620000Y-67120000D01*
X141880000Y-50880000D02*
X149620000Y-50880000D01*
X141880000Y-90880000D02*
X149620000Y-90880000D01*
X141880000Y-107120000D02*
X149620000Y-107120000D01*
X141880000Y-90880000D02*
X141880000Y-107120000D01*
X149620000Y-90880000D02*
X149620000Y-107120000D01*
X149620000Y-95380000D02*
X154620000Y-95380000D01*
X149620000Y-102620000D02*
X154620000Y-102620000D01*
X149620000Y-95380000D02*
X149620000Y-102620000D01*
X154620000Y-95380000D02*
X154620000Y-102620000D01*
X154620000Y-96880000D02*
X164620000Y-96880000D01*
X154620000Y-101120000D02*
X164620000Y-101120000D01*
X154620000Y-96880000D02*
X154620000Y-101120000D01*
X164620000Y-96880000D02*
X164620000Y-101120000D01*
X141880000Y-111880000D02*
X149620000Y-111880000D01*
X141880000Y-128120000D02*
X149620000Y-128120000D01*
X141880000Y-111880000D02*
X141880000Y-128120000D01*
X149620000Y-111880000D02*
X149620000Y-128120000D01*
X149620000Y-116380000D02*
X154620000Y-116380000D01*
X149620000Y-123620000D02*
X154620000Y-123620000D01*
X149620000Y-116380000D02*
X149620000Y-123620000D01*
X154620000Y-116380000D02*
X154620000Y-123620000D01*
X154620000Y-117880000D02*
X164620000Y-117880000D01*
X154620000Y-122120000D02*
X164620000Y-122120000D01*
X154620000Y-117880000D02*
X154620000Y-122120000D01*
X164620000Y-117880000D02*
X164620000Y-122120000D01*
X164620000Y-76880000D02*
X164620000Y-81120000D01*
X154620000Y-76880000D02*
X154620000Y-81120000D01*
X154620000Y-81120000D02*
X164620000Y-81120000D01*
X154620000Y-76880000D02*
X164620000Y-76880000D01*
X154620000Y-75380000D02*
X154620000Y-82620000D01*
X149620000Y-75380000D02*
X149620000Y-82620000D01*
X149620000Y-82620000D02*
X154620000Y-82620000D01*
X149620000Y-75380000D02*
X154620000Y-75380000D01*
X149620000Y-70880000D02*
X149620000Y-87120000D01*
X141880000Y-70880000D02*
X141880000Y-87120000D01*
X141880000Y-87120000D02*
X149620000Y-87120000D01*
X141880000Y-70880000D02*
X149620000Y-70880000D01*
D17*
X112088000Y-80142000D02*
X100912000Y-80142000D01*
X112088000Y-93842000D02*
X112088000Y-80142000D01*
X100912000Y-80158000D02*
X100912000Y-93858000D01*
X100912000Y-93858000D02*
X112088000Y-93858000D01*
D16*
X107800000Y-144000000D02*
G75*
G03X107800000Y-144000000I-1800000J0D01*
G01*
X109006659Y-144000000D02*
G75*
G03X109006659Y-144000000I-3006659J0D01*
G01*
X110500000Y-150000000D02*
X110500000Y-139500000D01*
X101500000Y-150000000D02*
X110500000Y-150000000D01*
X101500000Y-139500000D02*
X101500000Y-150000000D01*
X110500000Y-139500000D02*
X101500000Y-139500000D01*
X106000000Y-145800000D02*
X106000000Y-142200000D01*
X104200000Y-144000000D02*
X107800000Y-144000000D01*
X83452380Y-65452380D02*
X83119047Y-64976190D01*
X82880952Y-65452380D02*
X82880952Y-64452380D01*
X83261904Y-64452380D01*
X83357142Y-64500000D01*
X83404761Y-64547619D01*
X83452380Y-64642857D01*
X83452380Y-64785714D01*
X83404761Y-64880952D01*
X83357142Y-64928571D01*
X83261904Y-64976190D01*
X82880952Y-64976190D01*
X83738095Y-64452380D02*
X84071428Y-65452380D01*
X84404761Y-64452380D01*
X84690476Y-64547619D02*
X84738095Y-64500000D01*
X84833333Y-64452380D01*
X85071428Y-64452380D01*
X85166666Y-64500000D01*
X85214285Y-64547619D01*
X85261904Y-64642857D01*
X85261904Y-64738095D01*
X85214285Y-64880952D01*
X84642857Y-65452380D01*
X85261904Y-65452380D01*
X85880952Y-64452380D02*
X85976190Y-64452380D01*
X86071428Y-64500000D01*
X86119047Y-64547619D01*
X86166666Y-64642857D01*
X86214285Y-64833333D01*
X86214285Y-65071428D01*
X86166666Y-65261904D01*
X86119047Y-65357142D01*
X86071428Y-65404761D01*
X85976190Y-65452380D01*
X85880952Y-65452380D01*
X85785714Y-65404761D01*
X85738095Y-65357142D01*
X85690476Y-65261904D01*
X85642857Y-65071428D01*
X85642857Y-64833333D01*
X85690476Y-64642857D01*
X85738095Y-64547619D01*
X85785714Y-64500000D01*
X85880952Y-64452380D01*
X86595238Y-64547619D02*
X86642857Y-64500000D01*
X86738095Y-64452380D01*
X86976190Y-64452380D01*
X87071428Y-64500000D01*
X87119047Y-64547619D01*
X87166666Y-64642857D01*
X87166666Y-64738095D01*
X87119047Y-64880952D01*
X86547619Y-65452380D01*
X87166666Y-65452380D01*
X78261904Y-64452380D02*
X77785714Y-64452380D01*
X77738095Y-64928571D01*
X77785714Y-64880952D01*
X77880952Y-64833333D01*
X78119047Y-64833333D01*
X78214285Y-64880952D01*
X78261904Y-64928571D01*
X78309523Y-65023809D01*
X78309523Y-65261904D01*
X78261904Y-65357142D01*
X78214285Y-65404761D01*
X78119047Y-65452380D01*
X77880952Y-65452380D01*
X77785714Y-65404761D01*
X77738095Y-65357142D01*
X78928571Y-64452380D02*
X79023809Y-64452380D01*
X79119047Y-64500000D01*
X79166666Y-64547619D01*
X79214285Y-64642857D01*
X79261904Y-64833333D01*
X79261904Y-65071428D01*
X79214285Y-65261904D01*
X79166666Y-65357142D01*
X79119047Y-65404761D01*
X79023809Y-65452380D01*
X78928571Y-65452380D01*
X78833333Y-65404761D01*
X78785714Y-65357142D01*
X78738095Y-65261904D01*
X78690476Y-65071428D01*
X78690476Y-64833333D01*
X78738095Y-64642857D01*
X78785714Y-64547619D01*
X78833333Y-64500000D01*
X78928571Y-64452380D01*
X79690476Y-65452380D02*
X79690476Y-64452380D01*
X80261904Y-65452380D02*
X79833333Y-64880952D01*
X80261904Y-64452380D02*
X79690476Y-65023809D01*
X83452380Y-57452380D02*
X83119047Y-56976190D01*
X82880952Y-57452380D02*
X82880952Y-56452380D01*
X83261904Y-56452380D01*
X83357142Y-56500000D01*
X83404761Y-56547619D01*
X83452380Y-56642857D01*
X83452380Y-56785714D01*
X83404761Y-56880952D01*
X83357142Y-56928571D01*
X83261904Y-56976190D01*
X82880952Y-56976190D01*
X83738095Y-56452380D02*
X84071428Y-57452380D01*
X84404761Y-56452380D01*
X84690476Y-56547619D02*
X84738095Y-56500000D01*
X84833333Y-56452380D01*
X85071428Y-56452380D01*
X85166666Y-56500000D01*
X85214285Y-56547619D01*
X85261904Y-56642857D01*
X85261904Y-56738095D01*
X85214285Y-56880952D01*
X84642857Y-57452380D01*
X85261904Y-57452380D01*
X85880952Y-56452380D02*
X85976190Y-56452380D01*
X86071428Y-56500000D01*
X86119047Y-56547619D01*
X86166666Y-56642857D01*
X86214285Y-56833333D01*
X86214285Y-57071428D01*
X86166666Y-57261904D01*
X86119047Y-57357142D01*
X86071428Y-57404761D01*
X85976190Y-57452380D01*
X85880952Y-57452380D01*
X85785714Y-57404761D01*
X85738095Y-57357142D01*
X85690476Y-57261904D01*
X85642857Y-57071428D01*
X85642857Y-56833333D01*
X85690476Y-56642857D01*
X85738095Y-56547619D01*
X85785714Y-56500000D01*
X85880952Y-56452380D01*
X87166666Y-57452380D02*
X86595238Y-57452380D01*
X86880952Y-57452380D02*
X86880952Y-56452380D01*
X86785714Y-56595238D01*
X86690476Y-56690476D01*
X86595238Y-56738095D01*
X77833333Y-57452380D02*
X77261904Y-57452380D01*
X77547619Y-57452380D02*
X77547619Y-56452380D01*
X77452380Y-56595238D01*
X77357142Y-56690476D01*
X77261904Y-56738095D01*
X78452380Y-56452380D02*
X78547619Y-56452380D01*
X78642857Y-56500000D01*
X78690476Y-56547619D01*
X78738095Y-56642857D01*
X78785714Y-56833333D01*
X78785714Y-57071428D01*
X78738095Y-57261904D01*
X78690476Y-57357142D01*
X78642857Y-57404761D01*
X78547619Y-57452380D01*
X78452380Y-57452380D01*
X78357142Y-57404761D01*
X78309523Y-57357142D01*
X78261904Y-57261904D01*
X78214285Y-57071428D01*
X78214285Y-56833333D01*
X78261904Y-56642857D01*
X78309523Y-56547619D01*
X78357142Y-56500000D01*
X78452380Y-56452380D01*
X79404761Y-56452380D02*
X79500000Y-56452380D01*
X79595238Y-56500000D01*
X79642857Y-56547619D01*
X79690476Y-56642857D01*
X79738095Y-56833333D01*
X79738095Y-57071428D01*
X79690476Y-57261904D01*
X79642857Y-57357142D01*
X79595238Y-57404761D01*
X79500000Y-57452380D01*
X79404761Y-57452380D01*
X79309523Y-57404761D01*
X79261904Y-57357142D01*
X79214285Y-57261904D01*
X79166666Y-57071428D01*
X79166666Y-56833333D01*
X79214285Y-56642857D01*
X79261904Y-56547619D01*
X79309523Y-56500000D01*
X79404761Y-56452380D01*
X80166666Y-57452380D02*
X80166666Y-56452380D01*
X80738095Y-57452380D02*
X80309523Y-56880952D01*
X80738095Y-56452380D02*
X80166666Y-57023809D01*
X78122380Y-75785714D02*
X78836666Y-75785714D01*
X78979523Y-75833333D01*
X79074761Y-75928571D01*
X79122380Y-76071428D01*
X79122380Y-76166666D01*
X79122380Y-75309523D02*
X78122380Y-75309523D01*
X78122380Y-74928571D01*
X78170000Y-74833333D01*
X78217619Y-74785714D01*
X78312857Y-74738095D01*
X78455714Y-74738095D01*
X78550952Y-74785714D01*
X78598571Y-74833333D01*
X78646190Y-74928571D01*
X78646190Y-75309523D01*
X78217619Y-74357142D02*
X78170000Y-74309523D01*
X78122380Y-74214285D01*
X78122380Y-73976190D01*
X78170000Y-73880952D01*
X78217619Y-73833333D01*
X78312857Y-73785714D01*
X78408095Y-73785714D01*
X78550952Y-73833333D01*
X79122380Y-74404761D01*
X79122380Y-73785714D01*
X78122380Y-73166666D02*
X78122380Y-73071428D01*
X78170000Y-72976190D01*
X78217619Y-72928571D01*
X78312857Y-72880952D01*
X78503333Y-72833333D01*
X78741428Y-72833333D01*
X78931904Y-72880952D01*
X79027142Y-72928571D01*
X79074761Y-72976190D01*
X79122380Y-73071428D01*
X79122380Y-73166666D01*
X79074761Y-73261904D01*
X79027142Y-73309523D01*
X78931904Y-73357142D01*
X78741428Y-73404761D01*
X78503333Y-73404761D01*
X78312857Y-73357142D01*
X78217619Y-73309523D01*
X78170000Y-73261904D01*
X78122380Y-73166666D01*
X79122380Y-71880952D02*
X79122380Y-72452380D01*
X79122380Y-72166666D02*
X78122380Y-72166666D01*
X78265238Y-72261904D01*
X78360476Y-72357142D01*
X78408095Y-72452380D01*
D18*
X82214285Y-138189285D02*
X82214285Y-138725000D01*
X82166666Y-138832142D01*
X82071428Y-138903571D01*
X81928571Y-138939285D01*
X81833333Y-138939285D01*
X82642857Y-138260714D02*
X82690476Y-138225000D01*
X82785714Y-138189285D01*
X83023809Y-138189285D01*
X83119047Y-138225000D01*
X83166666Y-138260714D01*
X83214285Y-138332142D01*
X83214285Y-138403571D01*
X83166666Y-138510714D01*
X82595238Y-138939285D01*
X83214285Y-138939285D01*
X83833333Y-138189285D02*
X83928571Y-138189285D01*
X84023809Y-138225000D01*
X84071428Y-138260714D01*
X84119047Y-138332142D01*
X84166666Y-138475000D01*
X84166666Y-138653571D01*
X84119047Y-138796428D01*
X84071428Y-138867857D01*
X84023809Y-138903571D01*
X83928571Y-138939285D01*
X83833333Y-138939285D01*
X83738095Y-138903571D01*
X83690476Y-138867857D01*
X83642857Y-138796428D01*
X83595238Y-138653571D01*
X83595238Y-138475000D01*
X83642857Y-138332142D01*
X83690476Y-138260714D01*
X83738095Y-138225000D01*
X83833333Y-138189285D01*
X84500000Y-138189285D02*
X85119047Y-138189285D01*
X84785714Y-138475000D01*
X84928571Y-138475000D01*
X85023809Y-138510714D01*
X85071428Y-138546428D01*
X85119047Y-138617857D01*
X85119047Y-138796428D01*
X85071428Y-138867857D01*
X85023809Y-138903571D01*
X84928571Y-138939285D01*
X84642857Y-138939285D01*
X84547619Y-138903571D01*
X84500000Y-138867857D01*
D16*
X83785714Y-147052380D02*
X83976190Y-147052380D01*
X84071428Y-147100000D01*
X84166666Y-147195238D01*
X84214285Y-147385714D01*
X84214285Y-147719047D01*
X84166666Y-147909523D01*
X84071428Y-148004761D01*
X83976190Y-148052380D01*
X83785714Y-148052380D01*
X83690476Y-148004761D01*
X83595238Y-147909523D01*
X83547619Y-147719047D01*
X83547619Y-147385714D01*
X83595238Y-147195238D01*
X83690476Y-147100000D01*
X83785714Y-147052380D01*
X85071428Y-147385714D02*
X85071428Y-148052380D01*
X84642857Y-147385714D02*
X84642857Y-147909523D01*
X84690476Y-148004761D01*
X84785714Y-148052380D01*
X84928571Y-148052380D01*
X85023809Y-148004761D01*
X85071428Y-147957142D01*
X85404761Y-147385714D02*
X85785714Y-147385714D01*
X85547619Y-147052380D02*
X85547619Y-147909523D01*
X85595238Y-148004761D01*
X85690476Y-148052380D01*
X85785714Y-148052380D01*
X86738095Y-147052380D02*
X87309523Y-147052380D01*
X87023809Y-148052380D02*
X87023809Y-147052380D01*
X87785714Y-148052380D02*
X87690476Y-148004761D01*
X87642857Y-147957142D01*
X87595238Y-147861904D01*
X87595238Y-147576190D01*
X87642857Y-147480952D01*
X87690476Y-147433333D01*
X87785714Y-147385714D01*
X87928571Y-147385714D01*
X88023809Y-147433333D01*
X88071428Y-147480952D01*
X88119047Y-147576190D01*
X88119047Y-147861904D01*
X88071428Y-147957142D01*
X88023809Y-148004761D01*
X87928571Y-148052380D01*
X87785714Y-148052380D01*
X88547619Y-148052380D02*
X88547619Y-147385714D01*
X88547619Y-147480952D02*
X88595238Y-147433333D01*
X88690476Y-147385714D01*
X88833333Y-147385714D01*
X88928571Y-147433333D01*
X88976190Y-147528571D01*
X88976190Y-148052380D01*
X88976190Y-147528571D02*
X89023809Y-147433333D01*
X89119047Y-147385714D01*
X89261904Y-147385714D01*
X89357142Y-147433333D01*
X89404761Y-147528571D01*
X89404761Y-148052380D01*
X91039523Y-73056380D02*
X91039523Y-72056380D01*
X91420476Y-72056380D01*
X91515714Y-72104000D01*
X91563333Y-72151619D01*
X91610952Y-72246857D01*
X91610952Y-72389714D01*
X91563333Y-72484952D01*
X91515714Y-72532571D01*
X91420476Y-72580190D01*
X91039523Y-72580190D01*
X91991904Y-72151619D02*
X92039523Y-72104000D01*
X92134761Y-72056380D01*
X92372857Y-72056380D01*
X92468095Y-72104000D01*
X92515714Y-72151619D01*
X92563333Y-72246857D01*
X92563333Y-72342095D01*
X92515714Y-72484952D01*
X91944285Y-73056380D01*
X92563333Y-73056380D01*
X93182380Y-72056380D02*
X93277619Y-72056380D01*
X93372857Y-72104000D01*
X93420476Y-72151619D01*
X93468095Y-72246857D01*
X93515714Y-72437333D01*
X93515714Y-72675428D01*
X93468095Y-72865904D01*
X93420476Y-72961142D01*
X93372857Y-73008761D01*
X93277619Y-73056380D01*
X93182380Y-73056380D01*
X93087142Y-73008761D01*
X93039523Y-72961142D01*
X92991904Y-72865904D01*
X92944285Y-72675428D01*
X92944285Y-72437333D01*
X92991904Y-72246857D01*
X93039523Y-72151619D01*
X93087142Y-72104000D01*
X93182380Y-72056380D01*
X94468095Y-73056380D02*
X93896666Y-73056380D01*
X94182380Y-73056380D02*
X94182380Y-72056380D01*
X94087142Y-72199238D01*
X93991904Y-72294476D01*
X93896666Y-72342095D01*
X89920285Y-122817761D02*
X90063142Y-122865380D01*
X90301238Y-122865380D01*
X90396476Y-122817761D01*
X90444095Y-122770142D01*
X90491714Y-122674904D01*
X90491714Y-122579666D01*
X90444095Y-122484428D01*
X90396476Y-122436809D01*
X90301238Y-122389190D01*
X90110761Y-122341571D01*
X90015523Y-122293952D01*
X89967904Y-122246333D01*
X89920285Y-122151095D01*
X89920285Y-122055857D01*
X89967904Y-121960619D01*
X90015523Y-121913000D01*
X90110761Y-121865380D01*
X90348857Y-121865380D01*
X90491714Y-121913000D01*
X90825047Y-121865380D02*
X91063142Y-122865380D01*
X91253619Y-122151095D01*
X91444095Y-122865380D01*
X91682190Y-121865380D01*
X92015523Y-121960619D02*
X92063142Y-121913000D01*
X92158380Y-121865380D01*
X92396476Y-121865380D01*
X92491714Y-121913000D01*
X92539333Y-121960619D01*
X92586952Y-122055857D01*
X92586952Y-122151095D01*
X92539333Y-122293952D01*
X91967904Y-122865380D01*
X92586952Y-122865380D01*
X93206000Y-121865380D02*
X93301238Y-121865380D01*
X93396476Y-121913000D01*
X93444095Y-121960619D01*
X93491714Y-122055857D01*
X93539333Y-122246333D01*
X93539333Y-122484428D01*
X93491714Y-122674904D01*
X93444095Y-122770142D01*
X93396476Y-122817761D01*
X93301238Y-122865380D01*
X93206000Y-122865380D01*
X93110761Y-122817761D01*
X93063142Y-122770142D01*
X93015523Y-122674904D01*
X92967904Y-122484428D01*
X92967904Y-122246333D01*
X93015523Y-122055857D01*
X93063142Y-121960619D01*
X93110761Y-121913000D01*
X93206000Y-121865380D01*
X94491714Y-122865380D02*
X93920285Y-122865380D01*
X94206000Y-122865380D02*
X94206000Y-121865380D01*
X94110761Y-122008238D01*
X94015523Y-122103476D01*
X93920285Y-122151095D01*
X50814285Y-150152380D02*
X50814285Y-150866666D01*
X50766666Y-151009523D01*
X50671428Y-151104761D01*
X50528571Y-151152380D01*
X50433333Y-151152380D01*
X51242857Y-150247619D02*
X51290476Y-150200000D01*
X51385714Y-150152380D01*
X51623809Y-150152380D01*
X51719047Y-150200000D01*
X51766666Y-150247619D01*
X51814285Y-150342857D01*
X51814285Y-150438095D01*
X51766666Y-150580952D01*
X51195238Y-151152380D01*
X51814285Y-151152380D01*
X52433333Y-150152380D02*
X52528571Y-150152380D01*
X52623809Y-150200000D01*
X52671428Y-150247619D01*
X52719047Y-150342857D01*
X52766666Y-150533333D01*
X52766666Y-150771428D01*
X52719047Y-150961904D01*
X52671428Y-151057142D01*
X52623809Y-151104761D01*
X52528571Y-151152380D01*
X52433333Y-151152380D01*
X52338095Y-151104761D01*
X52290476Y-151057142D01*
X52242857Y-150961904D01*
X52195238Y-150771428D01*
X52195238Y-150533333D01*
X52242857Y-150342857D01*
X52290476Y-150247619D01*
X52338095Y-150200000D01*
X52433333Y-150152380D01*
X53719047Y-151152380D02*
X53147619Y-151152380D01*
X53433333Y-151152380D02*
X53433333Y-150152380D01*
X53338095Y-150295238D01*
X53242857Y-150390476D01*
X53147619Y-150438095D01*
X55452380Y-65452380D02*
X55119047Y-64976190D01*
X54880952Y-65452380D02*
X54880952Y-64452380D01*
X55261904Y-64452380D01*
X55357142Y-64500000D01*
X55404761Y-64547619D01*
X55452380Y-64642857D01*
X55452380Y-64785714D01*
X55404761Y-64880952D01*
X55357142Y-64928571D01*
X55261904Y-64976190D01*
X54880952Y-64976190D01*
X55738095Y-64452380D02*
X56071428Y-65452380D01*
X56404761Y-64452380D01*
X56690476Y-64547619D02*
X56738095Y-64500000D01*
X56833333Y-64452380D01*
X57071428Y-64452380D01*
X57166666Y-64500000D01*
X57214285Y-64547619D01*
X57261904Y-64642857D01*
X57261904Y-64738095D01*
X57214285Y-64880952D01*
X56642857Y-65452380D01*
X57261904Y-65452380D01*
X57880952Y-64452380D02*
X57976190Y-64452380D01*
X58071428Y-64500000D01*
X58119047Y-64547619D01*
X58166666Y-64642857D01*
X58214285Y-64833333D01*
X58214285Y-65071428D01*
X58166666Y-65261904D01*
X58119047Y-65357142D01*
X58071428Y-65404761D01*
X57976190Y-65452380D01*
X57880952Y-65452380D01*
X57785714Y-65404761D01*
X57738095Y-65357142D01*
X57690476Y-65261904D01*
X57642857Y-65071428D01*
X57642857Y-64833333D01*
X57690476Y-64642857D01*
X57738095Y-64547619D01*
X57785714Y-64500000D01*
X57880952Y-64452380D01*
X58547619Y-64452380D02*
X59166666Y-64452380D01*
X58833333Y-64833333D01*
X58976190Y-64833333D01*
X59071428Y-64880952D01*
X59119047Y-64928571D01*
X59166666Y-65023809D01*
X59166666Y-65261904D01*
X59119047Y-65357142D01*
X59071428Y-65404761D01*
X58976190Y-65452380D01*
X58690476Y-65452380D01*
X58595238Y-65404761D01*
X58547619Y-65357142D01*
X60452380Y-63309523D02*
X60452380Y-63785714D01*
X60928571Y-63833333D01*
X60880952Y-63785714D01*
X60833333Y-63690476D01*
X60833333Y-63452380D01*
X60880952Y-63357142D01*
X60928571Y-63309523D01*
X61023809Y-63261904D01*
X61261904Y-63261904D01*
X61357142Y-63309523D01*
X61404761Y-63357142D01*
X61452380Y-63452380D01*
X61452380Y-63690476D01*
X61404761Y-63785714D01*
X61357142Y-63833333D01*
X60452380Y-62642857D02*
X60452380Y-62547619D01*
X60500000Y-62452380D01*
X60547619Y-62404761D01*
X60642857Y-62357142D01*
X60833333Y-62309523D01*
X61071428Y-62309523D01*
X61261904Y-62357142D01*
X61357142Y-62404761D01*
X61404761Y-62452380D01*
X61452380Y-62547619D01*
X61452380Y-62642857D01*
X61404761Y-62738095D01*
X61357142Y-62785714D01*
X61261904Y-62833333D01*
X61071428Y-62880952D01*
X60833333Y-62880952D01*
X60642857Y-62833333D01*
X60547619Y-62785714D01*
X60500000Y-62738095D01*
X60452380Y-62642857D01*
X60452380Y-61690476D02*
X60452380Y-61595238D01*
X60500000Y-61500000D01*
X60547619Y-61452380D01*
X60642857Y-61404761D01*
X60833333Y-61357142D01*
X61071428Y-61357142D01*
X61261904Y-61404761D01*
X61357142Y-61452380D01*
X61404761Y-61500000D01*
X61452380Y-61595238D01*
X61452380Y-61690476D01*
X61404761Y-61785714D01*
X61357142Y-61833333D01*
X61261904Y-61880952D01*
X61071428Y-61928571D01*
X60833333Y-61928571D01*
X60642857Y-61880952D01*
X60547619Y-61833333D01*
X60500000Y-61785714D01*
X60452380Y-61690476D01*
X61452380Y-60357142D02*
X60976190Y-60690476D01*
X61452380Y-60928571D02*
X60452380Y-60928571D01*
X60452380Y-60547619D01*
X60500000Y-60452380D01*
X60547619Y-60404761D01*
X60642857Y-60357142D01*
X60785714Y-60357142D01*
X60880952Y-60404761D01*
X60928571Y-60452380D01*
X60976190Y-60547619D01*
X60976190Y-60928571D01*
X60452380Y-59309523D02*
X60452380Y-58738095D01*
X61452380Y-59023809D02*
X60452380Y-59023809D01*
X60785714Y-57976190D02*
X61452380Y-57976190D01*
X60785714Y-58404761D02*
X61309523Y-58404761D01*
X61404761Y-58357142D01*
X61452380Y-58261904D01*
X61452380Y-58119047D01*
X61404761Y-58023809D01*
X61357142Y-57976190D01*
X60785714Y-57500000D02*
X61452380Y-57500000D01*
X60880952Y-57500000D02*
X60833333Y-57452380D01*
X60785714Y-57357142D01*
X60785714Y-57214285D01*
X60833333Y-57119047D01*
X60928571Y-57071428D01*
X61452380Y-57071428D01*
X61404761Y-56214285D02*
X61452380Y-56309523D01*
X61452380Y-56500000D01*
X61404761Y-56595238D01*
X61309523Y-56642857D01*
X60928571Y-56642857D01*
X60833333Y-56595238D01*
X60785714Y-56500000D01*
X60785714Y-56309523D01*
X60833333Y-56214285D01*
X60928571Y-56166666D01*
X61023809Y-56166666D01*
X61119047Y-56642857D01*
X55390952Y-67452380D02*
X55962380Y-67452380D01*
X55676666Y-68452380D02*
X55676666Y-67452380D01*
X56724285Y-67785714D02*
X56724285Y-68452380D01*
X56295714Y-67785714D02*
X56295714Y-68309523D01*
X56343333Y-68404761D01*
X56438571Y-68452380D01*
X56581428Y-68452380D01*
X56676666Y-68404761D01*
X56724285Y-68357142D01*
X57200476Y-67785714D02*
X57200476Y-68452380D01*
X57200476Y-67880952D02*
X57248095Y-67833333D01*
X57343333Y-67785714D01*
X57486190Y-67785714D01*
X57581428Y-67833333D01*
X57629047Y-67928571D01*
X57629047Y-68452380D01*
X58486190Y-68404761D02*
X58390952Y-68452380D01*
X58200476Y-68452380D01*
X58105238Y-68404761D01*
X58057619Y-68309523D01*
X58057619Y-67928571D01*
X58105238Y-67833333D01*
X58200476Y-67785714D01*
X58390952Y-67785714D01*
X58486190Y-67833333D01*
X58533809Y-67928571D01*
X58533809Y-68023809D01*
X58057619Y-68119047D01*
X54452380Y-127452380D02*
X54119047Y-126976190D01*
X53880952Y-127452380D02*
X53880952Y-126452380D01*
X54261904Y-126452380D01*
X54357142Y-126500000D01*
X54404761Y-126547619D01*
X54452380Y-126642857D01*
X54452380Y-126785714D01*
X54404761Y-126880952D01*
X54357142Y-126928571D01*
X54261904Y-126976190D01*
X53880952Y-126976190D01*
X54738095Y-126452380D02*
X55071428Y-127452380D01*
X55404761Y-126452380D01*
X55690476Y-126547619D02*
X55738095Y-126500000D01*
X55833333Y-126452380D01*
X56071428Y-126452380D01*
X56166666Y-126500000D01*
X56214285Y-126547619D01*
X56261904Y-126642857D01*
X56261904Y-126738095D01*
X56214285Y-126880952D01*
X55642857Y-127452380D01*
X56261904Y-127452380D01*
X56880952Y-126452380D02*
X56976190Y-126452380D01*
X57071428Y-126500000D01*
X57119047Y-126547619D01*
X57166666Y-126642857D01*
X57214285Y-126833333D01*
X57214285Y-127071428D01*
X57166666Y-127261904D01*
X57119047Y-127357142D01*
X57071428Y-127404761D01*
X56976190Y-127452380D01*
X56880952Y-127452380D01*
X56785714Y-127404761D01*
X56738095Y-127357142D01*
X56690476Y-127261904D01*
X56642857Y-127071428D01*
X56642857Y-126833333D01*
X56690476Y-126642857D01*
X56738095Y-126547619D01*
X56785714Y-126500000D01*
X56880952Y-126452380D01*
X58119047Y-126452380D02*
X57642857Y-126452380D01*
X57595238Y-126928571D01*
X57642857Y-126880952D01*
X57738095Y-126833333D01*
X57976190Y-126833333D01*
X58071428Y-126880952D01*
X58119047Y-126928571D01*
X58166666Y-127023809D01*
X58166666Y-127261904D01*
X58119047Y-127357142D01*
X58071428Y-127404761D01*
X57976190Y-127452380D01*
X57738095Y-127452380D01*
X57642857Y-127404761D01*
X57595238Y-127357142D01*
X61452380Y-123166666D02*
X61452380Y-123738095D01*
X61452380Y-123452380D02*
X60452380Y-123452380D01*
X60595238Y-123547619D01*
X60690476Y-123642857D01*
X60738095Y-123738095D01*
X60452380Y-122547619D02*
X60452380Y-122452380D01*
X60500000Y-122357142D01*
X60547619Y-122309523D01*
X60642857Y-122261904D01*
X60833333Y-122214285D01*
X61071428Y-122214285D01*
X61261904Y-122261904D01*
X61357142Y-122309523D01*
X61404761Y-122357142D01*
X61452380Y-122452380D01*
X61452380Y-122547619D01*
X61404761Y-122642857D01*
X61357142Y-122690476D01*
X61261904Y-122738095D01*
X61071428Y-122785714D01*
X60833333Y-122785714D01*
X60642857Y-122738095D01*
X60547619Y-122690476D01*
X60500000Y-122642857D01*
X60452380Y-122547619D01*
X60452380Y-121595238D02*
X60452380Y-121500000D01*
X60500000Y-121404761D01*
X60547619Y-121357142D01*
X60642857Y-121309523D01*
X60833333Y-121261904D01*
X61071428Y-121261904D01*
X61261904Y-121309523D01*
X61357142Y-121357142D01*
X61404761Y-121404761D01*
X61452380Y-121500000D01*
X61452380Y-121595238D01*
X61404761Y-121690476D01*
X61357142Y-121738095D01*
X61261904Y-121785714D01*
X61071428Y-121833333D01*
X60833333Y-121833333D01*
X60642857Y-121785714D01*
X60547619Y-121738095D01*
X60500000Y-121690476D01*
X60452380Y-121595238D01*
X61452380Y-120833333D02*
X60452380Y-120833333D01*
X61071428Y-120738095D02*
X61452380Y-120452380D01*
X60785714Y-120452380D02*
X61166666Y-120833333D01*
X61166666Y-119309523D02*
X61166666Y-118833333D01*
X61452380Y-119404761D02*
X60452380Y-119071428D01*
X61452380Y-118738095D01*
X61452380Y-117166666D02*
X61452380Y-117642857D01*
X60452380Y-117642857D01*
X61404761Y-116452380D02*
X61452380Y-116547619D01*
X61452380Y-116738095D01*
X61404761Y-116833333D01*
X61309523Y-116880952D01*
X60928571Y-116880952D01*
X60833333Y-116833333D01*
X60785714Y-116738095D01*
X60785714Y-116547619D01*
X60833333Y-116452380D01*
X60928571Y-116404761D01*
X61023809Y-116404761D01*
X61119047Y-116880952D01*
X60785714Y-116071428D02*
X61452380Y-115833333D01*
X60785714Y-115595238D01*
X61404761Y-114833333D02*
X61452380Y-114928571D01*
X61452380Y-115119047D01*
X61404761Y-115214285D01*
X61309523Y-115261904D01*
X60928571Y-115261904D01*
X60833333Y-115214285D01*
X60785714Y-115119047D01*
X60785714Y-114928571D01*
X60833333Y-114833333D01*
X60928571Y-114785714D01*
X61023809Y-114785714D01*
X61119047Y-115261904D01*
X61452380Y-114214285D02*
X61404761Y-114309523D01*
X61309523Y-114357142D01*
X60452380Y-114357142D01*
X54809523Y-129452380D02*
X54333333Y-129452380D01*
X54333333Y-128452380D01*
X55523809Y-129404761D02*
X55428571Y-129452380D01*
X55238095Y-129452380D01*
X55142857Y-129404761D01*
X55095238Y-129309523D01*
X55095238Y-128928571D01*
X55142857Y-128833333D01*
X55238095Y-128785714D01*
X55428571Y-128785714D01*
X55523809Y-128833333D01*
X55571428Y-128928571D01*
X55571428Y-129023809D01*
X55095238Y-129119047D01*
X55904761Y-128785714D02*
X56142857Y-129452380D01*
X56380952Y-128785714D01*
X57142857Y-129404761D02*
X57047619Y-129452380D01*
X56857142Y-129452380D01*
X56761904Y-129404761D01*
X56714285Y-129309523D01*
X56714285Y-128928571D01*
X56761904Y-128833333D01*
X56857142Y-128785714D01*
X57047619Y-128785714D01*
X57142857Y-128833333D01*
X57190476Y-128928571D01*
X57190476Y-129023809D01*
X56714285Y-129119047D01*
X57761904Y-129452380D02*
X57666666Y-129404761D01*
X57619047Y-129309523D01*
X57619047Y-128452380D01*
X54452380Y-106452380D02*
X54119047Y-105976190D01*
X53880952Y-106452380D02*
X53880952Y-105452380D01*
X54261904Y-105452380D01*
X54357142Y-105500000D01*
X54404761Y-105547619D01*
X54452380Y-105642857D01*
X54452380Y-105785714D01*
X54404761Y-105880952D01*
X54357142Y-105928571D01*
X54261904Y-105976190D01*
X53880952Y-105976190D01*
X54738095Y-105452380D02*
X55071428Y-106452380D01*
X55404761Y-105452380D01*
X55690476Y-105547619D02*
X55738095Y-105500000D01*
X55833333Y-105452380D01*
X56071428Y-105452380D01*
X56166666Y-105500000D01*
X56214285Y-105547619D01*
X56261904Y-105642857D01*
X56261904Y-105738095D01*
X56214285Y-105880952D01*
X55642857Y-106452380D01*
X56261904Y-106452380D01*
X56880952Y-105452380D02*
X56976190Y-105452380D01*
X57071428Y-105500000D01*
X57119047Y-105547619D01*
X57166666Y-105642857D01*
X57214285Y-105833333D01*
X57214285Y-106071428D01*
X57166666Y-106261904D01*
X57119047Y-106357142D01*
X57071428Y-106404761D01*
X56976190Y-106452380D01*
X56880952Y-106452380D01*
X56785714Y-106404761D01*
X56738095Y-106357142D01*
X56690476Y-106261904D01*
X56642857Y-106071428D01*
X56642857Y-105833333D01*
X56690476Y-105642857D01*
X56738095Y-105547619D01*
X56785714Y-105500000D01*
X56880952Y-105452380D01*
X58071428Y-105785714D02*
X58071428Y-106452380D01*
X57833333Y-105404761D02*
X57595238Y-106119047D01*
X58214285Y-106119047D01*
X61452380Y-102857142D02*
X61452380Y-103428571D01*
X61452380Y-103142857D02*
X60452380Y-103142857D01*
X60595238Y-103238095D01*
X60690476Y-103333333D01*
X60738095Y-103428571D01*
X61452380Y-102428571D02*
X60452380Y-102428571D01*
X61166666Y-102095238D01*
X60452380Y-101761904D01*
X61452380Y-101761904D01*
X61452380Y-100523809D02*
X60452380Y-100523809D01*
X60452380Y-100285714D01*
X60500000Y-100142857D01*
X60595238Y-100047619D01*
X60690476Y-100000000D01*
X60880952Y-99952380D01*
X61023809Y-99952380D01*
X61214285Y-100000000D01*
X61309523Y-100047619D01*
X61404761Y-100142857D01*
X61452380Y-100285714D01*
X61452380Y-100523809D01*
X61404761Y-99142857D02*
X61452380Y-99238095D01*
X61452380Y-99428571D01*
X61404761Y-99523809D01*
X61309523Y-99571428D01*
X60928571Y-99571428D01*
X60833333Y-99523809D01*
X60785714Y-99428571D01*
X60785714Y-99238095D01*
X60833333Y-99142857D01*
X60928571Y-99095238D01*
X61023809Y-99095238D01*
X61119047Y-99571428D01*
X61404761Y-98238095D02*
X61452380Y-98333333D01*
X61452380Y-98523809D01*
X61404761Y-98619047D01*
X61357142Y-98666666D01*
X61261904Y-98714285D01*
X60976190Y-98714285D01*
X60880952Y-98666666D01*
X60833333Y-98619047D01*
X60785714Y-98523809D01*
X60785714Y-98333333D01*
X60833333Y-98238095D01*
X61452380Y-97380952D02*
X60928571Y-97380952D01*
X60833333Y-97428571D01*
X60785714Y-97523809D01*
X60785714Y-97714285D01*
X60833333Y-97809523D01*
X61404761Y-97380952D02*
X61452380Y-97476190D01*
X61452380Y-97714285D01*
X61404761Y-97809523D01*
X61309523Y-97857142D01*
X61214285Y-97857142D01*
X61119047Y-97809523D01*
X61071428Y-97714285D01*
X61071428Y-97476190D01*
X61023809Y-97380952D01*
X60785714Y-97000000D02*
X61452380Y-96761904D01*
X60785714Y-96523809D02*
X61452380Y-96761904D01*
X61690476Y-96857142D01*
X61738095Y-96904761D01*
X61785714Y-97000000D01*
X52547619Y-108952380D02*
X52547619Y-107952380D01*
X52785714Y-107952380D01*
X52928571Y-108000000D01*
X53023809Y-108095238D01*
X53071428Y-108190476D01*
X53119047Y-108380952D01*
X53119047Y-108523809D01*
X53071428Y-108714285D01*
X53023809Y-108809523D01*
X52928571Y-108904761D01*
X52785714Y-108952380D01*
X52547619Y-108952380D01*
X53928571Y-108904761D02*
X53833333Y-108952380D01*
X53642857Y-108952380D01*
X53547619Y-108904761D01*
X53500000Y-108809523D01*
X53500000Y-108428571D01*
X53547619Y-108333333D01*
X53642857Y-108285714D01*
X53833333Y-108285714D01*
X53928571Y-108333333D01*
X53976190Y-108428571D01*
X53976190Y-108523809D01*
X53500000Y-108619047D01*
X54833333Y-108904761D02*
X54738095Y-108952380D01*
X54547619Y-108952380D01*
X54452380Y-108904761D01*
X54404761Y-108857142D01*
X54357142Y-108761904D01*
X54357142Y-108476190D01*
X54404761Y-108380952D01*
X54452380Y-108333333D01*
X54547619Y-108285714D01*
X54738095Y-108285714D01*
X54833333Y-108333333D01*
X55690476Y-108952380D02*
X55690476Y-108428571D01*
X55642857Y-108333333D01*
X55547619Y-108285714D01*
X55357142Y-108285714D01*
X55261904Y-108333333D01*
X55690476Y-108904761D02*
X55595238Y-108952380D01*
X55357142Y-108952380D01*
X55261904Y-108904761D01*
X55214285Y-108809523D01*
X55214285Y-108714285D01*
X55261904Y-108619047D01*
X55357142Y-108571428D01*
X55595238Y-108571428D01*
X55690476Y-108523809D01*
X56071428Y-108285714D02*
X56309523Y-108952380D01*
X56547619Y-108285714D02*
X56309523Y-108952380D01*
X56214285Y-109190476D01*
X56166666Y-109238095D01*
X56071428Y-109285714D01*
X54452380Y-86452380D02*
X54119047Y-85976190D01*
X53880952Y-86452380D02*
X53880952Y-85452380D01*
X54261904Y-85452380D01*
X54357142Y-85500000D01*
X54404761Y-85547619D01*
X54452380Y-85642857D01*
X54452380Y-85785714D01*
X54404761Y-85880952D01*
X54357142Y-85928571D01*
X54261904Y-85976190D01*
X53880952Y-85976190D01*
X54738095Y-85452380D02*
X55071428Y-86452380D01*
X55404761Y-85452380D01*
X55690476Y-85547619D02*
X55738095Y-85500000D01*
X55833333Y-85452380D01*
X56071428Y-85452380D01*
X56166666Y-85500000D01*
X56214285Y-85547619D01*
X56261904Y-85642857D01*
X56261904Y-85738095D01*
X56214285Y-85880952D01*
X55642857Y-86452380D01*
X56261904Y-86452380D01*
X56880952Y-85452380D02*
X56976190Y-85452380D01*
X57071428Y-85500000D01*
X57119047Y-85547619D01*
X57166666Y-85642857D01*
X57214285Y-85833333D01*
X57214285Y-86071428D01*
X57166666Y-86261904D01*
X57119047Y-86357142D01*
X57071428Y-86404761D01*
X56976190Y-86452380D01*
X56880952Y-86452380D01*
X56785714Y-86404761D01*
X56738095Y-86357142D01*
X56690476Y-86261904D01*
X56642857Y-86071428D01*
X56642857Y-85833333D01*
X56690476Y-85642857D01*
X56738095Y-85547619D01*
X56785714Y-85500000D01*
X56880952Y-85452380D01*
X58071428Y-85452380D02*
X57880952Y-85452380D01*
X57785714Y-85500000D01*
X57738095Y-85547619D01*
X57642857Y-85690476D01*
X57595238Y-85880952D01*
X57595238Y-86261904D01*
X57642857Y-86357142D01*
X57690476Y-86404761D01*
X57785714Y-86452380D01*
X57976190Y-86452380D01*
X58071428Y-86404761D01*
X58119047Y-86357142D01*
X58166666Y-86261904D01*
X58166666Y-86023809D01*
X58119047Y-85928571D01*
X58071428Y-85880952D01*
X57976190Y-85833333D01*
X57785714Y-85833333D01*
X57690476Y-85880952D01*
X57642857Y-85928571D01*
X57595238Y-86023809D01*
X61452380Y-83761904D02*
X61452380Y-84333333D01*
X61452380Y-84047619D02*
X60452380Y-84047619D01*
X60595238Y-84142857D01*
X60690476Y-84238095D01*
X60738095Y-84333333D01*
X60452380Y-83142857D02*
X60452380Y-83047619D01*
X60500000Y-82952380D01*
X60547619Y-82904761D01*
X60642857Y-82857142D01*
X60833333Y-82809523D01*
X61071428Y-82809523D01*
X61261904Y-82857142D01*
X61357142Y-82904761D01*
X61404761Y-82952380D01*
X61452380Y-83047619D01*
X61452380Y-83142857D01*
X61404761Y-83238095D01*
X61357142Y-83285714D01*
X61261904Y-83333333D01*
X61071428Y-83380952D01*
X60833333Y-83380952D01*
X60642857Y-83333333D01*
X60547619Y-83285714D01*
X60500000Y-83238095D01*
X60452380Y-83142857D01*
X60452380Y-82190476D02*
X60452380Y-82095238D01*
X60500000Y-82000000D01*
X60547619Y-81952380D01*
X60642857Y-81904761D01*
X60833333Y-81857142D01*
X61071428Y-81857142D01*
X61261904Y-81904761D01*
X61357142Y-81952380D01*
X61404761Y-82000000D01*
X61452380Y-82095238D01*
X61452380Y-82190476D01*
X61404761Y-82285714D01*
X61357142Y-82333333D01*
X61261904Y-82380952D01*
X61071428Y-82428571D01*
X60833333Y-82428571D01*
X60642857Y-82380952D01*
X60547619Y-82333333D01*
X60500000Y-82285714D01*
X60452380Y-82190476D01*
X61452380Y-81428571D02*
X60452380Y-81428571D01*
X61071428Y-81333333D02*
X61452380Y-81047619D01*
X60785714Y-81047619D02*
X61166666Y-81428571D01*
X61166666Y-79904761D02*
X61166666Y-79428571D01*
X61452380Y-80000000D02*
X60452380Y-79666666D01*
X61452380Y-79333333D01*
X61452380Y-77666666D02*
X60976190Y-78000000D01*
X61452380Y-78238095D02*
X60452380Y-78238095D01*
X60452380Y-77857142D01*
X60500000Y-77761904D01*
X60547619Y-77714285D01*
X60642857Y-77666666D01*
X60785714Y-77666666D01*
X60880952Y-77714285D01*
X60928571Y-77761904D01*
X60976190Y-77857142D01*
X60976190Y-78238095D01*
X61404761Y-76857142D02*
X61452380Y-76952380D01*
X61452380Y-77142857D01*
X61404761Y-77238095D01*
X61309523Y-77285714D01*
X60928571Y-77285714D01*
X60833333Y-77238095D01*
X60785714Y-77142857D01*
X60785714Y-76952380D01*
X60833333Y-76857142D01*
X60928571Y-76809523D01*
X61023809Y-76809523D01*
X61119047Y-77285714D01*
X60785714Y-76476190D02*
X61452380Y-76238095D01*
X60785714Y-76000000D01*
X61404761Y-75238095D02*
X61452380Y-75333333D01*
X61452380Y-75523809D01*
X61404761Y-75619047D01*
X61309523Y-75666666D01*
X60928571Y-75666666D01*
X60833333Y-75619047D01*
X60785714Y-75523809D01*
X60785714Y-75333333D01*
X60833333Y-75238095D01*
X60928571Y-75190476D01*
X61023809Y-75190476D01*
X61119047Y-75666666D01*
X61452380Y-74761904D02*
X60785714Y-74761904D01*
X60976190Y-74761904D02*
X60880952Y-74714285D01*
X60833333Y-74666666D01*
X60785714Y-74571428D01*
X60785714Y-74476190D01*
X61452380Y-74142857D02*
X60452380Y-74142857D01*
X60833333Y-74142857D02*
X60785714Y-74047619D01*
X60785714Y-73857142D01*
X60833333Y-73761904D01*
X60880952Y-73714285D01*
X60976190Y-73666666D01*
X61261904Y-73666666D01*
X61357142Y-73714285D01*
X61404761Y-73761904D01*
X61452380Y-73857142D01*
X61452380Y-74047619D01*
X61404761Y-74142857D01*
X54309523Y-88452380D02*
X53976190Y-87976190D01*
X53738095Y-88452380D02*
X53738095Y-87452380D01*
X54119047Y-87452380D01*
X54214285Y-87500000D01*
X54261904Y-87547619D01*
X54309523Y-87642857D01*
X54309523Y-87785714D01*
X54261904Y-87880952D01*
X54214285Y-87928571D01*
X54119047Y-87976190D01*
X53738095Y-87976190D01*
X55119047Y-88404761D02*
X55023809Y-88452380D01*
X54833333Y-88452380D01*
X54738095Y-88404761D01*
X54690476Y-88309523D01*
X54690476Y-87928571D01*
X54738095Y-87833333D01*
X54833333Y-87785714D01*
X55023809Y-87785714D01*
X55119047Y-87833333D01*
X55166666Y-87928571D01*
X55166666Y-88023809D01*
X54690476Y-88119047D01*
X55500000Y-87785714D02*
X55738095Y-88452380D01*
X55976190Y-87785714D01*
X56738095Y-88404761D02*
X56642857Y-88452380D01*
X56452380Y-88452380D01*
X56357142Y-88404761D01*
X56309523Y-88309523D01*
X56309523Y-87928571D01*
X56357142Y-87833333D01*
X56452380Y-87785714D01*
X56642857Y-87785714D01*
X56738095Y-87833333D01*
X56785714Y-87928571D01*
X56785714Y-88023809D01*
X56309523Y-88119047D01*
X57214285Y-88452380D02*
X57214285Y-87785714D01*
X57214285Y-87976190D02*
X57261904Y-87880952D01*
X57309523Y-87833333D01*
X57404761Y-87785714D01*
X57500000Y-87785714D01*
X57833333Y-88452380D02*
X57833333Y-87452380D01*
X57833333Y-87833333D02*
X57928571Y-87785714D01*
X58119047Y-87785714D01*
X58214285Y-87833333D01*
X58261904Y-87880952D01*
X58309523Y-87976190D01*
X58309523Y-88261904D01*
X58261904Y-88357142D01*
X58214285Y-88404761D01*
X58119047Y-88452380D01*
X57928571Y-88452380D01*
X57833333Y-88404761D01*
D18*
X72214285Y-138189285D02*
X72214285Y-138725000D01*
X72166666Y-138832142D01*
X72071428Y-138903571D01*
X71928571Y-138939285D01*
X71833333Y-138939285D01*
X72642857Y-138260714D02*
X72690476Y-138225000D01*
X72785714Y-138189285D01*
X73023809Y-138189285D01*
X73119047Y-138225000D01*
X73166666Y-138260714D01*
X73214285Y-138332142D01*
X73214285Y-138403571D01*
X73166666Y-138510714D01*
X72595238Y-138939285D01*
X73214285Y-138939285D01*
X73833333Y-138189285D02*
X73928571Y-138189285D01*
X74023809Y-138225000D01*
X74071428Y-138260714D01*
X74119047Y-138332142D01*
X74166666Y-138475000D01*
X74166666Y-138653571D01*
X74119047Y-138796428D01*
X74071428Y-138867857D01*
X74023809Y-138903571D01*
X73928571Y-138939285D01*
X73833333Y-138939285D01*
X73738095Y-138903571D01*
X73690476Y-138867857D01*
X73642857Y-138796428D01*
X73595238Y-138653571D01*
X73595238Y-138475000D01*
X73642857Y-138332142D01*
X73690476Y-138260714D01*
X73738095Y-138225000D01*
X73833333Y-138189285D01*
X74547619Y-138260714D02*
X74595238Y-138225000D01*
X74690476Y-138189285D01*
X74928571Y-138189285D01*
X75023809Y-138225000D01*
X75071428Y-138260714D01*
X75119047Y-138332142D01*
X75119047Y-138403571D01*
X75071428Y-138510714D01*
X74500000Y-138939285D01*
X75119047Y-138939285D01*
D16*
X74000000Y-148052380D02*
X74000000Y-147052380D01*
X74476190Y-147385714D02*
X74476190Y-148052380D01*
X74476190Y-147480952D02*
X74523809Y-147433333D01*
X74619047Y-147385714D01*
X74761904Y-147385714D01*
X74857142Y-147433333D01*
X74904761Y-147528571D01*
X74904761Y-148052380D01*
X76666666Y-147100000D02*
X76571428Y-147052380D01*
X76428571Y-147052380D01*
X76285714Y-147100000D01*
X76190476Y-147195238D01*
X76142857Y-147290476D01*
X76095238Y-147480952D01*
X76095238Y-147623809D01*
X76142857Y-147814285D01*
X76190476Y-147909523D01*
X76285714Y-148004761D01*
X76428571Y-148052380D01*
X76523809Y-148052380D01*
X76666666Y-148004761D01*
X76714285Y-147957142D01*
X76714285Y-147623809D01*
X76523809Y-147623809D01*
X77571428Y-148052380D02*
X77571428Y-147528571D01*
X77523809Y-147433333D01*
X77428571Y-147385714D01*
X77238095Y-147385714D01*
X77142857Y-147433333D01*
X77571428Y-148004761D02*
X77476190Y-148052380D01*
X77238095Y-148052380D01*
X77142857Y-148004761D01*
X77095238Y-147909523D01*
X77095238Y-147814285D01*
X77142857Y-147719047D01*
X77238095Y-147671428D01*
X77476190Y-147671428D01*
X77571428Y-147623809D01*
X77904761Y-147385714D02*
X78285714Y-147385714D01*
X78047619Y-147052380D02*
X78047619Y-147909523D01*
X78095238Y-148004761D01*
X78190476Y-148052380D01*
X78285714Y-148052380D01*
X79000000Y-148004761D02*
X78904761Y-148052380D01*
X78714285Y-148052380D01*
X78619047Y-148004761D01*
X78571428Y-147909523D01*
X78571428Y-147528571D01*
X78619047Y-147433333D01*
X78714285Y-147385714D01*
X78904761Y-147385714D01*
X79000000Y-147433333D01*
X79047619Y-147528571D01*
X79047619Y-147623809D01*
X78571428Y-147719047D01*
X76895238Y-61561904D02*
X77085714Y-62361904D01*
X77238095Y-61790476D01*
X77390476Y-62361904D01*
X77580952Y-61561904D01*
X77885714Y-62361904D02*
X77885714Y-61561904D01*
X78228571Y-62361904D02*
X78228571Y-61942857D01*
X78190476Y-61866666D01*
X78114285Y-61828571D01*
X78000000Y-61828571D01*
X77923809Y-61866666D01*
X77885714Y-61904761D01*
X78609523Y-62361904D02*
X78609523Y-61828571D01*
X78609523Y-61561904D02*
X78571428Y-61600000D01*
X78609523Y-61638095D01*
X78647619Y-61600000D01*
X78609523Y-61561904D01*
X78609523Y-61638095D01*
X78876190Y-61828571D02*
X79180952Y-61828571D01*
X78990476Y-61561904D02*
X78990476Y-62247619D01*
X79028571Y-62323809D01*
X79104761Y-62361904D01*
X79180952Y-62361904D01*
X79752380Y-62323809D02*
X79676190Y-62361904D01*
X79523809Y-62361904D01*
X79447619Y-62323809D01*
X79409523Y-62247619D01*
X79409523Y-61942857D01*
X79447619Y-61866666D01*
X79523809Y-61828571D01*
X79676190Y-61828571D01*
X79752380Y-61866666D01*
X79790476Y-61942857D01*
X79790476Y-62019047D01*
X79409523Y-62095238D01*
X80133333Y-62361904D02*
X80133333Y-61561904D01*
X80590476Y-62361904D01*
X80590476Y-61561904D01*
X81085714Y-62361904D02*
X81009523Y-62323809D01*
X80971428Y-62285714D01*
X80933333Y-62209523D01*
X80933333Y-61980952D01*
X80971428Y-61904761D01*
X81009523Y-61866666D01*
X81085714Y-61828571D01*
X81200000Y-61828571D01*
X81276190Y-61866666D01*
X81314285Y-61904761D01*
X81352380Y-61980952D01*
X81352380Y-62209523D01*
X81314285Y-62285714D01*
X81276190Y-62323809D01*
X81200000Y-62361904D01*
X81085714Y-62361904D01*
X81695238Y-62361904D02*
X81695238Y-61828571D01*
X81695238Y-61561904D02*
X81657142Y-61600000D01*
X81695238Y-61638095D01*
X81733333Y-61600000D01*
X81695238Y-61561904D01*
X81695238Y-61638095D01*
X82038095Y-62323809D02*
X82114285Y-62361904D01*
X82266666Y-62361904D01*
X82342857Y-62323809D01*
X82380952Y-62247619D01*
X82380952Y-62209523D01*
X82342857Y-62133333D01*
X82266666Y-62095238D01*
X82152380Y-62095238D01*
X82076190Y-62057142D01*
X82038095Y-61980952D01*
X82038095Y-61942857D01*
X82076190Y-61866666D01*
X82152380Y-61828571D01*
X82266666Y-61828571D01*
X82342857Y-61866666D01*
X83028571Y-62323809D02*
X82952380Y-62361904D01*
X82800000Y-62361904D01*
X82723809Y-62323809D01*
X82685714Y-62247619D01*
X82685714Y-61942857D01*
X82723809Y-61866666D01*
X82800000Y-61828571D01*
X82952380Y-61828571D01*
X83028571Y-61866666D01*
X83066666Y-61942857D01*
X83066666Y-62019047D01*
X82685714Y-62095238D01*
X60238095Y-53550000D02*
X60142857Y-53502380D01*
X60000000Y-53502380D01*
X59857142Y-53550000D01*
X59761904Y-53645238D01*
X59714285Y-53740476D01*
X59666666Y-53930952D01*
X59666666Y-54073809D01*
X59714285Y-54264285D01*
X59761904Y-54359523D01*
X59857142Y-54454761D01*
X60000000Y-54502380D01*
X60095238Y-54502380D01*
X60238095Y-54454761D01*
X60285714Y-54407142D01*
X60285714Y-54073809D01*
X60095238Y-54073809D01*
X60714285Y-54502380D02*
X60714285Y-53502380D01*
X61285714Y-54502380D01*
X61285714Y-53502380D01*
X61761904Y-54502380D02*
X61761904Y-53502380D01*
X62000000Y-53502380D01*
X62142857Y-53550000D01*
X62238095Y-53645238D01*
X62285714Y-53740476D01*
X62333333Y-53930952D01*
X62333333Y-54073809D01*
X62285714Y-54264285D01*
X62238095Y-54359523D01*
X62142857Y-54454761D01*
X62000000Y-54502380D01*
X61761904Y-54502380D01*
X87035714Y-130002380D02*
X87035714Y-129002380D01*
X87035714Y-129478571D02*
X87607142Y-129478571D01*
X87607142Y-130002380D02*
X87607142Y-129002380D01*
X88035714Y-129097619D02*
X88083333Y-129050000D01*
X88178571Y-129002380D01*
X88416666Y-129002380D01*
X88511904Y-129050000D01*
X88559523Y-129097619D01*
X88607142Y-129192857D01*
X88607142Y-129288095D01*
X88559523Y-129430952D01*
X87988095Y-130002380D01*
X88607142Y-130002380D01*
X89226190Y-129002380D02*
X89321428Y-129002380D01*
X89416666Y-129050000D01*
X89464285Y-129097619D01*
X89511904Y-129192857D01*
X89559523Y-129383333D01*
X89559523Y-129621428D01*
X89511904Y-129811904D01*
X89464285Y-129907142D01*
X89416666Y-129954761D01*
X89321428Y-130002380D01*
X89226190Y-130002380D01*
X89130952Y-129954761D01*
X89083333Y-129907142D01*
X89035714Y-129811904D01*
X88988095Y-129621428D01*
X88988095Y-129383333D01*
X89035714Y-129192857D01*
X89083333Y-129097619D01*
X89130952Y-129050000D01*
X89226190Y-129002380D01*
X90416666Y-129335714D02*
X90416666Y-130002380D01*
X90178571Y-128954761D02*
X89940476Y-129669047D01*
X90559523Y-129669047D01*
X87297619Y-103357142D02*
X87250000Y-103404761D01*
X87107142Y-103452380D01*
X87011904Y-103452380D01*
X86869047Y-103404761D01*
X86773809Y-103309523D01*
X86726190Y-103214285D01*
X86678571Y-103023809D01*
X86678571Y-102880952D01*
X86726190Y-102690476D01*
X86773809Y-102595238D01*
X86869047Y-102500000D01*
X87011904Y-102452380D01*
X87107142Y-102452380D01*
X87250000Y-102500000D01*
X87297619Y-102547619D01*
X87869047Y-103452380D02*
X87773809Y-103404761D01*
X87726190Y-103357142D01*
X87678571Y-103261904D01*
X87678571Y-102976190D01*
X87726190Y-102880952D01*
X87773809Y-102833333D01*
X87869047Y-102785714D01*
X88011904Y-102785714D01*
X88107142Y-102833333D01*
X88154761Y-102880952D01*
X88202380Y-102976190D01*
X88202380Y-103261904D01*
X88154761Y-103357142D01*
X88107142Y-103404761D01*
X88011904Y-103452380D01*
X87869047Y-103452380D01*
X89059523Y-102785714D02*
X89059523Y-103452380D01*
X88630952Y-102785714D02*
X88630952Y-103309523D01*
X88678571Y-103404761D01*
X88773809Y-103452380D01*
X88916666Y-103452380D01*
X89011904Y-103404761D01*
X89059523Y-103357142D01*
X89535714Y-102785714D02*
X89535714Y-103785714D01*
X89535714Y-102833333D02*
X89630952Y-102785714D01*
X89821428Y-102785714D01*
X89916666Y-102833333D01*
X89964285Y-102880952D01*
X90011904Y-102976190D01*
X90011904Y-103261904D01*
X89964285Y-103357142D01*
X89916666Y-103404761D01*
X89821428Y-103452380D01*
X89630952Y-103452380D01*
X89535714Y-103404761D01*
X90583333Y-103452380D02*
X90488095Y-103404761D01*
X90440476Y-103309523D01*
X90440476Y-102452380D01*
X90964285Y-103452380D02*
X90964285Y-102785714D01*
X90964285Y-102452380D02*
X90916666Y-102500000D01*
X90964285Y-102547619D01*
X91011904Y-102500000D01*
X90964285Y-102452380D01*
X90964285Y-102547619D01*
X91440476Y-102785714D02*
X91440476Y-103452380D01*
X91440476Y-102880952D02*
X91488095Y-102833333D01*
X91583333Y-102785714D01*
X91726190Y-102785714D01*
X91821428Y-102833333D01*
X91869047Y-102928571D01*
X91869047Y-103452380D01*
X92773809Y-102785714D02*
X92773809Y-103595238D01*
X92726190Y-103690476D01*
X92678571Y-103738095D01*
X92583333Y-103785714D01*
X92440476Y-103785714D01*
X92345238Y-103738095D01*
X92773809Y-103404761D02*
X92678571Y-103452380D01*
X92488095Y-103452380D01*
X92392857Y-103404761D01*
X92345238Y-103357142D01*
X92297619Y-103261904D01*
X92297619Y-102976190D01*
X92345238Y-102880952D01*
X92392857Y-102833333D01*
X92488095Y-102785714D01*
X92678571Y-102785714D01*
X92773809Y-102833333D01*
X135952380Y-145785714D02*
X136666666Y-145785714D01*
X136809523Y-145833333D01*
X136904761Y-145928571D01*
X136952380Y-146071428D01*
X136952380Y-146166666D01*
X135952380Y-145404761D02*
X135952380Y-144785714D01*
X136333333Y-145119047D01*
X136333333Y-144976190D01*
X136380952Y-144880952D01*
X136428571Y-144833333D01*
X136523809Y-144785714D01*
X136761904Y-144785714D01*
X136857142Y-144833333D01*
X136904761Y-144880952D01*
X136952380Y-144976190D01*
X136952380Y-145261904D01*
X136904761Y-145357142D01*
X136857142Y-145404761D01*
X135952380Y-144166666D02*
X135952380Y-144071428D01*
X136000000Y-143976190D01*
X136047619Y-143928571D01*
X136142857Y-143880952D01*
X136333333Y-143833333D01*
X136571428Y-143833333D01*
X136761904Y-143880952D01*
X136857142Y-143928571D01*
X136904761Y-143976190D01*
X136952380Y-144071428D01*
X136952380Y-144166666D01*
X136904761Y-144261904D01*
X136857142Y-144309523D01*
X136761904Y-144357142D01*
X136571428Y-144404761D01*
X136333333Y-144404761D01*
X136142857Y-144357142D01*
X136047619Y-144309523D01*
X136000000Y-144261904D01*
X135952380Y-144166666D01*
X136047619Y-143452380D02*
X136000000Y-143404761D01*
X135952380Y-143309523D01*
X135952380Y-143071428D01*
X136000000Y-142976190D01*
X136047619Y-142928571D01*
X136142857Y-142880952D01*
X136238095Y-142880952D01*
X136380952Y-142928571D01*
X136952380Y-143500000D01*
X136952380Y-142880952D01*
X135714285Y-136452380D02*
X135714285Y-135452380D01*
X136190476Y-135785714D02*
X136190476Y-136452380D01*
X136190476Y-135880952D02*
X136238095Y-135833333D01*
X136333333Y-135785714D01*
X136476190Y-135785714D01*
X136571428Y-135833333D01*
X136619047Y-135928571D01*
X136619047Y-136452380D01*
X136857142Y-136547619D02*
X137619047Y-136547619D01*
X137809523Y-136166666D02*
X138285714Y-136166666D01*
X137714285Y-136452380D02*
X138047619Y-135452380D01*
X138380952Y-136452380D01*
X139142857Y-136404761D02*
X139047619Y-136452380D01*
X138857142Y-136452380D01*
X138761904Y-136404761D01*
X138714285Y-136357142D01*
X138666666Y-136261904D01*
X138666666Y-135976190D01*
X138714285Y-135880952D01*
X138761904Y-135833333D01*
X138857142Y-135785714D01*
X139047619Y-135785714D01*
X139142857Y-135833333D01*
X140000000Y-136404761D02*
X139904761Y-136452380D01*
X139714285Y-136452380D01*
X139619047Y-136404761D01*
X139571428Y-136357142D01*
X139523809Y-136261904D01*
X139523809Y-135976190D01*
X139571428Y-135880952D01*
X139619047Y-135833333D01*
X139714285Y-135785714D01*
X139904761Y-135785714D01*
X140000000Y-135833333D01*
X140809523Y-136404761D02*
X140714285Y-136452380D01*
X140523809Y-136452380D01*
X140428571Y-136404761D01*
X140380952Y-136309523D01*
X140380952Y-135928571D01*
X140428571Y-135833333D01*
X140523809Y-135785714D01*
X140714285Y-135785714D01*
X140809523Y-135833333D01*
X140857142Y-135928571D01*
X140857142Y-136023809D01*
X140380952Y-136119047D01*
X141285714Y-135785714D02*
X141285714Y-136452380D01*
X141285714Y-135880952D02*
X141333333Y-135833333D01*
X141428571Y-135785714D01*
X141571428Y-135785714D01*
X141666666Y-135833333D01*
X141714285Y-135928571D01*
X141714285Y-136452380D01*
X142047619Y-135785714D02*
X142428571Y-135785714D01*
X142190476Y-135452380D02*
X142190476Y-136309523D01*
X142238095Y-136404761D01*
X142333333Y-136452380D01*
X142428571Y-136452380D01*
D18*
X123714285Y-147089285D02*
X123714285Y-147625000D01*
X123666666Y-147732142D01*
X123571428Y-147803571D01*
X123428571Y-147839285D01*
X123333333Y-147839285D01*
X124095238Y-147089285D02*
X124714285Y-147089285D01*
X124380952Y-147375000D01*
X124523809Y-147375000D01*
X124619047Y-147410714D01*
X124666666Y-147446428D01*
X124714285Y-147517857D01*
X124714285Y-147696428D01*
X124666666Y-147767857D01*
X124619047Y-147803571D01*
X124523809Y-147839285D01*
X124238095Y-147839285D01*
X124142857Y-147803571D01*
X124095238Y-147767857D01*
X125333333Y-147089285D02*
X125428571Y-147089285D01*
X125523809Y-147125000D01*
X125571428Y-147160714D01*
X125619047Y-147232142D01*
X125666666Y-147375000D01*
X125666666Y-147553571D01*
X125619047Y-147696428D01*
X125571428Y-147767857D01*
X125523809Y-147803571D01*
X125428571Y-147839285D01*
X125333333Y-147839285D01*
X125238095Y-147803571D01*
X125190476Y-147767857D01*
X125142857Y-147696428D01*
X125095238Y-147553571D01*
X125095238Y-147375000D01*
X125142857Y-147232142D01*
X125190476Y-147160714D01*
X125238095Y-147125000D01*
X125333333Y-147089285D01*
X126000000Y-147089285D02*
X126619047Y-147089285D01*
X126285714Y-147375000D01*
X126428571Y-147375000D01*
X126523809Y-147410714D01*
X126571428Y-147446428D01*
X126619047Y-147517857D01*
X126619047Y-147696428D01*
X126571428Y-147767857D01*
X126523809Y-147803571D01*
X126428571Y-147839285D01*
X126142857Y-147839285D01*
X126047619Y-147803571D01*
X126000000Y-147767857D01*
D16*
X121500000Y-135452380D02*
X121500000Y-134452380D01*
X121976190Y-134785714D02*
X121976190Y-135452380D01*
X121976190Y-134880952D02*
X122023809Y-134833333D01*
X122119047Y-134785714D01*
X122261904Y-134785714D01*
X122357142Y-134833333D01*
X122404761Y-134928571D01*
X122404761Y-135452380D01*
X124166666Y-134500000D02*
X124071428Y-134452380D01*
X123928571Y-134452380D01*
X123785714Y-134500000D01*
X123690476Y-134595238D01*
X123642857Y-134690476D01*
X123595238Y-134880952D01*
X123595238Y-135023809D01*
X123642857Y-135214285D01*
X123690476Y-135309523D01*
X123785714Y-135404761D01*
X123928571Y-135452380D01*
X124023809Y-135452380D01*
X124166666Y-135404761D01*
X124214285Y-135357142D01*
X124214285Y-135023809D01*
X124023809Y-135023809D01*
X125071428Y-135452380D02*
X125071428Y-134928571D01*
X125023809Y-134833333D01*
X124928571Y-134785714D01*
X124738095Y-134785714D01*
X124642857Y-134833333D01*
X125071428Y-135404761D02*
X124976190Y-135452380D01*
X124738095Y-135452380D01*
X124642857Y-135404761D01*
X124595238Y-135309523D01*
X124595238Y-135214285D01*
X124642857Y-135119047D01*
X124738095Y-135071428D01*
X124976190Y-135071428D01*
X125071428Y-135023809D01*
X125404761Y-134785714D02*
X125785714Y-134785714D01*
X125547619Y-134452380D02*
X125547619Y-135309523D01*
X125595238Y-135404761D01*
X125690476Y-135452380D01*
X125785714Y-135452380D01*
X126500000Y-135404761D02*
X126404761Y-135452380D01*
X126214285Y-135452380D01*
X126119047Y-135404761D01*
X126071428Y-135309523D01*
X126071428Y-134928571D01*
X126119047Y-134833333D01*
X126214285Y-134785714D01*
X126404761Y-134785714D01*
X126500000Y-134833333D01*
X126547619Y-134928571D01*
X126547619Y-135023809D01*
X126071428Y-135119047D01*
D18*
X113714285Y-147089285D02*
X113714285Y-147625000D01*
X113666666Y-147732142D01*
X113571428Y-147803571D01*
X113428571Y-147839285D01*
X113333333Y-147839285D01*
X114095238Y-147089285D02*
X114714285Y-147089285D01*
X114380952Y-147375000D01*
X114523809Y-147375000D01*
X114619047Y-147410714D01*
X114666666Y-147446428D01*
X114714285Y-147517857D01*
X114714285Y-147696428D01*
X114666666Y-147767857D01*
X114619047Y-147803571D01*
X114523809Y-147839285D01*
X114238095Y-147839285D01*
X114142857Y-147803571D01*
X114095238Y-147767857D01*
X115333333Y-147089285D02*
X115428571Y-147089285D01*
X115523809Y-147125000D01*
X115571428Y-147160714D01*
X115619047Y-147232142D01*
X115666666Y-147375000D01*
X115666666Y-147553571D01*
X115619047Y-147696428D01*
X115571428Y-147767857D01*
X115523809Y-147803571D01*
X115428571Y-147839285D01*
X115333333Y-147839285D01*
X115238095Y-147803571D01*
X115190476Y-147767857D01*
X115142857Y-147696428D01*
X115095238Y-147553571D01*
X115095238Y-147375000D01*
X115142857Y-147232142D01*
X115190476Y-147160714D01*
X115238095Y-147125000D01*
X115333333Y-147089285D01*
X116523809Y-147339285D02*
X116523809Y-147839285D01*
X116285714Y-147053571D02*
X116047619Y-147589285D01*
X116666666Y-147589285D01*
D16*
X112285714Y-134452380D02*
X112476190Y-134452380D01*
X112571428Y-134500000D01*
X112666666Y-134595238D01*
X112714285Y-134785714D01*
X112714285Y-135119047D01*
X112666666Y-135309523D01*
X112571428Y-135404761D01*
X112476190Y-135452380D01*
X112285714Y-135452380D01*
X112190476Y-135404761D01*
X112095238Y-135309523D01*
X112047619Y-135119047D01*
X112047619Y-134785714D01*
X112095238Y-134595238D01*
X112190476Y-134500000D01*
X112285714Y-134452380D01*
X113571428Y-134785714D02*
X113571428Y-135452380D01*
X113142857Y-134785714D02*
X113142857Y-135309523D01*
X113190476Y-135404761D01*
X113285714Y-135452380D01*
X113428571Y-135452380D01*
X113523809Y-135404761D01*
X113571428Y-135357142D01*
X113904761Y-134785714D02*
X114285714Y-134785714D01*
X114047619Y-134452380D02*
X114047619Y-135309523D01*
X114095238Y-135404761D01*
X114190476Y-135452380D01*
X114285714Y-135452380D01*
X115238095Y-134452380D02*
X115809523Y-134452380D01*
X115523809Y-135452380D02*
X115523809Y-134452380D01*
X116285714Y-135452380D02*
X116190476Y-135404761D01*
X116142857Y-135357142D01*
X116095238Y-135261904D01*
X116095238Y-134976190D01*
X116142857Y-134880952D01*
X116190476Y-134833333D01*
X116285714Y-134785714D01*
X116428571Y-134785714D01*
X116523809Y-134833333D01*
X116571428Y-134880952D01*
X116619047Y-134976190D01*
X116619047Y-135261904D01*
X116571428Y-135357142D01*
X116523809Y-135404761D01*
X116428571Y-135452380D01*
X116285714Y-135452380D01*
X117047619Y-135452380D02*
X117047619Y-134785714D01*
X117047619Y-134880952D02*
X117095238Y-134833333D01*
X117190476Y-134785714D01*
X117333333Y-134785714D01*
X117428571Y-134833333D01*
X117476190Y-134928571D01*
X117476190Y-135452380D01*
X117476190Y-134928571D02*
X117523809Y-134833333D01*
X117619047Y-134785714D01*
X117761904Y-134785714D01*
X117857142Y-134833333D01*
X117904761Y-134928571D01*
X117904761Y-135452380D01*
X104539523Y-73056380D02*
X104539523Y-72056380D01*
X104920476Y-72056380D01*
X105015714Y-72104000D01*
X105063333Y-72151619D01*
X105110952Y-72246857D01*
X105110952Y-72389714D01*
X105063333Y-72484952D01*
X105015714Y-72532571D01*
X104920476Y-72580190D01*
X104539523Y-72580190D01*
X105444285Y-72056380D02*
X106063333Y-72056380D01*
X105730000Y-72437333D01*
X105872857Y-72437333D01*
X105968095Y-72484952D01*
X106015714Y-72532571D01*
X106063333Y-72627809D01*
X106063333Y-72865904D01*
X106015714Y-72961142D01*
X105968095Y-73008761D01*
X105872857Y-73056380D01*
X105587142Y-73056380D01*
X105491904Y-73008761D01*
X105444285Y-72961142D01*
X106682380Y-72056380D02*
X106777619Y-72056380D01*
X106872857Y-72104000D01*
X106920476Y-72151619D01*
X106968095Y-72246857D01*
X107015714Y-72437333D01*
X107015714Y-72675428D01*
X106968095Y-72865904D01*
X106920476Y-72961142D01*
X106872857Y-73008761D01*
X106777619Y-73056380D01*
X106682380Y-73056380D01*
X106587142Y-73008761D01*
X106539523Y-72961142D01*
X106491904Y-72865904D01*
X106444285Y-72675428D01*
X106444285Y-72437333D01*
X106491904Y-72246857D01*
X106539523Y-72151619D01*
X106587142Y-72104000D01*
X106682380Y-72056380D01*
X107968095Y-73056380D02*
X107396666Y-73056380D01*
X107682380Y-73056380D02*
X107682380Y-72056380D01*
X107587142Y-72199238D01*
X107491904Y-72294476D01*
X107396666Y-72342095D01*
X143452380Y-52452380D02*
X143119047Y-51976190D01*
X142880952Y-52452380D02*
X142880952Y-51452380D01*
X143261904Y-51452380D01*
X143357142Y-51500000D01*
X143404761Y-51547619D01*
X143452380Y-51642857D01*
X143452380Y-51785714D01*
X143404761Y-51880952D01*
X143357142Y-51928571D01*
X143261904Y-51976190D01*
X142880952Y-51976190D01*
X143738095Y-51452380D02*
X144071428Y-52452380D01*
X144404761Y-51452380D01*
X144642857Y-51452380D02*
X145261904Y-51452380D01*
X144928571Y-51833333D01*
X145071428Y-51833333D01*
X145166666Y-51880952D01*
X145214285Y-51928571D01*
X145261904Y-52023809D01*
X145261904Y-52261904D01*
X145214285Y-52357142D01*
X145166666Y-52404761D01*
X145071428Y-52452380D01*
X144785714Y-52452380D01*
X144690476Y-52404761D01*
X144642857Y-52357142D01*
X145880952Y-51452380D02*
X145976190Y-51452380D01*
X146071428Y-51500000D01*
X146119047Y-51547619D01*
X146166666Y-51642857D01*
X146214285Y-51833333D01*
X146214285Y-52071428D01*
X146166666Y-52261904D01*
X146119047Y-52357142D01*
X146071428Y-52404761D01*
X145976190Y-52452380D01*
X145880952Y-52452380D01*
X145785714Y-52404761D01*
X145738095Y-52357142D01*
X145690476Y-52261904D01*
X145642857Y-52071428D01*
X145642857Y-51833333D01*
X145690476Y-51642857D01*
X145738095Y-51547619D01*
X145785714Y-51500000D01*
X145880952Y-51452380D01*
X147166666Y-52452380D02*
X146595238Y-52452380D01*
X146880952Y-52452380D02*
X146880952Y-51452380D01*
X146785714Y-51595238D01*
X146690476Y-51690476D01*
X146595238Y-51738095D01*
X136452380Y-57309523D02*
X136452380Y-57785714D01*
X136928571Y-57833333D01*
X136880952Y-57785714D01*
X136833333Y-57690476D01*
X136833333Y-57452380D01*
X136880952Y-57357142D01*
X136928571Y-57309523D01*
X137023809Y-57261904D01*
X137261904Y-57261904D01*
X137357142Y-57309523D01*
X137404761Y-57357142D01*
X137452380Y-57452380D01*
X137452380Y-57690476D01*
X137404761Y-57785714D01*
X137357142Y-57833333D01*
X136452380Y-56642857D02*
X136452380Y-56547619D01*
X136500000Y-56452380D01*
X136547619Y-56404761D01*
X136642857Y-56357142D01*
X136833333Y-56309523D01*
X137071428Y-56309523D01*
X137261904Y-56357142D01*
X137357142Y-56404761D01*
X137404761Y-56452380D01*
X137452380Y-56547619D01*
X137452380Y-56642857D01*
X137404761Y-56738095D01*
X137357142Y-56785714D01*
X137261904Y-56833333D01*
X137071428Y-56880952D01*
X136833333Y-56880952D01*
X136642857Y-56833333D01*
X136547619Y-56785714D01*
X136500000Y-56738095D01*
X136452380Y-56642857D01*
X136452380Y-55690476D02*
X136452380Y-55595238D01*
X136500000Y-55500000D01*
X136547619Y-55452380D01*
X136642857Y-55404761D01*
X136833333Y-55357142D01*
X137071428Y-55357142D01*
X137261904Y-55404761D01*
X137357142Y-55452380D01*
X137404761Y-55500000D01*
X137452380Y-55595238D01*
X137452380Y-55690476D01*
X137404761Y-55785714D01*
X137357142Y-55833333D01*
X137261904Y-55880952D01*
X137071428Y-55928571D01*
X136833333Y-55928571D01*
X136642857Y-55880952D01*
X136547619Y-55833333D01*
X136500000Y-55785714D01*
X136452380Y-55690476D01*
X137452380Y-54357142D02*
X136976190Y-54690476D01*
X137452380Y-54928571D02*
X136452380Y-54928571D01*
X136452380Y-54547619D01*
X136500000Y-54452380D01*
X136547619Y-54404761D01*
X136642857Y-54357142D01*
X136785714Y-54357142D01*
X136880952Y-54404761D01*
X136928571Y-54452380D01*
X136976190Y-54547619D01*
X136976190Y-54928571D01*
X136452380Y-53309523D02*
X136452380Y-52738095D01*
X137452380Y-53023809D02*
X136452380Y-53023809D01*
X136785714Y-51976190D02*
X137452380Y-51976190D01*
X136785714Y-52404761D02*
X137309523Y-52404761D01*
X137404761Y-52357142D01*
X137452380Y-52261904D01*
X137452380Y-52119047D01*
X137404761Y-52023809D01*
X137357142Y-51976190D01*
X136785714Y-51500000D02*
X137452380Y-51500000D01*
X136880952Y-51500000D02*
X136833333Y-51452380D01*
X136785714Y-51357142D01*
X136785714Y-51214285D01*
X136833333Y-51119047D01*
X136928571Y-51071428D01*
X137452380Y-51071428D01*
X137404761Y-50214285D02*
X137452380Y-50309523D01*
X137452380Y-50500000D01*
X137404761Y-50595238D01*
X137309523Y-50642857D01*
X136928571Y-50642857D01*
X136833333Y-50595238D01*
X136785714Y-50500000D01*
X136785714Y-50309523D01*
X136833333Y-50214285D01*
X136928571Y-50166666D01*
X137023809Y-50166666D01*
X137119047Y-50642857D01*
X146452380Y-90202380D02*
X146119047Y-89726190D01*
X145880952Y-90202380D02*
X145880952Y-89202380D01*
X146261904Y-89202380D01*
X146357142Y-89250000D01*
X146404761Y-89297619D01*
X146452380Y-89392857D01*
X146452380Y-89535714D01*
X146404761Y-89630952D01*
X146357142Y-89678571D01*
X146261904Y-89726190D01*
X145880952Y-89726190D01*
X146738095Y-89202380D02*
X147071428Y-90202380D01*
X147404761Y-89202380D01*
X147642857Y-89202380D02*
X148261904Y-89202380D01*
X147928571Y-89583333D01*
X148071428Y-89583333D01*
X148166666Y-89630952D01*
X148214285Y-89678571D01*
X148261904Y-89773809D01*
X148261904Y-90011904D01*
X148214285Y-90107142D01*
X148166666Y-90154761D01*
X148071428Y-90202380D01*
X147785714Y-90202380D01*
X147690476Y-90154761D01*
X147642857Y-90107142D01*
X148880952Y-89202380D02*
X148976190Y-89202380D01*
X149071428Y-89250000D01*
X149119047Y-89297619D01*
X149166666Y-89392857D01*
X149214285Y-89583333D01*
X149214285Y-89821428D01*
X149166666Y-90011904D01*
X149119047Y-90107142D01*
X149071428Y-90154761D01*
X148976190Y-90202380D01*
X148880952Y-90202380D01*
X148785714Y-90154761D01*
X148738095Y-90107142D01*
X148690476Y-90011904D01*
X148642857Y-89821428D01*
X148642857Y-89583333D01*
X148690476Y-89392857D01*
X148738095Y-89297619D01*
X148785714Y-89250000D01*
X148880952Y-89202380D01*
X149595238Y-89297619D02*
X149642857Y-89250000D01*
X149738095Y-89202380D01*
X149976190Y-89202380D01*
X150071428Y-89250000D01*
X150119047Y-89297619D01*
X150166666Y-89392857D01*
X150166666Y-89488095D01*
X150119047Y-89630952D01*
X149547619Y-90202380D01*
X150166666Y-90202380D01*
X140452380Y-98857142D02*
X140452380Y-99428571D01*
X140452380Y-99142857D02*
X139452380Y-99142857D01*
X139595238Y-99238095D01*
X139690476Y-99333333D01*
X139738095Y-99428571D01*
X140452380Y-98428571D02*
X139452380Y-98428571D01*
X140166666Y-98095238D01*
X139452380Y-97761904D01*
X140452380Y-97761904D01*
X140452380Y-96523809D02*
X139452380Y-96523809D01*
X139452380Y-96285714D01*
X139500000Y-96142857D01*
X139595238Y-96047619D01*
X139690476Y-96000000D01*
X139880952Y-95952380D01*
X140023809Y-95952380D01*
X140214285Y-96000000D01*
X140309523Y-96047619D01*
X140404761Y-96142857D01*
X140452380Y-96285714D01*
X140452380Y-96523809D01*
X140404761Y-95142857D02*
X140452380Y-95238095D01*
X140452380Y-95428571D01*
X140404761Y-95523809D01*
X140309523Y-95571428D01*
X139928571Y-95571428D01*
X139833333Y-95523809D01*
X139785714Y-95428571D01*
X139785714Y-95238095D01*
X139833333Y-95142857D01*
X139928571Y-95095238D01*
X140023809Y-95095238D01*
X140119047Y-95571428D01*
X140404761Y-94238095D02*
X140452380Y-94333333D01*
X140452380Y-94523809D01*
X140404761Y-94619047D01*
X140357142Y-94666666D01*
X140261904Y-94714285D01*
X139976190Y-94714285D01*
X139880952Y-94666666D01*
X139833333Y-94619047D01*
X139785714Y-94523809D01*
X139785714Y-94333333D01*
X139833333Y-94238095D01*
X140452380Y-93380952D02*
X139928571Y-93380952D01*
X139833333Y-93428571D01*
X139785714Y-93523809D01*
X139785714Y-93714285D01*
X139833333Y-93809523D01*
X140404761Y-93380952D02*
X140452380Y-93476190D01*
X140452380Y-93714285D01*
X140404761Y-93809523D01*
X140309523Y-93857142D01*
X140214285Y-93857142D01*
X140119047Y-93809523D01*
X140071428Y-93714285D01*
X140071428Y-93476190D01*
X140023809Y-93380952D01*
X139785714Y-93000000D02*
X140452380Y-92761904D01*
X139785714Y-92523809D02*
X140452380Y-92761904D01*
X140690476Y-92857142D01*
X140738095Y-92904761D01*
X140785714Y-93000000D01*
X146452380Y-111202380D02*
X146119047Y-110726190D01*
X145880952Y-111202380D02*
X145880952Y-110202380D01*
X146261904Y-110202380D01*
X146357142Y-110250000D01*
X146404761Y-110297619D01*
X146452380Y-110392857D01*
X146452380Y-110535714D01*
X146404761Y-110630952D01*
X146357142Y-110678571D01*
X146261904Y-110726190D01*
X145880952Y-110726190D01*
X146738095Y-110202380D02*
X147071428Y-111202380D01*
X147404761Y-110202380D01*
X147642857Y-110202380D02*
X148261904Y-110202380D01*
X147928571Y-110583333D01*
X148071428Y-110583333D01*
X148166666Y-110630952D01*
X148214285Y-110678571D01*
X148261904Y-110773809D01*
X148261904Y-111011904D01*
X148214285Y-111107142D01*
X148166666Y-111154761D01*
X148071428Y-111202380D01*
X147785714Y-111202380D01*
X147690476Y-111154761D01*
X147642857Y-111107142D01*
X148880952Y-110202380D02*
X148976190Y-110202380D01*
X149071428Y-110250000D01*
X149119047Y-110297619D01*
X149166666Y-110392857D01*
X149214285Y-110583333D01*
X149214285Y-110821428D01*
X149166666Y-111011904D01*
X149119047Y-111107142D01*
X149071428Y-111154761D01*
X148976190Y-111202380D01*
X148880952Y-111202380D01*
X148785714Y-111154761D01*
X148738095Y-111107142D01*
X148690476Y-111011904D01*
X148642857Y-110821428D01*
X148642857Y-110583333D01*
X148690476Y-110392857D01*
X148738095Y-110297619D01*
X148785714Y-110250000D01*
X148880952Y-110202380D01*
X149547619Y-110202380D02*
X150166666Y-110202380D01*
X149833333Y-110583333D01*
X149976190Y-110583333D01*
X150071428Y-110630952D01*
X150119047Y-110678571D01*
X150166666Y-110773809D01*
X150166666Y-111011904D01*
X150119047Y-111107142D01*
X150071428Y-111154761D01*
X149976190Y-111202380D01*
X149690476Y-111202380D01*
X149595238Y-111154761D01*
X149547619Y-111107142D01*
X141452380Y-121166666D02*
X141452380Y-121738095D01*
X141452380Y-121452380D02*
X140452380Y-121452380D01*
X140595238Y-121547619D01*
X140690476Y-121642857D01*
X140738095Y-121738095D01*
X140452380Y-120547619D02*
X140452380Y-120452380D01*
X140500000Y-120357142D01*
X140547619Y-120309523D01*
X140642857Y-120261904D01*
X140833333Y-120214285D01*
X141071428Y-120214285D01*
X141261904Y-120261904D01*
X141357142Y-120309523D01*
X141404761Y-120357142D01*
X141452380Y-120452380D01*
X141452380Y-120547619D01*
X141404761Y-120642857D01*
X141357142Y-120690476D01*
X141261904Y-120738095D01*
X141071428Y-120785714D01*
X140833333Y-120785714D01*
X140642857Y-120738095D01*
X140547619Y-120690476D01*
X140500000Y-120642857D01*
X140452380Y-120547619D01*
X140452380Y-119595238D02*
X140452380Y-119500000D01*
X140500000Y-119404761D01*
X140547619Y-119357142D01*
X140642857Y-119309523D01*
X140833333Y-119261904D01*
X141071428Y-119261904D01*
X141261904Y-119309523D01*
X141357142Y-119357142D01*
X141404761Y-119404761D01*
X141452380Y-119500000D01*
X141452380Y-119595238D01*
X141404761Y-119690476D01*
X141357142Y-119738095D01*
X141261904Y-119785714D01*
X141071428Y-119833333D01*
X140833333Y-119833333D01*
X140642857Y-119785714D01*
X140547619Y-119738095D01*
X140500000Y-119690476D01*
X140452380Y-119595238D01*
X141452380Y-118833333D02*
X140452380Y-118833333D01*
X141071428Y-118738095D02*
X141452380Y-118452380D01*
X140785714Y-118452380D02*
X141166666Y-118833333D01*
X141166666Y-117309523D02*
X141166666Y-116833333D01*
X141452380Y-117404761D02*
X140452380Y-117071428D01*
X141452380Y-116738095D01*
X141452380Y-115166666D02*
X141452380Y-115642857D01*
X140452380Y-115642857D01*
X141404761Y-114452380D02*
X141452380Y-114547619D01*
X141452380Y-114738095D01*
X141404761Y-114833333D01*
X141309523Y-114880952D01*
X140928571Y-114880952D01*
X140833333Y-114833333D01*
X140785714Y-114738095D01*
X140785714Y-114547619D01*
X140833333Y-114452380D01*
X140928571Y-114404761D01*
X141023809Y-114404761D01*
X141119047Y-114880952D01*
X140785714Y-114071428D02*
X141452380Y-113833333D01*
X140785714Y-113595238D01*
X141404761Y-112833333D02*
X141452380Y-112928571D01*
X141452380Y-113119047D01*
X141404761Y-113214285D01*
X141309523Y-113261904D01*
X140928571Y-113261904D01*
X140833333Y-113214285D01*
X140785714Y-113119047D01*
X140785714Y-112928571D01*
X140833333Y-112833333D01*
X140928571Y-112785714D01*
X141023809Y-112785714D01*
X141119047Y-113261904D01*
X141452380Y-112214285D02*
X141404761Y-112309523D01*
X141309523Y-112357142D01*
X140452380Y-112357142D01*
X146452380Y-70202380D02*
X146119047Y-69726190D01*
X145880952Y-70202380D02*
X145880952Y-69202380D01*
X146261904Y-69202380D01*
X146357142Y-69250000D01*
X146404761Y-69297619D01*
X146452380Y-69392857D01*
X146452380Y-69535714D01*
X146404761Y-69630952D01*
X146357142Y-69678571D01*
X146261904Y-69726190D01*
X145880952Y-69726190D01*
X146738095Y-69202380D02*
X147071428Y-70202380D01*
X147404761Y-69202380D01*
X147642857Y-69202380D02*
X148261904Y-69202380D01*
X147928571Y-69583333D01*
X148071428Y-69583333D01*
X148166666Y-69630952D01*
X148214285Y-69678571D01*
X148261904Y-69773809D01*
X148261904Y-70011904D01*
X148214285Y-70107142D01*
X148166666Y-70154761D01*
X148071428Y-70202380D01*
X147785714Y-70202380D01*
X147690476Y-70154761D01*
X147642857Y-70107142D01*
X148880952Y-69202380D02*
X148976190Y-69202380D01*
X149071428Y-69250000D01*
X149119047Y-69297619D01*
X149166666Y-69392857D01*
X149214285Y-69583333D01*
X149214285Y-69821428D01*
X149166666Y-70011904D01*
X149119047Y-70107142D01*
X149071428Y-70154761D01*
X148976190Y-70202380D01*
X148880952Y-70202380D01*
X148785714Y-70154761D01*
X148738095Y-70107142D01*
X148690476Y-70011904D01*
X148642857Y-69821428D01*
X148642857Y-69583333D01*
X148690476Y-69392857D01*
X148738095Y-69297619D01*
X148785714Y-69250000D01*
X148880952Y-69202380D01*
X150071428Y-69535714D02*
X150071428Y-70202380D01*
X149833333Y-69154761D02*
X149595238Y-69869047D01*
X150214285Y-69869047D01*
X141452380Y-80761904D02*
X141452380Y-81333333D01*
X141452380Y-81047619D02*
X140452380Y-81047619D01*
X140595238Y-81142857D01*
X140690476Y-81238095D01*
X140738095Y-81333333D01*
X140452380Y-80142857D02*
X140452380Y-80047619D01*
X140500000Y-79952380D01*
X140547619Y-79904761D01*
X140642857Y-79857142D01*
X140833333Y-79809523D01*
X141071428Y-79809523D01*
X141261904Y-79857142D01*
X141357142Y-79904761D01*
X141404761Y-79952380D01*
X141452380Y-80047619D01*
X141452380Y-80142857D01*
X141404761Y-80238095D01*
X141357142Y-80285714D01*
X141261904Y-80333333D01*
X141071428Y-80380952D01*
X140833333Y-80380952D01*
X140642857Y-80333333D01*
X140547619Y-80285714D01*
X140500000Y-80238095D01*
X140452380Y-80142857D01*
X140452380Y-79190476D02*
X140452380Y-79095238D01*
X140500000Y-79000000D01*
X140547619Y-78952380D01*
X140642857Y-78904761D01*
X140833333Y-78857142D01*
X141071428Y-78857142D01*
X141261904Y-78904761D01*
X141357142Y-78952380D01*
X141404761Y-79000000D01*
X141452380Y-79095238D01*
X141452380Y-79190476D01*
X141404761Y-79285714D01*
X141357142Y-79333333D01*
X141261904Y-79380952D01*
X141071428Y-79428571D01*
X140833333Y-79428571D01*
X140642857Y-79380952D01*
X140547619Y-79333333D01*
X140500000Y-79285714D01*
X140452380Y-79190476D01*
X141452380Y-78428571D02*
X140452380Y-78428571D01*
X141071428Y-78333333D02*
X141452380Y-78047619D01*
X140785714Y-78047619D02*
X141166666Y-78428571D01*
X141166666Y-76904761D02*
X141166666Y-76428571D01*
X141452380Y-77000000D02*
X140452380Y-76666666D01*
X141452380Y-76333333D01*
X141452380Y-74666666D02*
X140976190Y-75000000D01*
X141452380Y-75238095D02*
X140452380Y-75238095D01*
X140452380Y-74857142D01*
X140500000Y-74761904D01*
X140547619Y-74714285D01*
X140642857Y-74666666D01*
X140785714Y-74666666D01*
X140880952Y-74714285D01*
X140928571Y-74761904D01*
X140976190Y-74857142D01*
X140976190Y-75238095D01*
X141404761Y-73857142D02*
X141452380Y-73952380D01*
X141452380Y-74142857D01*
X141404761Y-74238095D01*
X141309523Y-74285714D01*
X140928571Y-74285714D01*
X140833333Y-74238095D01*
X140785714Y-74142857D01*
X140785714Y-73952380D01*
X140833333Y-73857142D01*
X140928571Y-73809523D01*
X141023809Y-73809523D01*
X141119047Y-74285714D01*
X140785714Y-73476190D02*
X141452380Y-73238095D01*
X140785714Y-73000000D01*
X141404761Y-72238095D02*
X141452380Y-72333333D01*
X141452380Y-72523809D01*
X141404761Y-72619047D01*
X141309523Y-72666666D01*
X140928571Y-72666666D01*
X140833333Y-72619047D01*
X140785714Y-72523809D01*
X140785714Y-72333333D01*
X140833333Y-72238095D01*
X140928571Y-72190476D01*
X141023809Y-72190476D01*
X141119047Y-72666666D01*
X141452380Y-71761904D02*
X140785714Y-71761904D01*
X140976190Y-71761904D02*
X140880952Y-71714285D01*
X140833333Y-71666666D01*
X140785714Y-71571428D01*
X140785714Y-71476190D01*
X141452380Y-71142857D02*
X140452380Y-71142857D01*
X140833333Y-71142857D02*
X140785714Y-71047619D01*
X140785714Y-70857142D01*
X140833333Y-70761904D01*
X140880952Y-70714285D01*
X140976190Y-70666666D01*
X141261904Y-70666666D01*
X141357142Y-70714285D01*
X141404761Y-70761904D01*
X141452380Y-70857142D01*
X141452380Y-71047619D01*
X141404761Y-71142857D01*
X142213809Y-75832380D02*
X142404285Y-75832380D01*
X142499523Y-75880000D01*
X142594761Y-75975238D01*
X142642380Y-76165714D01*
X142642380Y-76499047D01*
X142594761Y-76689523D01*
X142499523Y-76784761D01*
X142404285Y-76832380D01*
X142213809Y-76832380D01*
X142118571Y-76784761D01*
X142023333Y-76689523D01*
X141975714Y-76499047D01*
X141975714Y-76165714D01*
X142023333Y-75975238D01*
X142118571Y-75880000D01*
X142213809Y-75832380D01*
X143023333Y-76784761D02*
X143166190Y-76832380D01*
X143404285Y-76832380D01*
X143499523Y-76784761D01*
X143547142Y-76737142D01*
X143594761Y-76641904D01*
X143594761Y-76546666D01*
X143547142Y-76451428D01*
X143499523Y-76403809D01*
X143404285Y-76356190D01*
X143213809Y-76308571D01*
X143118571Y-76260952D01*
X143070952Y-76213333D01*
X143023333Y-76118095D01*
X143023333Y-76022857D01*
X143070952Y-75927619D01*
X143118571Y-75880000D01*
X143213809Y-75832380D01*
X143451904Y-75832380D01*
X143594761Y-75880000D01*
X144594761Y-76737142D02*
X144547142Y-76784761D01*
X144404285Y-76832380D01*
X144309047Y-76832380D01*
X144166190Y-76784761D01*
X144070952Y-76689523D01*
X144023333Y-76594285D01*
X143975714Y-76403809D01*
X143975714Y-76260952D01*
X144023333Y-76070476D01*
X144070952Y-75975238D01*
X144166190Y-75880000D01*
X144309047Y-75832380D01*
X144404285Y-75832380D01*
X144547142Y-75880000D01*
X144594761Y-75927619D01*
X145547142Y-76832380D02*
X144975714Y-76832380D01*
X145261428Y-76832380D02*
X145261428Y-75832380D01*
X145166190Y-75975238D01*
X145070952Y-76070476D01*
X144975714Y-76118095D01*
X146309047Y-76308571D02*
X145975714Y-76308571D01*
X145975714Y-76832380D02*
X145975714Y-75832380D01*
X146451904Y-75832380D01*
X104214285Y-84991761D02*
X104357142Y-85039380D01*
X104595238Y-85039380D01*
X104690476Y-84991761D01*
X104738095Y-84944142D01*
X104785714Y-84848904D01*
X104785714Y-84753666D01*
X104738095Y-84658428D01*
X104690476Y-84610809D01*
X104595238Y-84563190D01*
X104404761Y-84515571D01*
X104309523Y-84467952D01*
X104261904Y-84420333D01*
X104214285Y-84325095D01*
X104214285Y-84229857D01*
X104261904Y-84134619D01*
X104309523Y-84087000D01*
X104404761Y-84039380D01*
X104642857Y-84039380D01*
X104785714Y-84087000D01*
X105119047Y-84039380D02*
X105357142Y-85039380D01*
X105547619Y-84325095D01*
X105738095Y-85039380D01*
X105976190Y-84039380D01*
X106261904Y-84039380D02*
X106880952Y-84039380D01*
X106547619Y-84420333D01*
X106690476Y-84420333D01*
X106785714Y-84467952D01*
X106833333Y-84515571D01*
X106880952Y-84610809D01*
X106880952Y-84848904D01*
X106833333Y-84944142D01*
X106785714Y-84991761D01*
X106690476Y-85039380D01*
X106404761Y-85039380D01*
X106309523Y-84991761D01*
X106261904Y-84944142D01*
X107500000Y-84039380D02*
X107595238Y-84039380D01*
X107690476Y-84087000D01*
X107738095Y-84134619D01*
X107785714Y-84229857D01*
X107833333Y-84420333D01*
X107833333Y-84658428D01*
X107785714Y-84848904D01*
X107738095Y-84944142D01*
X107690476Y-84991761D01*
X107595238Y-85039380D01*
X107500000Y-85039380D01*
X107404761Y-84991761D01*
X107357142Y-84944142D01*
X107309523Y-84848904D01*
X107261904Y-84658428D01*
X107261904Y-84420333D01*
X107309523Y-84229857D01*
X107357142Y-84134619D01*
X107404761Y-84087000D01*
X107500000Y-84039380D01*
X108785714Y-85039380D02*
X108214285Y-85039380D01*
X108500000Y-85039380D02*
X108500000Y-84039380D01*
X108404761Y-84182238D01*
X108309523Y-84277476D01*
X108214285Y-84325095D01*
X103880952Y-79357142D02*
X103833333Y-79404761D01*
X103690476Y-79452380D01*
X103595238Y-79452380D01*
X103452380Y-79404761D01*
X103357142Y-79309523D01*
X103309523Y-79214285D01*
X103261904Y-79023809D01*
X103261904Y-78880952D01*
X103309523Y-78690476D01*
X103357142Y-78595238D01*
X103452380Y-78500000D01*
X103595238Y-78452380D01*
X103690476Y-78452380D01*
X103833333Y-78500000D01*
X103880952Y-78547619D01*
X104452380Y-79452380D02*
X104357142Y-79404761D01*
X104309523Y-79357142D01*
X104261904Y-79261904D01*
X104261904Y-78976190D01*
X104309523Y-78880952D01*
X104357142Y-78833333D01*
X104452380Y-78785714D01*
X104595238Y-78785714D01*
X104690476Y-78833333D01*
X104738095Y-78880952D01*
X104785714Y-78976190D01*
X104785714Y-79261904D01*
X104738095Y-79357142D01*
X104690476Y-79404761D01*
X104595238Y-79452380D01*
X104452380Y-79452380D01*
X105214285Y-78785714D02*
X105214285Y-79452380D01*
X105214285Y-78880952D02*
X105261904Y-78833333D01*
X105357142Y-78785714D01*
X105500000Y-78785714D01*
X105595238Y-78833333D01*
X105642857Y-78928571D01*
X105642857Y-79452380D01*
X106833333Y-78404761D02*
X105976190Y-79690476D01*
X107023809Y-78452380D02*
X107595238Y-78452380D01*
X107309523Y-79452380D02*
X107309523Y-78452380D01*
X108071428Y-79452380D02*
X107976190Y-79404761D01*
X107928571Y-79357142D01*
X107880952Y-79261904D01*
X107880952Y-78976190D01*
X107928571Y-78880952D01*
X107976190Y-78833333D01*
X108071428Y-78785714D01*
X108214285Y-78785714D01*
X108309523Y-78833333D01*
X108357142Y-78880952D01*
X108404761Y-78976190D01*
X108404761Y-79261904D01*
X108357142Y-79357142D01*
X108309523Y-79404761D01*
X108214285Y-79452380D01*
X108071428Y-79452380D01*
X108833333Y-79452380D02*
X108833333Y-78785714D01*
X108833333Y-78880952D02*
X108880952Y-78833333D01*
X108976190Y-78785714D01*
X109119047Y-78785714D01*
X109214285Y-78833333D01*
X109261904Y-78928571D01*
X109261904Y-79452380D01*
X109261904Y-78928571D02*
X109309523Y-78833333D01*
X109404761Y-78785714D01*
X109547619Y-78785714D01*
X109642857Y-78833333D01*
X109690476Y-78928571D01*
X109690476Y-79452380D01*
D18*
X104714285Y-147089285D02*
X104714285Y-147625000D01*
X104666666Y-147732142D01*
X104571428Y-147803571D01*
X104428571Y-147839285D01*
X104333333Y-147839285D01*
X105095238Y-147089285D02*
X105714285Y-147089285D01*
X105380952Y-147375000D01*
X105523809Y-147375000D01*
X105619047Y-147410714D01*
X105666666Y-147446428D01*
X105714285Y-147517857D01*
X105714285Y-147696428D01*
X105666666Y-147767857D01*
X105619047Y-147803571D01*
X105523809Y-147839285D01*
X105238095Y-147839285D01*
X105142857Y-147803571D01*
X105095238Y-147767857D01*
X106333333Y-147089285D02*
X106428571Y-147089285D01*
X106523809Y-147125000D01*
X106571428Y-147160714D01*
X106619047Y-147232142D01*
X106666666Y-147375000D01*
X106666666Y-147553571D01*
X106619047Y-147696428D01*
X106571428Y-147767857D01*
X106523809Y-147803571D01*
X106428571Y-147839285D01*
X106333333Y-147839285D01*
X106238095Y-147803571D01*
X106190476Y-147767857D01*
X106142857Y-147696428D01*
X106095238Y-147553571D01*
X106095238Y-147375000D01*
X106142857Y-147232142D01*
X106190476Y-147160714D01*
X106238095Y-147125000D01*
X106333333Y-147089285D01*
X107619047Y-147839285D02*
X107047619Y-147839285D01*
X107333333Y-147839285D02*
X107333333Y-147089285D01*
X107238095Y-147196428D01*
X107142857Y-147267857D01*
X107047619Y-147303571D01*
D16*
X102119047Y-135452380D02*
X102119047Y-134452380D01*
X102690476Y-135452380D01*
X102690476Y-134452380D01*
X103309523Y-135452380D02*
X103214285Y-135404761D01*
X103166666Y-135357142D01*
X103119047Y-135261904D01*
X103119047Y-134976190D01*
X103166666Y-134880952D01*
X103214285Y-134833333D01*
X103309523Y-134785714D01*
X103452380Y-134785714D01*
X103547619Y-134833333D01*
X103595238Y-134880952D01*
X103642857Y-134976190D01*
X103642857Y-135261904D01*
X103595238Y-135357142D01*
X103547619Y-135404761D01*
X103452380Y-135452380D01*
X103309523Y-135452380D01*
X104071428Y-135452380D02*
X104071428Y-134785714D01*
X104071428Y-134452380D02*
X104023809Y-134500000D01*
X104071428Y-134547619D01*
X104119047Y-134500000D01*
X104071428Y-134452380D01*
X104071428Y-134547619D01*
X104500000Y-135404761D02*
X104595238Y-135452380D01*
X104785714Y-135452380D01*
X104880952Y-135404761D01*
X104928571Y-135309523D01*
X104928571Y-135261904D01*
X104880952Y-135166666D01*
X104785714Y-135119047D01*
X104642857Y-135119047D01*
X104547619Y-135071428D01*
X104500000Y-134976190D01*
X104500000Y-134928571D01*
X104547619Y-134833333D01*
X104642857Y-134785714D01*
X104785714Y-134785714D01*
X104880952Y-134833333D01*
X105738095Y-135404761D02*
X105642857Y-135452380D01*
X105452380Y-135452380D01*
X105357142Y-135404761D01*
X105309523Y-135309523D01*
X105309523Y-134928571D01*
X105357142Y-134833333D01*
X105452380Y-134785714D01*
X105642857Y-134785714D01*
X105738095Y-134833333D01*
X105785714Y-134928571D01*
X105785714Y-135023809D01*
X105309523Y-135119047D01*
X105976190Y-135547619D02*
X106738095Y-135547619D01*
X106976190Y-135452380D02*
X106976190Y-134452380D01*
X107452380Y-134785714D02*
X107452380Y-135452380D01*
X107452380Y-134880952D02*
X107500000Y-134833333D01*
X107595238Y-134785714D01*
X107738095Y-134785714D01*
X107833333Y-134833333D01*
X107880952Y-134928571D01*
X107880952Y-135452380D01*
M02*
