M48
; DRILL file {KiCad (5.1.0)-1} date 04/10/2019 20:50:28
; FORMAT={-:-/ absolute / metric / decimal}
; #@! TF.CreationDate,2019-10-04T20:50:28+02:00
; #@! TF.GenerationSoftware,Kicad,Pcbnew,(5.1.0)-1
; #@! TF.FileFunction,Plated,1,2,PTH
FMAT,2
METRIC
T1C0.400
T2C0.500
T3C0.600
T4C0.800
T5C1.000
T6C1.016
T7C1.150
T8C1.300
T9C2.200
T10C2.500
%
G90
G05
T1
X51.1Y-93.8
X51.25Y-108.75
X51.4Y-105.5
X51.5Y-51.75
X51.5Y-75.5
X51.5Y-82.5
X51.5Y-140.5
X53.25Y-122.0
X55.0Y-140.5
X55.25Y-132.25
X55.254Y-114.084
X57.0Y-57.0
X58.325Y-60.872
X59.943Y-82.557
X60.0Y-132.25
X60.25Y-95.0
X60.25Y-116.0
X60.25Y-126.5
X60.338Y-58.412
X60.5Y-68.25
X60.5Y-73.0
X60.5Y-91.5
X60.7Y-64.25
X60.9Y-108.0
X61.3Y-111.5
X61.5Y-93.0
X61.507Y-82.493
X61.85Y-62.839
X61.95Y-73.0
X62.5Y-105.0
X63.0Y-73.0
X63.075Y-111.5
X63.175Y-68.175
X63.3Y-108.159
X64.0Y-112.25
X64.025Y-105.0
X64.548Y-62.5
X64.75Y-52.25
X64.9Y-57.4
X65.4Y-125.0
X65.5Y-103.25
X65.5Y-104.75
X65.7Y-72.5
X68.25Y-66.25
X68.5Y-126.5
X68.647Y-78.103
X69.05Y-136.2
X69.653Y-76.847
X70.155Y-66.25
X71.25Y-103.25
X71.25Y-104.75
X71.5Y-118.75
X71.796Y-66.454
X72.0Y-81.75
X72.0Y-128.33
X72.0Y-129.83
X72.47Y-123.47
X72.987Y-54.987
X73.0Y-62.0
X73.0Y-68.0
X73.1Y-112.0
X73.296Y-122.644
X73.3Y-87.5
X73.65Y-104.0
X73.65Y-83.5
X73.65Y-84.5
X73.65Y-92.0
X73.65Y-92.918
X73.775Y-126.5
X73.97Y-71.03
X74.25Y-76.75
X75.575Y-125.0
X75.659Y-124.154
X75.694Y-126.381
X75.8Y-83.5
X75.8Y-84.5
X75.8Y-92.0
X75.8Y-93.0
X75.85Y-76.75
X76.0Y-81.0
X76.0Y-87.5
X76.0Y-104.0
X76.2Y-111.9
X76.25Y-70.75
X77.0Y-82.0
X77.25Y-103.25
X77.25Y-104.75
X77.9Y-71.7
X78.0Y-68.25
X80.0Y-107.75
X81.7Y-107.3
X82.75Y-94.42
X83.25Y-87.75
X83.25Y-95.77
X84.1Y-63.8
X84.7Y-129.2
X85.0Y-62.0
X85.8Y-90.4
X86.2Y-129.2
X86.6Y-52.3
X86.65Y-63.7
X87.97Y-69.03
X88.3Y-61.8
X88.5Y-99.0
X88.5Y-104.0
X88.9Y-54.9
X89.25Y-51.5
X89.25Y-80.75
X90.03Y-68.97
X92.25Y-113.25
X93.75Y-83.5
X94.0Y-103.0
X95.22Y-76.28
X95.75Y-105.75
X96.2Y-100.9
X96.775Y-76.25
X97.0Y-91.5
X97.0Y-99.5
X103.0Y-144.0
X107.5Y-122.5
X110.956Y-137.456
X111.0Y-144.0
X111.7Y-117.5
X112.0Y-131.5
X112.0Y-138.5
X113.2Y-117.5
X113.75Y-131.5
X114.0Y-84.0
X114.0Y-86.0
X114.0Y-93.0
X114.0Y-101.0
X115.0Y-122.5
X115.0Y-123.65
X117.0Y-127.5
X118.5Y-69.0
X119.0Y-73.0
X119.0Y-105.5
X119.0Y-144.0
X119.014Y-71.012
X119.25Y-69.962
X119.25Y-91.5
X120.0Y-86.5
X120.0Y-115.5
X120.0Y-119.0
X120.0Y-122.0
X120.047Y-67.953
X120.566Y-68.895
X120.75Y-70.115
X120.8Y-73.0
X121.0Y-68.0
X121.0Y-76.0
X121.0Y-106.0
X121.75Y-91.5
X123.0Y-86.5
X124.5Y-130.5
X125.5Y-116.2
X125.5Y-117.5
X126.0Y-61.0
X126.0Y-64.0
X126.0Y-67.0
X126.0Y-76.0
X126.0Y-85.0
X126.0Y-93.0
X126.0Y-101.0
X128.196Y-122.196
X128.5Y-118.0
X128.5Y-124.225
X129.0Y-78.0
X129.5Y-114.0
X130.0Y-95.0
X133.0Y-144.0
X133.743Y-73.445
X134.0Y-110.0
X134.0Y-122.0
X134.0Y-125.0
X134.344Y-72.844
X134.446Y-115.946
X134.5Y-75.0
X134.657Y-74.157
X135.259Y-116.759
X137.0Y-85.0
X140.0Y-114.0
X141.35Y-93.0
X143.1Y-93.0
X144.0Y-101.0
X144.0Y-125.0
X146.0Y-62.0
X146.0Y-72.0
X146.0Y-78.0
X146.0Y-82.0
X148.0Y-66.0
X137.85Y-89.5
X138.333Y-88.333
X138.333Y-90.667
X139.5Y-87.85
X139.5Y-91.15
X140.667Y-88.333
X140.667Y-90.667
X141.15Y-89.5
X105.35Y-131.5
X105.833Y-130.333
X105.833Y-132.667
X107.0Y-129.85
X107.0Y-133.15
X108.167Y-130.333
X108.167Y-132.667
X108.65Y-131.5
X87.1Y-132.75
X87.583Y-131.583
X87.583Y-133.917
X88.75Y-131.1
X88.75Y-134.4
X89.917Y-131.583
X89.917Y-133.917
X90.4Y-132.75
T2
X138.125Y-131.5
X138.674Y-130.174
X138.674Y-132.826
X140.0Y-129.625
X140.0Y-133.375
X141.326Y-130.174
X141.326Y-132.826
X141.875Y-131.5
X138.125Y-59.0
X138.674Y-57.674
X138.674Y-60.326
X140.0Y-57.125
X140.0Y-60.875
X141.326Y-57.674
X141.326Y-60.326
X141.875Y-59.0
T4
X79.92Y-69.0
X82.46Y-69.0
X85.0Y-69.0
X79.92Y-53.0
X82.46Y-53.0
X85.0Y-53.0
T5
X61.0Y-52.0
X81.0Y-74.0
X83.54Y-74.0
T6
X91.46Y-55.84
X91.46Y-58.38
X91.46Y-60.92
X91.46Y-63.46
X91.46Y-66.0
X94.0Y-55.84
X94.0Y-58.38
X94.0Y-60.92
X94.0Y-63.46
X94.0Y-66.0
X104.96Y-55.84
X104.96Y-58.38
X104.96Y-60.92
X104.96Y-63.46
X104.96Y-66.0
X107.5Y-55.84
X107.5Y-58.38
X107.5Y-60.92
X107.5Y-63.46
X107.5Y-66.0
T8
X148.0Y-115.0
X148.0Y-120.0
X148.0Y-125.0
X53.2Y-114.9
X53.2Y-119.9
X53.2Y-124.9
X136.7Y-139.5
X139.9Y-148.8
X141.1Y-146.1
X144.0Y-139.0
X147.9Y-143.6
X51.7Y-143.8
X55.6Y-148.4
X58.5Y-141.3
X59.7Y-138.6
X62.9Y-147.9
X148.0Y-74.0
X148.0Y-79.0
X148.0Y-84.0
X53.2Y-74.0
X53.2Y-79.0
X53.2Y-84.0
X53.2Y-53.3
X53.2Y-58.3
X53.2Y-63.3
X148.0Y-94.0
X148.0Y-99.0
X148.0Y-104.0
X148.0Y-54.0
X148.0Y-59.0
X148.0Y-64.0
X53.2Y-94.5
X53.2Y-99.5
X53.2Y-104.5
T9
X139.5Y-89.5
X107.0Y-131.5
X88.75Y-132.75
T10
X140.0Y-131.5
X140.0Y-59.0
T2
G00X106.8Y-148.92
M15
G01X105.2Y-148.92
M16
G05
G00X115.8Y-148.92
M15
G01X114.2Y-148.92
M16
G05
G00X125.8Y-148.92
M15
G01X124.2Y-148.92
M16
G05
G00X82.7Y-137.18
M15
G01X84.3Y-137.18
M16
G05
G00X72.7Y-137.18
M15
G01X74.3Y-137.18
M16
G05
T3
G00X125.4Y-137.52
M15
G01X124.6Y-137.52
M16
G05
G00X125.7Y-140.62
M15
G01X124.3Y-140.62
M16
G05
G00X82.8Y-145.48
M15
G01X84.2Y-145.48
M16
G05
G00X83.1Y-148.58
M15
G01X83.9Y-148.58
M16
G05
G00X72.8Y-145.48
M15
G01X74.2Y-145.48
M16
G05
G00X73.1Y-148.58
M15
G01X73.9Y-148.58
M16
G05
G00X106.4Y-137.52
M15
G01X105.6Y-137.52
M16
G05
G00X106.7Y-140.62
M15
G01X105.3Y-140.62
M16
G05
G00X115.4Y-137.52
M15
G01X114.6Y-137.52
M16
G05
G00X115.7Y-140.62
M15
G01X114.3Y-140.62
M16
G05
T7
G00X104.406Y-82.3
M15
G01X103.006Y-82.3
M16
G05
G00X104.406Y-87.0
M15
G01X103.006Y-87.0
M16
G05
G00X104.406Y-91.7
M15
G01X103.006Y-91.7
M16
G05
G00X109.994Y-82.3
M15
G01X108.594Y-82.3
M16
G05
G00X109.994Y-87.0
M15
G01X108.594Y-87.0
M16
G05
G00X109.994Y-91.7
M15
G01X108.594Y-91.7
M16
G05
G00X88.712Y-115.3
M15
G01X90.112Y-115.3
M16
G05
G00X88.712Y-120.0
M15
G01X90.112Y-120.0
M16
G05
G00X88.712Y-124.7
M15
G01X90.112Y-124.7
M16
G05
G00X94.3Y-115.3
M15
G01X95.7Y-115.3
M16
G05
G00X94.3Y-120.0
M15
G01X95.7Y-120.0
M16
G05
G00X94.3Y-124.7
M15
G01X95.7Y-124.7
M16
G05
T0
M30
