%TF.GenerationSoftware,KiCad,Pcbnew,(5.1.0)-1*%
%TF.CreationDate,2019-10-04T20:50:26+02:00*%
%TF.ProjectId,KicadJE_AteOhAte,4b696361-644a-4455-9f41-74654f684174,rev?*%
%TF.SameCoordinates,Original*%
%TF.FileFunction,Soldermask,Top*%
%TF.FilePolarity,Negative*%
%FSLAX46Y46*%
G04 Gerber Fmt 4.6, Leading zero omitted, Abs format (unit mm)*
G04 Created by KiCad (PCBNEW (5.1.0)-1) date 2019-10-04 20:50:26*
%MOMM*%
%LPD*%
G04 APERTURE LIST*
%ADD10C,1.000000*%
%ADD11C,0.050000*%
%ADD12C,0.150000*%
G04 APERTURE END LIST*
D10*
X99000000Y-59000000D02*
X100000000Y-59000000D01*
X99000000Y-139000000D02*
X100000000Y-139000000D01*
X100000000Y-59000000D02*
X100000000Y-139000000D01*
X99000000Y-59000000D02*
X99000000Y-139000000D01*
D11*
X50000000Y-150000000D02*
X50000000Y-50000000D01*
X150000000Y-150000000D02*
X50000000Y-150000000D01*
X150000000Y-50000000D02*
X150000000Y-150000000D01*
X50000000Y-50000000D02*
X150000000Y-50000000D01*
D12*
G36*
X63125634Y-145865654D02*
G01*
X63342599Y-145931470D01*
X63342601Y-145931471D01*
X63542553Y-146038347D01*
X63542555Y-146038348D01*
X63542554Y-146038348D01*
X63717818Y-146182182D01*
X63782652Y-146261183D01*
X63861653Y-146357445D01*
X63960619Y-146542600D01*
X63968530Y-146557400D01*
X64034346Y-146774365D01*
X64051000Y-146943457D01*
X64051000Y-148856543D01*
X64034346Y-149025635D01*
X64018758Y-149077023D01*
X63968529Y-149242602D01*
X63861653Y-149442555D01*
X63717818Y-149617818D01*
X63542555Y-149761653D01*
X63342602Y-149868529D01*
X63342600Y-149868530D01*
X63125635Y-149934346D01*
X62900000Y-149956569D01*
X62674366Y-149934346D01*
X62457401Y-149868530D01*
X62457399Y-149868529D01*
X62257446Y-149761653D01*
X62082183Y-149617818D01*
X61938348Y-149442555D01*
X61831472Y-149242602D01*
X61781244Y-149077023D01*
X61765655Y-149025635D01*
X61749000Y-148856543D01*
X61749000Y-146943458D01*
X61765654Y-146774366D01*
X61831470Y-146557401D01*
X61938348Y-146357446D01*
X62082182Y-146182182D01*
X62182321Y-146100000D01*
X62257445Y-146038347D01*
X62457398Y-145931471D01*
X62457400Y-145931470D01*
X62674365Y-145865654D01*
X62900000Y-145843431D01*
X63125634Y-145865654D01*
X63125634Y-145865654D01*
G37*
G36*
X140969271Y-147660103D02*
G01*
X141025635Y-147665654D01*
X141242600Y-147731470D01*
X141242602Y-147731471D01*
X141442555Y-147838347D01*
X141617818Y-147982182D01*
X141761653Y-148157445D01*
X141865038Y-148350867D01*
X141868530Y-148357400D01*
X141934346Y-148574365D01*
X141956569Y-148800000D01*
X141934346Y-149025635D01*
X141918758Y-149077023D01*
X141868529Y-149242602D01*
X141761653Y-149442555D01*
X141617818Y-149617818D01*
X141442555Y-149761653D01*
X141242602Y-149868529D01*
X141242600Y-149868530D01*
X141025635Y-149934346D01*
X140969271Y-149939897D01*
X140856545Y-149951000D01*
X138943455Y-149951000D01*
X138830729Y-149939897D01*
X138774365Y-149934346D01*
X138557400Y-149868530D01*
X138557398Y-149868529D01*
X138357445Y-149761653D01*
X138182182Y-149617818D01*
X138038347Y-149442555D01*
X137931471Y-149242602D01*
X137881243Y-149077023D01*
X137865654Y-149025635D01*
X137843431Y-148800000D01*
X137865654Y-148574365D01*
X137931470Y-148357400D01*
X137934962Y-148350867D01*
X138038347Y-148157445D01*
X138182182Y-147982182D01*
X138357445Y-147838347D01*
X138557398Y-147731471D01*
X138557400Y-147731470D01*
X138774365Y-147665654D01*
X138830729Y-147660103D01*
X138943455Y-147649000D01*
X140856545Y-147649000D01*
X140969271Y-147660103D01*
X140969271Y-147660103D01*
G37*
G36*
X125728571Y-148122863D02*
G01*
X125807023Y-148130590D01*
X125895552Y-148157445D01*
X125958013Y-148176392D01*
X126097165Y-148250771D01*
X126219133Y-148350867D01*
X126319229Y-148472835D01*
X126393608Y-148611987D01*
X126393608Y-148611988D01*
X126439410Y-148762977D01*
X126454875Y-148920000D01*
X126439410Y-149077023D01*
X126408875Y-149177682D01*
X126393608Y-149228013D01*
X126319229Y-149367165D01*
X126219133Y-149489133D01*
X126097165Y-149589229D01*
X125958013Y-149663608D01*
X125907682Y-149678875D01*
X125807023Y-149709410D01*
X125728571Y-149717137D01*
X125689346Y-149721000D01*
X124310654Y-149721000D01*
X124271429Y-149717137D01*
X124192977Y-149709410D01*
X124092318Y-149678875D01*
X124041987Y-149663608D01*
X123902835Y-149589229D01*
X123780867Y-149489133D01*
X123680771Y-149367165D01*
X123606392Y-149228013D01*
X123591125Y-149177682D01*
X123560590Y-149077023D01*
X123545125Y-148920000D01*
X123560590Y-148762977D01*
X123606392Y-148611988D01*
X123606392Y-148611987D01*
X123680771Y-148472835D01*
X123780867Y-148350867D01*
X123902835Y-148250771D01*
X124041987Y-148176392D01*
X124104448Y-148157445D01*
X124192977Y-148130590D01*
X124271429Y-148122863D01*
X124310654Y-148119000D01*
X125689346Y-148119000D01*
X125728571Y-148122863D01*
X125728571Y-148122863D01*
G37*
G36*
X106728571Y-148122863D02*
G01*
X106807023Y-148130590D01*
X106895552Y-148157445D01*
X106958013Y-148176392D01*
X107097165Y-148250771D01*
X107219133Y-148350867D01*
X107319229Y-148472835D01*
X107393608Y-148611987D01*
X107393608Y-148611988D01*
X107439410Y-148762977D01*
X107454875Y-148920000D01*
X107439410Y-149077023D01*
X107408875Y-149177682D01*
X107393608Y-149228013D01*
X107319229Y-149367165D01*
X107219133Y-149489133D01*
X107097165Y-149589229D01*
X106958013Y-149663608D01*
X106907682Y-149678875D01*
X106807023Y-149709410D01*
X106728571Y-149717137D01*
X106689346Y-149721000D01*
X105310654Y-149721000D01*
X105271429Y-149717137D01*
X105192977Y-149709410D01*
X105092318Y-149678875D01*
X105041987Y-149663608D01*
X104902835Y-149589229D01*
X104780867Y-149489133D01*
X104680771Y-149367165D01*
X104606392Y-149228013D01*
X104591125Y-149177682D01*
X104560590Y-149077023D01*
X104545125Y-148920000D01*
X104560590Y-148762977D01*
X104606392Y-148611988D01*
X104606392Y-148611987D01*
X104680771Y-148472835D01*
X104780867Y-148350867D01*
X104902835Y-148250771D01*
X105041987Y-148176392D01*
X105104448Y-148157445D01*
X105192977Y-148130590D01*
X105271429Y-148122863D01*
X105310654Y-148119000D01*
X106689346Y-148119000D01*
X106728571Y-148122863D01*
X106728571Y-148122863D01*
G37*
G36*
X115728571Y-148122863D02*
G01*
X115807023Y-148130590D01*
X115895552Y-148157445D01*
X115958013Y-148176392D01*
X116097165Y-148250771D01*
X116219133Y-148350867D01*
X116319229Y-148472835D01*
X116393608Y-148611987D01*
X116393608Y-148611988D01*
X116439410Y-148762977D01*
X116454875Y-148920000D01*
X116439410Y-149077023D01*
X116408875Y-149177682D01*
X116393608Y-149228013D01*
X116319229Y-149367165D01*
X116219133Y-149489133D01*
X116097165Y-149589229D01*
X115958013Y-149663608D01*
X115907682Y-149678875D01*
X115807023Y-149709410D01*
X115728571Y-149717137D01*
X115689346Y-149721000D01*
X114310654Y-149721000D01*
X114271429Y-149717137D01*
X114192977Y-149709410D01*
X114092318Y-149678875D01*
X114041987Y-149663608D01*
X113902835Y-149589229D01*
X113780867Y-149489133D01*
X113680771Y-149367165D01*
X113606392Y-149228013D01*
X113591125Y-149177682D01*
X113560590Y-149077023D01*
X113545125Y-148920000D01*
X113560590Y-148762977D01*
X113606392Y-148611988D01*
X113606392Y-148611987D01*
X113680771Y-148472835D01*
X113780867Y-148350867D01*
X113902835Y-148250771D01*
X114041987Y-148176392D01*
X114104448Y-148157445D01*
X114192977Y-148130590D01*
X114271429Y-148122863D01*
X114310654Y-148119000D01*
X115689346Y-148119000D01*
X115728571Y-148122863D01*
X115728571Y-148122863D01*
G37*
G36*
X57651000Y-149551000D02*
G01*
X53549000Y-149551000D01*
X53549000Y-147249000D01*
X57651000Y-147249000D01*
X57651000Y-149551000D01*
X57651000Y-149551000D01*
G37*
G36*
X74066823Y-147741313D02*
G01*
X74227242Y-147789976D01*
X74359906Y-147860886D01*
X74375078Y-147868996D01*
X74504659Y-147975341D01*
X74611004Y-148104922D01*
X74611005Y-148104924D01*
X74690024Y-148252758D01*
X74738687Y-148413177D01*
X74755117Y-148580000D01*
X74738687Y-148746823D01*
X74690024Y-148907242D01*
X74619114Y-149039906D01*
X74611004Y-149055078D01*
X74504659Y-149184659D01*
X74375078Y-149291004D01*
X74375076Y-149291005D01*
X74227242Y-149370024D01*
X74066823Y-149418687D01*
X73941804Y-149431000D01*
X73058196Y-149431000D01*
X72933177Y-149418687D01*
X72772758Y-149370024D01*
X72624924Y-149291005D01*
X72624922Y-149291004D01*
X72495341Y-149184659D01*
X72388996Y-149055078D01*
X72380886Y-149039906D01*
X72309976Y-148907242D01*
X72261313Y-148746823D01*
X72244883Y-148580000D01*
X72261313Y-148413177D01*
X72309976Y-148252758D01*
X72388995Y-148104924D01*
X72388996Y-148104922D01*
X72495341Y-147975341D01*
X72624922Y-147868996D01*
X72640094Y-147860886D01*
X72772758Y-147789976D01*
X72933177Y-147741313D01*
X73058196Y-147729000D01*
X73941804Y-147729000D01*
X74066823Y-147741313D01*
X74066823Y-147741313D01*
G37*
G36*
X84066823Y-147741313D02*
G01*
X84227242Y-147789976D01*
X84359906Y-147860886D01*
X84375078Y-147868996D01*
X84504659Y-147975341D01*
X84611004Y-148104922D01*
X84611005Y-148104924D01*
X84690024Y-148252758D01*
X84738687Y-148413177D01*
X84755117Y-148580000D01*
X84738687Y-148746823D01*
X84690024Y-148907242D01*
X84619114Y-149039906D01*
X84611004Y-149055078D01*
X84504659Y-149184659D01*
X84375078Y-149291004D01*
X84375076Y-149291005D01*
X84227242Y-149370024D01*
X84066823Y-149418687D01*
X83941804Y-149431000D01*
X83058196Y-149431000D01*
X82933177Y-149418687D01*
X82772758Y-149370024D01*
X82624924Y-149291005D01*
X82624922Y-149291004D01*
X82495341Y-149184659D01*
X82388996Y-149055078D01*
X82380886Y-149039906D01*
X82309976Y-148907242D01*
X82261313Y-148746823D01*
X82244883Y-148580000D01*
X82261313Y-148413177D01*
X82309976Y-148252758D01*
X82388995Y-148104924D01*
X82388996Y-148104922D01*
X82495341Y-147975341D01*
X82624922Y-147868996D01*
X82640094Y-147860886D01*
X82772758Y-147789976D01*
X82933177Y-147741313D01*
X83058196Y-147729000D01*
X83941804Y-147729000D01*
X84066823Y-147741313D01*
X84066823Y-147741313D01*
G37*
G36*
X142169271Y-144960103D02*
G01*
X142225635Y-144965654D01*
X142442600Y-145031470D01*
X142442602Y-145031471D01*
X142642555Y-145138347D01*
X142817818Y-145282182D01*
X142961653Y-145457445D01*
X143062878Y-145646825D01*
X143068530Y-145657400D01*
X143134346Y-145874365D01*
X143156569Y-146100000D01*
X143134346Y-146325635D01*
X143132719Y-146331000D01*
X143068529Y-146542602D01*
X142961653Y-146742555D01*
X142817818Y-146917818D01*
X142642555Y-147061653D01*
X142442602Y-147168529D01*
X142442600Y-147168530D01*
X142225635Y-147234346D01*
X142169271Y-147239897D01*
X142056545Y-147251000D01*
X140143455Y-147251000D01*
X140030729Y-147239897D01*
X139974365Y-147234346D01*
X139757400Y-147168530D01*
X139757398Y-147168529D01*
X139557445Y-147061653D01*
X139382182Y-146917818D01*
X139238347Y-146742555D01*
X139131471Y-146542602D01*
X139067282Y-146331000D01*
X139065654Y-146325635D01*
X139043431Y-146100000D01*
X139065654Y-145874365D01*
X139131470Y-145657400D01*
X139137122Y-145646825D01*
X139238347Y-145457445D01*
X139382182Y-145282182D01*
X139557445Y-145138347D01*
X139757398Y-145031471D01*
X139757400Y-145031470D01*
X139974365Y-144965654D01*
X140030729Y-144960103D01*
X140143455Y-144949000D01*
X142056545Y-144949000D01*
X142169271Y-144960103D01*
X142169271Y-144960103D01*
G37*
G36*
X84266823Y-144641313D02*
G01*
X84427242Y-144689976D01*
X84493951Y-144725633D01*
X84575078Y-144768996D01*
X84704659Y-144875341D01*
X84811004Y-145004922D01*
X84811005Y-145004924D01*
X84890024Y-145152758D01*
X84938687Y-145313177D01*
X84955117Y-145480000D01*
X84938687Y-145646823D01*
X84890024Y-145807242D01*
X84863658Y-145856569D01*
X84811004Y-145955078D01*
X84704659Y-146084659D01*
X84575078Y-146191004D01*
X84575076Y-146191005D01*
X84427242Y-146270024D01*
X84266823Y-146318687D01*
X84141804Y-146331000D01*
X82858196Y-146331000D01*
X82733177Y-146318687D01*
X82572758Y-146270024D01*
X82424924Y-146191005D01*
X82424922Y-146191004D01*
X82295341Y-146084659D01*
X82188996Y-145955078D01*
X82136342Y-145856569D01*
X82109976Y-145807242D01*
X82061313Y-145646823D01*
X82044883Y-145480000D01*
X82061313Y-145313177D01*
X82109976Y-145152758D01*
X82188995Y-145004924D01*
X82188996Y-145004922D01*
X82295341Y-144875341D01*
X82424922Y-144768996D01*
X82506049Y-144725633D01*
X82572758Y-144689976D01*
X82733177Y-144641313D01*
X82858196Y-144629000D01*
X84141804Y-144629000D01*
X84266823Y-144641313D01*
X84266823Y-144641313D01*
G37*
G36*
X74266823Y-144641313D02*
G01*
X74427242Y-144689976D01*
X74493951Y-144725633D01*
X74575078Y-144768996D01*
X74704659Y-144875341D01*
X74811004Y-145004922D01*
X74811005Y-145004924D01*
X74890024Y-145152758D01*
X74938687Y-145313177D01*
X74955117Y-145480000D01*
X74938687Y-145646823D01*
X74890024Y-145807242D01*
X74863658Y-145856569D01*
X74811004Y-145955078D01*
X74704659Y-146084659D01*
X74575078Y-146191004D01*
X74575076Y-146191005D01*
X74427242Y-146270024D01*
X74266823Y-146318687D01*
X74141804Y-146331000D01*
X72858196Y-146331000D01*
X72733177Y-146318687D01*
X72572758Y-146270024D01*
X72424924Y-146191005D01*
X72424922Y-146191004D01*
X72295341Y-146084659D01*
X72188996Y-145955078D01*
X72136342Y-145856569D01*
X72109976Y-145807242D01*
X72061313Y-145646823D01*
X72044883Y-145480000D01*
X72061313Y-145313177D01*
X72109976Y-145152758D01*
X72188995Y-145004924D01*
X72188996Y-145004922D01*
X72295341Y-144875341D01*
X72424922Y-144768996D01*
X72506049Y-144725633D01*
X72572758Y-144689976D01*
X72733177Y-144641313D01*
X72858196Y-144629000D01*
X74141804Y-144629000D01*
X74266823Y-144641313D01*
X74266823Y-144641313D01*
G37*
G36*
X51925634Y-141765654D02*
G01*
X52142599Y-141831470D01*
X52142601Y-141831471D01*
X52342553Y-141938347D01*
X52342555Y-141938348D01*
X52342554Y-141938348D01*
X52517818Y-142082182D01*
X52582652Y-142161183D01*
X52661653Y-142257445D01*
X52765109Y-142451000D01*
X52768530Y-142457400D01*
X52824970Y-142643457D01*
X52834346Y-142674366D01*
X52851000Y-142843455D01*
X52851000Y-144756545D01*
X52839897Y-144869271D01*
X52834346Y-144925635D01*
X52768544Y-145142555D01*
X52768529Y-145142602D01*
X52661653Y-145342555D01*
X52517818Y-145517818D01*
X52342555Y-145661653D01*
X52142602Y-145768529D01*
X52142600Y-145768530D01*
X51925635Y-145834346D01*
X51700000Y-145856569D01*
X51474366Y-145834346D01*
X51257401Y-145768530D01*
X51257399Y-145768529D01*
X51057446Y-145661653D01*
X50882183Y-145517818D01*
X50738348Y-145342555D01*
X50631472Y-145142602D01*
X50631458Y-145142555D01*
X50565655Y-144925635D01*
X50557327Y-144841089D01*
X50549000Y-144756544D01*
X50549000Y-142843456D01*
X50565654Y-142674367D01*
X50565654Y-142674366D01*
X50631470Y-142457401D01*
X50736099Y-142261653D01*
X50738347Y-142257447D01*
X50852937Y-142117818D01*
X50882182Y-142082182D01*
X50961183Y-142017348D01*
X51057445Y-141938347D01*
X51257398Y-141831471D01*
X51257400Y-141831470D01*
X51474365Y-141765654D01*
X51700000Y-141743431D01*
X51925634Y-141765654D01*
X51925634Y-141765654D01*
G37*
G36*
X148125635Y-141565654D02*
G01*
X148342600Y-141631470D01*
X148342602Y-141631471D01*
X148542555Y-141738347D01*
X148717818Y-141882182D01*
X148861653Y-142057445D01*
X148968529Y-142257398D01*
X148968530Y-142257400D01*
X149034346Y-142474365D01*
X149051000Y-142643457D01*
X149051000Y-144556543D01*
X149034346Y-144725635D01*
X148973677Y-144925634D01*
X148968529Y-144942602D01*
X148861653Y-145142555D01*
X148782652Y-145238817D01*
X148717818Y-145317818D01*
X148569204Y-145439781D01*
X148542553Y-145461653D01*
X148437475Y-145517818D01*
X148342599Y-145568530D01*
X148125634Y-145634346D01*
X147900000Y-145656569D01*
X147674365Y-145634346D01*
X147457400Y-145568530D01*
X147457398Y-145568529D01*
X147257445Y-145461653D01*
X147161183Y-145382652D01*
X147082182Y-145317818D01*
X146960219Y-145169204D01*
X146938347Y-145142553D01*
X146831471Y-144942601D01*
X146811068Y-144875341D01*
X146765654Y-144725634D01*
X146749000Y-144556542D01*
X146749000Y-142643457D01*
X146765655Y-142474365D01*
X146831471Y-142257400D01*
X146831472Y-142257398D01*
X146938348Y-142057445D01*
X147082183Y-141882182D01*
X147257446Y-141738347D01*
X147457399Y-141631471D01*
X147457401Y-141631470D01*
X147674366Y-141565654D01*
X147900000Y-141543431D01*
X148125635Y-141565654D01*
X148125635Y-141565654D01*
G37*
G36*
X59569271Y-140160103D02*
G01*
X59625635Y-140165654D01*
X59842600Y-140231470D01*
X59842602Y-140231471D01*
X60042555Y-140338347D01*
X60217818Y-140482182D01*
X60361653Y-140657445D01*
X60430806Y-140786823D01*
X60468530Y-140857400D01*
X60534346Y-141074365D01*
X60556569Y-141300000D01*
X60534346Y-141525635D01*
X60469820Y-141738348D01*
X60468529Y-141742602D01*
X60361653Y-141942555D01*
X60217818Y-142117818D01*
X60042555Y-142261653D01*
X59842602Y-142368529D01*
X59842600Y-142368530D01*
X59625635Y-142434346D01*
X59569271Y-142439897D01*
X59456545Y-142451000D01*
X57543455Y-142451000D01*
X57430729Y-142439897D01*
X57374365Y-142434346D01*
X57157400Y-142368530D01*
X57157398Y-142368529D01*
X56957445Y-142261653D01*
X56782182Y-142117818D01*
X56638347Y-141942555D01*
X56531471Y-141742602D01*
X56530181Y-141738348D01*
X56465654Y-141525635D01*
X56443431Y-141300000D01*
X56465654Y-141074365D01*
X56531470Y-140857400D01*
X56569194Y-140786823D01*
X56638347Y-140657445D01*
X56782182Y-140482182D01*
X56957445Y-140338347D01*
X57157398Y-140231471D01*
X57157400Y-140231470D01*
X57374365Y-140165654D01*
X57430729Y-140160103D01*
X57543455Y-140149000D01*
X59456545Y-140149000D01*
X59569271Y-140160103D01*
X59569271Y-140160103D01*
G37*
G36*
X136925635Y-137465654D02*
G01*
X137142600Y-137531470D01*
X137142602Y-137531471D01*
X137342555Y-137638347D01*
X137517818Y-137782182D01*
X137661653Y-137957445D01*
X137751030Y-138124659D01*
X137768530Y-138157400D01*
X137834346Y-138374365D01*
X137851000Y-138543457D01*
X137851000Y-140456543D01*
X137834346Y-140625635D01*
X137785450Y-140786823D01*
X137768529Y-140842602D01*
X137661653Y-141042555D01*
X137618548Y-141095078D01*
X137517818Y-141217818D01*
X137417678Y-141300000D01*
X137342553Y-141361653D01*
X137161016Y-141458686D01*
X137142599Y-141468530D01*
X136925634Y-141534346D01*
X136700000Y-141556569D01*
X136474365Y-141534346D01*
X136257400Y-141468530D01*
X136238983Y-141458686D01*
X136057445Y-141361653D01*
X135961183Y-141282652D01*
X135882182Y-141217818D01*
X135738348Y-141042554D01*
X135687403Y-140947242D01*
X135631471Y-140842601D01*
X135614551Y-140786823D01*
X135565654Y-140625634D01*
X135549000Y-140456542D01*
X135549000Y-138543457D01*
X135565655Y-138374365D01*
X135631471Y-138157400D01*
X135648971Y-138124659D01*
X135738348Y-137957445D01*
X135882183Y-137782182D01*
X136057446Y-137638347D01*
X136257399Y-137531471D01*
X136257401Y-137531470D01*
X136474366Y-137465654D01*
X136700000Y-137443431D01*
X136925635Y-137465654D01*
X136925635Y-137465654D01*
G37*
G36*
X125766823Y-139781313D02*
G01*
X125927242Y-139829976D01*
X126059906Y-139900886D01*
X126075078Y-139908996D01*
X126204659Y-140015341D01*
X126311004Y-140144922D01*
X126311005Y-140144924D01*
X126390024Y-140292758D01*
X126438687Y-140453177D01*
X126455117Y-140620000D01*
X126438687Y-140786823D01*
X126390024Y-140947242D01*
X126339078Y-141042555D01*
X126311004Y-141095078D01*
X126204659Y-141224659D01*
X126075078Y-141331004D01*
X126075076Y-141331005D01*
X125927242Y-141410024D01*
X125766823Y-141458687D01*
X125641804Y-141471000D01*
X124358196Y-141471000D01*
X124233177Y-141458687D01*
X124072758Y-141410024D01*
X123924924Y-141331005D01*
X123924922Y-141331004D01*
X123795341Y-141224659D01*
X123688996Y-141095078D01*
X123660922Y-141042555D01*
X123609976Y-140947242D01*
X123561313Y-140786823D01*
X123544883Y-140620000D01*
X123561313Y-140453177D01*
X123609976Y-140292758D01*
X123688995Y-140144924D01*
X123688996Y-140144922D01*
X123795341Y-140015341D01*
X123924922Y-139908996D01*
X123940094Y-139900886D01*
X124072758Y-139829976D01*
X124233177Y-139781313D01*
X124358196Y-139769000D01*
X125641804Y-139769000D01*
X125766823Y-139781313D01*
X125766823Y-139781313D01*
G37*
G36*
X106766823Y-139781313D02*
G01*
X106927242Y-139829976D01*
X107059906Y-139900886D01*
X107075078Y-139908996D01*
X107204659Y-140015341D01*
X107311004Y-140144922D01*
X107311005Y-140144924D01*
X107390024Y-140292758D01*
X107438687Y-140453177D01*
X107455117Y-140620000D01*
X107438687Y-140786823D01*
X107390024Y-140947242D01*
X107339078Y-141042555D01*
X107311004Y-141095078D01*
X107204659Y-141224659D01*
X107075078Y-141331004D01*
X107075076Y-141331005D01*
X106927242Y-141410024D01*
X106766823Y-141458687D01*
X106641804Y-141471000D01*
X105358196Y-141471000D01*
X105233177Y-141458687D01*
X105072758Y-141410024D01*
X104924924Y-141331005D01*
X104924922Y-141331004D01*
X104795341Y-141224659D01*
X104688996Y-141095078D01*
X104660922Y-141042555D01*
X104609976Y-140947242D01*
X104561313Y-140786823D01*
X104544883Y-140620000D01*
X104561313Y-140453177D01*
X104609976Y-140292758D01*
X104688995Y-140144924D01*
X104688996Y-140144922D01*
X104795341Y-140015341D01*
X104924922Y-139908996D01*
X104940094Y-139900886D01*
X105072758Y-139829976D01*
X105233177Y-139781313D01*
X105358196Y-139769000D01*
X106641804Y-139769000D01*
X106766823Y-139781313D01*
X106766823Y-139781313D01*
G37*
G36*
X115766823Y-139781313D02*
G01*
X115927242Y-139829976D01*
X116059906Y-139900886D01*
X116075078Y-139908996D01*
X116204659Y-140015341D01*
X116311004Y-140144922D01*
X116311005Y-140144924D01*
X116390024Y-140292758D01*
X116438687Y-140453177D01*
X116455117Y-140620000D01*
X116438687Y-140786823D01*
X116390024Y-140947242D01*
X116339078Y-141042555D01*
X116311004Y-141095078D01*
X116204659Y-141224659D01*
X116075078Y-141331004D01*
X116075076Y-141331005D01*
X115927242Y-141410024D01*
X115766823Y-141458687D01*
X115641804Y-141471000D01*
X114358196Y-141471000D01*
X114233177Y-141458687D01*
X114072758Y-141410024D01*
X113924924Y-141331005D01*
X113924922Y-141331004D01*
X113795341Y-141224659D01*
X113688996Y-141095078D01*
X113660922Y-141042555D01*
X113609976Y-140947242D01*
X113561313Y-140786823D01*
X113544883Y-140620000D01*
X113561313Y-140453177D01*
X113609976Y-140292758D01*
X113688995Y-140144924D01*
X113688996Y-140144922D01*
X113795341Y-140015341D01*
X113924922Y-139908996D01*
X113940094Y-139900886D01*
X114072758Y-139829976D01*
X114233177Y-139781313D01*
X114358196Y-139769000D01*
X115641804Y-139769000D01*
X115766823Y-139781313D01*
X115766823Y-139781313D01*
G37*
G36*
X146051000Y-140151000D02*
G01*
X141949000Y-140151000D01*
X141949000Y-137849000D01*
X146051000Y-137849000D01*
X146051000Y-140151000D01*
X146051000Y-140151000D01*
G37*
G36*
X60769271Y-137460103D02*
G01*
X60825635Y-137465654D01*
X61042600Y-137531470D01*
X61042602Y-137531471D01*
X61242555Y-137638347D01*
X61417818Y-137782182D01*
X61561653Y-137957445D01*
X61651030Y-138124659D01*
X61668530Y-138157400D01*
X61729590Y-138358687D01*
X61734346Y-138374366D01*
X61756569Y-138600000D01*
X61734346Y-138825634D01*
X61668529Y-139042602D01*
X61561653Y-139242555D01*
X61417818Y-139417818D01*
X61242555Y-139561653D01*
X61042602Y-139668529D01*
X61042600Y-139668530D01*
X60825635Y-139734346D01*
X60769271Y-139739897D01*
X60656545Y-139751000D01*
X58743455Y-139751000D01*
X58630729Y-139739897D01*
X58574365Y-139734346D01*
X58357400Y-139668530D01*
X58357398Y-139668529D01*
X58157445Y-139561653D01*
X57982182Y-139417818D01*
X57838347Y-139242555D01*
X57731471Y-139042602D01*
X57665654Y-138825634D01*
X57643431Y-138600000D01*
X57665654Y-138374366D01*
X57670410Y-138358687D01*
X57731470Y-138157400D01*
X57748970Y-138124659D01*
X57838347Y-137957445D01*
X57982182Y-137782182D01*
X58157445Y-137638347D01*
X58357398Y-137531471D01*
X58357400Y-137531470D01*
X58574365Y-137465654D01*
X58630729Y-137460103D01*
X58743455Y-137449000D01*
X60656545Y-137449000D01*
X60769271Y-137460103D01*
X60769271Y-137460103D01*
G37*
G36*
X115566823Y-136681313D02*
G01*
X115727242Y-136729976D01*
X115859906Y-136800886D01*
X115875078Y-136808996D01*
X116004659Y-136915341D01*
X116111004Y-137044922D01*
X116111005Y-137044924D01*
X116190024Y-137192758D01*
X116238687Y-137353177D01*
X116255117Y-137520000D01*
X116238687Y-137686823D01*
X116190024Y-137847242D01*
X116149205Y-137923608D01*
X116111004Y-137995078D01*
X116004659Y-138124659D01*
X115875078Y-138231004D01*
X115875076Y-138231005D01*
X115727242Y-138310024D01*
X115566823Y-138358687D01*
X115441804Y-138371000D01*
X114558196Y-138371000D01*
X114433177Y-138358687D01*
X114272758Y-138310024D01*
X114124924Y-138231005D01*
X114124922Y-138231004D01*
X113995341Y-138124659D01*
X113888996Y-137995078D01*
X113850795Y-137923608D01*
X113809976Y-137847242D01*
X113761313Y-137686823D01*
X113744883Y-137520000D01*
X113761313Y-137353177D01*
X113809976Y-137192758D01*
X113888995Y-137044924D01*
X113888996Y-137044922D01*
X113995341Y-136915341D01*
X114124922Y-136808996D01*
X114140094Y-136800886D01*
X114272758Y-136729976D01*
X114433177Y-136681313D01*
X114558196Y-136669000D01*
X115441804Y-136669000D01*
X115566823Y-136681313D01*
X115566823Y-136681313D01*
G37*
G36*
X106566823Y-136681313D02*
G01*
X106727242Y-136729976D01*
X106859906Y-136800886D01*
X106875078Y-136808996D01*
X107004659Y-136915341D01*
X107111004Y-137044922D01*
X107111005Y-137044924D01*
X107190024Y-137192758D01*
X107238687Y-137353177D01*
X107255117Y-137520000D01*
X107238687Y-137686823D01*
X107190024Y-137847242D01*
X107149205Y-137923608D01*
X107111004Y-137995078D01*
X107004659Y-138124659D01*
X106875078Y-138231004D01*
X106875076Y-138231005D01*
X106727242Y-138310024D01*
X106566823Y-138358687D01*
X106441804Y-138371000D01*
X105558196Y-138371000D01*
X105433177Y-138358687D01*
X105272758Y-138310024D01*
X105124924Y-138231005D01*
X105124922Y-138231004D01*
X104995341Y-138124659D01*
X104888996Y-137995078D01*
X104850795Y-137923608D01*
X104809976Y-137847242D01*
X104761313Y-137686823D01*
X104744883Y-137520000D01*
X104761313Y-137353177D01*
X104809976Y-137192758D01*
X104888995Y-137044924D01*
X104888996Y-137044922D01*
X104995341Y-136915341D01*
X105124922Y-136808996D01*
X105140094Y-136800886D01*
X105272758Y-136729976D01*
X105433177Y-136681313D01*
X105558196Y-136669000D01*
X106441804Y-136669000D01*
X106566823Y-136681313D01*
X106566823Y-136681313D01*
G37*
G36*
X125566823Y-136681313D02*
G01*
X125727242Y-136729976D01*
X125859906Y-136800886D01*
X125875078Y-136808996D01*
X126004659Y-136915341D01*
X126111004Y-137044922D01*
X126111005Y-137044924D01*
X126190024Y-137192758D01*
X126238687Y-137353177D01*
X126255117Y-137520000D01*
X126238687Y-137686823D01*
X126190024Y-137847242D01*
X126149205Y-137923608D01*
X126111004Y-137995078D01*
X126004659Y-138124659D01*
X125875078Y-138231004D01*
X125875076Y-138231005D01*
X125727242Y-138310024D01*
X125566823Y-138358687D01*
X125441804Y-138371000D01*
X124558196Y-138371000D01*
X124433177Y-138358687D01*
X124272758Y-138310024D01*
X124124924Y-138231005D01*
X124124922Y-138231004D01*
X123995341Y-138124659D01*
X123888996Y-137995078D01*
X123850795Y-137923608D01*
X123809976Y-137847242D01*
X123761313Y-137686823D01*
X123744883Y-137520000D01*
X123761313Y-137353177D01*
X123809976Y-137192758D01*
X123888995Y-137044924D01*
X123888996Y-137044922D01*
X123995341Y-136915341D01*
X124124922Y-136808996D01*
X124140094Y-136800886D01*
X124272758Y-136729976D01*
X124433177Y-136681313D01*
X124558196Y-136669000D01*
X125441804Y-136669000D01*
X125566823Y-136681313D01*
X125566823Y-136681313D01*
G37*
G36*
X74228571Y-136382863D02*
G01*
X74307023Y-136390590D01*
X74407682Y-136421125D01*
X74458013Y-136436392D01*
X74597165Y-136510771D01*
X74719133Y-136610867D01*
X74819229Y-136732835D01*
X74893608Y-136871987D01*
X74893608Y-136871988D01*
X74939410Y-137022977D01*
X74954875Y-137180000D01*
X74939410Y-137337023D01*
X74908875Y-137437682D01*
X74893608Y-137488013D01*
X74819229Y-137627165D01*
X74719133Y-137749133D01*
X74597165Y-137849229D01*
X74458013Y-137923608D01*
X74407682Y-137938875D01*
X74307023Y-137969410D01*
X74228571Y-137977137D01*
X74189346Y-137981000D01*
X72810654Y-137981000D01*
X72771429Y-137977137D01*
X72692977Y-137969410D01*
X72592318Y-137938875D01*
X72541987Y-137923608D01*
X72402835Y-137849229D01*
X72280867Y-137749133D01*
X72180771Y-137627165D01*
X72106392Y-137488013D01*
X72091125Y-137437682D01*
X72060590Y-137337023D01*
X72045125Y-137180000D01*
X72060590Y-137022977D01*
X72106392Y-136871988D01*
X72106392Y-136871987D01*
X72180771Y-136732835D01*
X72280867Y-136610867D01*
X72402835Y-136510771D01*
X72541987Y-136436392D01*
X72592318Y-136421125D01*
X72692977Y-136390590D01*
X72771429Y-136382863D01*
X72810654Y-136379000D01*
X74189346Y-136379000D01*
X74228571Y-136382863D01*
X74228571Y-136382863D01*
G37*
G36*
X84228571Y-136382863D02*
G01*
X84307023Y-136390590D01*
X84407682Y-136421125D01*
X84458013Y-136436392D01*
X84597165Y-136510771D01*
X84719133Y-136610867D01*
X84819229Y-136732835D01*
X84893608Y-136871987D01*
X84893608Y-136871988D01*
X84939410Y-137022977D01*
X84954875Y-137180000D01*
X84939410Y-137337023D01*
X84908875Y-137437682D01*
X84893608Y-137488013D01*
X84819229Y-137627165D01*
X84719133Y-137749133D01*
X84597165Y-137849229D01*
X84458013Y-137923608D01*
X84407682Y-137938875D01*
X84307023Y-137969410D01*
X84228571Y-137977137D01*
X84189346Y-137981000D01*
X82810654Y-137981000D01*
X82771429Y-137977137D01*
X82692977Y-137969410D01*
X82592318Y-137938875D01*
X82541987Y-137923608D01*
X82402835Y-137849229D01*
X82280867Y-137749133D01*
X82180771Y-137627165D01*
X82106392Y-137488013D01*
X82091125Y-137437682D01*
X82060590Y-137337023D01*
X82045125Y-137180000D01*
X82060590Y-137022977D01*
X82106392Y-136871988D01*
X82106392Y-136871987D01*
X82180771Y-136732835D01*
X82280867Y-136610867D01*
X82402835Y-136510771D01*
X82541987Y-136436392D01*
X82592318Y-136421125D01*
X82692977Y-136390590D01*
X82771429Y-136382863D01*
X82810654Y-136379000D01*
X84189346Y-136379000D01*
X84228571Y-136382863D01*
X84228571Y-136382863D01*
G37*
G36*
X89025880Y-130509776D02*
G01*
X89406593Y-130585504D01*
X89816249Y-130755189D01*
X90184929Y-131001534D01*
X90498466Y-131315071D01*
X90744811Y-131683751D01*
X90914496Y-132093407D01*
X91001000Y-132528296D01*
X91001000Y-132971704D01*
X90914496Y-133406593D01*
X90744811Y-133816249D01*
X90498466Y-134184929D01*
X90184929Y-134498466D01*
X89816249Y-134744811D01*
X89406593Y-134914496D01*
X89025880Y-134990224D01*
X88971705Y-135001000D01*
X88528295Y-135001000D01*
X88474120Y-134990224D01*
X88093407Y-134914496D01*
X87683751Y-134744811D01*
X87315071Y-134498466D01*
X87001534Y-134184929D01*
X86755189Y-133816249D01*
X86585504Y-133406593D01*
X86499000Y-132971704D01*
X86499000Y-132528296D01*
X86585504Y-132093407D01*
X86755189Y-131683751D01*
X87001534Y-131315071D01*
X87315071Y-131001534D01*
X87683751Y-130755189D01*
X88093407Y-130585504D01*
X88474120Y-130509776D01*
X88528295Y-130499000D01*
X88971705Y-130499000D01*
X89025880Y-130509776D01*
X89025880Y-130509776D01*
G37*
G36*
X140744098Y-129047033D02*
G01*
X141208350Y-129239332D01*
X141208352Y-129239333D01*
X141626168Y-129518509D01*
X141981491Y-129873832D01*
X142260667Y-130291648D01*
X142260668Y-130291650D01*
X142452967Y-130755902D01*
X142551000Y-131248747D01*
X142551000Y-131751253D01*
X142452967Y-132244098D01*
X142291865Y-132633033D01*
X142260667Y-132708352D01*
X141981491Y-133126168D01*
X141626168Y-133481491D01*
X141208352Y-133760667D01*
X141208351Y-133760668D01*
X141208350Y-133760668D01*
X140744098Y-133952967D01*
X140251253Y-134051000D01*
X139748747Y-134051000D01*
X139255902Y-133952967D01*
X138791650Y-133760668D01*
X138791649Y-133760668D01*
X138791648Y-133760667D01*
X138373832Y-133481491D01*
X138018509Y-133126168D01*
X137739333Y-132708352D01*
X137708135Y-132633033D01*
X137547033Y-132244098D01*
X137449000Y-131751253D01*
X137449000Y-131248747D01*
X137547033Y-130755902D01*
X137739332Y-130291650D01*
X137739333Y-130291648D01*
X138018509Y-129873832D01*
X138373832Y-129518509D01*
X138791648Y-129239333D01*
X138791650Y-129239332D01*
X139255902Y-129047033D01*
X139748747Y-128949000D01*
X140251253Y-128949000D01*
X140744098Y-129047033D01*
X140744098Y-129047033D01*
G37*
G36*
X107275880Y-129259776D02*
G01*
X107656593Y-129335504D01*
X108066249Y-129505189D01*
X108434929Y-129751534D01*
X108748466Y-130065071D01*
X108994811Y-130433751D01*
X109164496Y-130843407D01*
X109251000Y-131278296D01*
X109251000Y-131721704D01*
X109164496Y-132156593D01*
X108994811Y-132566249D01*
X108748466Y-132934929D01*
X108434929Y-133248466D01*
X108066249Y-133494811D01*
X107656593Y-133664496D01*
X107275880Y-133740224D01*
X107221705Y-133751000D01*
X106778295Y-133751000D01*
X106724120Y-133740224D01*
X106343407Y-133664496D01*
X105933751Y-133494811D01*
X105565071Y-133248466D01*
X105251534Y-132934929D01*
X105005189Y-132566249D01*
X104835504Y-132156593D01*
X104749000Y-131721704D01*
X104749000Y-131278296D01*
X104835504Y-130843407D01*
X105005189Y-130433751D01*
X105251534Y-130065071D01*
X105565071Y-129751534D01*
X105933751Y-129505189D01*
X106343407Y-129335504D01*
X106724120Y-129259776D01*
X106778295Y-129249000D01*
X107221705Y-129249000D01*
X107275880Y-129259776D01*
X107275880Y-129259776D01*
G37*
G36*
X148238205Y-123802461D02*
G01*
X148356153Y-123825922D01*
X148448194Y-123864047D01*
X148578359Y-123917963D01*
X148778342Y-124051587D01*
X148948413Y-124221658D01*
X149082037Y-124421641D01*
X149174078Y-124643848D01*
X149221000Y-124879741D01*
X149221000Y-125120259D01*
X149174078Y-125356152D01*
X149082037Y-125578359D01*
X148948413Y-125778342D01*
X148778342Y-125948413D01*
X148578359Y-126082037D01*
X148448194Y-126135953D01*
X148356153Y-126174078D01*
X148238205Y-126197539D01*
X148120259Y-126221000D01*
X147879741Y-126221000D01*
X147761795Y-126197539D01*
X147643847Y-126174078D01*
X147551806Y-126135953D01*
X147421641Y-126082037D01*
X147221658Y-125948413D01*
X147051587Y-125778342D01*
X146917963Y-125578359D01*
X146825922Y-125356152D01*
X146779000Y-125120259D01*
X146779000Y-124879741D01*
X146825922Y-124643848D01*
X146917963Y-124421641D01*
X147051587Y-124221658D01*
X147221658Y-124051587D01*
X147421641Y-123917963D01*
X147551806Y-123864047D01*
X147643847Y-123825922D01*
X147761795Y-123802461D01*
X147879741Y-123779000D01*
X148120259Y-123779000D01*
X148238205Y-123802461D01*
X148238205Y-123802461D01*
G37*
G36*
X53556153Y-123725922D02*
G01*
X53648194Y-123764047D01*
X53778359Y-123817963D01*
X53978342Y-123951587D01*
X54148413Y-124121658D01*
X54282037Y-124321641D01*
X54374078Y-124543848D01*
X54421000Y-124779741D01*
X54421000Y-125020259D01*
X54374078Y-125256152D01*
X54282037Y-125478359D01*
X54148413Y-125678342D01*
X53978342Y-125848413D01*
X53778359Y-125982037D01*
X53648194Y-126035953D01*
X53556153Y-126074078D01*
X53438205Y-126097539D01*
X53320259Y-126121000D01*
X53079741Y-126121000D01*
X52961795Y-126097539D01*
X52843847Y-126074078D01*
X52751806Y-126035953D01*
X52621641Y-125982037D01*
X52421658Y-125848413D01*
X52251587Y-125678342D01*
X52117963Y-125478359D01*
X52025922Y-125256152D01*
X51979000Y-125020259D01*
X51979000Y-124779741D01*
X52025922Y-124543848D01*
X52117963Y-124321641D01*
X52251587Y-124121658D01*
X52421658Y-123951587D01*
X52621641Y-123817963D01*
X52751806Y-123764047D01*
X52843847Y-123725922D01*
X53079741Y-123679000D01*
X53320259Y-123679000D01*
X53556153Y-123725922D01*
X53556153Y-123725922D01*
G37*
G36*
X95859473Y-123408413D02*
G01*
X95955040Y-123417825D01*
X96200280Y-123492218D01*
X96426294Y-123613025D01*
X96477899Y-123655376D01*
X96624397Y-123775603D01*
X96744624Y-123922101D01*
X96786975Y-123973706D01*
X96907782Y-124199720D01*
X96982175Y-124444960D01*
X97007294Y-124700000D01*
X96982175Y-124955040D01*
X96907782Y-125200280D01*
X96786975Y-125426294D01*
X96744624Y-125477899D01*
X96624397Y-125624397D01*
X96477899Y-125744624D01*
X96426294Y-125786975D01*
X96200280Y-125907782D01*
X95955040Y-125982175D01*
X95859473Y-125991587D01*
X95763906Y-126001000D01*
X94236094Y-126001000D01*
X94140527Y-125991587D01*
X94044960Y-125982175D01*
X93799720Y-125907782D01*
X93573706Y-125786975D01*
X93522101Y-125744624D01*
X93375603Y-125624397D01*
X93255376Y-125477899D01*
X93213025Y-125426294D01*
X93092218Y-125200280D01*
X93017825Y-124955040D01*
X92992706Y-124700000D01*
X93017825Y-124444960D01*
X93092218Y-124199720D01*
X93213025Y-123973706D01*
X93255376Y-123922101D01*
X93375603Y-123775603D01*
X93522101Y-123655376D01*
X93573706Y-123613025D01*
X93799720Y-123492218D01*
X94044960Y-123417825D01*
X94140527Y-123408413D01*
X94236094Y-123399000D01*
X95763906Y-123399000D01*
X95859473Y-123408413D01*
X95859473Y-123408413D01*
G37*
G36*
X90271473Y-123408413D02*
G01*
X90367040Y-123417825D01*
X90612280Y-123492218D01*
X90838294Y-123613025D01*
X90889899Y-123655376D01*
X91036397Y-123775603D01*
X91156624Y-123922101D01*
X91198975Y-123973706D01*
X91319782Y-124199720D01*
X91394175Y-124444960D01*
X91419294Y-124700000D01*
X91394175Y-124955040D01*
X91319782Y-125200280D01*
X91198975Y-125426294D01*
X91156624Y-125477899D01*
X91036397Y-125624397D01*
X90889899Y-125744624D01*
X90838294Y-125786975D01*
X90612280Y-125907782D01*
X90367040Y-125982175D01*
X90271473Y-125991587D01*
X90175906Y-126001000D01*
X88648094Y-126001000D01*
X88552527Y-125991587D01*
X88456960Y-125982175D01*
X88211720Y-125907782D01*
X87985706Y-125786975D01*
X87934101Y-125744624D01*
X87787603Y-125624397D01*
X87667376Y-125477899D01*
X87625025Y-125426294D01*
X87504218Y-125200280D01*
X87429825Y-124955040D01*
X87404706Y-124700000D01*
X87429825Y-124444960D01*
X87504218Y-124199720D01*
X87625025Y-123973706D01*
X87667376Y-123922101D01*
X87787603Y-123775603D01*
X87934101Y-123655376D01*
X87985706Y-123613025D01*
X88211720Y-123492218D01*
X88456960Y-123417825D01*
X88552527Y-123408413D01*
X88648094Y-123399000D01*
X90175906Y-123399000D01*
X90271473Y-123408413D01*
X90271473Y-123408413D01*
G37*
G36*
X90271473Y-118708413D02*
G01*
X90367040Y-118717825D01*
X90612280Y-118792218D01*
X90838294Y-118913025D01*
X90885282Y-118951587D01*
X91036397Y-119075603D01*
X91156260Y-119221658D01*
X91198975Y-119273706D01*
X91319782Y-119499720D01*
X91394175Y-119744960D01*
X91419294Y-120000000D01*
X91394175Y-120255040D01*
X91319782Y-120500280D01*
X91198975Y-120726294D01*
X91156624Y-120777899D01*
X91036397Y-120924397D01*
X90889899Y-121044624D01*
X90838294Y-121086975D01*
X90612280Y-121207782D01*
X90367040Y-121282175D01*
X90271472Y-121291588D01*
X90175906Y-121301000D01*
X88648094Y-121301000D01*
X88552528Y-121291588D01*
X88456960Y-121282175D01*
X88211720Y-121207782D01*
X87985706Y-121086975D01*
X87934101Y-121044624D01*
X87787603Y-120924397D01*
X87667376Y-120777899D01*
X87625025Y-120726294D01*
X87504218Y-120500280D01*
X87429825Y-120255040D01*
X87404706Y-120000000D01*
X87429825Y-119744960D01*
X87504218Y-119499720D01*
X87625025Y-119273706D01*
X87667740Y-119221658D01*
X87787603Y-119075603D01*
X87938718Y-118951587D01*
X87985706Y-118913025D01*
X88211720Y-118792218D01*
X88456960Y-118717825D01*
X88552527Y-118708413D01*
X88648094Y-118699000D01*
X90175906Y-118699000D01*
X90271473Y-118708413D01*
X90271473Y-118708413D01*
G37*
G36*
X95859473Y-118708413D02*
G01*
X95955040Y-118717825D01*
X96200280Y-118792218D01*
X96426294Y-118913025D01*
X96473282Y-118951587D01*
X96624397Y-119075603D01*
X96744260Y-119221658D01*
X96786975Y-119273706D01*
X96907782Y-119499720D01*
X96982175Y-119744960D01*
X97007294Y-120000000D01*
X96982175Y-120255040D01*
X96907782Y-120500280D01*
X96786975Y-120726294D01*
X96744624Y-120777899D01*
X96624397Y-120924397D01*
X96477899Y-121044624D01*
X96426294Y-121086975D01*
X96200280Y-121207782D01*
X95955040Y-121282175D01*
X95859472Y-121291588D01*
X95763906Y-121301000D01*
X94236094Y-121301000D01*
X94140528Y-121291588D01*
X94044960Y-121282175D01*
X93799720Y-121207782D01*
X93573706Y-121086975D01*
X93522101Y-121044624D01*
X93375603Y-120924397D01*
X93255376Y-120777899D01*
X93213025Y-120726294D01*
X93092218Y-120500280D01*
X93017825Y-120255040D01*
X92992706Y-120000000D01*
X93017825Y-119744960D01*
X93092218Y-119499720D01*
X93213025Y-119273706D01*
X93255740Y-119221658D01*
X93375603Y-119075603D01*
X93526718Y-118951587D01*
X93573706Y-118913025D01*
X93799720Y-118792218D01*
X94044960Y-118717825D01*
X94140527Y-118708413D01*
X94236094Y-118699000D01*
X95763906Y-118699000D01*
X95859473Y-118708413D01*
X95859473Y-118708413D01*
G37*
G36*
X148186710Y-118792218D02*
G01*
X148356153Y-118825922D01*
X148448194Y-118864047D01*
X148578359Y-118917963D01*
X148778342Y-119051587D01*
X148948413Y-119221658D01*
X149082037Y-119421641D01*
X149174078Y-119643848D01*
X149221000Y-119879741D01*
X149221000Y-120120259D01*
X149174078Y-120356152D01*
X149082037Y-120578359D01*
X148948413Y-120778342D01*
X148778342Y-120948413D01*
X148578359Y-121082037D01*
X148448194Y-121135953D01*
X148356153Y-121174078D01*
X148238205Y-121197539D01*
X148120259Y-121221000D01*
X147879741Y-121221000D01*
X147761795Y-121197539D01*
X147643847Y-121174078D01*
X147551806Y-121135953D01*
X147421641Y-121082037D01*
X147221658Y-120948413D01*
X147051587Y-120778342D01*
X146917963Y-120578359D01*
X146825922Y-120356152D01*
X146779000Y-120120259D01*
X146779000Y-119879741D01*
X146825922Y-119643848D01*
X146917963Y-119421641D01*
X147051587Y-119221658D01*
X147221658Y-119051587D01*
X147421641Y-118917963D01*
X147551806Y-118864047D01*
X147643847Y-118825922D01*
X147813290Y-118792218D01*
X147879741Y-118779000D01*
X148120259Y-118779000D01*
X148186710Y-118792218D01*
X148186710Y-118792218D01*
G37*
G36*
X53420806Y-118699000D02*
G01*
X53556153Y-118725922D01*
X53648194Y-118764047D01*
X53778359Y-118817963D01*
X53978342Y-118951587D01*
X54148413Y-119121658D01*
X54282037Y-119321641D01*
X54374078Y-119543848D01*
X54414082Y-119744960D01*
X54421000Y-119779742D01*
X54421000Y-120020258D01*
X54374300Y-120255039D01*
X54374078Y-120256152D01*
X54282037Y-120478359D01*
X54148413Y-120678342D01*
X53978342Y-120848413D01*
X53778359Y-120982037D01*
X53648194Y-121035953D01*
X53556153Y-121074078D01*
X53320259Y-121121000D01*
X53079741Y-121121000D01*
X52843847Y-121074078D01*
X52751806Y-121035953D01*
X52621641Y-120982037D01*
X52421658Y-120848413D01*
X52251587Y-120678342D01*
X52117963Y-120478359D01*
X52025922Y-120256152D01*
X52025701Y-120255039D01*
X51979000Y-120020258D01*
X51979000Y-119779742D01*
X51985919Y-119744960D01*
X52025922Y-119543848D01*
X52117963Y-119321641D01*
X52251587Y-119121658D01*
X52421658Y-118951587D01*
X52621641Y-118817963D01*
X52751806Y-118764047D01*
X52843847Y-118725922D01*
X52979194Y-118699000D01*
X53079741Y-118679000D01*
X53320259Y-118679000D01*
X53420806Y-118699000D01*
X53420806Y-118699000D01*
G37*
G36*
X90271473Y-114008413D02*
G01*
X90367040Y-114017825D01*
X90612280Y-114092218D01*
X90838294Y-114213025D01*
X90848813Y-114221658D01*
X91036397Y-114375603D01*
X91156624Y-114522101D01*
X91198975Y-114573706D01*
X91319782Y-114799720D01*
X91394175Y-115044960D01*
X91419294Y-115300000D01*
X91394175Y-115555040D01*
X91319782Y-115800280D01*
X91198975Y-116026294D01*
X91159759Y-116074078D01*
X91036397Y-116224397D01*
X90889899Y-116344624D01*
X90838294Y-116386975D01*
X90612280Y-116507782D01*
X90367040Y-116582175D01*
X90271472Y-116591588D01*
X90175906Y-116601000D01*
X88648094Y-116601000D01*
X88552528Y-116591588D01*
X88456960Y-116582175D01*
X88211720Y-116507782D01*
X87985706Y-116386975D01*
X87934101Y-116344624D01*
X87787603Y-116224397D01*
X87664241Y-116074078D01*
X87625025Y-116026294D01*
X87504218Y-115800280D01*
X87429825Y-115555040D01*
X87404706Y-115300000D01*
X87429825Y-115044960D01*
X87504218Y-114799720D01*
X87625025Y-114573706D01*
X87667376Y-114522101D01*
X87787603Y-114375603D01*
X87975187Y-114221658D01*
X87985706Y-114213025D01*
X88211720Y-114092218D01*
X88456960Y-114017825D01*
X88552527Y-114008413D01*
X88648094Y-113999000D01*
X90175906Y-113999000D01*
X90271473Y-114008413D01*
X90271473Y-114008413D01*
G37*
G36*
X95859473Y-114008413D02*
G01*
X95955040Y-114017825D01*
X96200280Y-114092218D01*
X96426294Y-114213025D01*
X96436813Y-114221658D01*
X96624397Y-114375603D01*
X96744624Y-114522101D01*
X96786975Y-114573706D01*
X96907782Y-114799720D01*
X96982175Y-115044960D01*
X97007294Y-115300000D01*
X96982175Y-115555040D01*
X96907782Y-115800280D01*
X96786975Y-116026294D01*
X96747759Y-116074078D01*
X96624397Y-116224397D01*
X96477899Y-116344624D01*
X96426294Y-116386975D01*
X96200280Y-116507782D01*
X95955040Y-116582175D01*
X95859472Y-116591588D01*
X95763906Y-116601000D01*
X94236094Y-116601000D01*
X94140528Y-116591588D01*
X94044960Y-116582175D01*
X93799720Y-116507782D01*
X93573706Y-116386975D01*
X93522101Y-116344624D01*
X93375603Y-116224397D01*
X93252241Y-116074078D01*
X93213025Y-116026294D01*
X93092218Y-115800280D01*
X93017825Y-115555040D01*
X92992706Y-115300000D01*
X93017825Y-115044960D01*
X93092218Y-114799720D01*
X93213025Y-114573706D01*
X93255376Y-114522101D01*
X93375603Y-114375603D01*
X93563187Y-114221658D01*
X93573706Y-114213025D01*
X93799720Y-114092218D01*
X94044960Y-114017825D01*
X94140527Y-114008413D01*
X94236094Y-113999000D01*
X95763906Y-113999000D01*
X95859473Y-114008413D01*
X95859473Y-114008413D01*
G37*
G36*
X148356153Y-113825922D02*
G01*
X148448194Y-113864047D01*
X148578359Y-113917963D01*
X148778342Y-114051587D01*
X148948413Y-114221658D01*
X149082037Y-114421641D01*
X149174078Y-114643848D01*
X149221000Y-114879741D01*
X149221000Y-115120259D01*
X149174078Y-115356152D01*
X149082037Y-115578359D01*
X148948413Y-115778342D01*
X148778342Y-115948413D01*
X148578359Y-116082037D01*
X148448194Y-116135953D01*
X148356153Y-116174078D01*
X148238205Y-116197539D01*
X148120259Y-116221000D01*
X147879741Y-116221000D01*
X147761795Y-116197539D01*
X147643847Y-116174078D01*
X147551806Y-116135953D01*
X147421641Y-116082037D01*
X147221658Y-115948413D01*
X147051587Y-115778342D01*
X146917963Y-115578359D01*
X146825922Y-115356152D01*
X146779000Y-115120259D01*
X146779000Y-114879741D01*
X146825922Y-114643848D01*
X146917963Y-114421641D01*
X147051587Y-114221658D01*
X147221658Y-114051587D01*
X147421641Y-113917963D01*
X147551806Y-113864047D01*
X147643847Y-113825922D01*
X147879741Y-113779000D01*
X148120259Y-113779000D01*
X148356153Y-113825922D01*
X148356153Y-113825922D01*
G37*
G36*
X53556153Y-113725922D02*
G01*
X53648194Y-113764047D01*
X53778359Y-113817963D01*
X53978342Y-113951587D01*
X54148413Y-114121658D01*
X54282037Y-114321641D01*
X54374078Y-114543848D01*
X54421000Y-114779741D01*
X54421000Y-115020259D01*
X54374078Y-115256152D01*
X54282037Y-115478359D01*
X54148413Y-115678342D01*
X53978342Y-115848413D01*
X53778359Y-115982037D01*
X53671518Y-116026292D01*
X53556153Y-116074078D01*
X53438205Y-116097539D01*
X53320259Y-116121000D01*
X53079741Y-116121000D01*
X52961795Y-116097539D01*
X52843847Y-116074078D01*
X52728482Y-116026292D01*
X52621641Y-115982037D01*
X52421658Y-115848413D01*
X52251587Y-115678342D01*
X52117963Y-115478359D01*
X52025922Y-115256152D01*
X51979000Y-115020259D01*
X51979000Y-114779741D01*
X52025922Y-114543848D01*
X52117963Y-114321641D01*
X52251587Y-114121658D01*
X52421658Y-113951587D01*
X52621641Y-113817963D01*
X52751806Y-113764047D01*
X52843847Y-113725922D01*
X53079741Y-113679000D01*
X53320259Y-113679000D01*
X53556153Y-113725922D01*
X53556153Y-113725922D01*
G37*
G36*
X53556153Y-103325922D02*
G01*
X53648194Y-103364047D01*
X53778359Y-103417963D01*
X53978342Y-103551587D01*
X54148413Y-103721658D01*
X54282037Y-103921641D01*
X54374078Y-104143848D01*
X54421000Y-104379741D01*
X54421000Y-104620259D01*
X54374078Y-104856152D01*
X54282037Y-105078359D01*
X54148413Y-105278342D01*
X53978342Y-105448413D01*
X53778359Y-105582037D01*
X53648194Y-105635953D01*
X53556153Y-105674078D01*
X53320259Y-105721000D01*
X53079741Y-105721000D01*
X52961795Y-105697539D01*
X52843847Y-105674078D01*
X52751806Y-105635953D01*
X52621641Y-105582037D01*
X52421658Y-105448413D01*
X52251587Y-105278342D01*
X52117963Y-105078359D01*
X52025922Y-104856152D01*
X51979000Y-104620259D01*
X51979000Y-104379741D01*
X52025922Y-104143848D01*
X52117963Y-103921641D01*
X52251587Y-103721658D01*
X52421658Y-103551587D01*
X52621641Y-103417963D01*
X52751806Y-103364047D01*
X52843847Y-103325922D01*
X53079741Y-103279000D01*
X53320259Y-103279000D01*
X53556153Y-103325922D01*
X53556153Y-103325922D01*
G37*
G36*
X148238205Y-102802461D02*
G01*
X148356153Y-102825922D01*
X148448194Y-102864047D01*
X148578359Y-102917963D01*
X148778342Y-103051587D01*
X148948413Y-103221658D01*
X149082037Y-103421641D01*
X149174078Y-103643848D01*
X149221000Y-103879741D01*
X149221000Y-104120259D01*
X149174078Y-104356152D01*
X149082037Y-104578359D01*
X148948413Y-104778342D01*
X148778342Y-104948413D01*
X148578359Y-105082037D01*
X148448194Y-105135953D01*
X148356153Y-105174078D01*
X148120259Y-105221000D01*
X147879741Y-105221000D01*
X147643847Y-105174078D01*
X147551806Y-105135953D01*
X147421641Y-105082037D01*
X147221658Y-104948413D01*
X147051587Y-104778342D01*
X146917963Y-104578359D01*
X146825922Y-104356152D01*
X146779000Y-104120259D01*
X146779000Y-103879741D01*
X146825922Y-103643848D01*
X146917963Y-103421641D01*
X147051587Y-103221658D01*
X147221658Y-103051587D01*
X147421641Y-102917963D01*
X147551806Y-102864047D01*
X147643847Y-102825922D01*
X147761795Y-102802461D01*
X147879741Y-102779000D01*
X148120259Y-102779000D01*
X148238205Y-102802461D01*
X148238205Y-102802461D01*
G37*
G36*
X94801000Y-103801000D02*
G01*
X93199000Y-103801000D01*
X93199000Y-102199000D01*
X94801000Y-102199000D01*
X94801000Y-103801000D01*
X94801000Y-103801000D01*
G37*
G36*
X53556153Y-98325922D02*
G01*
X53648194Y-98364047D01*
X53778359Y-98417963D01*
X53978342Y-98551587D01*
X54148413Y-98721658D01*
X54282037Y-98921641D01*
X54374078Y-99143848D01*
X54421000Y-99379741D01*
X54421000Y-99620259D01*
X54374078Y-99856152D01*
X54282037Y-100078359D01*
X54148413Y-100278342D01*
X53978342Y-100448413D01*
X53778359Y-100582037D01*
X53648194Y-100635953D01*
X53556153Y-100674078D01*
X53320259Y-100721000D01*
X53079741Y-100721000D01*
X52843847Y-100674078D01*
X52751806Y-100635953D01*
X52621641Y-100582037D01*
X52421658Y-100448413D01*
X52251587Y-100278342D01*
X52117963Y-100078359D01*
X52025922Y-99856152D01*
X51979000Y-99620259D01*
X51979000Y-99379741D01*
X52025922Y-99143848D01*
X52117963Y-98921641D01*
X52251587Y-98721658D01*
X52421658Y-98551587D01*
X52621641Y-98417963D01*
X52751806Y-98364047D01*
X52843847Y-98325922D01*
X53079741Y-98279000D01*
X53320259Y-98279000D01*
X53556153Y-98325922D01*
X53556153Y-98325922D01*
G37*
G36*
X148356153Y-97825922D02*
G01*
X148448194Y-97864047D01*
X148578359Y-97917963D01*
X148778342Y-98051587D01*
X148948413Y-98221658D01*
X149082037Y-98421641D01*
X149174078Y-98643848D01*
X149221000Y-98879741D01*
X149221000Y-99120259D01*
X149174078Y-99356152D01*
X149082037Y-99578359D01*
X148948413Y-99778342D01*
X148778342Y-99948413D01*
X148578359Y-100082037D01*
X148448194Y-100135953D01*
X148356153Y-100174078D01*
X148238205Y-100197539D01*
X148120259Y-100221000D01*
X147879741Y-100221000D01*
X147761795Y-100197539D01*
X147643847Y-100174078D01*
X147551806Y-100135953D01*
X147421641Y-100082037D01*
X147221658Y-99948413D01*
X147051587Y-99778342D01*
X146917963Y-99578359D01*
X146825922Y-99356152D01*
X146779000Y-99120259D01*
X146779000Y-98879741D01*
X146825922Y-98643848D01*
X146917963Y-98421641D01*
X147051587Y-98221658D01*
X147221658Y-98051587D01*
X147421641Y-97917963D01*
X147551806Y-97864047D01*
X147643847Y-97825922D01*
X147761795Y-97802461D01*
X147879741Y-97779000D01*
X148120259Y-97779000D01*
X148356153Y-97825922D01*
X148356153Y-97825922D01*
G37*
G36*
X53438205Y-93302461D02*
G01*
X53556153Y-93325922D01*
X53648194Y-93364047D01*
X53778359Y-93417963D01*
X53978342Y-93551587D01*
X54148413Y-93721658D01*
X54282037Y-93921641D01*
X54374078Y-94143848D01*
X54421000Y-94379741D01*
X54421000Y-94620259D01*
X54374078Y-94856152D01*
X54282037Y-95078359D01*
X54148413Y-95278342D01*
X53978342Y-95448413D01*
X53778359Y-95582037D01*
X53648194Y-95635953D01*
X53556153Y-95674078D01*
X53320259Y-95721000D01*
X53079741Y-95721000D01*
X52843847Y-95674078D01*
X52751806Y-95635953D01*
X52621641Y-95582037D01*
X52421658Y-95448413D01*
X52251587Y-95278342D01*
X52117963Y-95078359D01*
X52025922Y-94856152D01*
X51979000Y-94620259D01*
X51979000Y-94379741D01*
X52025922Y-94143848D01*
X52117963Y-93921641D01*
X52251587Y-93721658D01*
X52421658Y-93551587D01*
X52621641Y-93417963D01*
X52751806Y-93364047D01*
X52843847Y-93325922D01*
X52961795Y-93302461D01*
X53079741Y-93279000D01*
X53320259Y-93279000D01*
X53438205Y-93302461D01*
X53438205Y-93302461D01*
G37*
G36*
X148356153Y-92825922D02*
G01*
X148448194Y-92864047D01*
X148578359Y-92917963D01*
X148778342Y-93051587D01*
X148948413Y-93221658D01*
X149082037Y-93421641D01*
X149174078Y-93643848D01*
X149221000Y-93879741D01*
X149221000Y-94120259D01*
X149174078Y-94356152D01*
X149082037Y-94578359D01*
X148948413Y-94778342D01*
X148778342Y-94948413D01*
X148578359Y-95082037D01*
X148448194Y-95135953D01*
X148356153Y-95174078D01*
X148238205Y-95197539D01*
X148120259Y-95221000D01*
X147879741Y-95221000D01*
X147643847Y-95174078D01*
X147551806Y-95135953D01*
X147421641Y-95082037D01*
X147221658Y-94948413D01*
X147051587Y-94778342D01*
X146917963Y-94578359D01*
X146825922Y-94356152D01*
X146779000Y-94120259D01*
X146779000Y-93879741D01*
X146825922Y-93643848D01*
X146917963Y-93421641D01*
X147051587Y-93221658D01*
X147221658Y-93051587D01*
X147421641Y-92917963D01*
X147551806Y-92864047D01*
X147643847Y-92825922D01*
X147879741Y-92779000D01*
X148120259Y-92779000D01*
X148356153Y-92825922D01*
X148356153Y-92825922D01*
G37*
G36*
X104565472Y-90408412D02*
G01*
X104661040Y-90417825D01*
X104906280Y-90492218D01*
X105132294Y-90613025D01*
X105183899Y-90655376D01*
X105330397Y-90775603D01*
X105427872Y-90894378D01*
X105492975Y-90973706D01*
X105613782Y-91199720D01*
X105688175Y-91444960D01*
X105713294Y-91700000D01*
X105688175Y-91955040D01*
X105613782Y-92200280D01*
X105492975Y-92426294D01*
X105450624Y-92477899D01*
X105330397Y-92624397D01*
X105183899Y-92744624D01*
X105132294Y-92786975D01*
X104906280Y-92907782D01*
X104661040Y-92982175D01*
X104565472Y-92991588D01*
X104469906Y-93001000D01*
X102942094Y-93001000D01*
X102846528Y-92991588D01*
X102750960Y-92982175D01*
X102505720Y-92907782D01*
X102279706Y-92786975D01*
X102228101Y-92744624D01*
X102081603Y-92624397D01*
X101961376Y-92477899D01*
X101919025Y-92426294D01*
X101798218Y-92200280D01*
X101723825Y-91955040D01*
X101698706Y-91700000D01*
X101723825Y-91444960D01*
X101798218Y-91199720D01*
X101919025Y-90973706D01*
X101984128Y-90894378D01*
X102081603Y-90775603D01*
X102228101Y-90655376D01*
X102279706Y-90613025D01*
X102505720Y-90492218D01*
X102750960Y-90417825D01*
X102846528Y-90408412D01*
X102942094Y-90399000D01*
X104469906Y-90399000D01*
X104565472Y-90408412D01*
X104565472Y-90408412D01*
G37*
G36*
X110153472Y-90408412D02*
G01*
X110249040Y-90417825D01*
X110494280Y-90492218D01*
X110720294Y-90613025D01*
X110771899Y-90655376D01*
X110918397Y-90775603D01*
X111015872Y-90894378D01*
X111080975Y-90973706D01*
X111201782Y-91199720D01*
X111276175Y-91444960D01*
X111301294Y-91700000D01*
X111276175Y-91955040D01*
X111201782Y-92200280D01*
X111080975Y-92426294D01*
X111038624Y-92477899D01*
X110918397Y-92624397D01*
X110771899Y-92744624D01*
X110720294Y-92786975D01*
X110494280Y-92907782D01*
X110249040Y-92982175D01*
X110153472Y-92991588D01*
X110057906Y-93001000D01*
X108530094Y-93001000D01*
X108434528Y-92991588D01*
X108338960Y-92982175D01*
X108093720Y-92907782D01*
X107867706Y-92786975D01*
X107816101Y-92744624D01*
X107669603Y-92624397D01*
X107549376Y-92477899D01*
X107507025Y-92426294D01*
X107386218Y-92200280D01*
X107311825Y-91955040D01*
X107286706Y-91700000D01*
X107311825Y-91444960D01*
X107386218Y-91199720D01*
X107507025Y-90973706D01*
X107572128Y-90894378D01*
X107669603Y-90775603D01*
X107816101Y-90655376D01*
X107867706Y-90613025D01*
X108093720Y-90492218D01*
X108338960Y-90417825D01*
X108434528Y-90408412D01*
X108530094Y-90399000D01*
X110057906Y-90399000D01*
X110153472Y-90408412D01*
X110153472Y-90408412D01*
G37*
G36*
X139775880Y-87259776D02*
G01*
X140156593Y-87335504D01*
X140566249Y-87505189D01*
X140934929Y-87751534D01*
X141248466Y-88065071D01*
X141494811Y-88433751D01*
X141664496Y-88843407D01*
X141751000Y-89278296D01*
X141751000Y-89721704D01*
X141664496Y-90156593D01*
X141494811Y-90566249D01*
X141248466Y-90934929D01*
X140934929Y-91248466D01*
X140566249Y-91494811D01*
X140156593Y-91664496D01*
X139775880Y-91740224D01*
X139721705Y-91751000D01*
X139278295Y-91751000D01*
X139224120Y-91740224D01*
X138843407Y-91664496D01*
X138433751Y-91494811D01*
X138065071Y-91248466D01*
X137751534Y-90934929D01*
X137505189Y-90566249D01*
X137335504Y-90156593D01*
X137249000Y-89721704D01*
X137249000Y-89278296D01*
X137335504Y-88843407D01*
X137505189Y-88433751D01*
X137751534Y-88065071D01*
X138065071Y-87751534D01*
X138433751Y-87505189D01*
X138843407Y-87335504D01*
X139224120Y-87259776D01*
X139278295Y-87249000D01*
X139721705Y-87249000D01*
X139775880Y-87259776D01*
X139775880Y-87259776D01*
G37*
G36*
X110153472Y-85708412D02*
G01*
X110249040Y-85717825D01*
X110494280Y-85792218D01*
X110720294Y-85913025D01*
X110771899Y-85955376D01*
X110918397Y-86075603D01*
X111038624Y-86222101D01*
X111080975Y-86273706D01*
X111201782Y-86499720D01*
X111276175Y-86744960D01*
X111301294Y-87000000D01*
X111276175Y-87255040D01*
X111201782Y-87500280D01*
X111080975Y-87726294D01*
X111075444Y-87733033D01*
X110918397Y-87924397D01*
X110777600Y-88039945D01*
X110720294Y-88086975D01*
X110494280Y-88207782D01*
X110249040Y-88282175D01*
X110153472Y-88291588D01*
X110057906Y-88301000D01*
X108530094Y-88301000D01*
X108434528Y-88291588D01*
X108338960Y-88282175D01*
X108093720Y-88207782D01*
X107867706Y-88086975D01*
X107810400Y-88039945D01*
X107669603Y-87924397D01*
X107512556Y-87733033D01*
X107507025Y-87726294D01*
X107386218Y-87500280D01*
X107311825Y-87255040D01*
X107286706Y-87000000D01*
X107311825Y-86744960D01*
X107386218Y-86499720D01*
X107507025Y-86273706D01*
X107549376Y-86222101D01*
X107669603Y-86075603D01*
X107816101Y-85955376D01*
X107867706Y-85913025D01*
X108093720Y-85792218D01*
X108338960Y-85717825D01*
X108434528Y-85708412D01*
X108530094Y-85699000D01*
X110057906Y-85699000D01*
X110153472Y-85708412D01*
X110153472Y-85708412D01*
G37*
G36*
X104565472Y-85708412D02*
G01*
X104661040Y-85717825D01*
X104906280Y-85792218D01*
X105132294Y-85913025D01*
X105183899Y-85955376D01*
X105330397Y-86075603D01*
X105450624Y-86222101D01*
X105492975Y-86273706D01*
X105613782Y-86499720D01*
X105688175Y-86744960D01*
X105713294Y-87000000D01*
X105688175Y-87255040D01*
X105613782Y-87500280D01*
X105492975Y-87726294D01*
X105487444Y-87733033D01*
X105330397Y-87924397D01*
X105189600Y-88039945D01*
X105132294Y-88086975D01*
X104906280Y-88207782D01*
X104661040Y-88282175D01*
X104565472Y-88291588D01*
X104469906Y-88301000D01*
X102942094Y-88301000D01*
X102846528Y-88291588D01*
X102750960Y-88282175D01*
X102505720Y-88207782D01*
X102279706Y-88086975D01*
X102222400Y-88039945D01*
X102081603Y-87924397D01*
X101924556Y-87733033D01*
X101919025Y-87726294D01*
X101798218Y-87500280D01*
X101723825Y-87255040D01*
X101698706Y-87000000D01*
X101723825Y-86744960D01*
X101798218Y-86499720D01*
X101919025Y-86273706D01*
X101961376Y-86222101D01*
X102081603Y-86075603D01*
X102228101Y-85955376D01*
X102279706Y-85913025D01*
X102505720Y-85792218D01*
X102750960Y-85717825D01*
X102846528Y-85708412D01*
X102942094Y-85699000D01*
X104469906Y-85699000D01*
X104565472Y-85708412D01*
X104565472Y-85708412D01*
G37*
G36*
X148227241Y-82800280D02*
G01*
X148356153Y-82825922D01*
X148448194Y-82864047D01*
X148578359Y-82917963D01*
X148778342Y-83051587D01*
X148948413Y-83221658D01*
X149082037Y-83421641D01*
X149174078Y-83643848D01*
X149221000Y-83879741D01*
X149221000Y-84120259D01*
X149174078Y-84356152D01*
X149082037Y-84578359D01*
X148948413Y-84778342D01*
X148778342Y-84948413D01*
X148578359Y-85082037D01*
X148448194Y-85135953D01*
X148356153Y-85174078D01*
X148120259Y-85221000D01*
X147879741Y-85221000D01*
X147643847Y-85174078D01*
X147551806Y-85135953D01*
X147421641Y-85082037D01*
X147221658Y-84948413D01*
X147051587Y-84778342D01*
X146917963Y-84578359D01*
X146825922Y-84356152D01*
X146779000Y-84120259D01*
X146779000Y-83879741D01*
X146825922Y-83643848D01*
X146917963Y-83421641D01*
X147051587Y-83221658D01*
X147221658Y-83051587D01*
X147421641Y-82917963D01*
X147551806Y-82864047D01*
X147643847Y-82825922D01*
X147772759Y-82800280D01*
X147879741Y-82779000D01*
X148120259Y-82779000D01*
X148227241Y-82800280D01*
X148227241Y-82800280D01*
G37*
G36*
X53427241Y-82800280D02*
G01*
X53556153Y-82825922D01*
X53648194Y-82864047D01*
X53778359Y-82917963D01*
X53978342Y-83051587D01*
X54148413Y-83221658D01*
X54282037Y-83421641D01*
X54374078Y-83643848D01*
X54421000Y-83879741D01*
X54421000Y-84120259D01*
X54374078Y-84356152D01*
X54282037Y-84578359D01*
X54148413Y-84778342D01*
X53978342Y-84948413D01*
X53778359Y-85082037D01*
X53648194Y-85135953D01*
X53556153Y-85174078D01*
X53320259Y-85221000D01*
X53079741Y-85221000D01*
X52843847Y-85174078D01*
X52751806Y-85135953D01*
X52621641Y-85082037D01*
X52421658Y-84948413D01*
X52251587Y-84778342D01*
X52117963Y-84578359D01*
X52025922Y-84356152D01*
X51979000Y-84120259D01*
X51979000Y-83879741D01*
X52025922Y-83643848D01*
X52117963Y-83421641D01*
X52251587Y-83221658D01*
X52421658Y-83051587D01*
X52621641Y-82917963D01*
X52751806Y-82864047D01*
X52843847Y-82825922D01*
X52972759Y-82800280D01*
X53079741Y-82779000D01*
X53320259Y-82779000D01*
X53427241Y-82800280D01*
X53427241Y-82800280D01*
G37*
G36*
X104565472Y-81008412D02*
G01*
X104661040Y-81017825D01*
X104906280Y-81092218D01*
X105132294Y-81213025D01*
X105183899Y-81255376D01*
X105330397Y-81375603D01*
X105450624Y-81522101D01*
X105492975Y-81573706D01*
X105613782Y-81799720D01*
X105688175Y-82044960D01*
X105713294Y-82300000D01*
X105688175Y-82555040D01*
X105613782Y-82800280D01*
X105492975Y-83026294D01*
X105472217Y-83051587D01*
X105330397Y-83224397D01*
X105183899Y-83344624D01*
X105132294Y-83386975D01*
X104906280Y-83507782D01*
X104661040Y-83582175D01*
X104565472Y-83591588D01*
X104469906Y-83601000D01*
X102942094Y-83601000D01*
X102846528Y-83591588D01*
X102750960Y-83582175D01*
X102505720Y-83507782D01*
X102279706Y-83386975D01*
X102228101Y-83344624D01*
X102081603Y-83224397D01*
X101939783Y-83051587D01*
X101919025Y-83026294D01*
X101798218Y-82800280D01*
X101723825Y-82555040D01*
X101698706Y-82300000D01*
X101723825Y-82044960D01*
X101798218Y-81799720D01*
X101919025Y-81573706D01*
X101961376Y-81522101D01*
X102081603Y-81375603D01*
X102228101Y-81255376D01*
X102279706Y-81213025D01*
X102505720Y-81092218D01*
X102750960Y-81017825D01*
X102846528Y-81008412D01*
X102942094Y-80999000D01*
X104469906Y-80999000D01*
X104565472Y-81008412D01*
X104565472Y-81008412D01*
G37*
G36*
X110153472Y-81008412D02*
G01*
X110249040Y-81017825D01*
X110494280Y-81092218D01*
X110720294Y-81213025D01*
X110771899Y-81255376D01*
X110918397Y-81375603D01*
X111038624Y-81522101D01*
X111080975Y-81573706D01*
X111201782Y-81799720D01*
X111276175Y-82044960D01*
X111301294Y-82300000D01*
X111276175Y-82555040D01*
X111201782Y-82800280D01*
X111080975Y-83026294D01*
X111060217Y-83051587D01*
X110918397Y-83224397D01*
X110771899Y-83344624D01*
X110720294Y-83386975D01*
X110494280Y-83507782D01*
X110249040Y-83582175D01*
X110153472Y-83591588D01*
X110057906Y-83601000D01*
X108530094Y-83601000D01*
X108434528Y-83591588D01*
X108338960Y-83582175D01*
X108093720Y-83507782D01*
X107867706Y-83386975D01*
X107816101Y-83344624D01*
X107669603Y-83224397D01*
X107527783Y-83051587D01*
X107507025Y-83026294D01*
X107386218Y-82800280D01*
X107311825Y-82555040D01*
X107286706Y-82300000D01*
X107311825Y-82044960D01*
X107386218Y-81799720D01*
X107507025Y-81573706D01*
X107549376Y-81522101D01*
X107669603Y-81375603D01*
X107816101Y-81255376D01*
X107867706Y-81213025D01*
X108093720Y-81092218D01*
X108338960Y-81017825D01*
X108434528Y-81008412D01*
X108530094Y-80999000D01*
X110057906Y-80999000D01*
X110153472Y-81008412D01*
X110153472Y-81008412D01*
G37*
G36*
X148238205Y-77802461D02*
G01*
X148356153Y-77825922D01*
X148448194Y-77864047D01*
X148578359Y-77917963D01*
X148778342Y-78051587D01*
X148948413Y-78221658D01*
X149082037Y-78421641D01*
X149174078Y-78643848D01*
X149221000Y-78879741D01*
X149221000Y-79120259D01*
X149174078Y-79356152D01*
X149082037Y-79578359D01*
X148948413Y-79778342D01*
X148778342Y-79948413D01*
X148578359Y-80082037D01*
X148448194Y-80135953D01*
X148356153Y-80174078D01*
X148238205Y-80197539D01*
X148120259Y-80221000D01*
X147879741Y-80221000D01*
X147761795Y-80197539D01*
X147643847Y-80174078D01*
X147551806Y-80135953D01*
X147421641Y-80082037D01*
X147221658Y-79948413D01*
X147051587Y-79778342D01*
X146917963Y-79578359D01*
X146825922Y-79356152D01*
X146779000Y-79120259D01*
X146779000Y-78879741D01*
X146825922Y-78643848D01*
X146917963Y-78421641D01*
X147051587Y-78221658D01*
X147221658Y-78051587D01*
X147421641Y-77917963D01*
X147551806Y-77864047D01*
X147643847Y-77825922D01*
X147761795Y-77802461D01*
X147879741Y-77779000D01*
X148120259Y-77779000D01*
X148238205Y-77802461D01*
X148238205Y-77802461D01*
G37*
G36*
X53438205Y-77802461D02*
G01*
X53556153Y-77825922D01*
X53648194Y-77864047D01*
X53778359Y-77917963D01*
X53978342Y-78051587D01*
X54148413Y-78221658D01*
X54282037Y-78421641D01*
X54374078Y-78643848D01*
X54421000Y-78879741D01*
X54421000Y-79120259D01*
X54374078Y-79356152D01*
X54282037Y-79578359D01*
X54148413Y-79778342D01*
X53978342Y-79948413D01*
X53778359Y-80082037D01*
X53648194Y-80135953D01*
X53556153Y-80174078D01*
X53438205Y-80197539D01*
X53320259Y-80221000D01*
X53079741Y-80221000D01*
X52961795Y-80197539D01*
X52843847Y-80174078D01*
X52751806Y-80135953D01*
X52621641Y-80082037D01*
X52421658Y-79948413D01*
X52251587Y-79778342D01*
X52117963Y-79578359D01*
X52025922Y-79356152D01*
X51979000Y-79120259D01*
X51979000Y-78879741D01*
X52025922Y-78643848D01*
X52117963Y-78421641D01*
X52251587Y-78221658D01*
X52421658Y-78051587D01*
X52621641Y-77917963D01*
X52751806Y-77864047D01*
X52843847Y-77825922D01*
X52961795Y-77802461D01*
X53079741Y-77779000D01*
X53320259Y-77779000D01*
X53438205Y-77802461D01*
X53438205Y-77802461D01*
G37*
G36*
X53556153Y-72825922D02*
G01*
X53648194Y-72864047D01*
X53778359Y-72917963D01*
X53978342Y-73051587D01*
X54148413Y-73221658D01*
X54282037Y-73421641D01*
X54374078Y-73643848D01*
X54421000Y-73879741D01*
X54421000Y-74120259D01*
X54374078Y-74356152D01*
X54282037Y-74578359D01*
X54148413Y-74778342D01*
X53978342Y-74948413D01*
X53778359Y-75082037D01*
X53648194Y-75135953D01*
X53556153Y-75174078D01*
X53320259Y-75221000D01*
X53079741Y-75221000D01*
X52843847Y-75174078D01*
X52751806Y-75135953D01*
X52621641Y-75082037D01*
X52421658Y-74948413D01*
X52251587Y-74778342D01*
X52117963Y-74578359D01*
X52025922Y-74356152D01*
X51979000Y-74120259D01*
X51979000Y-73879741D01*
X52025922Y-73643848D01*
X52117963Y-73421641D01*
X52251587Y-73221658D01*
X52421658Y-73051587D01*
X52621641Y-72917963D01*
X52751806Y-72864047D01*
X52843847Y-72825922D01*
X53079741Y-72779000D01*
X53320259Y-72779000D01*
X53556153Y-72825922D01*
X53556153Y-72825922D01*
G37*
G36*
X148356153Y-72825922D02*
G01*
X148448194Y-72864047D01*
X148578359Y-72917963D01*
X148778342Y-73051587D01*
X148948413Y-73221658D01*
X149082037Y-73421641D01*
X149174078Y-73643848D01*
X149221000Y-73879741D01*
X149221000Y-74120259D01*
X149174078Y-74356152D01*
X149082037Y-74578359D01*
X148948413Y-74778342D01*
X148778342Y-74948413D01*
X148578359Y-75082037D01*
X148448194Y-75135953D01*
X148356153Y-75174078D01*
X148120259Y-75221000D01*
X147879741Y-75221000D01*
X147643847Y-75174078D01*
X147551806Y-75135953D01*
X147421641Y-75082037D01*
X147221658Y-74948413D01*
X147051587Y-74778342D01*
X146917963Y-74578359D01*
X146825922Y-74356152D01*
X146779000Y-74120259D01*
X146779000Y-73879741D01*
X146825922Y-73643848D01*
X146917963Y-73421641D01*
X147051587Y-73221658D01*
X147221658Y-73051587D01*
X147421641Y-72917963D01*
X147551806Y-72864047D01*
X147643847Y-72825922D01*
X147879741Y-72779000D01*
X148120259Y-72779000D01*
X148356153Y-72825922D01*
X148356153Y-72825922D01*
G37*
G36*
X81901000Y-74901000D02*
G01*
X80099000Y-74901000D01*
X80099000Y-73099000D01*
X81901000Y-73099000D01*
X81901000Y-74901000D01*
X81901000Y-74901000D01*
G37*
G36*
X83650442Y-73105518D02*
G01*
X83716627Y-73112037D01*
X83886466Y-73163557D01*
X84042991Y-73247222D01*
X84078729Y-73276552D01*
X84180186Y-73359814D01*
X84230925Y-73421641D01*
X84292778Y-73497009D01*
X84376443Y-73653534D01*
X84427963Y-73823373D01*
X84445359Y-74000000D01*
X84427963Y-74176627D01*
X84376443Y-74346466D01*
X84292778Y-74502991D01*
X84263448Y-74538729D01*
X84180186Y-74640186D01*
X84078729Y-74723448D01*
X84042991Y-74752778D01*
X83886466Y-74836443D01*
X83716627Y-74887963D01*
X83650443Y-74894481D01*
X83584260Y-74901000D01*
X83495740Y-74901000D01*
X83429557Y-74894481D01*
X83363373Y-74887963D01*
X83193534Y-74836443D01*
X83037009Y-74752778D01*
X83001271Y-74723448D01*
X82899814Y-74640186D01*
X82816552Y-74538729D01*
X82787222Y-74502991D01*
X82703557Y-74346466D01*
X82652037Y-74176627D01*
X82634641Y-74000000D01*
X82652037Y-73823373D01*
X82703557Y-73653534D01*
X82787222Y-73497009D01*
X82849075Y-73421641D01*
X82899814Y-73359814D01*
X83001271Y-73276552D01*
X83037009Y-73247222D01*
X83193534Y-73163557D01*
X83363373Y-73112037D01*
X83429558Y-73105518D01*
X83495740Y-73099000D01*
X83584260Y-73099000D01*
X83650442Y-73105518D01*
X83650442Y-73105518D01*
G37*
G36*
X85125589Y-68238876D02*
G01*
X85224893Y-68258629D01*
X85365206Y-68316748D01*
X85491484Y-68401125D01*
X85598875Y-68508516D01*
X85683252Y-68634794D01*
X85741371Y-68775107D01*
X85771000Y-68924063D01*
X85771000Y-69075937D01*
X85741371Y-69224893D01*
X85683252Y-69365206D01*
X85598875Y-69491484D01*
X85491484Y-69598875D01*
X85365206Y-69683252D01*
X85224893Y-69741371D01*
X85125589Y-69761124D01*
X85075938Y-69771000D01*
X84924062Y-69771000D01*
X84874411Y-69761124D01*
X84775107Y-69741371D01*
X84634794Y-69683252D01*
X84508516Y-69598875D01*
X84401125Y-69491484D01*
X84316748Y-69365206D01*
X84258629Y-69224893D01*
X84229000Y-69075937D01*
X84229000Y-68924063D01*
X84258629Y-68775107D01*
X84316748Y-68634794D01*
X84401125Y-68508516D01*
X84508516Y-68401125D01*
X84634794Y-68316748D01*
X84775107Y-68258629D01*
X84874411Y-68238876D01*
X84924062Y-68229000D01*
X85075938Y-68229000D01*
X85125589Y-68238876D01*
X85125589Y-68238876D01*
G37*
G36*
X80045589Y-68238876D02*
G01*
X80144893Y-68258629D01*
X80285206Y-68316748D01*
X80411484Y-68401125D01*
X80518875Y-68508516D01*
X80603252Y-68634794D01*
X80661371Y-68775107D01*
X80691000Y-68924063D01*
X80691000Y-69075937D01*
X80661371Y-69224893D01*
X80603252Y-69365206D01*
X80518875Y-69491484D01*
X80411484Y-69598875D01*
X80285206Y-69683252D01*
X80144893Y-69741371D01*
X80045589Y-69761124D01*
X79995938Y-69771000D01*
X79844062Y-69771000D01*
X79794411Y-69761124D01*
X79695107Y-69741371D01*
X79554794Y-69683252D01*
X79428516Y-69598875D01*
X79321125Y-69491484D01*
X79236748Y-69365206D01*
X79178629Y-69224893D01*
X79149000Y-69075937D01*
X79149000Y-68924063D01*
X79178629Y-68775107D01*
X79236748Y-68634794D01*
X79321125Y-68508516D01*
X79428516Y-68401125D01*
X79554794Y-68316748D01*
X79695107Y-68258629D01*
X79794411Y-68238876D01*
X79844062Y-68229000D01*
X79995938Y-68229000D01*
X80045589Y-68238876D01*
X80045589Y-68238876D01*
G37*
G36*
X82585589Y-68238876D02*
G01*
X82684893Y-68258629D01*
X82825206Y-68316748D01*
X82951484Y-68401125D01*
X83058875Y-68508516D01*
X83143252Y-68634794D01*
X83201371Y-68775107D01*
X83231000Y-68924063D01*
X83231000Y-69075937D01*
X83201371Y-69224893D01*
X83143252Y-69365206D01*
X83058875Y-69491484D01*
X82951484Y-69598875D01*
X82825206Y-69683252D01*
X82684893Y-69741371D01*
X82585589Y-69761124D01*
X82535938Y-69771000D01*
X82384062Y-69771000D01*
X82334411Y-69761124D01*
X82235107Y-69741371D01*
X82094794Y-69683252D01*
X81968516Y-69598875D01*
X81861125Y-69491484D01*
X81776748Y-69365206D01*
X81718629Y-69224893D01*
X81689000Y-69075937D01*
X81689000Y-68924063D01*
X81718629Y-68775107D01*
X81776748Y-68634794D01*
X81861125Y-68508516D01*
X81968516Y-68401125D01*
X82094794Y-68316748D01*
X82235107Y-68258629D01*
X82334411Y-68238876D01*
X82384062Y-68229000D01*
X82535938Y-68229000D01*
X82585589Y-68238876D01*
X82585589Y-68238876D01*
G37*
G36*
X108414600Y-66914600D02*
G01*
X106585400Y-66914600D01*
X106585400Y-65085400D01*
X108414600Y-65085400D01*
X108414600Y-66914600D01*
X108414600Y-66914600D01*
G37*
G36*
X105139294Y-65098633D02*
G01*
X105311695Y-65150931D01*
X105470583Y-65235858D01*
X105609849Y-65350151D01*
X105724142Y-65489417D01*
X105809069Y-65648305D01*
X105861367Y-65820706D01*
X105879025Y-66000000D01*
X105861367Y-66179294D01*
X105809069Y-66351695D01*
X105724142Y-66510583D01*
X105609849Y-66649849D01*
X105470583Y-66764142D01*
X105311695Y-66849069D01*
X105139294Y-66901367D01*
X105004931Y-66914600D01*
X104915069Y-66914600D01*
X104780706Y-66901367D01*
X104608305Y-66849069D01*
X104449417Y-66764142D01*
X104310151Y-66649849D01*
X104195858Y-66510583D01*
X104110931Y-66351695D01*
X104058633Y-66179294D01*
X104040975Y-66000000D01*
X104058633Y-65820706D01*
X104110931Y-65648305D01*
X104195858Y-65489417D01*
X104310151Y-65350151D01*
X104449417Y-65235858D01*
X104608305Y-65150931D01*
X104780706Y-65098633D01*
X104915069Y-65085400D01*
X105004931Y-65085400D01*
X105139294Y-65098633D01*
X105139294Y-65098633D01*
G37*
G36*
X94914600Y-66914600D02*
G01*
X93085400Y-66914600D01*
X93085400Y-65085400D01*
X94914600Y-65085400D01*
X94914600Y-66914600D01*
X94914600Y-66914600D01*
G37*
G36*
X91639294Y-65098633D02*
G01*
X91811695Y-65150931D01*
X91970583Y-65235858D01*
X92109849Y-65350151D01*
X92224142Y-65489417D01*
X92309069Y-65648305D01*
X92361367Y-65820706D01*
X92379025Y-66000000D01*
X92361367Y-66179294D01*
X92309069Y-66351695D01*
X92224142Y-66510583D01*
X92109849Y-66649849D01*
X91970583Y-66764142D01*
X91811695Y-66849069D01*
X91639294Y-66901367D01*
X91504931Y-66914600D01*
X91415069Y-66914600D01*
X91280706Y-66901367D01*
X91108305Y-66849069D01*
X90949417Y-66764142D01*
X90810151Y-66649849D01*
X90695858Y-66510583D01*
X90610931Y-66351695D01*
X90558633Y-66179294D01*
X90540975Y-66000000D01*
X90558633Y-65820706D01*
X90610931Y-65648305D01*
X90695858Y-65489417D01*
X90810151Y-65350151D01*
X90949417Y-65235858D01*
X91108305Y-65150931D01*
X91280706Y-65098633D01*
X91415069Y-65085400D01*
X91504931Y-65085400D01*
X91639294Y-65098633D01*
X91639294Y-65098633D01*
G37*
G36*
X148238205Y-62802461D02*
G01*
X148356153Y-62825922D01*
X148448194Y-62864047D01*
X148578359Y-62917963D01*
X148778342Y-63051587D01*
X148948413Y-63221658D01*
X149082037Y-63421641D01*
X149135953Y-63551806D01*
X149174078Y-63643847D01*
X149221000Y-63879742D01*
X149221000Y-64120258D01*
X149174078Y-64356153D01*
X149171918Y-64361367D01*
X149082037Y-64578359D01*
X148948413Y-64778342D01*
X148778342Y-64948413D01*
X148578359Y-65082037D01*
X148448194Y-65135953D01*
X148356153Y-65174078D01*
X148120259Y-65221000D01*
X147879741Y-65221000D01*
X147643847Y-65174078D01*
X147551806Y-65135953D01*
X147421641Y-65082037D01*
X147221658Y-64948413D01*
X147051587Y-64778342D01*
X146917963Y-64578359D01*
X146828082Y-64361367D01*
X146825922Y-64356153D01*
X146779000Y-64120258D01*
X146779000Y-63879742D01*
X146825922Y-63643847D01*
X146864047Y-63551806D01*
X146917963Y-63421641D01*
X147051587Y-63221658D01*
X147221658Y-63051587D01*
X147421641Y-62917963D01*
X147551806Y-62864047D01*
X147643847Y-62825922D01*
X147761795Y-62802461D01*
X147879741Y-62779000D01*
X148120259Y-62779000D01*
X148238205Y-62802461D01*
X148238205Y-62802461D01*
G37*
G36*
X53556153Y-62125922D02*
G01*
X53648194Y-62164047D01*
X53778359Y-62217963D01*
X53978342Y-62351587D01*
X54148413Y-62521658D01*
X54282037Y-62721641D01*
X54374078Y-62943848D01*
X54406791Y-63108305D01*
X54421000Y-63179742D01*
X54421000Y-63420258D01*
X54376526Y-63643848D01*
X54374078Y-63656152D01*
X54282037Y-63878359D01*
X54148413Y-64078342D01*
X53978342Y-64248413D01*
X53778359Y-64382037D01*
X53648194Y-64435953D01*
X53556153Y-64474078D01*
X53438205Y-64497539D01*
X53320259Y-64521000D01*
X53079741Y-64521000D01*
X52961795Y-64497539D01*
X52843847Y-64474078D01*
X52751806Y-64435953D01*
X52621641Y-64382037D01*
X52421658Y-64248413D01*
X52251587Y-64078342D01*
X52117963Y-63878359D01*
X52025922Y-63656152D01*
X52023475Y-63643848D01*
X51979000Y-63420258D01*
X51979000Y-63179742D01*
X51993210Y-63108305D01*
X52025922Y-62943848D01*
X52117963Y-62721641D01*
X52251587Y-62521658D01*
X52421658Y-62351587D01*
X52621641Y-62217963D01*
X52751806Y-62164047D01*
X52843847Y-62125922D01*
X53079741Y-62079000D01*
X53320259Y-62079000D01*
X53556153Y-62125922D01*
X53556153Y-62125922D01*
G37*
G36*
X107679294Y-62558633D02*
G01*
X107851695Y-62610931D01*
X108010583Y-62695858D01*
X108149849Y-62810151D01*
X108264142Y-62949417D01*
X108349069Y-63108305D01*
X108401367Y-63280706D01*
X108419025Y-63460000D01*
X108401367Y-63639294D01*
X108349069Y-63811695D01*
X108264142Y-63970583D01*
X108149849Y-64109849D01*
X108010583Y-64224142D01*
X107851695Y-64309069D01*
X107679294Y-64361367D01*
X107544931Y-64374600D01*
X107455069Y-64374600D01*
X107320706Y-64361367D01*
X107148305Y-64309069D01*
X106989417Y-64224142D01*
X106850151Y-64109849D01*
X106735858Y-63970583D01*
X106650931Y-63811695D01*
X106598633Y-63639294D01*
X106580975Y-63460000D01*
X106598633Y-63280706D01*
X106650931Y-63108305D01*
X106735858Y-62949417D01*
X106850151Y-62810151D01*
X106989417Y-62695858D01*
X107148305Y-62610931D01*
X107320706Y-62558633D01*
X107455069Y-62545400D01*
X107544931Y-62545400D01*
X107679294Y-62558633D01*
X107679294Y-62558633D01*
G37*
G36*
X91639294Y-62558633D02*
G01*
X91811695Y-62610931D01*
X91970583Y-62695858D01*
X92109849Y-62810151D01*
X92224142Y-62949417D01*
X92309069Y-63108305D01*
X92361367Y-63280706D01*
X92379025Y-63460000D01*
X92361367Y-63639294D01*
X92309069Y-63811695D01*
X92224142Y-63970583D01*
X92109849Y-64109849D01*
X91970583Y-64224142D01*
X91811695Y-64309069D01*
X91639294Y-64361367D01*
X91504931Y-64374600D01*
X91415069Y-64374600D01*
X91280706Y-64361367D01*
X91108305Y-64309069D01*
X90949417Y-64224142D01*
X90810151Y-64109849D01*
X90695858Y-63970583D01*
X90610931Y-63811695D01*
X90558633Y-63639294D01*
X90540975Y-63460000D01*
X90558633Y-63280706D01*
X90610931Y-63108305D01*
X90695858Y-62949417D01*
X90810151Y-62810151D01*
X90949417Y-62695858D01*
X91108305Y-62610931D01*
X91280706Y-62558633D01*
X91415069Y-62545400D01*
X91504931Y-62545400D01*
X91639294Y-62558633D01*
X91639294Y-62558633D01*
G37*
G36*
X94179294Y-62558633D02*
G01*
X94351695Y-62610931D01*
X94510583Y-62695858D01*
X94649849Y-62810151D01*
X94764142Y-62949417D01*
X94849069Y-63108305D01*
X94901367Y-63280706D01*
X94919025Y-63460000D01*
X94901367Y-63639294D01*
X94849069Y-63811695D01*
X94764142Y-63970583D01*
X94649849Y-64109849D01*
X94510583Y-64224142D01*
X94351695Y-64309069D01*
X94179294Y-64361367D01*
X94044931Y-64374600D01*
X93955069Y-64374600D01*
X93820706Y-64361367D01*
X93648305Y-64309069D01*
X93489417Y-64224142D01*
X93350151Y-64109849D01*
X93235858Y-63970583D01*
X93150931Y-63811695D01*
X93098633Y-63639294D01*
X93080975Y-63460000D01*
X93098633Y-63280706D01*
X93150931Y-63108305D01*
X93235858Y-62949417D01*
X93350151Y-62810151D01*
X93489417Y-62695858D01*
X93648305Y-62610931D01*
X93820706Y-62558633D01*
X93955069Y-62545400D01*
X94044931Y-62545400D01*
X94179294Y-62558633D01*
X94179294Y-62558633D01*
G37*
G36*
X105139294Y-62558633D02*
G01*
X105311695Y-62610931D01*
X105470583Y-62695858D01*
X105609849Y-62810151D01*
X105724142Y-62949417D01*
X105809069Y-63108305D01*
X105861367Y-63280706D01*
X105879025Y-63460000D01*
X105861367Y-63639294D01*
X105809069Y-63811695D01*
X105724142Y-63970583D01*
X105609849Y-64109849D01*
X105470583Y-64224142D01*
X105311695Y-64309069D01*
X105139294Y-64361367D01*
X105004931Y-64374600D01*
X104915069Y-64374600D01*
X104780706Y-64361367D01*
X104608305Y-64309069D01*
X104449417Y-64224142D01*
X104310151Y-64109849D01*
X104195858Y-63970583D01*
X104110931Y-63811695D01*
X104058633Y-63639294D01*
X104040975Y-63460000D01*
X104058633Y-63280706D01*
X104110931Y-63108305D01*
X104195858Y-62949417D01*
X104310151Y-62810151D01*
X104449417Y-62695858D01*
X104608305Y-62610931D01*
X104780706Y-62558633D01*
X104915069Y-62545400D01*
X105004931Y-62545400D01*
X105139294Y-62558633D01*
X105139294Y-62558633D01*
G37*
G36*
X85801000Y-62801000D02*
G01*
X84199000Y-62801000D01*
X84199000Y-61199000D01*
X85801000Y-61199000D01*
X85801000Y-62801000D01*
X85801000Y-62801000D01*
G37*
G36*
X107679294Y-60018633D02*
G01*
X107851695Y-60070931D01*
X108010583Y-60155858D01*
X108149849Y-60270151D01*
X108264142Y-60409417D01*
X108349069Y-60568305D01*
X108401367Y-60740706D01*
X108419025Y-60920000D01*
X108401367Y-61099294D01*
X108349069Y-61271695D01*
X108264142Y-61430583D01*
X108149849Y-61569849D01*
X108010583Y-61684142D01*
X107851695Y-61769069D01*
X107679294Y-61821367D01*
X107544931Y-61834600D01*
X107455069Y-61834600D01*
X107320706Y-61821367D01*
X107148305Y-61769069D01*
X106989417Y-61684142D01*
X106850151Y-61569849D01*
X106735858Y-61430583D01*
X106650931Y-61271695D01*
X106598633Y-61099294D01*
X106580975Y-60920000D01*
X106598633Y-60740706D01*
X106650931Y-60568305D01*
X106735858Y-60409417D01*
X106850151Y-60270151D01*
X106989417Y-60155858D01*
X107148305Y-60070931D01*
X107320706Y-60018633D01*
X107455069Y-60005400D01*
X107544931Y-60005400D01*
X107679294Y-60018633D01*
X107679294Y-60018633D01*
G37*
G36*
X91639294Y-60018633D02*
G01*
X91811695Y-60070931D01*
X91970583Y-60155858D01*
X92109849Y-60270151D01*
X92224142Y-60409417D01*
X92309069Y-60568305D01*
X92361367Y-60740706D01*
X92379025Y-60920000D01*
X92361367Y-61099294D01*
X92309069Y-61271695D01*
X92224142Y-61430583D01*
X92109849Y-61569849D01*
X91970583Y-61684142D01*
X91811695Y-61769069D01*
X91639294Y-61821367D01*
X91504931Y-61834600D01*
X91415069Y-61834600D01*
X91280706Y-61821367D01*
X91108305Y-61769069D01*
X90949417Y-61684142D01*
X90810151Y-61569849D01*
X90695858Y-61430583D01*
X90610931Y-61271695D01*
X90558633Y-61099294D01*
X90540975Y-60920000D01*
X90558633Y-60740706D01*
X90610931Y-60568305D01*
X90695858Y-60409417D01*
X90810151Y-60270151D01*
X90949417Y-60155858D01*
X91108305Y-60070931D01*
X91280706Y-60018633D01*
X91415069Y-60005400D01*
X91504931Y-60005400D01*
X91639294Y-60018633D01*
X91639294Y-60018633D01*
G37*
G36*
X94179294Y-60018633D02*
G01*
X94351695Y-60070931D01*
X94510583Y-60155858D01*
X94649849Y-60270151D01*
X94764142Y-60409417D01*
X94849069Y-60568305D01*
X94901367Y-60740706D01*
X94919025Y-60920000D01*
X94901367Y-61099294D01*
X94849069Y-61271695D01*
X94764142Y-61430583D01*
X94649849Y-61569849D01*
X94510583Y-61684142D01*
X94351695Y-61769069D01*
X94179294Y-61821367D01*
X94044931Y-61834600D01*
X93955069Y-61834600D01*
X93820706Y-61821367D01*
X93648305Y-61769069D01*
X93489417Y-61684142D01*
X93350151Y-61569849D01*
X93235858Y-61430583D01*
X93150931Y-61271695D01*
X93098633Y-61099294D01*
X93080975Y-60920000D01*
X93098633Y-60740706D01*
X93150931Y-60568305D01*
X93235858Y-60409417D01*
X93350151Y-60270151D01*
X93489417Y-60155858D01*
X93648305Y-60070931D01*
X93820706Y-60018633D01*
X93955069Y-60005400D01*
X94044931Y-60005400D01*
X94179294Y-60018633D01*
X94179294Y-60018633D01*
G37*
G36*
X105139294Y-60018633D02*
G01*
X105311695Y-60070931D01*
X105470583Y-60155858D01*
X105609849Y-60270151D01*
X105724142Y-60409417D01*
X105809069Y-60568305D01*
X105861367Y-60740706D01*
X105879025Y-60920000D01*
X105861367Y-61099294D01*
X105809069Y-61271695D01*
X105724142Y-61430583D01*
X105609849Y-61569849D01*
X105470583Y-61684142D01*
X105311695Y-61769069D01*
X105139294Y-61821367D01*
X105004931Y-61834600D01*
X104915069Y-61834600D01*
X104780706Y-61821367D01*
X104608305Y-61769069D01*
X104449417Y-61684142D01*
X104310151Y-61569849D01*
X104195858Y-61430583D01*
X104110931Y-61271695D01*
X104058633Y-61099294D01*
X104040975Y-60920000D01*
X104058633Y-60740706D01*
X104110931Y-60568305D01*
X104195858Y-60409417D01*
X104310151Y-60270151D01*
X104449417Y-60155858D01*
X104608305Y-60070931D01*
X104780706Y-60018633D01*
X104915069Y-60005400D01*
X105004931Y-60005400D01*
X105139294Y-60018633D01*
X105139294Y-60018633D01*
G37*
G36*
X140744098Y-56547033D02*
G01*
X141208350Y-56739332D01*
X141208352Y-56739333D01*
X141626168Y-57018509D01*
X141981491Y-57373832D01*
X142219576Y-57730151D01*
X142260668Y-57791650D01*
X142452967Y-58255902D01*
X142551000Y-58748747D01*
X142551000Y-59251253D01*
X142452967Y-59744098D01*
X142317588Y-60070932D01*
X142260667Y-60208352D01*
X141981491Y-60626168D01*
X141626168Y-60981491D01*
X141208352Y-61260667D01*
X141208351Y-61260668D01*
X141208350Y-61260668D01*
X140744098Y-61452967D01*
X140251253Y-61551000D01*
X139748747Y-61551000D01*
X139255902Y-61452967D01*
X138791650Y-61260668D01*
X138791649Y-61260668D01*
X138791648Y-61260667D01*
X138373832Y-60981491D01*
X138018509Y-60626168D01*
X137739333Y-60208352D01*
X137682412Y-60070932D01*
X137547033Y-59744098D01*
X137449000Y-59251253D01*
X137449000Y-58748747D01*
X137547033Y-58255902D01*
X137739332Y-57791650D01*
X137780424Y-57730151D01*
X138018509Y-57373832D01*
X138373832Y-57018509D01*
X138791648Y-56739333D01*
X138791650Y-56739332D01*
X139255902Y-56547033D01*
X139748747Y-56449000D01*
X140251253Y-56449000D01*
X140744098Y-56547033D01*
X140744098Y-56547033D01*
G37*
G36*
X148238205Y-57802461D02*
G01*
X148356153Y-57825922D01*
X148448194Y-57864047D01*
X148578359Y-57917963D01*
X148778342Y-58051587D01*
X148948413Y-58221658D01*
X149082037Y-58421641D01*
X149134791Y-58549000D01*
X149174078Y-58643847D01*
X149176526Y-58656153D01*
X149221000Y-58879741D01*
X149221000Y-59120259D01*
X149216249Y-59144142D01*
X149186322Y-59294600D01*
X149174078Y-59356152D01*
X149082037Y-59578359D01*
X148948413Y-59778342D01*
X148778342Y-59948413D01*
X148578359Y-60082037D01*
X148448194Y-60135953D01*
X148356153Y-60174078D01*
X148254625Y-60194273D01*
X148120259Y-60221000D01*
X147879741Y-60221000D01*
X147745375Y-60194273D01*
X147643847Y-60174078D01*
X147551806Y-60135953D01*
X147421641Y-60082037D01*
X147221658Y-59948413D01*
X147051587Y-59778342D01*
X146917963Y-59578359D01*
X146825922Y-59356152D01*
X146813679Y-59294600D01*
X146783751Y-59144142D01*
X146779000Y-59120259D01*
X146779000Y-58879741D01*
X146823474Y-58656153D01*
X146825922Y-58643847D01*
X146865209Y-58549000D01*
X146917963Y-58421641D01*
X147051587Y-58221658D01*
X147221658Y-58051587D01*
X147421641Y-57917963D01*
X147551806Y-57864047D01*
X147643847Y-57825922D01*
X147761795Y-57802461D01*
X147879741Y-57779000D01*
X148120259Y-57779000D01*
X148238205Y-57802461D01*
X148238205Y-57802461D01*
G37*
G36*
X53556153Y-57125922D02*
G01*
X53648194Y-57164047D01*
X53778359Y-57217963D01*
X53978342Y-57351587D01*
X54148413Y-57521658D01*
X54282037Y-57721641D01*
X54335953Y-57851806D01*
X54374078Y-57943847D01*
X54421000Y-58179742D01*
X54421000Y-58420258D01*
X54376526Y-58643848D01*
X54374078Y-58656152D01*
X54282037Y-58878359D01*
X54148413Y-59078342D01*
X53978342Y-59248413D01*
X53778359Y-59382037D01*
X53648194Y-59435953D01*
X53556153Y-59474078D01*
X53438205Y-59497539D01*
X53320259Y-59521000D01*
X53079741Y-59521000D01*
X52961795Y-59497539D01*
X52843847Y-59474078D01*
X52751806Y-59435953D01*
X52621641Y-59382037D01*
X52421658Y-59248413D01*
X52251587Y-59078342D01*
X52117963Y-58878359D01*
X52025922Y-58656152D01*
X52023475Y-58643848D01*
X51979000Y-58420258D01*
X51979000Y-58179742D01*
X52025922Y-57943847D01*
X52064047Y-57851806D01*
X52117963Y-57721641D01*
X52251587Y-57521658D01*
X52421658Y-57351587D01*
X52621641Y-57217963D01*
X52751806Y-57164047D01*
X52843847Y-57125922D01*
X53079741Y-57079000D01*
X53320259Y-57079000D01*
X53556153Y-57125922D01*
X53556153Y-57125922D01*
G37*
G36*
X91639294Y-57478633D02*
G01*
X91811695Y-57530931D01*
X91970583Y-57615858D01*
X92109849Y-57730151D01*
X92224142Y-57869417D01*
X92309069Y-58028305D01*
X92361367Y-58200706D01*
X92379025Y-58380000D01*
X92361367Y-58559294D01*
X92309069Y-58731695D01*
X92224142Y-58890583D01*
X92109849Y-59029849D01*
X91970583Y-59144142D01*
X91811695Y-59229069D01*
X91639294Y-59281367D01*
X91504931Y-59294600D01*
X91415069Y-59294600D01*
X91280706Y-59281367D01*
X91108305Y-59229069D01*
X90949417Y-59144142D01*
X90810151Y-59029849D01*
X90695858Y-58890583D01*
X90610931Y-58731695D01*
X90558633Y-58559294D01*
X90540975Y-58380000D01*
X90558633Y-58200706D01*
X90610931Y-58028305D01*
X90695858Y-57869417D01*
X90810151Y-57730151D01*
X90949417Y-57615858D01*
X91108305Y-57530931D01*
X91280706Y-57478633D01*
X91415069Y-57465400D01*
X91504931Y-57465400D01*
X91639294Y-57478633D01*
X91639294Y-57478633D01*
G37*
G36*
X107679294Y-57478633D02*
G01*
X107851695Y-57530931D01*
X108010583Y-57615858D01*
X108149849Y-57730151D01*
X108264142Y-57869417D01*
X108349069Y-58028305D01*
X108401367Y-58200706D01*
X108419025Y-58380000D01*
X108401367Y-58559294D01*
X108349069Y-58731695D01*
X108264142Y-58890583D01*
X108149849Y-59029849D01*
X108010583Y-59144142D01*
X107851695Y-59229069D01*
X107679294Y-59281367D01*
X107544931Y-59294600D01*
X107455069Y-59294600D01*
X107320706Y-59281367D01*
X107148305Y-59229069D01*
X106989417Y-59144142D01*
X106850151Y-59029849D01*
X106735858Y-58890583D01*
X106650931Y-58731695D01*
X106598633Y-58559294D01*
X106580975Y-58380000D01*
X106598633Y-58200706D01*
X106650931Y-58028305D01*
X106735858Y-57869417D01*
X106850151Y-57730151D01*
X106989417Y-57615858D01*
X107148305Y-57530931D01*
X107320706Y-57478633D01*
X107455069Y-57465400D01*
X107544931Y-57465400D01*
X107679294Y-57478633D01*
X107679294Y-57478633D01*
G37*
G36*
X94179294Y-57478633D02*
G01*
X94351695Y-57530931D01*
X94510583Y-57615858D01*
X94649849Y-57730151D01*
X94764142Y-57869417D01*
X94849069Y-58028305D01*
X94901367Y-58200706D01*
X94919025Y-58380000D01*
X94901367Y-58559294D01*
X94849069Y-58731695D01*
X94764142Y-58890583D01*
X94649849Y-59029849D01*
X94510583Y-59144142D01*
X94351695Y-59229069D01*
X94179294Y-59281367D01*
X94044931Y-59294600D01*
X93955069Y-59294600D01*
X93820706Y-59281367D01*
X93648305Y-59229069D01*
X93489417Y-59144142D01*
X93350151Y-59029849D01*
X93235858Y-58890583D01*
X93150931Y-58731695D01*
X93098633Y-58559294D01*
X93080975Y-58380000D01*
X93098633Y-58200706D01*
X93150931Y-58028305D01*
X93235858Y-57869417D01*
X93350151Y-57730151D01*
X93489417Y-57615858D01*
X93648305Y-57530931D01*
X93820706Y-57478633D01*
X93955069Y-57465400D01*
X94044931Y-57465400D01*
X94179294Y-57478633D01*
X94179294Y-57478633D01*
G37*
G36*
X105139294Y-57478633D02*
G01*
X105311695Y-57530931D01*
X105470583Y-57615858D01*
X105609849Y-57730151D01*
X105724142Y-57869417D01*
X105809069Y-58028305D01*
X105861367Y-58200706D01*
X105879025Y-58380000D01*
X105861367Y-58559294D01*
X105809069Y-58731695D01*
X105724142Y-58890583D01*
X105609849Y-59029849D01*
X105470583Y-59144142D01*
X105311695Y-59229069D01*
X105139294Y-59281367D01*
X105004931Y-59294600D01*
X104915069Y-59294600D01*
X104780706Y-59281367D01*
X104608305Y-59229069D01*
X104449417Y-59144142D01*
X104310151Y-59029849D01*
X104195858Y-58890583D01*
X104110931Y-58731695D01*
X104058633Y-58559294D01*
X104040975Y-58380000D01*
X104058633Y-58200706D01*
X104110931Y-58028305D01*
X104195858Y-57869417D01*
X104310151Y-57730151D01*
X104449417Y-57615858D01*
X104608305Y-57530931D01*
X104780706Y-57478633D01*
X104915069Y-57465400D01*
X105004931Y-57465400D01*
X105139294Y-57478633D01*
X105139294Y-57478633D01*
G37*
G36*
X91639294Y-54938633D02*
G01*
X91811695Y-54990931D01*
X91970583Y-55075858D01*
X92109849Y-55190151D01*
X92224142Y-55329417D01*
X92309069Y-55488305D01*
X92361367Y-55660706D01*
X92379025Y-55840000D01*
X92361367Y-56019294D01*
X92309069Y-56191695D01*
X92224142Y-56350583D01*
X92109849Y-56489849D01*
X91970583Y-56604142D01*
X91811695Y-56689069D01*
X91639294Y-56741367D01*
X91504931Y-56754600D01*
X91415069Y-56754600D01*
X91280706Y-56741367D01*
X91108305Y-56689069D01*
X90949417Y-56604142D01*
X90810151Y-56489849D01*
X90695858Y-56350583D01*
X90610931Y-56191695D01*
X90558633Y-56019294D01*
X90540975Y-55840000D01*
X90558633Y-55660706D01*
X90610931Y-55488305D01*
X90695858Y-55329417D01*
X90810151Y-55190151D01*
X90949417Y-55075858D01*
X91108305Y-54990931D01*
X91280706Y-54938633D01*
X91415069Y-54925400D01*
X91504931Y-54925400D01*
X91639294Y-54938633D01*
X91639294Y-54938633D01*
G37*
G36*
X94179294Y-54938633D02*
G01*
X94351695Y-54990931D01*
X94510583Y-55075858D01*
X94649849Y-55190151D01*
X94764142Y-55329417D01*
X94849069Y-55488305D01*
X94901367Y-55660706D01*
X94919025Y-55840000D01*
X94901367Y-56019294D01*
X94849069Y-56191695D01*
X94764142Y-56350583D01*
X94649849Y-56489849D01*
X94510583Y-56604142D01*
X94351695Y-56689069D01*
X94179294Y-56741367D01*
X94044931Y-56754600D01*
X93955069Y-56754600D01*
X93820706Y-56741367D01*
X93648305Y-56689069D01*
X93489417Y-56604142D01*
X93350151Y-56489849D01*
X93235858Y-56350583D01*
X93150931Y-56191695D01*
X93098633Y-56019294D01*
X93080975Y-55840000D01*
X93098633Y-55660706D01*
X93150931Y-55488305D01*
X93235858Y-55329417D01*
X93350151Y-55190151D01*
X93489417Y-55075858D01*
X93648305Y-54990931D01*
X93820706Y-54938633D01*
X93955069Y-54925400D01*
X94044931Y-54925400D01*
X94179294Y-54938633D01*
X94179294Y-54938633D01*
G37*
G36*
X105139294Y-54938633D02*
G01*
X105311695Y-54990931D01*
X105470583Y-55075858D01*
X105609849Y-55190151D01*
X105724142Y-55329417D01*
X105809069Y-55488305D01*
X105861367Y-55660706D01*
X105879025Y-55840000D01*
X105861367Y-56019294D01*
X105809069Y-56191695D01*
X105724142Y-56350583D01*
X105609849Y-56489849D01*
X105470583Y-56604142D01*
X105311695Y-56689069D01*
X105139294Y-56741367D01*
X105004931Y-56754600D01*
X104915069Y-56754600D01*
X104780706Y-56741367D01*
X104608305Y-56689069D01*
X104449417Y-56604142D01*
X104310151Y-56489849D01*
X104195858Y-56350583D01*
X104110931Y-56191695D01*
X104058633Y-56019294D01*
X104040975Y-55840000D01*
X104058633Y-55660706D01*
X104110931Y-55488305D01*
X104195858Y-55329417D01*
X104310151Y-55190151D01*
X104449417Y-55075858D01*
X104608305Y-54990931D01*
X104780706Y-54938633D01*
X104915069Y-54925400D01*
X105004931Y-54925400D01*
X105139294Y-54938633D01*
X105139294Y-54938633D01*
G37*
G36*
X107679294Y-54938633D02*
G01*
X107851695Y-54990931D01*
X108010583Y-55075858D01*
X108149849Y-55190151D01*
X108264142Y-55329417D01*
X108349069Y-55488305D01*
X108401367Y-55660706D01*
X108419025Y-55840000D01*
X108401367Y-56019294D01*
X108349069Y-56191695D01*
X108264142Y-56350583D01*
X108149849Y-56489849D01*
X108010583Y-56604142D01*
X107851695Y-56689069D01*
X107679294Y-56741367D01*
X107544931Y-56754600D01*
X107455069Y-56754600D01*
X107320706Y-56741367D01*
X107148305Y-56689069D01*
X106989417Y-56604142D01*
X106850151Y-56489849D01*
X106735858Y-56350583D01*
X106650931Y-56191695D01*
X106598633Y-56019294D01*
X106580975Y-55840000D01*
X106598633Y-55660706D01*
X106650931Y-55488305D01*
X106735858Y-55329417D01*
X106850151Y-55190151D01*
X106989417Y-55075858D01*
X107148305Y-54990931D01*
X107320706Y-54938633D01*
X107455069Y-54925400D01*
X107544931Y-54925400D01*
X107679294Y-54938633D01*
X107679294Y-54938633D01*
G37*
G36*
X148238205Y-52802461D02*
G01*
X148356153Y-52825922D01*
X148448194Y-52864047D01*
X148578359Y-52917963D01*
X148778342Y-53051587D01*
X148948413Y-53221658D01*
X149082037Y-53421641D01*
X149110966Y-53491483D01*
X149174078Y-53643847D01*
X149176526Y-53656153D01*
X149221000Y-53879741D01*
X149221000Y-54120259D01*
X149174078Y-54356152D01*
X149082037Y-54578359D01*
X148948413Y-54778342D01*
X148778342Y-54948413D01*
X148578359Y-55082037D01*
X148448194Y-55135953D01*
X148356153Y-55174078D01*
X148275348Y-55190151D01*
X148120259Y-55221000D01*
X147879741Y-55221000D01*
X147724652Y-55190151D01*
X147643847Y-55174078D01*
X147551806Y-55135953D01*
X147421641Y-55082037D01*
X147221658Y-54948413D01*
X147051587Y-54778342D01*
X146917963Y-54578359D01*
X146825922Y-54356152D01*
X146779000Y-54120259D01*
X146779000Y-53879741D01*
X146823474Y-53656153D01*
X146825922Y-53643847D01*
X146889034Y-53491483D01*
X146917963Y-53421641D01*
X147051587Y-53221658D01*
X147221658Y-53051587D01*
X147421641Y-52917963D01*
X147551806Y-52864047D01*
X147643847Y-52825922D01*
X147879741Y-52779000D01*
X148120259Y-52779000D01*
X148238205Y-52802461D01*
X148238205Y-52802461D01*
G37*
G36*
X53556153Y-52125922D02*
G01*
X53648194Y-52164047D01*
X53778359Y-52217963D01*
X53978342Y-52351587D01*
X54148413Y-52521658D01*
X54282037Y-52721641D01*
X54335953Y-52851806D01*
X54374078Y-52943847D01*
X54421000Y-53179742D01*
X54421000Y-53420258D01*
X54376526Y-53643848D01*
X54374078Y-53656152D01*
X54282037Y-53878359D01*
X54148413Y-54078342D01*
X53978342Y-54248413D01*
X53778359Y-54382037D01*
X53648194Y-54435953D01*
X53556153Y-54474078D01*
X53320259Y-54521000D01*
X53079741Y-54521000D01*
X52843847Y-54474078D01*
X52751806Y-54435953D01*
X52621641Y-54382037D01*
X52421658Y-54248413D01*
X52251587Y-54078342D01*
X52117963Y-53878359D01*
X52025922Y-53656152D01*
X52023475Y-53643848D01*
X51979000Y-53420258D01*
X51979000Y-53179742D01*
X52025922Y-52943847D01*
X52064047Y-52851806D01*
X52117963Y-52721641D01*
X52251587Y-52521658D01*
X52421658Y-52351587D01*
X52621641Y-52217963D01*
X52751806Y-52164047D01*
X52843847Y-52125922D01*
X52961795Y-52102461D01*
X53079741Y-52079000D01*
X53320259Y-52079000D01*
X53556153Y-52125922D01*
X53556153Y-52125922D01*
G37*
G36*
X82585589Y-52238876D02*
G01*
X82684893Y-52258629D01*
X82825206Y-52316748D01*
X82951484Y-52401125D01*
X83058875Y-52508516D01*
X83143252Y-52634794D01*
X83201371Y-52775107D01*
X83231000Y-52924063D01*
X83231000Y-53075937D01*
X83201371Y-53224893D01*
X83143252Y-53365206D01*
X83058875Y-53491484D01*
X82951484Y-53598875D01*
X82825206Y-53683252D01*
X82684893Y-53741371D01*
X82585589Y-53761124D01*
X82535938Y-53771000D01*
X82384062Y-53771000D01*
X82334411Y-53761124D01*
X82235107Y-53741371D01*
X82094794Y-53683252D01*
X81968516Y-53598875D01*
X81861125Y-53491484D01*
X81776748Y-53365206D01*
X81718629Y-53224893D01*
X81689000Y-53075937D01*
X81689000Y-52924063D01*
X81718629Y-52775107D01*
X81776748Y-52634794D01*
X81861125Y-52508516D01*
X81968516Y-52401125D01*
X82094794Y-52316748D01*
X82235107Y-52258629D01*
X82334411Y-52238876D01*
X82384062Y-52229000D01*
X82535938Y-52229000D01*
X82585589Y-52238876D01*
X82585589Y-52238876D01*
G37*
G36*
X85125589Y-52238876D02*
G01*
X85224893Y-52258629D01*
X85365206Y-52316748D01*
X85491484Y-52401125D01*
X85598875Y-52508516D01*
X85683252Y-52634794D01*
X85741371Y-52775107D01*
X85771000Y-52924063D01*
X85771000Y-53075937D01*
X85741371Y-53224893D01*
X85683252Y-53365206D01*
X85598875Y-53491484D01*
X85491484Y-53598875D01*
X85365206Y-53683252D01*
X85224893Y-53741371D01*
X85125589Y-53761124D01*
X85075938Y-53771000D01*
X84924062Y-53771000D01*
X84874411Y-53761124D01*
X84775107Y-53741371D01*
X84634794Y-53683252D01*
X84508516Y-53598875D01*
X84401125Y-53491484D01*
X84316748Y-53365206D01*
X84258629Y-53224893D01*
X84229000Y-53075937D01*
X84229000Y-52924063D01*
X84258629Y-52775107D01*
X84316748Y-52634794D01*
X84401125Y-52508516D01*
X84508516Y-52401125D01*
X84634794Y-52316748D01*
X84775107Y-52258629D01*
X84874411Y-52238876D01*
X84924062Y-52229000D01*
X85075938Y-52229000D01*
X85125589Y-52238876D01*
X85125589Y-52238876D01*
G37*
G36*
X80045589Y-52238876D02*
G01*
X80144893Y-52258629D01*
X80285206Y-52316748D01*
X80411484Y-52401125D01*
X80518875Y-52508516D01*
X80603252Y-52634794D01*
X80661371Y-52775107D01*
X80691000Y-52924063D01*
X80691000Y-53075937D01*
X80661371Y-53224893D01*
X80603252Y-53365206D01*
X80518875Y-53491484D01*
X80411484Y-53598875D01*
X80285206Y-53683252D01*
X80144893Y-53741371D01*
X80045589Y-53761124D01*
X79995938Y-53771000D01*
X79844062Y-53771000D01*
X79794411Y-53761124D01*
X79695107Y-53741371D01*
X79554794Y-53683252D01*
X79428516Y-53598875D01*
X79321125Y-53491484D01*
X79236748Y-53365206D01*
X79178629Y-53224893D01*
X79149000Y-53075937D01*
X79149000Y-52924063D01*
X79178629Y-52775107D01*
X79236748Y-52634794D01*
X79321125Y-52508516D01*
X79428516Y-52401125D01*
X79554794Y-52316748D01*
X79695107Y-52258629D01*
X79794411Y-52238876D01*
X79844062Y-52229000D01*
X79995938Y-52229000D01*
X80045589Y-52238876D01*
X80045589Y-52238876D01*
G37*
G36*
X62051000Y-53051000D02*
G01*
X59949000Y-53051000D01*
X59949000Y-50949000D01*
X62051000Y-50949000D01*
X62051000Y-53051000D01*
X62051000Y-53051000D01*
G37*
M02*
